<?xml version="1.0" encoding="UTF-8" standalone="no"?>
<svg
   version="1.1"
   id="レイヤー_1"
   x="0px"
   y="0px"
   width="76px"
   height="76px"
   viewBox="0 0 76 76"
   enable-background="new 0 0 76 76"
   xml:space="preserve"
   sodipodi:docname="7.svg"
   inkscape:version="1.1.1 (3bf5ae0d25, 2021-09-20, custom)"
   xmlns:inkscape="http://www.inkscape.org/namespaces/inkscape"
   xmlns:sodipodi="http://sodipodi.sourceforge.net/DTD/sodipodi-0.dtd"
   xmlns="http://www.w3.org/2000/svg"
   xmlns:svg="http://www.w3.org/2000/svg"
   xmlns:rdf="http://www.w3.org/1999/02/22-rdf-syntax-ns#"
   xmlns:cc="http://creativecommons.org/ns#"
   xmlns:dc="http://purl.org/dc/elements/1.1/"><metadata
   id="metadata2662"><rdf:RDF><cc:Work
       rdf:about=""><dc:format>image/svg+xml</dc:format><dc:type
         rdf:resource="http://purl.org/dc/dcmitype/StillImage" /></cc:Work></rdf:RDF></metadata><defs
   id="defs2660" /><sodipodi:namedview
   pagecolor="#ffffff"
   bordercolor="#666666"
   borderopacity="1"
   objecttolerance="10"
   gridtolerance="10"
   guidetolerance="10"
   inkscape:pageopacity="0"
   inkscape:pageshadow="2"
   inkscape:window-width="1920"
   inkscape:window-height="995"
   id="namedview2658"
   showgrid="false"
   inkscape:zoom="7.8049168"
   inkscape:cx="90.519863"
   inkscape:cy="39.782615"
   inkscape:window-x="0"
   inkscape:window-y="55"
   inkscape:window-maximized="1"
   inkscape:current-layer="レイヤー_1"
   inkscape:pagecheckerboard="0" />
<g
   id="rect1313_66_">
	<polygon
   fill="#B9B9B9"
   points="75.001,75.001 1,75.001 1,1 75.001,1 75.001,75.001  "
   id="polygon2652" />
	<path
   fill="#757575"
   d="M75.991,0C75.996,0,76,0.004,76,0.009V75.99c0,0.006-0.004,0.01-0.009,0.01H0.009   C0.004,76,0,75.996,0,75.99V0.009C0,0.004,0.004,0,0.009,0H75.991 M74,2H2v72h72V2L74,2z"
   id="path2654" />
</g>
<path
   style="fill:#666666;stroke:#ff0000;stroke-width:0;stroke-linecap:round;stroke-linejoin:round;paint-order:markers fill stroke;stroke-miterlimit:4;stroke-dasharray:none"
   d="M 0.06950256,38.0029 V 0.02465109 H 38.001605 75.933708 V 38.0029 75.981149 H 38.001605 0.06950256 Z m 74.01836044,0 V 1.9627877 H 38.001605 1.915347 V 38.0029 74.043012 h 36.086258 36.086258 z"
   id="path8366" /><path
   style="fill:#1a1a1a;stroke:#ff0000;stroke-width:0;stroke-linecap:round;stroke-linejoin:round;stroke-miterlimit:4;stroke-dasharray:none;paint-order:markers fill stroke"
   d="M 2.0942343,38.014116 V 2.057038 H 38.001989 73.909743 V 38.014116 73.971195 H 38.001989 2.0942343 Z"
   id="path8368" /><path
   style="fill:#840084;fill-opacity:1;stroke:#fffffe;stroke-width:0.111674"
   d="M 35.579004,72.702825 C 33.423688,72.12664 31.812489,71.19605 30.22168,69.608561 c -2.512462,-2.50722 -3.628225,-5.367634 -3.434958,-8.806 0.163888,-2.915685 1.231806,-5.277401 3.343823,-7.394936 1.608436,-1.612635 3.127341,-2.500977 5.297137,-3.098066 0.824794,-0.22697 1.187922,-0.258773 2.890446,-0.25316 1.781112,0.0058 2.032529,0.03214 2.948531,0.308071 3.480251,1.048348 6.136748,3.426143 7.577107,6.782167 0.709054,1.652089 0.850902,2.476471 0.801062,4.655542 -0.04134,1.807827 -0.06497,1.983466 -0.397625,2.9573 -1.366777,4.001135 -4.284296,6.811296 -8.203075,7.901221 -0.573292,0.15945 -1.263403,0.229385 -2.614734,0.264979 -1.677464,0.04418 -1.923422,0.02494 -2.85039,-0.222854 z"
   id="path3179-8" /><path
   style="fill:#840084;fill-opacity:1;stroke:#fffffe;stroke-width:0.111674"
   d="M 35.579004,49.202825 C 33.423688,48.62664 31.812489,47.69605 30.22168,46.108561 c -2.512462,-2.50722 -3.628225,-5.367634 -3.434958,-8.806 0.163888,-2.915685 1.231806,-5.277401 3.343823,-7.394936 1.608436,-1.612635 3.127341,-2.500977 5.297137,-3.098066 0.824794,-0.22697 1.187922,-0.258773 2.890446,-0.25316 1.781112,0.0058 2.032529,0.03214 2.948531,0.308071 3.480251,1.048348 6.136748,3.426143 7.577107,6.782167 0.709054,1.652089 0.850902,2.476471 0.801062,4.655542 -0.04134,1.807827 -0.06497,1.983466 -0.397625,2.9573 -1.366777,4.001135 -4.284296,6.811296 -8.203075,7.901221 -0.573292,0.15945 -1.263403,0.229385 -2.614734,0.264979 -1.677464,0.04418 -1.923422,0.02494 -2.85039,-0.222854 z"
   id="path3179-8-9" /><path
   style="fill:#840084;fill-opacity:1;stroke:#fffffe;stroke-width:0.111674"
   d="M 35.579004,25.702825 C 33.423688,25.12664 31.812489,24.19605 30.22168,22.608561 c -2.512462,-2.50722 -3.628225,-5.367634 -3.434958,-8.806 0.163888,-2.915685 1.231806,-5.2774011 3.343823,-7.3949361 1.608436,-1.612635 3.127341,-2.500977 5.297137,-3.098066 0.824794,-0.22697 1.187922,-0.258773 2.890446,-0.25316 1.781112,0.0058 2.032529,0.03214 2.948531,0.308071 3.480251,1.048348 6.136748,3.426143 7.577107,6.7821671 0.709054,1.652089 0.850902,2.476471 0.801062,4.655542 -0.04134,1.807827 -0.06497,1.983466 -0.397625,2.9573 -1.366777,4.001135 -4.284296,6.811296 -8.203075,7.901221 -0.573292,0.15945 -1.263403,0.229385 -2.614734,0.264979 -1.677464,0.04418 -1.923422,0.02494 -2.85039,-0.222854 z"
   id="path3179-8-2" /><path
   style="fill:#840084;fill-opacity:1;stroke:#fffffe;stroke-width:0.111674"
   d="M 12.079005,37.452824 C 9.9236887,36.876639 8.3124897,35.946049 6.7216807,34.35856 c -2.512462,-2.50722 -3.628225,-5.367634 -3.434958,-8.806 0.163888,-2.915685 1.231806,-5.277401 3.343823,-7.394936 1.608436,-1.612635 3.127341,-2.500976 5.2971373,-3.098065 0.824793,-0.22697 1.187921,-0.258773 2.890445,-0.25316 1.781112,0.0058 2.032529,0.03214 2.948531,0.308071 3.480251,1.048347 6.136748,3.426142 7.577107,6.782166 0.709054,1.652089 0.850902,2.476471 0.801062,4.655542 -0.04134,1.807827 -0.06497,1.983466 -0.397625,2.9573 -1.366777,4.001135 -4.284296,6.811296 -8.203075,7.901221 -0.573292,0.15945 -1.263403,0.229385 -2.614734,0.264979 -1.677464,0.04418 -1.923422,0.02494 -2.850389,-0.222854 z"
   id="path3179-8-0" /><path
   style="fill:#840084;fill-opacity:1;stroke:#fffffe;stroke-width:0.111674"
   d="M 11.86943,61.052825 C 9.7141133,60.47664 8.1029142,59.54605 6.5121052,57.958561 c -2.512462,-2.50722 -3.628225,-5.367634 -3.434958,-8.806 0.163888,-2.915685 1.231806,-5.277401 3.343823,-7.394936 1.608436,-1.612635 3.1273411,-2.500977 5.2971378,-3.098066 0.824793,-0.22697 1.187921,-0.258773 2.890445,-0.25316 1.781112,0.0058 2.032529,0.03214 2.948531,0.308071 3.480251,1.048348 6.136748,3.426143 7.577107,6.782167 0.709054,1.652089 0.850902,2.476471 0.801062,4.655542 -0.04134,1.807827 -0.06497,1.983466 -0.397625,2.9573 -1.366777,4.001135 -4.284296,6.811296 -8.203075,7.901221 -0.573292,0.15945 -1.263403,0.229385 -2.614734,0.264979 -1.677464,0.04418 -1.923422,0.02494 -2.850389,-0.222854 z"
   id="path3179-8-23" /><path
   style="fill:#840084;fill-opacity:1;stroke:#fffffe;stroke-width:0.111674"
   d="M 59.079004,37.452825 C 56.923688,36.87664 55.312489,35.94605 53.72168,34.358561 c -2.512462,-2.50722 -3.628225,-5.367634 -3.434958,-8.806 0.163888,-2.915685 1.231806,-5.277401 3.343823,-7.394936 1.608436,-1.612635 3.127341,-2.500977 5.297137,-3.098066 0.824794,-0.22697 1.187922,-0.258773 2.890446,-0.25316 1.781112,0.0058 2.032529,0.03214 2.948531,0.308071 3.480251,1.048348 6.136748,3.426143 7.577107,6.782167 0.709054,1.652089 0.850902,2.476471 0.801062,4.655542 -0.04134,1.807827 -0.06497,1.983466 -0.397625,2.9573 -1.366777,4.001135 -4.284296,6.811296 -8.203075,7.901221 -0.573292,0.15945 -1.263403,0.229385 -2.614734,0.264979 -1.677464,0.04418 -1.923422,0.02494 -2.85039,-0.222854 z"
   id="path3179-8-7" /><path
   style="fill:#840084;fill-opacity:1;stroke:#fffffe;stroke-width:0.111674"
   d="M 59.079004,60.952825 C 56.923688,60.37664 55.312489,59.44605 53.72168,57.858561 c -2.512462,-2.50722 -3.628225,-5.367634 -3.434958,-8.806 0.163888,-2.915685 1.231806,-5.277401 3.343823,-7.394936 1.608436,-1.612635 3.127341,-2.500977 5.297137,-3.098066 0.824794,-0.22697 1.187922,-0.258773 2.890446,-0.25316 1.781112,0.0058 2.032529,0.03214 2.948531,0.308071 3.480251,1.048348 6.136748,3.426143 7.577107,6.782167 0.709054,1.652089 0.850902,2.476471 0.801062,4.655542 -0.04134,1.807827 -0.06497,1.983466 -0.397625,2.9573 -1.366777,4.001135 -4.284296,6.811296 -8.203075,7.901221 -0.573292,0.15945 -1.263403,0.229385 -2.614734,0.264979 -1.677464,0.04418 -1.923422,0.02494 -2.85039,-0.222854 z"
   id="path3179-8-5" /></svg>
