<?xml version="1.0" encoding="UTF-8" standalone="no"?>
<svg
   xmlns:dc="http://purl.org/dc/elements/1.1/"
   xmlns:cc="http://creativecommons.org/ns#"
   xmlns:rdf="http://www.w3.org/1999/02/22-rdf-syntax-ns#"
   xmlns:svg="http://www.w3.org/2000/svg"
   xmlns="http://www.w3.org/2000/svg"
   xmlns:sodipodi="http://sodipodi.sourceforge.net/DTD/sodipodi-0.dtd"
   xmlns:inkscape="http://www.inkscape.org/namespaces/inkscape"
   version="1.1"
   id="レイヤー_1"
   x="0px"
   y="0px"
   width="76px"
   height="76px"
   viewBox="0 0 76 76"
   enable-background="new 0 0 76 76"
   xml:space="preserve"
   sodipodi:docname="Minesweeper_wrong_flag.svg"
   inkscape:version="1.0.1 (3bc2e813f5, 2020-09-07, custom)"><metadata
   id="metadata1315"><rdf:RDF><cc:Work
       rdf:about=""><dc:format>image/svg+xml</dc:format><dc:type
         rdf:resource="http://purl.org/dc/dcmitype/StillImage" /><dc:title /></cc:Work></rdf:RDF></metadata><defs
   id="defs1313" /><sodipodi:namedview
   pagecolor="#ffffff"
   bordercolor="#666666"
   borderopacity="1"
   objecttolerance="10"
   gridtolerance="10"
   guidetolerance="10"
   inkscape:pageopacity="0"
   inkscape:pageshadow="2"
   inkscape:window-width="1920"
   inkscape:window-height="1024"
   id="namedview1311"
   showgrid="false"
   inkscape:snap-global="true"
   inkscape:zoom="7.537615"
   inkscape:cx="42.753251"
   inkscape:cy="35.934982"
   inkscape:window-x="0"
   inkscape:window-y="28"
   inkscape:window-maximized="1"
   inkscape:current-layer="レイヤー_1"
   inkscape:document-rotation="0" />
<g
   id="rect1313_66_">
	<polygon
   fill="#B9B9B9"
   points="75.001,75.001 1,75.001 1,1 75.001,1 75.001,75.001  "
   id="polygon1305" />
	<path
   fill="#757575"
   d="M75.991,0C75.996,0,76,0.004,76,0.009V75.99c0,0.006-0.004,0.01-0.009,0.01H0.009   C0.004,76,0,75.996,0,75.99V0.009C0,0.004,0.004,0,0.009,0H75.991 M74,2H2v72h72V2L74,2z"
   id="path1307" />
</g>
<path
   id="path1390"
   style="fill:#000000;stroke-width:0.381281"
   d="m 36.458984,6.71875 v 3.748047 3.746094 L 33.884766,14.6875 c -3.293356,0.60591 -7.158651,2.231316 -9.642578,4.054688 l -1.951172,1.43164 -2.742188,-2.722656 -2.74414,-2.72461 -1.039063,1.039063 -1.039063,1.039063 2.699219,2.71875 2.701172,2.71875 -1.917969,2.722656 c -2.073664,2.94529 -2.881017,5.444004 -3.535156,8.99414 l -0.460937,2.5 H 10.466797 6.71875 v 1.525391 1.525391 h 3.748047 3.746094 l 0.466797,2.535156 c 0.612486,3.32409 1.931039,6.503792 3.878906,9.357422 l 1.578125,2.314453 -2.705078,2.722656 -2.705079,2.724609 1.039063,1.039063 1.039063,1.039063 2.724609,-2.705079 2.724609,-2.705078 2.3125,1.578125 c 2.884379,1.968858 6.061594,3.276345 9.353516,3.84961 l 2.539062,0.443359 V 65.476562 69.25 h 1.525391 1.525391 v -3.773438 -3.773437 l 2.539062,-0.443359 c 3.291917,-0.573265 6.469139,-1.880752 9.353516,-3.84961 l 2.314453,-1.578125 2.722656,2.705078 2.724609,2.705079 1.039063,-1.039063 1.039063,-1.039063 -2.705079,-2.724609 -2.705078,-2.722656 1.578125,-2.314453 c 1.947866,-2.85363 3.266415,-6.033332 3.878906,-9.357422 l 0.466797,-2.535156 H 65.501953 69.25 v -1.525391 -1.525391 h -3.748047 -3.746094 l -0.466797,-2.535156 c -0.612492,-3.324089 -1.93104,-6.503796 -3.878906,-9.357422 l -1.578125,-2.3125 2.705078,-2.724609 2.705079,-2.724609 -1.039063,-1.039063 -1.039063,-1.039063 -2.742187,2.72461 -2.742187,2.722656 -1.953126,-1.43164 C 49.242635,16.918816 45.37734,15.29341 42.083984,14.6875 L 39.509766,14.212891 V 10.466797 6.71875 H 37.984375 Z M 12.601562,63.0625 c 5.25e-4,0.02301 0.0028,0.03963 0,0.07422 -0.006,0.03927 0.0016,-0.03774 0.0039,-0.07227 -9.15e-4,-10e-4 -0.003,-6.55e-4 -0.0039,-0.002 z" /><path
   style="fill:#ff0000;stroke:#f50000;stroke-width:2;stroke-miterlimit:4;stroke-dasharray:none;stroke-linejoin:round;stroke-opacity:1;stroke-linecap:round;paint-order:markers fill stroke"
   d="M 37.754417,38.168126 14.158631,7.1693635 l 0.205631,-0.253788 0.205631,-0.2537871 23.589611,30.9905196 23.58961,30.990517 -0.199455,0.262034 -0.199456,0.262031 z"
   id="path2836" /><path
   style="fill:#ff0000;stroke:#ff0000;stroke-width:2;stroke-miterlimit:4;stroke-dasharray:none;stroke-opacity:1;stroke-linejoin:round;stroke-linecap:round"
   d="M 14.342951,68.840176 14.166956,68.598636 37.732677,37.612479 61.298399,6.6263229 61.498386,6.8811964 61.698379,7.1360707 38.142797,38.108895 c -12.95557,17.035053 -23.570943,30.97282 -23.589717,30.97282 -0.01877,0 -0.113333,-0.10869 -0.210129,-0.241539 z"
   id="path2840" /><path
   style="fill:#ffffff;stroke-width:0;stroke-linecap:round;stroke-linejoin:round;paint-order:markers fill stroke"
   d="m 15.80738,60.079374 -0.922728,-0.929854 2.690167,-2.692569 2.690167,-2.69257 -1.322632,-1.982799 C 17.358068,49.406531 16.353565,47.437263 15.63008,45.288073 15.17575,43.938436 14.954549,42.994725 14.33179,39.749186 L 14.26178,39.384349 H 10.491289 6.720793 v -1.459348 -1.459347 h 3.766655 3.766654 l 0.07213,-0.298503 c 0.03967,-0.164177 0.198609,-0.98506 0.35319,-1.824185 0.837974,-4.54885 1.695433,-6.602515 4.31994,-10.346509 l 1.254372,-1.789426 -2.684543,-2.68694 -2.684543,-2.686941 0.922728,-0.929853 c 0.5075,-0.511419 0.966011,-0.929853 1.018913,-0.929853 0.0529,0 1.313541,1.191672 2.801419,2.648159 1.713716,1.677561 2.751553,2.60184 2.831611,2.521782 0.08006,-0.08006 2.482667,2.968818 6.55523,8.31849 3.535869,4.644676 6.592015,8.665573 6.791435,8.935324 l 0.362583,0.490456 -6.781091,8.918094 c -3.729599,4.904951 -6.887708,8.958067 -7.01802,9.006926 -0.130311,0.04886 -1.430435,1.238071 -2.889163,2.642693 -1.458728,1.404622 -2.674273,2.553858 -2.701211,2.553858 -0.02694,0 -0.464206,-0.418433 -0.971706,-0.929852 z"
   id="path9626" /><path
   style="fill:#ffffff;stroke-width:0;stroke-linecap:round;stroke-linejoin:round;paint-order:markers fill stroke"
   d="m 36.571084,65.45613 v -3.77851 l -0.298503,-0.06957 c -0.164177,-0.03826 -1.120189,-0.21899 -2.124472,-0.401611 -2.059483,-0.374505 -3.841548,-0.910462 -5.600423,-1.684334 -1.380484,-0.607386 -3.651383,-1.911478 -3.651383,-2.096851 0,-0.06926 2.932355,-3.977703 6.516343,-8.685437 l 6.516342,-8.559516 1.439534,1.890546 c 0.791742,1.0398 3.760647,4.935275 6.597563,8.656611 l 5.158031,6.766066 -0.676285,0.436337 c -1.093542,0.705551 -3.761146,1.961276 -5.120662,2.410456 -0.69319,0.229029 -2.215555,0.599976 -3.383033,0.824327 -1.167478,0.224352 -2.197313,0.428542 -2.288522,0.453754 -0.127722,0.0353 -0.165835,0.915772 -0.165835,3.831041 v 3.7852 h -1.459348 -1.459347 z"
   id="path9628" /><path
   style="fill:#ffffff;stroke-width:0;stroke-linecap:round;stroke-linejoin:round;paint-order:markers fill stroke"
   d="m 56.543015,58.493942 c -1.583912,-1.585398 -2.762071,-2.661917 -2.93915,-2.685591 -0.216857,-0.02899 -2.0665,-2.365663 -6.946858,-8.776039 -3.65822,-4.805092 -6.716736,-8.841296 -6.796702,-8.969342 -0.123244,-0.197344 0.881523,-1.584705 6.595777,-9.10731 3.707644,-4.880974 6.759976,-8.897932 6.782961,-8.926572 0.02298,-0.02864 0.136657,0.02666 0.252604,0.122887 0.183782,0.152526 0.56296,-0.176891 2.957311,-2.569205 l 2.746498,-2.744163 0.962261,0.968725 0.962259,0.968725 -0.413305,0.392206 c -0.227318,0.215714 -1.429673,1.452066 -2.671899,2.74745 l -2.258592,2.355243 1.339434,2.033158 c 2.288342,3.473523 3.379281,6.103184 4.156152,10.018213 l 0.425307,2.143327 h 3.755164 3.755165 v 1.459347 1.459348 l -3.74787,3.98e-4 -3.74787,3.98e-4 -0.42798,2.195495 c -0.771724,3.958856 -1.941967,6.77714 -4.219473,10.161707 -0.690949,1.02681 -1.256271,1.906112 -1.256271,1.954004 0,0.04789 0.66094,0.742765 1.468754,1.544162 0.807815,0.801396 1.99879,2.02875 2.646611,2.727453 l 1.17786,1.270368 -0.957274,0.950885 -0.957275,0.950885 -2.643599,-2.646081 z"
   id="path9630" /><path
   style="fill:#ffffff;stroke-width:0;stroke-linecap:round;stroke-linejoin:round;paint-order:markers fill stroke"
   d="m 31.442803,27.045179 c -3.564091,-4.680947 -6.494879,-8.550839 -6.512862,-8.599758 -0.01798,-0.04892 0.459622,-0.369897 1.061344,-0.713285 2.780837,-1.586953 5.704608,-2.60322 9.286286,-3.227799 l 1.293513,-0.225564 V 10.513402 6.7480307 h 1.459347 1.459348 v 3.7596863 3.759686 l 2.092488,0.41037 c 1.150869,0.225703 2.74786,0.628506 3.548868,0.895118 1.50452,0.500772 4.170342,1.715654 5.264517,2.399173 l 0.624106,0.389871 -6.505936,8.554354 c -3.578263,4.704896 -6.52504,8.573559 -6.548394,8.59703 -0.02335,0.02347 -2.958534,-3.787191 -6.522625,-8.46814 z"
   id="path9632" /><path
   style="fill:#666666;stroke-width:0;stroke-linecap:round;stroke-linejoin:round;paint-order:markers fill stroke"
   d="M 0.08739505,38.057669 V 0.11463271 H 38.030431 75.973468 V 38.057669 76.000705 H 38.030431 0.08739505 Z M 74.116116,37.991335 V 1.9719841 H 38.030431 1.9447465 V 37.991335 74.010686 H 38.030431 74.116116 Z"
   id="path9634" /><path
   style="fill:#1a1a1a;stroke-width:0;stroke-linecap:round;stroke-linejoin:round;paint-order:markers fill stroke"
   d="M 2.0774144,37.991335 V 2.1046521 H 38.030431 73.983448 V 37.991335 73.878018 H 38.030431 2.0774144 Z M 16.541545,67.66879 c 1.036337,-1.335505 1.912483,-2.399957 1.946992,-2.36545 0.03451,0.03451 -0.577225,0.918242 -1.359404,1.963854 -0.78218,1.045611 -1.302478,1.78171 -1.156218,1.635776 0.260567,-0.25999 2.783397,-3.528114 6.723606,-8.709893 l 1.979259,-2.60293 0.840835,0.514648 c 2.871323,1.757444 5.420578,2.687739 9.197117,3.356287 l 1.65835,0.293573 0.0352,3.806326 0.0352,3.806326 h 1.587946 1.587947 l 0.0352,-3.803837 0.0352,-3.803837 1.990019,-0.36898 c 3.25209,-0.602988 5.961382,-1.584747 8.364344,-3.030965 0.954164,-0.574262 1.180455,-0.66263 1.317334,-0.51443 0.0909,0.09842 2.180306,2.835615 4.643128,6.082663 2.462823,3.247048 4.572036,5.97835 4.687143,6.069559 0.115107,0.09121 0.430492,0.165835 0.700857,0.165835 0.396182,0 0.571098,-0.09058 0.901402,-0.466771 0.481338,-0.548213 0.632098,-1.031878 0.446836,-1.43353 -0.07324,-0.158796 -2.173333,-2.967278 -4.666866,-6.241072 -2.493533,-3.273795 -4.498638,-5.987412 -4.455789,-6.030261 0.04285,-0.04285 1.299601,1.142696 2.792783,2.634545 l 2.714873,2.712452 1.082645,-1.082645 1.082645,-1.082645 -2.660279,-2.746897 -2.660279,-2.746898 1.251211,-1.867849 c 2.270247,-3.3891 3.438731,-6.209214 4.200935,-10.138873 l 0.418152,-2.155854 h 3.750097 3.750098 V 37.925001 36.332986 H 65.580383 61.820697 L 61.400988,34.192875 C 60.637947,30.302094 59.47517,27.513603 57.208013,24.137572 l -1.2851,-1.913646 2.662206,-2.664583 c 1.464212,-1.465521 2.662205,-2.725245 2.662205,-2.799387 0,-0.171402 -1.886348,-2.051848 -2.058287,-2.051848 -0.0706,0 -1.336614,1.207173 -2.813364,2.682605 -1.798565,1.796959 -2.72901,2.638593 -2.818306,2.549297 -0.08929,-0.08929 1.39843,-2.146574 4.506303,-6.231472 4.238075,-5.5703996 4.639757,-6.142573 4.641306,-6.6112784 0.0014,-0.4203128 -0.09146,-0.6062658 -0.513368,-1.0281767 -0.532669,-0.5326693 -0.846456,-0.6177974 -1.369213,-0.3714589 -0.16761,0.078983 -2.274864,2.7404129 -4.682787,5.914289 -2.407924,3.173877 -4.52936,5.952392 -4.714304,6.174479 l -0.336262,0.403795 -0.668413,-0.411279 C 47.83034,16.185089 44.336874,14.989052 40.119952,14.25233 L 39.622447,14.16541 V 10.390388 6.6153627 h -1.592016 -1.592015 v 3.7596863 3.759686 l -2.08952,0.410396 c -1.149237,0.225718 -2.59132,0.569204 -3.204631,0.763304 -1.653628,0.523336 -4.045026,1.566428 -5.286894,2.306061 L 24.762087,18.266828 19.986896,11.99116 C 14.962566,5.388066 14.933392,5.3564818 14.162969,5.6860839 13.699158,5.8845115 13.088855,6.709409 13.088855,7.1378785 c 0,0.4359674 -0.332931,-0.029673 4.843545,6.7742215 2.414876,3.174081 4.435876,5.845682 4.491111,5.936892 0.23729,0.39183 -0.192585,0.109447 -0.920676,-0.604788 -0.432065,-0.423844 -1.668111,-1.630373 -2.74677,-2.681177 l -1.961196,-1.910554 -1.089056,1.089058 -1.089058,1.089056 2.703265,2.70568 2.703266,2.705679 -1.234368,1.752401 c -2.399596,3.406645 -3.336094,5.599959 -4.110839,9.627737 -0.223635,1.162643 -0.4348,2.247293 -0.469255,2.410336 l -0.06264,0.29644 -3.74586,0.03523 -3.74586,0.03523 -0.037377,1.558848 -0.037377,1.558849 h 3.785247 c 2.081886,0 3.785247,0.03145 3.785247,0.06989 0,0.469195 0.922439,4.548713 1.270721,5.619808 0.642693,1.976511 1.938473,4.541641 3.380318,6.691683 l 1.230089,1.834279 -2.707286,2.709704 -2.707286,2.709703 1.091662,1.091662 1.091662,1.091662 2.587168,-2.574822 c 1.422942,-1.416152 2.62245,-2.539541 2.665573,-2.496417 0.04312,0.04312 -1.936986,2.725394 -4.400244,5.9606 -2.463259,3.235207 -4.506486,6.025588 -4.540504,6.200846 -0.08946,0.460878 0.35356,1.188688 0.8988,1.476585 0.259048,0.136784 0.510468,0.236566 0.55871,0.221739 0.04824,-0.01483 0.935626,-1.119642 1.971963,-2.455148 z"
   id="path9636" /></svg>
