<?xml version="1.0" encoding="UTF-8" standalone="no"?>
<!-- Generator: Adobe Illustrator 13.0.3, SVG Export Plug-In . SVG Version: 6.00 Build 14948)  -->

<svg
   version="1.1"
   id="レイヤー_1"
   x="0px"
   y="0px"
   width="76px"
   height="76px"
   viewBox="0 0 76 76"
   enable-background="new 0 0 76 76"
   xml:space="preserve"
   sodipodi:docname="3.svg"
   inkscape:version="1.1.1 (3bf5ae0d25, 2021-09-20, custom)"
   xmlns:inkscape="http://www.inkscape.org/namespaces/inkscape"
   xmlns:sodipodi="http://sodipodi.sourceforge.net/DTD/sodipodi-0.dtd"
   xmlns="http://www.w3.org/2000/svg"
   xmlns:svg="http://www.w3.org/2000/svg"><defs
   id="defs12" /><sodipodi:namedview
   id="namedview10"
   pagecolor="#ffffff"
   bordercolor="#666666"
   borderopacity="1.0"
   inkscape:pageshadow="2"
   inkscape:pageopacity="0.0"
   inkscape:pagecheckerboard="0"
   showgrid="false"
   inkscape:zoom="8.3552632"
   inkscape:cx="39.256693"
   inkscape:cy="38.47874"
   inkscape:window-width="1920"
   inkscape:window-height="995"
   inkscape:window-x="0"
   inkscape:window-y="55"
   inkscape:window-maximized="1"
   inkscape:current-layer="レイヤー_1" />
<g
   id="rect1313_66_">
	<polygon
   fill="#B9B9B9"
   points="75.001,75.001 1,75.001 1,1 75.001,1  "
   id="polygon2" />
	<path
   fill="#757575"
   d="M75.991,0C75.996,0,76,0.004,76,0.009V75.99c0,0.006-0.004,0.01-0.009,0.01H0.009   C0.004,76,0,75.996,0,75.99V0.009C0,0.004,0.004,0,0.009,0H75.991 M74,2H2v72h72V2L74,2z"
   id="path4" />
</g>

<path
   style="fill:#ff0000;fill-opacity:1;stroke:#fffffe;stroke-width:0.120205"
   d="m 20.766229,34.863431 c -5.054094,-0.792817 -9.069424,-4.387369 -10.3846,-9.296365 -0.282826,-1.055673 -0.321527,-1.424032 -0.321527,-3.060324 0,-1.629541 0.03951,-2.00901 0.31871,-3.060326 2.231637,-8.403388 11.948161,-12.065375 19.166147,-7.223382 2.396821,1.607842 4.299185,4.32417 5.083583,7.258689 0.271226,1.014689 0.311357,1.404579 0.311357,3.025019 0,1.620439 -0.04013,2.010329 -0.311357,3.025017 -1.239201,4.635989 -4.92361,8.183354 -9.524349,9.170082 -1.052529,0.225738 -3.377046,0.312327 -4.337964,0.16159 z"
   id="path6183" /><path
   style="fill:#ff0000;fill-opacity:1;stroke:#fffffe;stroke-width:0.120205"
   d="m 36.266229,65.863432 c -5.054094,-0.792817 -9.069424,-4.38737 -10.3846,-9.296366 -0.282825,-1.055673 -0.321527,-1.424032 -0.321527,-3.060324 0,-1.629541 0.03951,-2.009009 0.31871,-3.060326 2.231637,-8.403388 11.948162,-12.065374 19.166147,-7.223382 2.396821,1.607842 4.299185,4.32417 5.083583,7.258689 0.271226,1.014689 0.311357,1.404579 0.311357,3.025019 0,1.620439 -0.04013,2.010329 -0.311357,3.025017 -1.2392,4.63599 -4.923609,8.183354 -9.524348,9.170082 -1.05253,0.225739 -3.377047,0.312327 -4.337965,0.161591 z"
   id="path6183-3" /><path
   style="fill:#ff0000;fill-opacity:1;stroke:#fffffe;stroke-width:0.119923"
   d="m 51.393704,34.781547 c -4.977678,-0.931295 -8.827691,-4.530829 -10.056422,-9.402157 -0.367684,-1.457691 -0.367684,-4.294112 0,-5.751804 0.575132,-2.280121 1.710099,-4.276435 3.355343,-5.901767 1.150275,-1.136355 1.836193,-1.635509 3.160557,-2.29999 2.771827,-1.390722 5.730607,-1.7247427 8.665976,-0.978313 2.314867,0.588644 4.082969,1.621906 5.856167,3.422289 6.065748,6.158743 4.129701,16.319949 -3.807083,19.981211 -2.05305,0.947077 -5.025505,1.332604 -7.174538,0.930531 z"
   id="path6222" /></svg>
