<?xml version="1.0" encoding="UTF-8" standalone="no"?>
<!-- Generator: Adobe Illustrator 13.0.3, SVG Export Plug-In . SVG Version: 6.00 Build 14948)  -->

<svg
   version="1.1"
   id="レイヤー_1"
   x="0px"
   y="0px"
   width="76px"
   height="76px"
   viewBox="0 0 76 76"
   enable-background="new 0 0 76 76"
   xml:space="preserve"
   sodipodi:docname="4.svg"
   inkscape:version="1.1.1 (3bf5ae0d25, 2021-09-20, custom)"
   xmlns:inkscape="http://www.inkscape.org/namespaces/inkscape"
   xmlns:sodipodi="http://sodipodi.sourceforge.net/DTD/sodipodi-0.dtd"
   xmlns="http://www.w3.org/2000/svg"
   xmlns:svg="http://www.w3.org/2000/svg"><defs
   id="defs12" /><sodipodi:namedview
   id="namedview10"
   pagecolor="#ffffff"
   bordercolor="#666666"
   borderopacity="1.0"
   inkscape:pageshadow="2"
   inkscape:pageopacity="0.0"
   inkscape:pagecheckerboard="0"
   showgrid="false"
   inkscape:zoom="8.3552632"
   inkscape:cx="37.102362"
   inkscape:cy="37.640945"
   inkscape:window-width="1920"
   inkscape:window-height="995"
   inkscape:window-x="0"
   inkscape:window-y="55"
   inkscape:window-maximized="1"
   inkscape:current-layer="レイヤー_1" />
<g
   id="rect1313_66_">
	<polygon
   fill="#B9B9B9"
   points="75.001,75.001 1,75.001 1,1 75.001,1  "
   id="polygon2" />
	<path
   fill="#757575"
   d="M75.991,0C75.996,0,76,0.004,76,0.009V75.99c0,0.006-0.004,0.01-0.009,0.01H0.009   C0.004,76,0,75.996,0,75.99V0.009C0,0.004,0.004,0,0.009,0H75.991 M74,2H2v72h72V2L74,2z"
   id="path4" />
</g>

<circle
   style="fill:#000084;fill-opacity:1;stroke:none;stroke-width:0.129393;stroke-miterlimit:4;stroke-dasharray:none"
   id="path10460"
   cx="53.5"
   cy="22.5"
   r="12.5" /><circle
   style="fill:#000084;fill-opacity:1;stroke:none;stroke-width:0.129393;stroke-miterlimit:4;stroke-dasharray:none"
   id="path10460-3"
   cx="22.5"
   cy="22.5"
   r="12.5" /><circle
   style="fill:#000084;fill-opacity:1;stroke:none;stroke-width:0.129393;stroke-miterlimit:4;stroke-dasharray:none"
   id="path10460-36"
   cx="53.5"
   cy="53.5"
   r="12.5" /><circle
   style="fill:#000084;fill-opacity:1;stroke:none;stroke-width:0.129393;stroke-miterlimit:4;stroke-dasharray:none"
   id="path10460-3-7"
   cx="22.5"
   cy="53.5"
   r="12.5" /></svg>
