<?xml version="1.0" encoding="UTF-8" standalone="no"?>
<!-- Generator: Adobe Illustrator 13.0.3, SVG Export Plug-In . SVG Version: 6.00 Build 14948)  -->

<svg
   version="1.1"
   id="レイヤー_1"
   x="0px"
   y="0px"
   width="76px"
   height="76px"
   viewBox="0 0 76 76"
   enable-background="new 0 0 76 76"
   xml:space="preserve"
   sodipodi:docname="5.svg"
   inkscape:version="1.1.1 (3bf5ae0d25, 2021-09-20, custom)"
   xmlns:inkscape="http://www.inkscape.org/namespaces/inkscape"
   xmlns:sodipodi="http://sodipodi.sourceforge.net/DTD/sodipodi-0.dtd"
   xmlns="http://www.w3.org/2000/svg"
   xmlns:svg="http://www.w3.org/2000/svg"><defs
   id="defs12" /><sodipodi:namedview
   id="namedview10"
   pagecolor="#ffffff"
   bordercolor="#666666"
   borderopacity="1.0"
   inkscape:pageshadow="2"
   inkscape:pageopacity="0.0"
   inkscape:pagecheckerboard="0"
   showgrid="false"
   inkscape:zoom="8.3552632"
   inkscape:cx="34.050394"
   inkscape:cy="38"
   inkscape:window-width="1920"
   inkscape:window-height="995"
   inkscape:window-x="0"
   inkscape:window-y="55"
   inkscape:window-maximized="1"
   inkscape:current-layer="レイヤー_1" />
<g
   id="rect1313_66_">
	<polygon
   fill="#B9B9B9"
   points="75.001,75.001 1,75.001 1,1 75.001,1  "
   id="polygon2" />
	<path
   fill="#757575"
   d="M75.991,0C75.996,0,76,0.004,76,0.009V75.99c0,0.006-0.004,0.01-0.009,0.01H0.009   C0.004,76,0,75.996,0,75.99V0.009C0,0.004,0.004,0,0.009,0H75.991 M74,2H2v72h72V2L74,2z"
   id="path4" />
</g>

<path
   style="fill:#840000;fill-opacity:1;stroke:#fffffe;stroke-width:0.0145067;stroke-miterlimit:4;stroke-dasharray:none"
   d="m 35.594496,50.350636 c -2.015123,-0.457054 -3.626224,-1.193158 -5.168615,-2.361514 -2.256405,-1.709223 -3.858619,-4.173875 -4.616015,-7.100721 -0.403284,-1.55843 -0.403284,-4.243299 0,-5.801728 0.99016,-3.826325 3.391443,-6.797371 6.824689,-8.444018 1.966693,-0.94326 2.87469,-1.135404 5.365446,-1.135404 2.490754,0 3.398752,0.192144 5.365444,1.135404 3.433248,1.646647 5.834531,4.617693 6.824691,8.444018 0.403282,1.558429 0.403282,4.243298 0,5.801728 -0.99018,3.826404 -3.391822,6.797838 -6.824691,8.443863 -1.836566,0.880613 -2.778323,1.09425 -5.064015,1.148768 -1.396504,0.03331 -2.143898,-0.0027 -2.706934,-0.130396 z"
   id="path4686" /><path
   style="fill:#840000;fill-opacity:1;stroke:#fffffe;stroke-width:0.0145067;stroke-miterlimit:4;stroke-dasharray:none"
   d="M 56.094494,70.850638 C 54.079371,70.393584 52.46827,69.65748 50.925879,68.489124 48.669474,66.779901 47.06726,64.315249 46.309864,61.388403 c -0.403284,-1.55843 -0.403284,-4.243299 0,-5.801728 0.99016,-3.826325 3.391443,-6.797371 6.824689,-8.444018 1.966693,-0.94326 2.87469,-1.135404 5.365446,-1.135404 2.490754,0 3.398752,0.192144 5.365444,1.135404 3.433248,1.646647 5.834531,4.617693 6.824691,8.444018 0.403282,1.558429 0.403282,4.243298 0,5.801728 -0.99018,3.826404 -3.391822,6.797838 -6.824691,8.443863 -1.836566,0.880613 -2.778323,1.09425 -5.064015,1.148768 -1.396504,0.03331 -2.143898,-0.0027 -2.706934,-0.130396 z"
   id="path4686-6" /><path
   style="fill:#840000;fill-opacity:1;stroke:#fffffe;stroke-width:0.0145067;stroke-miterlimit:4;stroke-dasharray:none"
   d="M 15.094494,70.850638 C 13.079371,70.393584 11.46827,69.65748 9.9258794,68.489124 c -2.256405,-1.709223 -3.858619,-4.173875 -4.616015,-7.100721 -0.403284,-1.55843 -0.403284,-4.243299 0,-5.801728 0.99016,-3.826325 3.391443,-6.797371 6.8246886,-8.444018 1.966693,-0.94326 2.87469,-1.135404 5.365446,-1.135404 2.490754,0 3.398752,0.192144 5.365444,1.135404 3.433248,1.646647 5.834531,4.617693 6.824691,8.444018 0.403282,1.558429 0.403282,4.243298 0,5.801728 -0.99018,3.826404 -3.391822,6.797838 -6.824691,8.443863 -1.836566,0.880613 -2.778323,1.09425 -5.064015,1.148768 -1.396504,0.03331 -2.143898,-0.0027 -2.706934,-0.130396 z"
   id="path4686-6-7" /><path
   style="fill:#840000;fill-opacity:1;stroke:#fffffe;stroke-width:0.0145067;stroke-miterlimit:4;stroke-dasharray:none"
   d="M 15.094495,29.850638 C 13.079372,29.393584 11.468271,28.65748 9.9258797,27.489124 7.6694747,25.779901 6.0672604,23.315249 5.3098644,20.388403 c -0.403284,-1.55843 -0.403284,-4.243299 0,-5.801728 0.9901603,-3.826325 3.3914433,-6.7973706 6.8246896,-8.4440176 1.966693,-0.94326 2.87469,-1.135404 5.365446,-1.135404 2.490754,0 3.398752,0.192144 5.365444,1.135404 3.433248,1.646647 5.834531,4.6176926 6.824691,8.4440176 0.403282,1.558429 0.403282,4.243298 0,5.801728 -0.99018,3.826404 -3.391822,6.797838 -6.824691,8.443863 -1.836566,0.880613 -2.778323,1.09425 -5.064015,1.148768 -1.396504,0.03331 -2.143898,-0.0027 -2.706934,-0.130396 z"
   id="path4686-6-7-5" /><path
   style="fill:#840000;fill-opacity:1;stroke:#fffffe;stroke-width:0.0145067;stroke-miterlimit:4;stroke-dasharray:none"
   d="m 56.094495,29.850638 c -2.015123,-0.457054 -3.626224,-1.193158 -5.168616,-2.361514 -2.256405,-1.709223 -3.858619,-4.173875 -4.616015,-7.100721 -0.403284,-1.55843 -0.403284,-4.243299 0,-5.801728 0.99016,-3.826325 3.391443,-6.7973706 6.82469,-8.4440176 1.966693,-0.94326 2.87469,-1.135404 5.365446,-1.135404 2.490754,0 3.398752,0.192144 5.365444,1.135404 3.433248,1.646647 5.834531,4.6176926 6.824691,8.4440176 0.403282,1.558429 0.403282,4.243298 0,5.801728 -0.99018,3.826404 -3.391822,6.797838 -6.824691,8.443863 -1.836566,0.880613 -2.778323,1.09425 -5.064015,1.148768 -1.396504,0.03331 -2.143898,-0.0027 -2.706934,-0.130396 z"
   id="path4686-6-7-5-3" /></svg>
