<?xml version="1.0" encoding="UTF-8" standalone="no"?>
<!-- Generator: Adobe Illustrator 13.0.3, SVG Export Plug-In . SVG Version: 6.00 Build 14948)  -->

<svg
   version="1.1"
   id="レイヤー_1"
   x="0px"
   y="0px"
   width="76px"
   height="76px"
   viewBox="0 0 76 76"
   enable-background="new 0 0 76 76"
   xml:space="preserve"
   sodipodi:docname="7.svg"
   inkscape:version="1.1.1 (3bf5ae0d25, 2021-09-20, custom)"
   xmlns:inkscape="http://www.inkscape.org/namespaces/inkscape"
   xmlns:sodipodi="http://sodipodi.sourceforge.net/DTD/sodipodi-0.dtd"
   xmlns="http://www.w3.org/2000/svg"
   xmlns:svg="http://www.w3.org/2000/svg"><defs
   id="defs12" /><sodipodi:namedview
   id="namedview10"
   pagecolor="#ffffff"
   bordercolor="#666666"
   borderopacity="1.0"
   inkscape:pageshadow="2"
   inkscape:pageopacity="0.0"
   inkscape:pagecheckerboard="0"
   showgrid="false"
   inkscape:zoom="8.3552632"
   inkscape:cx="38.059843"
   inkscape:cy="38"
   inkscape:window-width="1920"
   inkscape:window-height="995"
   inkscape:window-x="0"
   inkscape:window-y="55"
   inkscape:window-maximized="1"
   inkscape:current-layer="レイヤー_1" />
<g
   id="rect1313_66_">
	<polygon
   fill="#B9B9B9"
   points="75.001,75.001 1,75.001 1,1 75.001,1  "
   id="polygon2" />
	<path
   fill="#757575"
   d="M75.991,0C75.996,0,76,0.004,76,0.009V75.99c0,0.006-0.004,0.01-0.009,0.01H0.009   C0.004,76,0,75.996,0,75.99V0.009C0,0.004,0.004,0,0.009,0H75.991 M74,2H2v72h72V2L74,2z"
   id="path4" />
</g>

<path
   style="fill:#840084;fill-opacity:1;stroke:#fffffe;stroke-width:0.111674"
   d="m 35.369429,72.702825 c -2.155316,-0.576185 -3.766515,-1.506775 -5.357324,-3.094264 -2.512462,-2.50722 -3.628225,-5.367634 -3.434958,-8.806 0.163888,-2.915685 1.231806,-5.277401 3.343823,-7.394936 1.608436,-1.612635 3.127341,-2.500977 5.297137,-3.098066 0.824794,-0.22697 1.187922,-0.258773 2.890446,-0.25316 1.781112,0.0058 2.032529,0.03214 2.948531,0.308071 3.480251,1.048348 6.136748,3.426143 7.577107,6.782167 0.709054,1.652089 0.850902,2.476471 0.801062,4.655542 -0.04134,1.807827 -0.06497,1.983466 -0.397625,2.9573 -1.366777,4.001135 -4.284296,6.811296 -8.203075,7.901221 -0.573292,0.15945 -1.263403,0.229385 -2.614734,0.264979 -1.677464,0.04418 -1.923422,0.02494 -2.85039,-0.222854 z"
   id="path3179-8" /><path
   style="fill:#840084;fill-opacity:1;stroke:#fffffe;stroke-width:0.111674"
   d="m 35.369429,49.202825 c -2.155316,-0.576185 -3.766515,-1.506775 -5.357324,-3.094264 -2.512462,-2.50722 -3.628225,-5.367634 -3.434958,-8.806 0.163888,-2.915685 1.231806,-5.277401 3.343823,-7.394936 1.608436,-1.612635 3.127341,-2.500977 5.297137,-3.098066 0.824794,-0.22697 1.187922,-0.258773 2.890446,-0.25316 1.781112,0.0058 2.032529,0.03214 2.948531,0.308071 3.480251,1.048348 6.136748,3.426143 7.577107,6.782167 0.709054,1.652089 0.850902,2.476471 0.801062,4.655542 -0.04134,1.807827 -0.06497,1.983466 -0.397625,2.9573 -1.366777,4.001135 -4.284296,6.811296 -8.203075,7.901221 -0.573292,0.15945 -1.263403,0.229385 -2.614734,0.264979 -1.677464,0.04418 -1.923422,0.02494 -2.85039,-0.222854 z"
   id="path3179-8-9" /><path
   style="fill:#840084;fill-opacity:1;stroke:#fffffe;stroke-width:0.111674"
   d="m 35.369429,25.702825 c -2.155316,-0.576185 -3.766515,-1.506775 -5.357324,-3.094264 -2.512462,-2.50722 -3.628225,-5.367634 -3.434958,-8.806 0.163888,-2.915685 1.231806,-5.2774011 3.343823,-7.3949361 1.608436,-1.612635 3.127341,-2.500977 5.297137,-3.098066 0.824794,-0.22697 1.187922,-0.258773 2.890446,-0.25316 1.781112,0.0058 2.032529,0.03214 2.948531,0.308071 3.480251,1.048348 6.136748,3.426143 7.577107,6.7821671 0.709054,1.652089 0.850902,2.476471 0.801062,4.655542 -0.04134,1.807827 -0.06497,1.983466 -0.397625,2.9573 -1.366777,4.001135 -4.284296,6.811296 -8.203075,7.901221 -0.573292,0.15945 -1.263403,0.229385 -2.614734,0.264979 -1.677464,0.04418 -1.923422,0.02494 -2.85039,-0.222854 z"
   id="path3179-8-2" /><path
   style="fill:#840084;fill-opacity:1;stroke:#fffffe;stroke-width:0.111674"
   d="M 11.869429,37.452824 C 9.7141132,36.876639 8.1029142,35.946049 6.5121052,34.35856 c -2.512462,-2.50722 -3.628225,-5.367634 -3.434958,-8.806 0.163888,-2.915685 1.231806,-5.277401 3.343823,-7.394936 1.608436,-1.612635 3.127341,-2.500976 5.2971368,-3.098065 0.824794,-0.22697 1.187922,-0.258773 2.890446,-0.25316 1.781112,0.0058 2.032529,0.03214 2.948531,0.308071 3.480251,1.048347 6.136748,3.426142 7.577107,6.782166 0.709054,1.652089 0.850902,2.476471 0.801062,4.655542 -0.04134,1.807827 -0.06497,1.983466 -0.397625,2.9573 -1.366777,4.001135 -4.284296,6.811296 -8.203075,7.901221 -0.573292,0.15945 -1.263403,0.229385 -2.614734,0.264979 -1.677464,0.04418 -1.923422,0.02494 -2.85039,-0.222854 z"
   id="path3179-8-0" /><path
   style="fill:#840084;fill-opacity:1;stroke:#fffffe;stroke-width:0.111674"
   d="M 11.659854,61.052825 C 9.5045378,60.47664 7.8933387,59.54605 6.3025297,57.958561 c -2.512462,-2.50722 -3.628225,-5.367634 -3.434958,-8.806 0.163888,-2.915685 1.231806,-5.277401 3.343823,-7.394936 1.608436,-1.612635 3.1273411,-2.500977 5.2971373,-3.098066 0.824794,-0.22697 1.187922,-0.258773 2.890446,-0.25316 1.781112,0.0058 2.032529,0.03214 2.948531,0.308071 3.480251,1.048348 6.136748,3.426143 7.577107,6.782167 0.709054,1.652089 0.850902,2.476471 0.801062,4.655542 -0.04134,1.807827 -0.06497,1.983466 -0.397625,2.9573 -1.366777,4.001135 -4.284296,6.811296 -8.203075,7.901221 -0.573292,0.15945 -1.263403,0.229385 -2.614734,0.264979 -1.677464,0.04418 -1.923422,0.02494 -2.85039,-0.222854 z"
   id="path3179-8-23" /><path
   style="fill:#840084;fill-opacity:1;stroke:#fffffe;stroke-width:0.111674"
   d="m 58.869429,37.452825 c -2.155316,-0.576185 -3.766515,-1.506775 -5.357324,-3.094264 -2.512462,-2.50722 -3.628225,-5.367634 -3.434958,-8.806 0.163888,-2.915685 1.231806,-5.277401 3.343823,-7.394936 1.608436,-1.612635 3.127341,-2.500977 5.297137,-3.098066 0.824794,-0.22697 1.187922,-0.258773 2.890446,-0.25316 1.781112,0.0058 2.032529,0.03214 2.948531,0.308071 3.480251,1.048348 6.136748,3.426143 7.577107,6.782167 0.709054,1.652089 0.850902,2.476471 0.801062,4.655542 -0.04134,1.807827 -0.06497,1.983466 -0.397625,2.9573 -1.366777,4.001135 -4.284296,6.811296 -8.203075,7.901221 -0.573292,0.15945 -1.263403,0.229385 -2.614734,0.264979 -1.677464,0.04418 -1.923422,0.02494 -2.85039,-0.222854 z"
   id="path3179-8-7" /><path
   style="fill:#840084;fill-opacity:1;stroke:#fffffe;stroke-width:0.111674"
   d="m 58.869429,60.952825 c -2.155316,-0.576185 -3.766515,-1.506775 -5.357324,-3.094264 -2.512462,-2.50722 -3.628225,-5.367634 -3.434958,-8.806 0.163888,-2.915685 1.231806,-5.277401 3.343823,-7.394936 1.608436,-1.612635 3.127341,-2.500977 5.297137,-3.098066 0.824794,-0.22697 1.187922,-0.258773 2.890446,-0.25316 1.781112,0.0058 2.032529,0.03214 2.948531,0.308071 3.480251,1.048348 6.136748,3.426143 7.577107,6.782167 0.709054,1.652089 0.850902,2.476471 0.801062,4.655542 -0.04134,1.807827 -0.06497,1.983466 -0.397625,2.9573 -1.366777,4.001135 -4.284296,6.811296 -8.203075,7.901221 -0.573292,0.15945 -1.263403,0.229385 -2.614734,0.264979 -1.677464,0.04418 -1.923422,0.02494 -2.85039,-0.222854 z"
   id="path3179-8-5" /></svg>
