<?xml version="1.0" encoding="UTF-8" standalone="no"?>
<svg
   viewBox="0 0 36 36"
   version="1.1"
   id="svg30226"
   sodipodi:docname="question_flag.svg"
   inkscape:version="1.1.2 (0a00cf5339, 2022-02-04)"
   xmlns:inkscape="http://www.inkscape.org/namespaces/inkscape"
   xmlns:sodipodi="http://sodipodi.sourceforge.net/DTD/sodipodi-0.dtd"
   xmlns="http://www.w3.org/2000/svg"
   xmlns:svg="http://www.w3.org/2000/svg">
  <defs
     id="defs30230">
    <inkscape:path-effect
       effect="spiro"
       id="path-effect29116"
       is_visible="true"
       lpeversion="1" />
  </defs>
  <sodipodi:namedview
     id="namedview30228"
     pagecolor="#505050"
     bordercolor="#eeeeee"
     borderopacity="1"
     inkscape:pageshadow="0"
     inkscape:pageopacity="0"
     inkscape:pagecheckerboard="0"
     showgrid="false"
     inkscape:zoom="24.25"
     inkscape:cx="17.670103"
     inkscape:cy="18"
     inkscape:window-width="3440"
     inkscape:window-height="1350"
     inkscape:window-x="0"
     inkscape:window-y="28"
     inkscape:window-maximized="1"
     inkscape:current-layer="svg30226" />
  <path
     fill="#78B159"
     d="M36 32c0 2.209-1.791 4-4 4H4c-2.209 0-4-1.791-4-4V4c0-2.209 1.791-4 4-4h28c2.209 0 4 1.791 4 4v28z"
     id="path30224" />
  <path
     style="fill:#ffffff;stroke-width:0.616902"
     d="m 12.828735,4.9925485 c 1.348835,-0.9267473 3.047972,-1.3297054 4.669322,-1.1073511 1.62135,0.2223543 3.149269,1.0678753 4.198805,2.3235388 1.049536,1.2556635 1.610563,2.9093532 1.541733,4.5444308 -0.06883,1.635078 -0.766853,3.235767 -1.918206,4.398782 -0.362394,0.366064 -0.765878,0.688631 -1.144942,1.037404 -0.984009,0.905378 -1.797505,1.982279 -2.512512,3.112211 -1.771497,2.799513 -2.975118,6.024031 -3.021376,9.336633 -3.33e-4,0.02385 -6.06e-4,0.0477 0,0.07154 0.0055,0.21705 0.08706,0.432222 0.230516,0.595201 0.143454,0.162979 0.348364,0.271677 0.564313,0.294195 0.21595,0.02252 0.440639,-0.04256 0.608089,-0.180766 0.167451,-0.138209 0.274429,-0.348577 0.282692,-0.56554 0.0041,-0.107948 -0.01505,-0.215235 -0.03181,-0.321953 -0.324357,-2.06503 0.243083,-4.191529 1.208551,-6.045559 0.948684,-1.8218 2.267711,-3.424139 3.657454,-4.93661 1.114247,-1.212645 2.297182,-2.400381 3.053179,-3.863434 0.778987,-1.507546 1.060175,-3.264592 0.806209,-4.942394 C 24.766787,7.0650754 23.981285,5.474078 22.81517,4.2413195 21.711578,3.0746571 20.258453,2.2254305 18.681763,1.9203656 17.105073,1.6153008 15.411324,1.8718272 14.037279,2.7031005 13.552231,2.9965462 13.110709,3.3561665 12.637906,3.6689591 12.42406,3.8104332 12.20278,3.9431 12.010366,4.1125756 11.817953,4.2820512 11.65331,4.4940864 11.588374,4.7421354 c -0.03232,0.123443 -0.03902,0.2542305 -0.01335,0.3792257 0.02567,0.1249953 0.08429,0.2438956 0.172373,0.3362249 0.08777,0.092002 0.204112,0.1563466 0.328692,0.1817821 0.12458,0.025436 0.256838,0.011848 0.373644,-0.038386 0.116806,-0.050234 0.217639,-0.1368907 0.284865,-0.2448153 0.06723,-0.1079246 0.100547,-0.2366356 0.09413,-0.3636237 z"
     id="path29114"
     inkscape:path-effect="#path-effect29116"
     inkscape:original-d="m 12.828735,4.9925485 c 0.359863,-0.1556689 5.661684,6.7735875 8.491654,10.1594005 2.829971,3.385814 -0.762712,0.692257 -1.144942,1.037404 -0.382229,0.345148 -1.674427,2.075462 -2.512512,3.112211 -0.838086,1.036749 -2.013669,6.225076 -3.021376,9.336633 -1.007706,3.111556 5.82e-4,0.04835 0,0.07154 -5.82e-4,0.02319 1.124322,0.09605 1.68561,0.14309 0.561288,0.04704 -0.02062,-0.213982 -0.03181,-0.321953 -0.01118,-0.107972 0.806283,-4.029719 1.208551,-6.045559 0.402268,-2.01584 2.438885,-3.290419 3.657454,-4.93661 1.21857,-1.646191 2.036035,-2.57497 3.053179,-3.863434 C 25.231689,12.396804 23.282209,7.3899572 22.81517,4.2413195 22.34813,1.0926825 16.963824,3.2164944 14.037279,2.7031005 11.110734,2.1897066 13.104945,3.3476606 12.637906,3.6689591 12.170866,3.990258 11.9388,4.385064 11.588374,4.7421354 c -0.350424,0.3570714 0.106595,0.4776215 0.159021,0.7154506 0.05243,0.2378297 0.72147,-0.3093745 1.081334,-0.4650428 z" />
  <ellipse
     style="fill:#ffffff;stroke-width:0.616902"
     id="path29140"
     cx="15.616154"
     cy="33.330349"
     rx="0.85457408"
     ry="1.0370952" />
</svg>
