<?xml version="1.0" encoding="UTF-8" standalone="no"?>
<svg
   viewBox="0 0 36 36"
   version="1.1"
   id="svg2001"
   sodipodi:docname="question_flag.svg"
   inkscape:version="1.1.2 (0a00cf5339, 2022-02-04)"
   xmlns:inkscape="http://www.inkscape.org/namespaces/inkscape"
   xmlns:sodipodi="http://sodipodi.sourceforge.net/DTD/sodipodi-0.dtd"
   xmlns="http://www.w3.org/2000/svg"
   xmlns:svg="http://www.w3.org/2000/svg">
  <defs
     id="defs2005" />
  <sodipodi:namedview
     id="namedview2003"
     pagecolor="#505050"
     bordercolor="#eeeeee"
     borderopacity="1"
     inkscape:pageshadow="0"
     inkscape:pageopacity="0"
     inkscape:pagecheckerboard="0"
     showgrid="false"
     inkscape:zoom="8.5736697"
     inkscape:cx="-23.968733"
     inkscape:cy="11.721935"
     inkscape:window-width="3440"
     inkscape:window-height="1350"
     inkscape:window-x="0"
     inkscape:window-y="28"
     inkscape:window-maximized="1"
     inkscape:current-layer="svg2001" />
  <path
     fill="#78B159"
     d="M36 32c0 2.209-1.791 4-4 4H4c-2.209 0-4-1.791-4-4V4c0-2.209 1.791-4 4-4h28c2.209 0 4 1.791 4 4v28z"
     id="path1999" />
  <path
     style="fill:#ffffff;stroke-width:0.0413219"
     d="m 13.836359,31.199423 v -3.098752 h 4.389163 4.389156 v 3.098752 3.098766 h -4.389156 -4.389163 z m -0.01776,-5.340593 c -0.04892,-0.208016 -0.0363,-1.930273 0.01793,-2.418607 0.188524,-1.701766 0.749755,-2.983453 1.779807,-4.064582 1.051828,-1.103961 2.18918,-1.913643 4.976391,-3.54269 3.769563,-2.203242 4.407918,-2.658062 4.933088,-3.514807 0.346286,-0.56492 0.418238,-0.836768 0.413901,-1.563643 -0.0039,-0.576996 -0.01667,-0.674098 -0.133109,-0.9790577 C 25.538529,9.073593 25.023905,8.4651832 24.217471,7.8966554 23.114339,7.1189734 21.736559,6.6568819 20.000928,6.4824849 c -2.05071,-0.2060633 -4.074852,-0.012318 -5.64256,0.5399457 -2.090514,0.7364969 -3.464738,1.9502547 -4.310161,3.8068754 -0.1083431,0.2379 -0.2377328,0.55987 -0.2875687,0.715514 -0.072399,0.226181 -0.1084686,0.282989 -0.1795708,0.282989 -0.092643,0 -7.4608444,-0.641504 -7.7965452,-0.678785 l -0.1912926,-0.02125 0.034206,-0.299177 C 1.7572202,9.692299 2.2515234,8.4828467 3.0200615,7.421157 3.6188552,6.5939339 4.4239923,5.8134904 5.4493759,5.0663445 7.9988841,3.2086916 11.165237,2.1650838 15.365216,1.7981959 c 0.904364,-0.079 4.207254,-0.090239 5.153558,-0.017519 4.156639,0.3193406 7.212616,1.2109617 9.798453,2.8588544 2.784557,1.7745477 4.232059,3.9301103 4.232059,6.3022787 0,1.130848 -0.31479,2.080763 -1.034266,3.120992 -0.664678,0.961019 -1.533088,1.749825 -3.279336,2.978744 -1.219905,0.858486 -2.099807,1.420884 -3.897562,2.491146 -3.419932,2.035968 -4.082931,2.656204 -4.385394,4.102339 -0.08492,0.406108 -0.173986,1.411947 -0.175427,1.981445 l -0.0012,0.372195 H 17.812596 13.84909 Z"
     id="path479" />
</svg>
