<?xml version="1.0" encoding="UTF-8" standalone="no"?>
<svg
   xmlns:dc="http://purl.org/dc/elements/1.1/"
   xmlns:cc="http://creativecommons.org/ns#"
   xmlns:rdf="http://www.w3.org/1999/02/22-rdf-syntax-ns#"
   xmlns:svg="http://www.w3.org/2000/svg"
   xmlns="http://www.w3.org/2000/svg"
   xmlns:sodipodi="http://sodipodi.sourceforge.net/DTD/sodipodi-0.dtd"
   xmlns:inkscape="http://www.inkscape.org/namespaces/inkscape"
   version="1.1"
   id="レイヤー_1"
   x="0px"
   y="0px"
   width="76px"
   height="76px"
   viewBox="0 0 76 76"
   enable-background="new 0 0 76 76"
   xml:space="preserve"
   sodipodi:docname="Minesweeper_2.svg"
   inkscape:version="1.0.1 (3bc2e813f5, 2020-09-07, custom)"><metadata
   id="metadata3278"><rdf:RDF><cc:Work
       rdf:about=""><dc:format>image/svg+xml</dc:format><dc:type
         rdf:resource="http://purl.org/dc/dcmitype/StillImage" /></cc:Work></rdf:RDF></metadata><defs
   id="defs3276" /><sodipodi:namedview
   pagecolor="#ffffff"
   bordercolor="#666666"
   borderopacity="1"
   objecttolerance="10"
   gridtolerance="10"
   guidetolerance="10"
   inkscape:pageopacity="0"
   inkscape:pageshadow="2"
   inkscape:window-width="1920"
   inkscape:window-height="1024"
   id="namedview3274"
   showgrid="false"
   inkscape:zoom="10.72591"
   inkscape:cx="38.697924"
   inkscape:cy="37.45639"
   inkscape:window-x="0"
   inkscape:window-y="28"
   inkscape:window-maximized="1"
   inkscape:current-layer="レイヤー_1" />
<g
   id="rect1313_66_">
	<polygon
   fill="#B9B9B9"
   points="75.001,75.001 1,75.001 1,1 75.001,1  "
   id="polygon3266" />
	<path
   fill="#757575"
   d="M75.991,0C75.996,0,76,0.004,76,0.009V75.99c0,0.006-0.004,0.01-0.009,0.01H0.009   C0.004,76,0,75.996,0,75.99V0.009C0,0.004,0.004,0,0.009,0H75.991 M74,2H2v72h72V2L74,2z"
   id="path3268" />
</g>
<path
   fill="#008200"
   d="M51.256,26.134v-4.545c0-1.545-1.293-2.796-2.892-2.796H27.393c-1.593,0-2.892,1.251-2.892,2.796v4.545  H8.593v-5.942C8.593,14.011,13.778,9,20.163,9h35.433c6.388,0,11.569,5.011,11.569,11.191c0,4.064,1.287,8.448-2.521,11.417  c-2.649,2.062-5.948,3.822-8.757,5.743c-6.993,4.777-14.083,9.431-21.093,14.188c-0.91,0.621-3.707,3.276-4.87,3.276  c0.012,0,37.602,0,37.602,0V66H8.774c0-4.529-1.605-9.863,2.609-13.253c2.949-2.372,6.773-4.315,9.932-6.502  c8-5.557,16.259-10.779,24.287-16.306C46.188,29.535,51.256,26.874,51.256,26.134z"
   id="path3271" />
<path
   style="fill:#1a1a1a;stroke-width:0;stroke-linecap:round;stroke-linejoin:round;paint-order:markers fill stroke"
   d="M 2.0110595,37.969167 V 2.0281597 H 37.998682 73.986305 V 37.969167 73.910173 H 37.998682 2.0110595 Z M 67.553285,60.438123 v -5.640547 l -18.576513,-0.0017 -18.576513,-0.0017 0.466161,-0.257292 c 0.706939,-0.390187 1.281723,-0.803847 2.609959,-1.878334 1.162104,-0.940095 3.572204,-2.600113 9.92977,-6.839389 1.615248,-1.07706 5.363011,-3.593356 8.328362,-5.591769 2.965352,-1.998413 6.594415,-4.386634 8.064584,-5.307156 4.304818,-2.695392 5.614836,-3.706877 6.447584,-4.978274 0.766282,-1.169923 1.124579,-2.593472 1.147506,-4.559165 0.01921,-1.647175 -0.204737,-6.020022 -0.359692,-7.02339 C 66.421295,14.388855 63.374281,10.880491 59.404908,9.574651 57.345863,8.8972682 57.880318,8.9123132 37.159593,8.9484436 l -18.506589,0.03227 -0.914835,0.2094987 C 15.20242,9.7709028 13.27948,10.857672 11.567358,12.67771 c -1.6510975,1.755169 -2.5974473,3.747047 -2.9356016,6.178859 -0.049913,0.358944 -0.091582,2.152498 -0.092597,3.985676 l -0.00185,3.33305 h 8.0179676 8.017968 v -2.59561 -2.59561 l 0.285107,-0.570548 c 0.326256,-0.652897 0.664626,-0.972418 1.393072,-1.315472 l 0.512777,-0.241486 H 37.90545 49.046696 l 0.435923,0.201464 c 0.616091,0.284731 1.230403,0.88561 1.488085,1.455547 0.211866,0.468603 0.221483,0.587054 0.250283,3.082638 l 0.02995,2.59531 -0.372219,0.354084 c -0.48096,0.457525 -1.557117,1.162247 -3.416971,2.237603 -0.820443,0.474375 -2.204941,1.345333 -3.076662,1.935462 -0.871721,0.590129 -5.570623,3.72621 -10.442005,6.969069 -4.871381,3.24286 -9.994092,6.675989 -11.383799,7.629178 -1.389709,0.953188 -3.697205,2.453563 -5.12777,3.334167 -6.088684,3.74797 -7.390165,4.835912 -8.2590708,6.90397 -0.5407215,1.286956 -0.6671652,2.079656 -0.6747979,4.230437 -0.00382,1.076831 0.053477,2.933317 0.1273306,4.125524 L 8.7592534,66.07867 H 38.156269 67.553285 Z"
   id="path8373" /><path
   style="fill:#666666;stroke-width:0;stroke-linecap:round;stroke-linejoin:round;paint-order:markers fill stroke"
   d="M 0.05318368,38.015783 V 0.07028384 H 37.998682 75.944181 V 38.015783 75.961281 H 37.998682 0.05318368 Z M 74.079538,37.969167 V 1.9349275 H 37.998682 1.9178274 V 37.969167 74.003406 H 37.998682 74.079538 Z"
   id="path8375" /></svg>
