<?xml version="1.0" encoding="UTF-8" standalone="no"?>
<svg
   xmlns:dc="http://purl.org/dc/elements/1.1/"
   xmlns:cc="http://creativecommons.org/ns#"
   xmlns:rdf="http://www.w3.org/1999/02/22-rdf-syntax-ns#"
   xmlns:svg="http://www.w3.org/2000/svg"
   xmlns="http://www.w3.org/2000/svg"
   xmlns:sodipodi="http://sodipodi.sourceforge.net/DTD/sodipodi-0.dtd"
   xmlns:inkscape="http://www.inkscape.org/namespaces/inkscape"
   version="1.1"
   id="レイヤー_1"
   x="0px"
   y="0px"
   width="76px"
   height="76px"
   viewBox="0 0 76 76"
   enable-background="new 0 0 76 76"
   xml:space="preserve"
   sodipodi:docname="Minesweeper_boom.svg"
   inkscape:version="1.0.1 (3bc2e813f5, 2020-09-07, custom)"><metadata
   id="metadata1315"><rdf:RDF><cc:Work
       rdf:about=""><dc:format>image/svg+xml</dc:format><dc:type
         rdf:resource="http://purl.org/dc/dcmitype/StillImage" /><dc:title /></cc:Work></rdf:RDF></metadata><defs
   id="defs1313" /><sodipodi:namedview
   pagecolor="#ffffff"
   bordercolor="#666666"
   borderopacity="1"
   objecttolerance="10"
   gridtolerance="10"
   guidetolerance="10"
   inkscape:pageopacity="0"
   inkscape:pageshadow="2"
   inkscape:window-width="1920"
   inkscape:window-height="1024"
   id="namedview1311"
   showgrid="false"
   inkscape:snap-global="true"
   inkscape:zoom="6.9283586"
   inkscape:cx="21.100096"
   inkscape:cy="38.6837"
   inkscape:window-x="0"
   inkscape:window-y="28"
   inkscape:window-maximized="1"
   inkscape:current-layer="レイヤー_1"
   inkscape:document-rotation="0" />
<g
   id="rect1313_66_"
   style="stroke-width:0;stroke-miterlimit:4;stroke-dasharray:none">
	<polygon
   fill="#B9B9B9"
   points="75.001,75.001 1,75.001 1,1 75.001,1 75.001,75.001  "
   id="polygon1305"
   style="stroke-width:0;stroke-miterlimit:4;stroke-dasharray:none" />
	<path
   fill="#757575"
   d="M75.991,0C75.996,0,76,0.004,76,0.009V75.99c0,0.006-0.004,0.01-0.009,0.01H0.009   C0.004,76,0,75.996,0,75.99V0.009C0,0.004,0.004,0,0.009,0H75.991 M74,2H2v72h72V2L74,2z"
   id="path1307"
   style="stroke-width:0;stroke-miterlimit:4;stroke-dasharray:none" />
<path
   style="fill:#4d4d4d;fill-opacity:1;stroke:#ff0000;stroke-width:0.01;stroke-linecap:round;stroke-linejoin:round;paint-order:markers fill stroke;stroke-miterlimit:4;stroke-dasharray:none"
   d="M 0.09576617,38.029423 V 0.09198624 H 38.033203 75.97064 V 38.029423 75.96686 H 38.033203 0.09576617 Z m 73.98325583,0 V 1.9836036 H 38.033203 1.9873835 V 38.029423 74.075242 H 38.033203 74.079022 Z"
   id="path8358" /></g>
<path
   id="path1390"
   style="fill:#fffffe;stroke-width:0.381281;fill-opacity:1"
   d="m 36.458984,6.71875 v 3.748047 3.746094 L 33.884766,14.6875 c -3.293356,0.60591 -7.158651,2.231316 -9.642578,4.054688 l -1.951172,1.43164 -2.742188,-2.722656 -2.74414,-2.72461 -1.039063,1.039063 -1.039063,1.039063 2.699219,2.71875 2.701172,2.71875 -1.917969,2.722656 c -2.073664,2.94529 -2.881017,5.444004 -3.535156,8.99414 l -0.460937,2.5 H 10.466797 6.71875 v 1.525391 1.525391 h 3.748047 3.746094 l 0.466797,2.535156 c 0.612486,3.32409 1.931039,6.503792 3.878906,9.357422 l 1.578125,2.314453 -2.705078,2.722656 -2.705079,2.724609 1.039063,1.039063 1.039063,1.039063 2.724609,-2.705079 2.724609,-2.705078 2.3125,1.578125 c 2.884379,1.968858 6.061594,3.276345 9.353516,3.84961 l 2.539062,0.443359 V 65.476562 69.25 h 1.525391 1.525391 v -3.773438 -3.773437 l 2.539062,-0.443359 c 3.291917,-0.573265 6.469139,-1.880752 9.353516,-3.84961 l 2.314453,-1.578125 2.722656,2.705078 2.724609,2.705079 1.039063,-1.039063 1.039063,-1.039063 -2.705079,-2.724609 -2.705078,-2.722656 1.578125,-2.314453 c 1.947866,-2.85363 3.266415,-6.033332 3.878906,-9.357422 l 0.466797,-2.535156 H 65.501953 69.25 v -1.525391 -1.525391 h -3.748047 -3.746094 l -0.466797,-2.535156 c -0.612492,-3.324089 -1.93104,-6.503796 -3.878906,-9.357422 l -1.578125,-2.3125 2.705078,-2.724609 2.705079,-2.724609 -1.039063,-1.039063 -1.039063,-1.039063 -2.742187,2.72461 -2.742187,2.722656 -1.953126,-1.43164 C 49.242635,16.918816 45.37734,15.29341 42.083984,14.6875 L 39.509766,14.212891 V 10.466797 6.71875 H 37.984375 Z M 12.601562,63.0625 c 5.25e-4,0.02301 0.0028,0.03963 0,0.07422 -0.006,0.03927 0.0016,-0.03774 0.0039,-0.07227 -9.15e-4,-10e-4 -0.003,-6.55e-4 -0.0039,-0.002 z" /><path
   style="fill:#ff0000;fill-opacity:1;stroke:#0000ff;stroke-width:0;stroke-miterlimit:4;stroke-dasharray:none"
   d="M 2.0139347,37.972104 V 2.0285241 H 37.957514 73.901094 V 37.972104 73.915683 H 37.957514 2.0139347 Z M 39.568431,65.508712 c 0,-2.076573 0.03571,-3.775586 0.07935,-3.775586 0.04364,0 0.822972,-0.135832 1.731843,-0.301849 4.298337,-0.785143 6.896135,-1.847588 10.582306,-4.32794 l 1.771518,-1.192019 2.707675,2.709067 2.707673,2.709068 1.083915,-1.080554 1.083914,-1.080554 -1.989803,-2.014955 c -1.094391,-1.108225 -2.302891,-2.340979 -2.685553,-2.739453 l -0.69575,-0.724497 1.236151,-1.842901 c 2.242412,-3.34307 3.456266,-6.233987 4.176949,-9.947826 0.198796,-1.024442 0.38462,-1.964563 0.412941,-2.089157 l 0.05149,-0.226536 h 3.723327 3.723327 V 38.022445 36.461869 H 65.546377 61.82305 l -0.04762,-0.226535 c -0.02619,-0.124594 -0.205725,-1.042062 -0.39897,-2.038816 -0.78336,-4.040569 -1.768645,-6.40936 -4.163404,-10.009529 -0.67838,-1.019844 -1.233419,-1.876898 -1.233419,-1.904565 0,-0.02767 1.207533,-1.269678 2.683408,-2.760026 l 2.683407,-2.709722 -1.045522,-1.049091 c -0.575035,-0.577 -1.091328,-1.049092 -1.147315,-1.049092 -0.05599,0 -1.310917,1.208501 -2.788734,2.685558 l -2.686941,2.685558 -0.736944,-0.54482 C 49.151632,16.739324 45.795955,15.29201 41.154177,14.457093 L 39.568431,14.171865 V 10.415887 6.6599097 H 38.007855 36.44728 v 3.7580593 3.758059 l -1.031994,0.175991 c -4.984069,0.849958 -8.407954,2.261868 -12.103156,4.990988 l -0.985752,0.728034 -0.817938,-0.789755 c -0.449867,-0.434365 -1.690186,-1.650565 -2.756265,-2.702667 l -1.938325,-1.912913 -1.081501,1.081501 -1.081501,1.081501 2.701347,2.702738 2.701347,2.702737 -0.956667,1.358367 c -2.957227,4.198951 -3.673385,5.91865 -4.60818,11.06554 l -0.327607,1.803779 H 10.403204 6.6453203 v 1.560576 1.560575 h 3.7616067 3.761606 l 0.220466,1.233359 c 0.805081,4.503872 1.945809,7.357651 4.41449,11.043801 l 1.243359,1.856542 -2.673472,2.674848 c -1.470409,1.471166 -2.673472,2.720655 -2.673472,2.776643 0,0.05599 0.472159,0.572346 1.049242,1.147465 l 1.049242,1.045671 2.757438,-2.73157 c 2.361141,-2.338992 2.778292,-2.711915 2.902538,-2.594803 0.07981,0.07522 0.824706,0.589388 1.655335,1.142592 3.909258,2.603588 6.279027,3.523821 11.351928,4.4082 l 0.981653,0.171136 v 3.763696 3.763698 h 1.560575 1.560576 z"
   id="path2182" /><path
   style="fill:#666666;fill-opacity:1;stroke:none;stroke-width:0;stroke-linecap:round;stroke-linejoin:round;stroke-miterlimit:4;stroke-dasharray:none;paint-order:markers fill stroke"
   d="M 0.20085602,38.029423 V 0.19707609 H 38.033203 75.86555 V 38.029423 75.86177 H 38.033203 0.20085602 Z m 73.93071098,0 V 1.9310587 H 38.033203 1.9348386 L 1.9079438,37.924333 c -0.014792,19.796301 -0.00443,36.052456 0.023032,36.124788 0.039865,0.10501 7.32005,0.126189 36.1252592,0.10509 l 36.075332,-0.02642 z"
   id="path8362" /><path
   style="fill:#d00000;fill-opacity:1;stroke:none;stroke-width:0;stroke-linecap:round;stroke-linejoin:round;stroke-miterlimit:4;stroke-dasharray:none;paint-order:markers fill stroke"
   d="M 2.0924734,37.976878 V 2.0886934 H 37.980658 73.868843 V 37.976878 73.865063 H 37.980658 2.0924734 Z M 39.630814,65.624135 c 0.0172,-2.047134 0.05493,-3.745602 0.08383,-3.774372 0.0289,-0.02877 1.021998,-0.247087 2.206886,-0.485149 4.229139,-0.849697 6.616052,-1.884173 10.794048,-4.678081 l 1.027027,-0.686792 2.706904,2.705402 2.706904,2.705403 1.122267,-1.122265 1.122266,-1.122266 -2.646143,-2.692803 c -1.455379,-1.48104 -2.646142,-2.738858 -2.646142,-2.795149 0,-0.05629 0.323527,-0.585499 0.718949,-1.176016 2.581782,-3.855592 3.753008,-6.56311 4.578588,-10.584299 0.207667,-1.01149 0.402063,-1.945476 0.431992,-2.075525 l 0.05442,-0.236452 h 3.728688 3.728688 v -1.576348 -1.576348 h -3.723608 c -3.456036,0 -3.727418,-0.01321 -3.776626,-0.183907 -0.02916,-0.101149 -0.177182,-0.822328 -0.328936,-1.60262 -0.908488,-4.671288 -1.744941,-6.677065 -4.614889,-11.0663 -0.446077,-0.68222 -0.796124,-1.283824 -0.777883,-1.336898 0.01824,-0.05307 0.860748,-0.938055 1.872238,-1.966626 1.01149,-1.028571 2.192715,-2.235975 2.624945,-2.68312 l 0.785872,-0.812993 -1.046625,-1.050568 c -0.575644,-0.577812 -1.116316,-1.050567 -1.201495,-1.050567 -0.08518,0 -1.350211,1.191979 -2.811185,2.648843 l -2.656315,2.648844 -0.501118,-0.361486 C 50.643879,17.795866 48.003453,16.350168 45.809852,15.592482 44.487911,15.135874 42.291558,14.585944 40.739267,14.322894 L 39.609551,14.131451 V 10.369504 6.6075571 h -1.628893 -1.628893 v 3.7641919 3.764192 l -1.024626,0.180542 c -4.890589,0.861736 -8.157544,2.191993 -11.817493,4.811912 l -1.169225,0.836971 -0.58707,-0.556058 c -0.322888,-0.305833 -1.568419,-1.525777 -2.767848,-2.710989 l -2.180778,-2.154928 -1.128868,1.128867 -1.128867,1.128868 2.711164,2.712669 2.711164,2.712669 -1.051747,1.51727 c -2.784847,4.01748 -3.528811,5.814332 -4.457181,10.765179 l -0.354711,1.891617 -3.747171,0.0276 -3.747171,0.0276 v 1.573693 1.573693 l 3.746199,0.0276 3.746199,0.0276 0.395111,1.944162 c 0.876432,4.312524 1.910573,6.77225 4.434844,10.548374 l 1.044965,1.563191 -2.6377,2.645139 c -1.450735,1.454828 -2.637699,2.71677 -2.637699,2.804315 0,0.183602 1.987011,2.21662 2.122363,2.171503 0.04949,-0.01649 1.23122,-1.140907 2.626079,-2.498694 1.394858,-1.357787 2.625292,-2.531975 2.734297,-2.609307 0.177204,-0.125714 0.339558,-0.04633 1.533399,0.74976 3.92317,2.616091 6.176623,3.567013 10.449613,4.409571 l 2.182758,0.430402 v 3.764733 3.764734 h 1.623883 1.623885 z"
   id="path8364" /></svg>
