<?xml version="1.0" encoding="UTF-8" standalone="no"?>
<svg
   viewBox="0 0 36 36"
   version="1.1"
   id="svg8"
   sodipodi:docname="grimacing_face.svg"
   inkscape:version="1.1.1 (3bf5ae0d25, 2021-09-20)"
   xmlns:inkscape="http://www.inkscape.org/namespaces/inkscape"
   xmlns:sodipodi="http://sodipodi.sourceforge.net/DTD/sodipodi-0.dtd"
   xmlns="http://www.w3.org/2000/svg"
   xmlns:svg="http://www.w3.org/2000/svg">
  <defs
     id="defs12" />
  <sodipodi:namedview
     id="namedview10"
     pagecolor="#ffffff"
     bordercolor="#666666"
     borderopacity="1.0"
     inkscape:pageshadow="2"
     inkscape:pageopacity="0.0"
     inkscape:pagecheckerboard="0"
     showgrid="false"
     inkscape:snap-bbox="true"
     inkscape:bbox-nodes="true"
     inkscape:snap-page="true"
     inkscape:snap-bbox-midpoints="true"
     inkscape:snap-object-midpoints="true"
     inkscape:snap-center="true"
     inkscape:snap-midpoints="true"
     inkscape:snap-nodes="false"
     inkscape:snap-others="false"
     inkscape:snap-bbox-edge-midpoints="false"
     inkscape:zoom="15.949186"
     inkscape:cx="12.571174"
     inkscape:cy="21.349052"
     inkscape:window-width="1920"
     inkscape:window-height="1001"
     inkscape:window-x="-9"
     inkscape:window-y="-9"
     inkscape:window-maximized="1"
     inkscape:current-layer="svg8" />
  <g
     id="g1803"
     transform="matrix(0.63610416,0,0,0.63610416,-84.200967,-1.2524692)">
    <path
       style="opacity:1;fill:#ffffff;fill-opacity:1;fill-rule:evenodd;stroke:none;stroke-width:0.326554;stroke-linecap:square;stroke-opacity:1;paint-order:stroke fill markers"
       d="m 548.4278,138.29112 c -0.75862,-0.007 -1.23011,0.84258 -0.95918,1.51404 0.2822,3.48858 0.11283,7.12148 0.9763,10.58346 0.0516,0.69593 0.47254,1.5104 1.27872,1.4563 1.11086,-0.15689 1.95596,-1.01774 2.89897,-1.55722 0.62621,-0.37082 1.45459,-0.8659 1.23805,-1.72477 -0.26366,-2.79756 -0.77625,-5.56816 -1.42754,-8.29893 0.0513,-0.70129 -0.41929,-1.38106 -1.15691,-1.40566 -0.94905,-0.17788 -1.88408,-0.49353 -2.84841,-0.56722 z"
       id="path95493"
       transform="scale(0.26458333)" />
    <path
       style="opacity:1;fill:#ffffff;fill-opacity:1;fill-rule:evenodd;stroke:none;stroke-width:0.326554;stroke-linecap:square;stroke-opacity:1;paint-order:stroke fill markers"
       d="m 553.93569,139.5765 c -0.84316,0.0298 -1.2167,1.02225 -0.898,1.72088 0.48387,2.08933 0.7517,4.2206 1.10961,6.33094 0.26556,0.84222 1.3388,0.92744 1.99947,0.5129 1.83698,-0.98193 3.77675,-1.74762 5.76872,-2.35249 1.10896,-0.41574 2.30245,-0.58819 3.38916,-1.05231 0.86928,-0.45706 0.71497,-1.87002 -0.21077,-2.16829 -2.759,-0.94665 -5.60451,-1.62633 -8.41893,-2.38904 -0.90895,-0.20174 -1.80895,-0.53029 -2.73926,-0.60259 z"
       id="path95970"
       transform="scale(0.26458333)" />
    <path
       style="opacity:1;fill:#ffffff;fill-opacity:1;fill-rule:evenodd;stroke:none;stroke-width:0.326554;stroke-linecap:square;stroke-opacity:1;paint-order:stroke fill markers"
       d="m 584.09616,141.43092 c -1.91143,0.44242 -3.82057,0.92732 -5.70786,1.44996 -1.07746,0.4248 -0.81423,2.19944 0.26545,2.473 1.61145,0.63225 3.09226,1.54286 4.66885,2.24541 0.76088,0.36471 1.73294,-0.17193 1.77932,-1.02685 0.15259,-1.37773 0.22703,-2.75922 0.43985,-4.13191 0.0605,-0.7843 -0.74916,-1.22978 -1.44561,-1.00961 z"
       id="path96046"
       transform="scale(0.26458333)" />
    <path
       style="opacity:1;fill:#ffffff;fill-opacity:1;fill-rule:evenodd;stroke:none;stroke-width:0.326554;stroke-linecap:square;stroke-opacity:1;paint-order:stroke fill markers"
       d="m 595.72652,138.65107 c -2.99161,0.65556 -5.98062,1.34607 -8.9408,2.12948 -0.87551,0.45407 -0.78588,1.60137 -0.98286,2.43304 -0.20673,1.19923 -0.19859,2.43401 -0.42841,3.62413 -0.52269,0.60679 -0.51029,1.58416 0.1458,2.09572 1.58158,1.26249 3.35386,2.2671 4.99599,3.44921 0.8124,0.50605 1.54815,1.2241 2.49574,1.45539 0.83551,0.11269 1.40058,-0.7246 1.36622,-1.48451 0.16353,-4.05182 0.9984,-8.06745 2.30758,-11.90043 0.26925,-0.58278 0.27239,-1.43259 -0.4244,-1.70453 -0.15175,-0.10949 -0.3551,-0.11105 -0.53486,-0.0975 z"
       id="path96085"
       transform="scale(0.26458333)" />
    <path
       style="opacity:1;fill:#ffffff;fill-opacity:1;fill-rule:evenodd;stroke:none;stroke-width:0.326554;stroke-linecap:square;stroke-opacity:1;paint-order:stroke fill markers"
       d="m 615.40229,134.91069 c -5.55682,0.63683 -11.05525,1.71705 -16.50678,2.95467 -1.08985,0.1469 -1.33718,1.37334 -1.68417,2.22095 -1.63863,4.28289 -2.39324,8.86576 -2.57782,13.4338 0.0748,0.81232 -0.0828,1.87086 0.80844,2.28476 0.97505,0.70187 1.93744,1.46583 3.11942,1.82063 1.03441,0.51678 1.78949,1.45474 2.80887,2.00865 1.60941,0.98241 3.32387,1.81312 5.09917,2.44336 0.85144,0.24804 1.60548,-0.51942 1.65714,-1.3355 0.94855,-4.67896 2.50043,-9.30548 4.11223,-13.83457 1.258,-3.47737 2.64039,-6.89168 4.28266,-10.2068 0.45049,-0.84147 -0.12054,-1.88921 -1.11916,-1.78995 z"
       id="path96124"
       transform="scale(0.26458333)" />
    <path
       style="opacity:1;fill:#80e5ff;fill-opacity:1;fill-rule:evenodd;stroke:none;stroke-width:1;stroke-linecap:square;stroke-opacity:1;paint-order:stroke fill markers"
       id="path94278"
       d="m 176.77493,45.392924 c 0.40052,0.03654 0.80582,0.04158 1.2024,0.114806 0.11182,0.02064 0.22153,0.0514 0.3323,0.07711 0.66205,0.243292 1.24518,0.661006 1.71644,1.182045 0.0319,0.05432 0.14925,0.195725 0.11335,0.29111 -0.008,0.02082 -0.0434,0.01252 -0.0621,0.02458 -0.30969,0.199599 0.16871,-0.05417 -0.29677,0.21136 -0.0852,0.0486 -0.17552,0.08766 -0.26327,0.131484 -0.33145,0.153255 -0.6797,0.264041 -1.02637,0.376349 -0.20188,0.0654 -0.40722,0.119996 -0.59725,0.217411 -0.0669,0.03431 -0.12643,0.08149 -0.18965,0.12224 -0.0392,0.129468 -0.14298,0.255561 -0.1175,0.388405 0.072,0.375696 1.05903,0.549786 1.36304,0.624399 0.28632,0.08335 0.59138,0.124809 0.86972,0.235926 0.0571,0.02281 0.11274,0.052 0.16108,0.09004 0.0269,0.02114 0.0861,0.06199 0.0596,0.08355 -0.0287,0.02331 -0.0651,-0.03512 -0.0976,-0.05268 -0.0284,0.01349 -0.0588,0.02318 -0.085,0.04044 -0.36419,0.239858 -0.0127,0.05853 -0.47813,0.317937 -0.34661,0.193198 -0.71391,0.337455 -1.08256,0.481478 -0.90285,0.354772 -1.86231,0.494392 -2.81745,0.623401 -1.23881,0.158572 -2.48467,0.24883 -3.73087,0.323805 -1.18086,0.06662 -2.36258,0.116485 -3.54434,0.164073 -0.95616,0.03979 -1.91288,0.06313 -2.86963,0.08265 -1.02567,0.02122 -2.05157,0.02677 -3.07726,0.04608 -1.10535,0.01836 -2.20804,0.09781 -3.31113,0.164658 -1.15547,0.07987 -2.31233,0.118541 -3.47024,0.132127 -1.12046,0.01342 -2.24161,0.0036 -3.35942,-0.07791 -1.10591,-0.08729 -2.20022,-0.27473 -3.29458,-0.450252 -1.02624,-0.160417 -2.04954,-0.338431 -3.07365,-0.511712 -0.74993,-0.117433 -1.48917,-0.28603 -2.21764,-0.497906 -0.51197,-0.169609 -1.06018,-0.306184 -1.46744,-0.677754 -0.016,-0.0286 -0.0419,-0.0536 -0.048,-0.0858 -0.002,-0.01241 0.0206,-0.01585 0.0266,-0.02698 0.011,-0.02045 0.0118,-0.04538 0.0231,-0.06565 0.0606,-0.108932 0.17432,-0.201502 0.26175,-0.285502 0.21308,-0.193646 0.4727,-0.426442 0.38279,-0.755502 -0.0562,-0.205742 -0.19625,-0.283135 -0.3457,-0.402574 -0.35894,-0.241768 -0.77653,-0.369371 -1.15523,-0.573899 -0.035,-0.03417 -0.0868,-0.07314 -0.10107,-0.125027 -0.0128,-0.04659 0.0752,-0.231846 0.0906,-0.267517 0.1485,-0.277323 0.39207,-0.473303 0.64406,-0.651563 0.19781,-0.127884 0.0984,-0.06607 0.29822,-0.185547 0.37543,-0.225018 0.0572,-0.755954 -0.31823,-0.530937 v 0 c -0.22616,0.135861 -0.11304,0.06517 -0.33917,0.212344 -0.34895,0.250066 -0.67332,0.532982 -0.8608,0.928831 -0.188,0.502335 -0.16337,0.832498 0.29452,1.165283 0.35352,0.187513 0.73484,0.317201 1.07766,0.524703 0.15648,0.09698 0.0557,0.03443 0.1496,-0.0721 0.0103,-0.01175 -0.001,0.03277 -0.01,0.04586 -0.055,0.08403 -0.17674,0.186229 -0.24221,0.247232 -0.32318,0.325313 -0.61045,0.689078 -0.38557,1.170675 0.0351,0.07513 0.0994,0.132752 0.14906,0.199131 0.0651,0.05558 0.12616,0.116192 0.19521,0.166748 0.44484,0.325724 0.99406,0.465027 1.50758,0.639972 0.7514,0.218083 1.51366,0.392665 2.28707,0.51381 1.02587,0.173575 2.05091,0.351864 3.0789,0.512577 1.112,0.178351 2.22401,0.368295 3.34779,0.456438 1.13519,0.08208 2.27363,0.09368 3.4115,0.07949 1.16798,-0.01376 2.33491,-0.05273 3.50041,-0.133215 1.0945,-0.06633 2.18861,-0.145336 3.28535,-0.163637 1.02601,-0.01934 2.05224,-0.02482 3.07823,-0.04609 0.96085,-0.01961 1.92166,-0.04307 2.88191,-0.08303 1.18586,-0.04776 2.37167,-0.09781 3.55662,-0.164687 1.26149,-0.07595 2.52264,-0.167508 3.77663,-0.328269 1.00398,-0.135898 2.01159,-0.286644 2.96017,-0.660424 0.52567,-0.206227 1.07499,-0.41353 1.53282,-0.753192 0.10929,-0.08108 0.2235,-0.160993 0.30885,-0.266988 0.0858,-0.106569 0.13091,-0.2403 0.19636,-0.36045 -0.0256,-0.138197 -0.0162,-0.287763 -0.0767,-0.414597 -0.0425,-0.08894 -0.13592,-0.144827 -0.21706,-0.200779 -0.33992,-0.234392 -0.78727,-0.256725 -1.16962,-0.378285 -0.26546,-0.06497 -0.52826,-0.133395 -0.78974,-0.212945 -0.0432,-0.01312 -0.0948,-0.06914 -0.12933,-0.04004 -0.0952,0.08033 0.29656,0.367818 -0.12439,0.352332 0.18366,-0.14242 0.41182,-0.191513 0.62979,-0.262231 0.37772,-0.12255 0.75681,-0.244456 1.11684,-0.414089 0.31227,-0.163787 0.69743,-0.339166 0.8592,-0.682519 0.17109,-0.363141 0.0381,-0.650452 -0.177,-0.944988 -0.57671,-0.622025 -1.22651,-1.089171 -2.03496,-1.367179 -0.12901,-0.02901 -0.25694,-0.06334 -0.38703,-0.08703 -0.40564,-0.07388 -0.81968,-0.08161 -1.22934,-0.117851 -0.4359,-0.03963 -0.49194,0.576831 -0.056,0.616458 z" />
    <path
       style="fill:#80e5ff;fill-opacity:1;fill-rule:evenodd;stroke:none;stroke-width:1;stroke-linecap:square;stroke-opacity:1;paint-order:stroke fill markers"
       id="path94280"
       d="m 176.20265,45.169663 c 0.081,0.02598 0.16,0.05766 0.23952,0.08782 0.10959,0.03912 0.0552,0.01984 0.16326,0.05783 0.41295,0.145089 0.61814,-0.438915 0.20518,-0.584004 v 0 c -0.10161,-0.0357 -0.052,-0.01815 -0.14889,-0.05259 -0.0874,-0.03315 -0.17445,-0.06733 -0.26333,-0.0963 -0.41523,-0.138414 -0.61098,0.448823 -0.19574,0.587234 z" />
    <path
       style="fill:#80e5ff;fill-opacity:1;fill-rule:evenodd;stroke:none;stroke-width:1;stroke-linecap:square;stroke-opacity:1;paint-order:stroke fill markers"
       id="path94282"
       d="m 178.0509,48.835682 c 0.0554,-0.0027 0.11011,0.0019 0.16509,0.0081 0.0828,0.01193 0.16466,0.02933 0.24561,0.05017 0.0101,0.0032 0.0202,0.0064 0.0302,0.0096 0.41866,0.127712 0.59927,-0.464352 0.18062,-0.592064 v 0 c -0.0195,-0.0058 -0.0389,-0.01162 -0.0583,-0.01744 -0.10873,-0.0274 -0.21854,-0.05108 -0.32983,-0.06547 -0.0776,-0.0085 -0.15526,-0.01447 -0.2334,-0.01188 -0.4377,0 -0.4377,0.619001 0,0.619001 z" />
    <path
       style="opacity:1;fill:#80e5ff;fill-opacity:1;fill-rule:evenodd;stroke:none;stroke-width:0.923635;stroke-linecap:square;stroke-opacity:1;paint-order:stroke fill markers"
       d="m 537.21691,173.98411 c -2.08134,0.53851 -4.02106,2.21389 -4.70715,4.28092 -0.32709,2.18247 2.36834,2.71655 3.80505,3.57069 0.84237,0.50013 2.83761,1.28721 1.72688,2.49724 -1.05378,1.14415 -2.72516,3.02978 -1.21617,4.51051 2.32049,1.8788 5.45375,2.318 8.23632,3.18742 8.81625,1.80505 17.71828,3.21602 26.62913,4.47019 10.17764,1.10088 20.44335,0.51533 30.64282,0.0647 1.35657,-0.18034 3.82458,0.18813 3.98973,-1.74033 0.19469,-1.76217 -1.96155,-1.80344 -3.18119,-1.78967 -15.39591,-0.38417 -30.46704,-3.9925 -45.02279,-8.96708 -6.89509,-2.47679 -13.71192,-5.42118 -19.67214,-9.73143 -0.38128,-0.19016 -0.79386,-0.37675 -1.23049,-0.3532 z"
       id="path94608"
       transform="scale(0.26458333)" />
    <path
       style="opacity:1;fill:#80e5ff;fill-opacity:1;fill-rule:evenodd;stroke:none;stroke-width:0.923635;stroke-linecap:square;stroke-opacity:1;paint-order:stroke fill markers"
       d="m 665.84924,169.82538 c -2.86657,1.08759 -5.06827,3.44833 -7.70126,4.98876 -9.93389,6.56126 -21.10032,11.12941 -32.42167,14.61927 -4.62033,1.40884 -9.34904,2.24445 -14.05677,3.16894 -0.88468,0.60002 -1.11781,2.62832 -0.17435,3.2675 3.93416,0.34279 8.02147,6.9e-4 12.0151,-0.0173 14.21855,-0.47637 28.50566,-0.6041 42.61503,-2.59934 4.85031,-0.76033 9.79151,-2.10534 13.85826,-4.93572 1.24034,-0.94764 0.28757,-2.66253 -1.04672,-2.85283 -2.14019,-0.85798 -4.76388,-0.82739 -6.58342,-2.30728 0.1,-0.85235 1.47931,-0.91234 2.06069,-1.3193 2.40836,-1.05283 5.33001,-1.49933 7.17127,-3.50574 0.88311,-1.7303 -1.30891,-2.96737 -2.32493,-4.02079 -2.72841,-2.5509 -6.43703,-3.58866 -10.0935,-3.72868 -1.18445,0.007 -2.15739,-0.74153 -3.31773,-0.75748 z"
       id="path94647"
       transform="scale(0.26458333)" />
    <path
       style="opacity:1;fill:#80e5ff;fill-opacity:1;fill-rule:evenodd;stroke:none;stroke-width:0.230909;stroke-linecap:square;stroke-opacity:1;paint-order:stroke fill markers"
       d="m 610.90311,192.61749 c -1.56861,0.12318 -3.13644,0.28829 -4.70654,0.37705 -0.71281,0.0858 -0.99407,0.87405 -0.92351,1.50423 -0.0132,0.58842 -0.0823,1.36613 0.55833,1.65803 0.63146,0.24393 1.33864,0.01 2.00221,0.0366 1.10095,-0.0754 2.2337,-0.0539 3.33319,-0.18588 0.64943,-0.11029 0.87754,-0.8548 0.74128,-1.43022 -0.0485,-0.53902 0.27257,-1.17129 -0.19651,-1.6083 -0.18292,-0.23145 -0.5117,-0.36823 -0.80845,-0.3515 z"
       id="path94686"
       transform="scale(0.26458333)" />
    <path
       style="fill:#501616;fill-opacity:1;fill-rule:evenodd;stroke:none;stroke-width:1.84727;stroke-linecap:square;paint-order:stroke fill markers"
       d="m 544.37405,137.82469 c -6.10535,-0.44412 -11.87564,5.60191 -10.23239,11.68148 1.49837,3.49364 4.90308,6.24688 8.46542,7.39627 2.39336,-0.41303 4.83254,-2.325 5.87558,-4.36445 -1.42576,-4.54836 -0.45149,-9.34 -1.8357,-13.88184 -0.45211,-0.79414 -1.45082,-0.89724 -2.27291,-0.83146 z"
       id="path75553"
       transform="scale(0.26458333)" />
    <path
       style="fill:#501616;fill-opacity:1;fill-rule:evenodd;stroke:#000000;stroke-width:1.84727;stroke-linecap:square;stroke-opacity:1;paint-order:stroke fill markers"
       d="m 618.13626,134.54658 c -4.31276,8.19713 -7.47992,17.05249 -9.5909,26.06544 -0.41724,3.05673 3.78128,3.26519 5.80685,4.09907 7.03448,1.93214 14.68397,1.94898 21.73823,0.1346 5.94422,-1.67087 11.50643,-6.81603 11.01612,-13.42443 0.57838,-6.22582 -3.09083,-12.57572 -9.13651,-14.56454 -6.19705,-2.30799 -13.04431,-2.48426 -19.52098,-2.43348 z"
       id="path77033"
       transform="scale(0.26458333)" />
    <path
       style="fill:#ffff00;fill-opacity:1;fill-rule:evenodd;stroke:none;stroke-width:1;stroke-linecap:square;paint-order:stroke fill markers"
       id="path68814"
       d="m 143.29964,21.475582 c -0.14005,0.104301 -0.26147,0.230858 -0.38204,0.356457 -0.1046,0.111291 -0.0528,0.05554 -0.15542,0.167243 -0.29607,0.322371 0.15983,0.741078 0.4559,0.418706 v 0 c 0.0964,-0.105042 0.0477,-0.05251 0.14636,-0.15759 0.095,-0.09931 0.19003,-0.200209 0.29928,-0.284208 0.35398,-0.257442 -0.0101,-0.758051 -0.36408,-0.500608 z" />
    <path
       style="fill:#ffff00;fill-opacity:1;fill-rule:evenodd;stroke:none;stroke-width:1;stroke-linecap:square;paint-order:stroke fill markers"
       id="path68816"
       d="m 142.06287,23.568862 c -0.0376,0.09652 -0.0558,0.199097 -0.0766,0.300181 -0.0307,0.137341 -0.0543,0.276033 -0.0804,0.414277 -0.0175,0.08415 -0.009,0.04212 -0.0265,0.126094 -0.0913,0.428075 0.5141,0.557171 0.60539,0.129097 v 0 c 0.0195,-0.09137 0.01,-0.0445 0.0294,-0.14063 0.0254,-0.134859 0.0484,-0.270149 0.0784,-0.404103 0.01,-0.04788 0.0188,-0.09611 0.0303,-0.143633 0.003,-0.01335 0.008,-0.02628 0.0105,-0.03983 1.5e-4,-9.26e-4 -0.001,0.0016 -0.002,0.0024 0.17241,-0.402309 -0.39654,-0.646146 -0.56896,-0.243836 z" />
    <path
       style="fill:#ffff00;fill-opacity:1;fill-rule:evenodd;stroke:none;stroke-width:0.653109;stroke-linecap:square;paint-order:stroke fill markers"
       d="m 625.5019,31.65477 c -6.41857,0.168763 -12.77436,1.284185 -19.06774,2.488524 -7.70241,1.673441 -15.37376,3.63122 -22.76978,6.378341 -5.55926,2.220096 -10.96531,5.11614 -15.38683,9.198672 -0.79877,0.736282 -1.50292,1.663792 -1.71384,2.718252 -1.58693,1.165843 -2.3632,3.00597 -3.09862,4.75677 -0.35165,0.418552 -0.0396,-0.87781 -0.35978,-1.007784 -0.80365,-1.316272 -2.42625,-0.363723 -3.31901,0.313879 -4.07038,3.120295 -7.26943,7.213524 -10.40218,11.234134 -3.04744,4.149414 -5.85937,8.505777 -8.147,13.121114 -0.66624,1.170557 0.67848,2.51089 1.86336,1.952794 2.13337,-0.908486 3.91425,-2.482455 5.95018,-3.58631 7.62771,-4.581375 15.20394,-9.298617 22.93922,-13.665126 0.96136,-0.475821 2.12007,-1.133264 3.18961,-0.850552 0.20491,3.756114 0.67113,7.510137 0.45394,11.245947 -0.35828,-0.93663 -0.20641,-2.236959 -0.31412,-3.307179 -0.17001,-2.093136 0.0262,-4.260907 -0.50399,-6.30154 -0.75547,-1.353894 -2.49988,-0.670244 -3.50512,-0.01877 -8.78589,5.106349 -17.51163,10.326039 -26.08514,15.783185 -2.02585,1.483824 -4.54893,2.590721 -5.87863,4.820249 -0.82492,2.740912 -0.36924,5.68126 -0.12699,8.481464 0.19596,2.297698 0.89406,4.501102 1.44089,6.720356 -0.46495,-0.14047 -0.49126,-0.96886 -0.70943,-1.35946 -0.92161,-2.765598 -1.01355,-5.700294 -1.50189,-8.513182 -0.61084,-1.367404 -2.81167,-0.900716 -3.13507,0.470817 -3.49753,8.130845 -6.02486,16.650085 -8.21089,25.216105 -1.84327,7.87199 -3.07304,15.91356 -3.42093,23.99585 -0.24966,7.19572 0.97742,14.68639 5.01776,20.78308 3.00844,4.54741 6.74644,8.64515 11.04002,12.00912 5.86666,4.26429 12.73283,6.85014 19.45679,9.42042 7.95407,2.68886 16.10854,4.7979 24.34631,6.41756 7.35785,1.41825 14.8509,2.26114 22.35253,1.95676 7.12773,-0.0464 14.11967,-1.78203 20.91554,-3.793 9.74997,-3.12232 19.33645,-6.97511 28.13631,-12.24839 11.75524,-7.11861 21.67208,-17.12665 29.12889,-28.63749 4.54661,-7.19784 7.57926,-15.22488 10.31988,-23.24801 2.9624,-8.70344 4.46736,-18.04236 3.19983,-27.210073 -1.20675,-9.266581 -4.40313,-18.185341 -8.49639,-26.548378 -3.78221,-7.387255 -9.15336,-13.959106 -15.5325,-19.256553 -7.19441,-5.651772 -15.10785,-10.367692 -23.33666,-14.347264 -7.48905,-3.621562 -15.80997,-5.307024 -24.09028,-5.583023 -0.21273,-0.0037 -0.4255,-5.35e-4 -0.63825,-0.0013 z m -11.63238,23.025148 c 2.27675,0.06253 4.52252,0.01388 6.68324,0.781995 0.006,0.516013 -0.94933,-0.122175 -1.19915,-0.02835 -3.78815,-0.668924 -7.75707,-0.530449 -11.48288,0.430552 -1.26283,0.204197 -2.4068,1.424427 -1.88225,2.744679 0.31129,1.072669 1.26091,1.726468 2.08374,2.385135 -0.48945,0.356462 -1.14147,-0.560025 -1.54441,-0.853883 -0.87934,-0.918748 -1.89724,-2.844286 -0.53764,-3.787462 2.32815,-1.343559 5.23765,-1.611344 7.87935,-1.672666 z m -40.62088,2.981166 c 2.75978,0.203321 6.00135,1.614684 6.63261,4.585995 0.11919,1.163281 -0.14532,2.456841 -0.80933,3.406758 -0.325,-0.471614 0.35354,-1.130312 0.35572,-1.701692 0.55135,-2.129465 -0.8753,-4.340825 -2.89544,-5.045675 -1.98378,-0.987356 -4.45763,-1.386168 -6.4295,-0.142632 -0.83969,0.383896 -1.63022,1.031462 -2.49105,1.296894 -0.22626,-0.331952 0.75657,-0.574716 0.93658,-0.825195 1.42859,-0.85151 2.9804,-1.691504 4.70041,-1.574453 z m 42.24595,3.788474 c 8.60682,3.446611 16.89567,7.767473 25.15138,12.042253 6.54669,3.712097 13.13547,7.509177 18.03622,13.340355 1.06322,1.069071 1.12109,2.651931 0.5616,3.98119 -1.00736,2.75311 -1.91935,5.587453 -3.43679,8.130791 -0.10465,0.251084 -0.79698,0.833789 -0.8117,0.368892 1.69846,-1.786251 2.20084,-4.336413 3.18373,-6.529496 0.53398,-1.665872 1.83741,-3.686508 0.57167,-5.343533 -4.91112,-5.93925 -11.64851,-9.974437 -18.32099,-13.646746 -7.56438,-4.028068 -15.22798,-7.904125 -23.13116,-11.226908 -0.92654,-0.460136 -2.36161,-0.822292 -2.89713,0.392855 -1.21516,2.930218 -1.48946,6.156234 -2.16846,9.236114 -0.14518,0.258709 -0.0889,1.358686 -0.50052,1.230875 0.54017,-3.892096 1.24865,-7.771311 2.57785,-11.480511 0.25513,-0.282911 0.81384,-0.713946 1.1843,-0.496131 z m 9.33872,19.057461 c 2.02794,0.466837 2.65727,2.744833 3.9093,4.138465 0.72563,0.551612 0.31134,1.74059 0.46373,2.520812 0.0383,3.062469 -1.04291,6.250973 -3.04225,8.663033 -1.25822,1.429571 -3.59568,1.872768 -5.25324,0.976397 -2.36563,-4.630278 -2.08672,-10.555528 1.21906,-14.707717 0.67237,-0.813015 1.59302,-1.592827 2.7034,-1.59099 z m -64.24544,1.557577 c 1.73991,0.174441 3.47591,1.282192 4.24478,2.860339 0.24886,2.620222 0.42595,5.407165 -0.84612,7.814215 -0.77605,1.53117 -1.889,3.544014 -3.83066,3.520158 -1.06939,-0.553053 -2.49396,-0.737979 -2.91502,-2.084083 -1.3669,-3.357861 -1.26646,-7.427381 0.60076,-10.576677 0.61124,-0.901634 1.6089,-1.631919 2.74626,-1.533952 z m 60.3439,14.770493 c 3.9e-4,9.28e-4 -9.2e-4,-3.84e-4 0,0 z m 2.94809,37.222561 c 5.46139,0.0382 11.08636,0.87654 16.06415,3.22957 4.6467,2.44394 7.68659,7.5303 7.70722,12.77315 0.11299,4.25795 -1.21385,8.86109 -4.66092,11.63644 -4.85577,3.88895 -11.38428,4.95439 -17.47927,5.01002 -5.03855,0.11787 -9.93742,-1.23721 -14.72448,-2.67724 -4.37032,-1.40699 -8.63938,-3.21011 -12.29872,-5.9922 -7.24493,-4.1753 -13.58151,-10.05609 -21.55097,-12.94608 -0.98311,-0.47071 -2.66495,-0.3413 -2.66088,1.06752 -0.19886,2.14238 0.48083,4.26575 0.94231,6.28634 -0.60295,-0.0118 -0.47604,-1.00405 -0.70651,-1.44314 -0.45718,-1.87698 -0.74713,-3.82117 -0.61433,-5.74436 -0.32926,-1.33477 -2.08595,-0.98571 -3.14804,-0.99837 -1.29227,0.20809 -3.22308,-0.12789 -3.77126,1.42399 -0.94659,2.12444 -1.0744,4.53679 -1.4894,6.74939 -0.29984,-0.60078 -0.01,-1.56388 0,-2.28085 0.0596,-1.3945 0.81597,-2.8175 0.39758,-4.19213 -0.7967,-1.20633 -2.33414,-0.20322 -3.39369,0.01 -4.48766,1.25272 -8.53794,3.68645 -12.27018,6.41962 -0.73419,0.68281 -1.42671,1.38761 -2.34699,1.82522 -1.49282,1.01167 -2.30406,3.27984 -4.39295,3.14249 -2.3755,0.21149 -4.25586,-1.58459 -5.9927,-2.93695 -1.86284,-1.70988 -4.12854,-3.72073 -3.98322,-6.49154 -0.16208,-2.77022 0.90704,-5.56022 3.01154,-7.39503 2.2461,-2.32789 5.54474,-3.49285 8.75585,-3.12427 4.88417,0.62039 9.63169,2.02946 14.40121,3.21223 2.43967,0.7307 5.05939,1.21667 7.32556,2.41766 0.57534,1.42285 2.42558,0.82068 3.59937,0.92772 1.82222,-0.029 3.70081,0.0203 5.38666,-0.77146 9.64555,-2.67743 19.53095,-4.93515 29.37649,-7.03503 6.10263,-1.19049 12.30191,-2.08361 18.51657,-2.10253 z m -57.87877,23.69948 c 1.69919,0.71452 3.49517,1.57611 5.40081,1.15239 0.55174,0.009 1.33393,-0.3974 1.77856,-0.10478 -2.3304,0.98478 -5.28864,0.62109 -7.25801,-0.97876 -0.0245,-0.0223 0.0537,-0.0881 0.0786,-0.0688 z m -4.55495,10.3951 c 2.62607,0.89671 5.29759,1.89473 8.12303,1.81678 2.65663,0.10325 5.28262,-0.46672 7.70419,-1.54475 0.98544,-0.32943 -0.0828,0.39522 -0.45057,0.50592 -3.75802,1.71044 -8.14592,1.7878 -12.08668,0.70393 -1.11028,-0.4177 -2.41029,-0.66069 -3.35308,-1.37827 -0.0106,-0.0445 -0.0154,-0.12465 0.0631,-0.10361 z"
       id="path68662"
       transform="scale(0.26458333)" />
    <path
       style="fill:#000000;fill-opacity:1;fill-rule:evenodd;stroke:none;stroke-width:1;stroke-linecap:square;paint-order:stroke fill markers"
       id="path66676"
       d="m 149.36625,15.184847 c 0.17382,-0.563299 0.51391,-1.054846 0.87015,-1.516788 0.76662,-0.892713 1.78249,-1.475566 2.79943,-2.034667 1.59241,-0.845883 3.34627,-1.312448 5.07778,-1.7784601 1.9051,-0.5245286 3.84445,-0.8808726 5.80502,-1.1121607 1.86542,-0.2537976 3.6184,-0.00959 5.43603,0.3976634 1.99791,0.5192041 3.81105,1.5222964 5.5736,2.5679344 1.16624,0.724004 2.33367,1.461691 3.38078,2.35444 0.66057,0.563187 0.7921,0.730984 1.3951,1.357579 0.88706,1.001454 1.68802,2.087544 2.31063,3.274767 0.36152,0.689356 0.59953,1.287212 0.90455,2.002407 0.68046,1.703492 1.21927,3.475185 1.42085,5.304318 0.04,0.363051 0.0543,0.728476 0.0814,1.092718 0.11378,2.527739 -0.56612,4.842658 -1.41653,7.189298 -0.64533,1.606642 -1.28585,3.225297 -2.21901,4.691271 -0.60975,0.957898 -0.89181,1.283938 -1.58158,2.181252 -1.1127,1.367125 -2.35757,2.625947 -3.74443,3.715768 -0.92992,0.730745 -1.19279,0.875557 -2.17685,1.525892 -2.29127,1.387747 -4.77573,2.39736 -7.31025,3.239841 -1.82044,0.540229 -3.69438,0.982393 -5.5995,1.067909 -1.1948,0.05363 -1.93179,-0.03509 -3.1259,-0.120991 -3.02751,-0.316598 -5.98135,-1.084602 -8.88113,-1.985079 -1.81539,-0.678887 -3.69218,-1.367706 -5.29504,-2.487396 -0.27882,-0.19477 -0.53283,-0.422838 -0.79924,-0.634256 -1.19272,-1.156491 -2.31785,-2.487295 -2.9219,-4.059346 -0.1257,-0.327142 -0.20462,-0.670388 -0.30693,-1.005581 -0.49065,-2.313498 -0.12771,-4.661138 0.23274,-6.963322 0.31469,-2.025259 0.8904,-3.992327 1.52382,-5.936859 0.46196,-1.490395 1.06902,-2.925031 1.73195,-4.33503 0.60846,-1.254363 1.29741,-2.469725 2.03706,-3.650979 0.74525,-1.186012 1.61567,-2.285234 2.54975,-3.326659 0.68244,-0.748912 1.48394,-1.36502 2.3069,-1.948757 0.35693,-0.253338 -0.001,-0.758117 -0.35828,-0.504779 v 0 c -0.86009,0.61084 -1.69675,1.256762 -2.40955,2.040375 -0.95707,1.068379 -1.84989,2.195074 -2.61356,3.411465 -0.75207,1.202615 -1.45408,2.438931 -2.07251,3.715983 -0.67375,1.433318 -1.29035,2.891879 -1.76033,4.406691 -0.64341,1.975924 -1.22724,3.974975 -1.5468,6.032846 -0.37467,2.395477 -0.74189,4.837237 -0.21268,7.241506 0.11299,0.362667 0.20121,0.734001 0.33896,1.088003 0.64532,1.658263 1.83006,3.064283 3.09762,4.280144 0.28657,0.22548 0.56045,0.468098 0.85971,0.676439 1.64675,1.146442 3.57048,1.856258 5.43479,2.550684 2.94519,0.913958 5.94538,1.692738 9.02051,2.01133 1.25411,0.0891 1.97369,0.177477 3.23017,0.119642 1.95114,-0.08981 3.87037,-0.542345 5.73473,-1.096621 2.58572,-0.860597 5.12041,-1.891578 7.45636,-3.310906 1.0063,-0.666035 1.28066,-0.817951 2.23139,-1.566442 1.42182,-1.119364 2.69872,-2.411028 3.83932,-3.814445 0.70409,-0.917299 1.00225,-1.263533 1.6241,-2.244275 0.95101,-1.499878 1.61031,-3.151491 2.26762,-4.794615 0.15461,-0.427527 0.32076,-0.851059 0.46383,-1.282581 0.65953,-1.98915 1.06942,-4.060486 0.98792,-6.163857 -0.0288,-0.378749 -0.0442,-0.758746 -0.0863,-1.136249 -0.20969,-1.881701 -0.76286,-3.704847 -1.46397,-5.457329 -0.32151,-0.7528 -0.55555,-1.342553 -0.93767,-2.068721 -0.64769,-1.230858 -1.47924,-2.357231 -2.4011,-3.395003 -0.63054,-0.653449 -0.76443,-0.824539 -1.45465,-1.411822 -1.06975,-0.91021 -2.26028,-1.664644 -3.45121,-2.40309 -1.81899,-1.078262 -3.6914,-2.1088861 -5.75426,-2.639594 -1.88611,-0.4209634 -3.70883,-0.6706483 -5.64372,-0.4083084 -1.99028,0.2354146 -3.95929,0.5965804 -5.89332,1.1291665 -1.77932,0.4791207 -3.58013,0.9619439 -5.21524,1.8338379 -1.0916,0.600926 -2.17648,1.234863 -2.992,2.200006 -0.40589,0.530589 -0.79005,1.095374 -0.97973,1.743662 -0.10615,0.424631 0.49437,0.574761 0.60052,0.15013 z" />
    <path
       style="fill:#000000;fill-opacity:1;fill-rule:evenodd;stroke:none;stroke-width:1;stroke-linecap:square;paint-order:stroke fill markers"
       id="path66678"
       d="m 149.9326,13.246611 c -0.13928,0.0069 -0.26078,0.07655 -0.38053,0.14143 -0.12693,0.07168 -0.24772,0.153551 -0.36715,0.236933 -0.11137,0.07984 -0.21995,0.163549 -0.32695,0.249143 -0.0978,0.07449 -0.18918,0.156667 -0.27786,0.241658 -0.073,0.07312 -0.14802,0.144114 -0.22559,0.212389 -0.0697,0.05959 -0.14518,0.111656 -0.21992,0.164635 -0.0791,0.05575 -0.15609,0.114392 -0.23192,0.174486 -0.0105,0.0082 -0.021,0.01642 -0.0315,0.02463 -0.34479,0.269631 0.0365,0.757238 0.38131,0.487607 v 0 c 0.0116,-0.0091 0.0232,-0.01814 0.0348,-0.02721 0.0671,-0.05326 0.13528,-0.105172 0.20532,-0.154528 0.0926,-0.06562 0.18549,-0.13089 0.27133,-0.205342 0.0839,-0.07415 0.16567,-0.150682 0.24476,-0.230023 0.0752,-0.07228 0.15278,-0.142069 0.23609,-0.205031 0.0965,-0.07724 0.19438,-0.152719 0.29464,-0.224966 0.10037,-0.07017 0.20173,-0.139278 0.30796,-0.20036 0.0196,-0.01066 0.0709,-0.03885 0.0935,-0.05021 0.0399,-0.02011 0.053,-0.02134 -0.008,-0.01624 0.4377,0 0.4377,-0.619001 0,-0.619001 z" />
    <path
       style="fill:#000000;fill-opacity:1;fill-rule:evenodd;stroke:none;stroke-width:1;stroke-linecap:square;paint-order:stroke fill markers"
       id="path66680"
       d="m 149.71326,13.606735 c -0.14353,0.09428 -0.2767,0.203591 -0.41171,0.309528 -0.10327,0.07802 -0.20481,0.158088 -0.30404,0.241177 -0.33528,0.281369 0.0626,0.755526 0.39792,0.474156 v 0 c 0.0938,-0.07897 0.19057,-0.154186 0.28824,-0.228358 0.10817,-0.08488 0.21709,-0.169615 0.326,-0.253085 0.38425,-0.209594 0.0878,-0.753012 -0.29641,-0.543418 z" />
    <path
       style="fill:#000000;fill-opacity:1;fill-rule:evenodd;stroke:none;stroke-width:1;stroke-linecap:square;paint-order:stroke fill markers"
       id="path66692"
       d="m 144.44265,41.550007 c 0.29765,-0.232243 0.58675,-0.475276 0.87989,-0.713176 0.53463,-0.429451 1.10693,-0.807244 1.69544,-1.157854 0.35478,-0.20333 0.71731,-0.395806 1.09872,-0.54488 0.21413,-0.08369 0.36098,-0.127664 0.57996,-0.198636 0.58307,-0.189923 1.17655,-0.339638 1.77882,-0.453224 0.38851,-0.06321 0.7828,-0.07551 1.1747,-0.04008 0.23242,0.02101 0.33572,0.04395 0.56463,0.08401 0.62052,0.164669 1.20081,0.44673 1.76253,0.752139 0.62845,0.362871 1.23251,0.76594 1.8334,1.17225 0.54759,0.377105 1.08218,0.772244 1.63665,1.139327 0.47617,0.313341 0.85662,0.692412 1.39268,0.880502 0.54101,0.185457 2.97757,1.336971 3.54394,1.37234 0.27301,0.01585 0.54628,0.02519 0.81961,0.03308 0.43752,0.01262 0.0259,-0.238875 0.0259,-0.238875 l -0.0162,-0.0081 c 0,0 -2.99795,-1.010894 -3.2641,-1.026264 -0.50987,-0.03161 -0.99918,-0.979811 -1.48696,-1.144923 -0.4881,-0.169727 -0.23961,-0.09999 -0.6733,-0.383974 -0.55289,-0.365757 -1.08527,-0.760536 -1.63156,-1.135917 -0.61751,-0.417491 -1.23835,-0.83159 -1.88477,-1.203462 -0.62098,-0.336664 -1.26334,-0.646735 -1.95205,-0.818026 -0.26233,-0.04517 -0.36762,-0.06884 -0.63512,-0.09211 -0.44216,-0.03847 -0.88702,-0.02233 -1.325,0.04985 -0.62795,0.118949 -1.24706,0.274458 -1.85504,0.472718 -0.24549,0.07987 -0.38901,0.12252 -0.63,0.21731 -0.40745,0.160258 -0.79531,0.365495 -1.17446,0.583253 -0.61386,0.366196 -1.21095,0.760502 -1.76856,1.208923 -0.29742,0.241414 -0.59101,0.487638 -0.89264,0.723816 -0.33233,0.28485 0.0705,0.754832 0.40284,0.469979 z"
       sodipodi:nodetypes="sccsccsccccccsssccccccsccscccss" />
    <path
       style="fill:#000000;fill-opacity:1;fill-rule:evenodd;stroke:none;stroke-width:1;stroke-linecap:square;paint-order:stroke fill markers"
       id="path66694"
       d="m 151.66182,38.249468 c -0.0856,0.206258 -0.0957,0.428016 -0.0929,0.648081 0.0175,0.335782 0.0697,0.66848 0.14288,0.996293 0.0388,0.16318 0.10019,0.319466 0.14241,0.481587 0.11252,0.422989 0.71072,0.263864 0.5982,-0.159126 v 0 c -0.0416,-0.154029 -0.0954,-0.304043 -0.13667,-0.458165 -0.0651,-0.287486 -0.11022,-0.579573 -0.12796,-0.874025 -0.005,-0.131926 -0.004,-0.265149 0.043,-0.390811 0.17242,-0.402309 -0.39654,-0.646144 -0.56895,-0.243834 z" />
    <path
       style="fill:#000000;fill-opacity:1;fill-rule:evenodd;stroke:none;stroke-width:1;stroke-linecap:square;paint-order:stroke fill markers"
       id="path66696"
       d="m 149.71629,38.386924 c -0.12087,0.190971 -0.17891,0.415428 -0.23839,0.63137 -0.0647,0.245729 -0.10189,0.497496 -0.13616,0.748922 -0.0205,0.167581 -0.0302,0.336023 -0.0337,0.504721 -0.009,0.437616 0.61025,0.449816 0.61888,0.0122 v 0 c 0.003,-0.14487 0.011,-0.289476 0.0282,-0.433438 0.0305,-0.224385 0.0629,-0.449231 0.11978,-0.668732 0.0415,-0.152141 0.0792,-0.313849 0.15646,-0.451686 0.24279,-0.364188 -0.27225,-0.707549 -0.51504,-0.34336 z" />
    <path
       style="fill:#000000;fill-opacity:1;fill-rule:evenodd;stroke:none;stroke-width:1;stroke-linecap:square;paint-order:stroke fill markers"
       id="path66702"
       d="m 150.093,37.561776 c -0.40398,-0.183235 -0.83381,-0.300514 -1.2588,-0.423286 -0.85028,-0.250314 -1.71242,-0.456104 -2.57306,-0.666808 -0.5994,-0.138975 -1.19875,-0.292944 -1.81027,-0.370266 -0.10918,-0.01381 -0.21896,-0.02241 -0.32844,-0.03361 -0.45603,-0.02336 -0.88417,0.04269 -1.30611,0.219117 -0.22353,0.09347 -0.34084,0.167952 -0.54869,0.285938 -0.38877,0.254265 -0.73724,0.574093 -0.98447,0.970793 -0.0468,0.07508 -0.0851,0.155118 -0.12764,0.232675 -0.0332,0.08175 -0.0713,0.161652 -0.0995,0.245247 -0.1048,0.310883 -0.16966,0.686181 -0.18093,1.014236 -0.003,0.07892 0.001,0.15794 0.002,0.236908 0.0382,0.556101 0.31764,0.930187 0.6747,1.33002 0.27052,0.292415 0.57606,0.548868 0.89341,0.788466 0.23761,0.187749 0.49456,0.341951 0.77704,0.450462 0.26043,0.08482 0.53621,0.08681 0.80498,0.05021 0.28075,-0.05763 0.48039,-0.212257 0.66833,-0.419291 0.0228,-0.02827 0.0457,-0.05654 0.0686,-0.08481 0.27367,-0.341593 -0.20941,-0.728623 -0.48309,-0.387032 v 0 c -0.0155,0.01966 -0.0311,0.03931 -0.0466,0.05897 -0.0837,0.09562 -0.17239,0.185372 -0.29905,0.220022 -0.16265,0.02899 -0.33593,0.02365 -0.49582,-0.0177 -0.22886,-0.08242 -0.42966,-0.217347 -0.6217,-0.365146 -0.28585,-0.215061 -0.56104,-0.445463 -0.80533,-0.707604 -0.24158,-0.267597 -0.48421,-0.548167 -0.5164,-0.92302 -0.006,-0.406974 0.0497,-0.817851 0.20498,-1.196544 0.0299,-0.05706 0.0563,-0.116149 0.0898,-0.171178 0.19559,-0.321243 0.47374,-0.580088 0.78412,-0.788079 0.1699,-0.09757 0.27535,-0.164402 0.45585,-0.242708 0.33767,-0.146484 0.66229,-0.198535 1.02976,-0.18411 0.27904,0.02795 0.33494,0.02881 0.61604,0.07679 0.48349,0.08254 0.96088,0.199535 1.43785,0.312473 0.85243,0.208693 1.7064,0.412334 2.54855,0.660273 0.39781,0.114792 0.80084,0.223075 1.17911,0.394226 0.39998,0.177769 0.65138,-0.387881 0.2514,-0.56565 z" />
    <path
       style="fill:#000000;fill-opacity:1;fill-rule:evenodd;stroke:none;stroke-width:1;stroke-linecap:square;paint-order:stroke fill markers"
       id="path66979"
       d="m 152.29221,38.269515 c -0.007,0.0082 -0.016,0.0149 -0.0206,0.02453 -0.002,0.0039 0.008,-0.0041 0.0117,-0.0058 0.0304,-0.01323 0.0827,-0.03328 0.10831,-0.0413 0.0936,-0.02934 0.25565,-0.06986 0.34145,-0.09218 0.95702,-0.261612 1.92014,-0.499102 2.88417,-0.733322 1.39836,-0.331875 2.79389,-0.678146 4.2012,-0.970838 0.25497,-0.05303 0.51071,-0.10232 0.76607,-0.15348 1.14813,-0.201684 2.30475,-0.38136 3.46988,-0.447863 0.206,-0.01175 0.41239,-0.01537 0.61859,-0.02304 0.93034,-0.01585 1.86412,0.03898 2.77515,0.237554 0.1605,0.03498 0.31867,0.07991 0.47801,0.119864 0.28245,0.08407 0.58341,0.165775 0.8575,0.277048 0.24539,0.09962 0.45602,0.214556 0.67804,0.357449 0.28047,0.180499 0.3002,0.21149 0.54911,0.424006 0.38625,0.411699 0.66055,0.905523 0.83269,1.441542 0.0323,0.100719 0.0567,0.203827 0.0851,0.305739 0.0969,0.499423 0.1018,1.016831 0.0346,1.520907 -0.0122,0.09174 -0.0311,0.182462 -0.0467,0.273696 -0.0835,0.349287 -0.20247,0.693854 -0.38589,1.004403 -0.11003,0.186291 -0.17267,0.250442 -0.30913,0.418351 -0.36576,0.424461 -0.83588,0.677635 -1.33102,0.919298 -0.46615,0.230627 -0.9715,0.357563 -1.47842,0.460751 -0.50219,0.09167 -1.0108,0.140321 -1.52015,0.167452 -0.086,0.0028 -0.17194,0.0064 -0.25794,0.0084 -0.1431,0.0035 -0.36045,0.0066 -0.50361,7.94e-4 -0.27577,-0.01138 -0.54952,-0.04847 -0.82304,-0.08304 -0.54903,-0.06727 -1.08781,-0.192656 -1.62201,-0.333078 -0.53938,-0.137489 -1.06893,-0.307288 -1.59269,-0.494911 -0.42092,-0.154329 -0.83621,-0.324104 -1.24353,-0.511387 -0.26494,-0.116007 -0.51417,-0.260625 -0.74969,-0.427739 -0.1652,-0.116787 -0.32566,-0.23944 -0.47923,-0.37111 -0.33243,-0.284734 -0.7351,0.185391 -0.40267,0.470125 v 0 c 0.16824,0.143965 0.34363,0.278641 0.52453,0.406403 0.26717,0.188359 0.54888,0.353232 0.84868,0.48482 0.42373,0.194453 0.85537,0.371496 1.29324,0.531653 0.54071,0.193533 1.08737,0.368819 1.64412,0.510842 0.56047,0.147074 1.12581,0.278003 1.70177,0.348515 0.20966,0.0264 0.38387,0.05047 0.59477,0.06837 0.36629,0.03109 0.73358,0.02574 1.1005,0.0094 0.5398,-0.02922 1.07885,-0.08074 1.6109,-0.179099 0.55803,-0.114469 1.11347,-0.256828 1.6265,-0.511191 0.21471,-0.105275 0.33755,-0.160856 0.54583,-0.282249 0.37161,-0.21658 0.71499,-0.476959 0.99558,-0.805212 0.17501,-0.219604 0.23507,-0.278524 0.37687,-0.522505 0.21337,-0.367127 0.35172,-0.773411 0.44619,-1.185642 0.0175,-0.105582 0.0386,-0.210627 0.0524,-0.316752 0.0576,-0.443113 0.0679,-0.936802 0.0102,-1.379749 -0.0161,-0.123595 -0.0434,-0.245478 -0.065,-0.368218 -0.0332,-0.11703 -0.0619,-0.23545 -0.0997,-0.351091 -0.20827,-0.637215 -0.54376,-1.220579 -1.01388,-1.700932 -0.28383,-0.23866 -0.31994,-0.285057 -0.63586,-0.4855 -0.26306,-0.166913 -0.49684,-0.290891 -0.78676,-0.407795 -0.2937,-0.118427 -0.60945,-0.203716 -0.91217,-0.293399 -0.17146,-0.0426 -0.34172,-0.09042 -0.5144,-0.127793 -0.95607,-0.206921 -1.93583,-0.264822 -2.91192,-0.247608 -0.21417,0.0081 -0.42855,0.01209 -0.64252,0.02442 -1.19011,0.06851 -2.37158,0.251505 -3.54428,0.458126 -0.25827,0.05176 -0.51693,0.101642 -0.77482,0.155294 -1.41257,0.293873 -2.81338,0.641263 -4.21697,0.974456 -0.9674,0.235047 -1.93389,0.473379 -2.89427,0.735864 -0.26674,0.06976 -0.56775,0.121222 -0.76801,0.327025 -0.27343,0.341786 0.20993,0.728472 0.48336,0.386689 z" />
    <path
       style="fill:#000000;fill-opacity:1;fill-rule:evenodd;stroke:none;stroke-width:1;stroke-linecap:square;paint-order:stroke fill markers"
       id="path66993"
       d="m 163.11096,35.688709 c -0.21173,0.316566 -0.37269,0.661027 -0.53185,1.005977 -0.34679,0.762172 -0.64704,1.544336 -0.92996,2.332088 -0.23844,0.657553 -0.45427,1.322745 -0.6506,1.993977 -0.1305,0.452514 -0.2483,0.908886 -0.34207,1.370462 -0.0419,0.217678 -0.0214,0.115755 -0.0608,0.305887 -0.0887,0.428625 0.51749,0.55403 0.60617,0.125405 v 0 c 0.0406,-0.196636 0.0201,-0.09385 0.0613,-0.308435 0.0897,-0.444566 0.20434,-0.883759 0.3295,-1.319589 0.19275,-0.659336 0.40487,-1.312664 0.63906,-1.958535 0.2767,-0.770904 0.57046,-1.536303 0.90958,-2.282219 0.15132,-0.328885 0.30496,-0.656482 0.5071,-0.957908 0.21716,-0.380029 -0.32029,-0.687139 -0.53745,-0.30711 z" />
    <path
       style="fill:#000000;fill-opacity:1;fill-rule:evenodd;stroke:none;stroke-width:1;stroke-linecap:square;paint-order:stroke fill markers"
       id="path66995"
       d="m 157.86451,36.482229 c -0.16276,0.35756 -0.29134,0.730467 -0.41029,1.104574 -0.14591,0.495276 -0.25449,1.000017 -0.34084,1.50871 -0.0609,0.375322 -0.0933,0.753874 -0.11453,1.133205 -0.0244,0.43702 0.59364,0.471517 0.61804,0.0345 v 0 c 0.0198,-0.356235 0.0498,-0.711734 0.10678,-1.064247 0.0813,-0.48043 0.18369,-0.957067 0.32059,-1.425043 0.1065,-0.336727 0.22384,-0.670825 0.36366,-0.995288 0.2096,-0.384255 -0.33382,-0.680665 -0.54341,-0.296411 z" />
    <path
       style="fill:#000000;fill-opacity:1;fill-rule:evenodd;stroke:none;stroke-width:1;stroke-linecap:square;paint-order:stroke fill markers"
       id="path66997"
       d="m 145.92245,37.269808 c 0.0937,0.29817 0.14619,0.60851 0.20099,0.91579 0.0624,0.374271 0.12283,0.749223 0.15533,1.127418 0.0379,0.43606 0.65455,0.382495 0.61668,-0.05356 v 0 c -0.0348,-0.39665 -0.0965,-0.790138 -0.16264,-1.182645 -0.0628,-0.351279 -0.12217,-0.707025 -0.23898,-1.045075 -0.16835,-0.404029 -0.73973,-0.165955 -0.57138,0.238077 z" />
    <path
       style="fill:#000000;fill-opacity:1;fill-rule:evenodd;stroke:none;stroke-width:1;stroke-linecap:square;paint-order:stroke fill markers"
       id="path66999"
       d="m 144.47926,36.902543 c 0.0543,0.322905 0.0519,0.652902 0.0607,0.979387 0.008,0.488736 0.0468,0.975701 0.11792,1.459145 0.0533,0.326874 0.13032,0.64906 0.21108,0.970029 0.0275,0.112334 0.0561,0.224364 0.0849,0.336362 0.10899,0.423913 0.70849,0.269782 0.5995,-0.154133 v 0 c -0.0285,-0.110974 -0.0569,-0.221983 -0.0841,-0.33329 -0.0757,-0.300972 -0.14835,-0.602975 -0.19901,-0.909379 -0.068,-0.458946 -0.10359,-0.921398 -0.11151,-1.385408 -0.01,-0.3712 -0.007,-0.74712 -0.0789,-1.112843 -0.10616,-0.424632 -0.70668,-0.274502 -0.60052,0.15013 z" />
    <path
       style="fill:#000000;fill-opacity:1;fill-rule:evenodd;stroke:none;stroke-width:1;stroke-linecap:square;paint-order:stroke fill markers"
       id="path67003"
       d="m 154.74729,37.309041 c -0.0449,0.167563 -0.0782,0.337608 -0.10653,0.508661 -0.0371,0.24574 -0.0581,0.49357 -0.0785,0.741154 -0.0113,0.148084 -0.006,0.0748 -0.0162,0.219855 -0.031,0.436597 0.58639,0.48051 0.61744,0.04391 v 0 c 0.01,-0.140647 0.005,-0.06961 0.0157,-0.213124 0.019,-0.230786 0.0383,-0.461817 0.0723,-0.690965 0.0243,-0.147759 0.0527,-0.294582 0.091,-0.439441 0.12024,-0.42086 -0.47494,-0.590913 -0.59519,-0.170053 z" />
    <path
       style="fill:#000000;fill-opacity:1;fill-rule:evenodd;stroke:none;stroke-width:1;stroke-linecap:square;paint-order:stroke fill markers"
       id="path67007"
       d="m 152.707,44.274591 c -0.26836,0.132387 -0.54547,0.235114 -0.83233,0.319493 -0.51972,0.151725 -1.06408,0.144354 -1.59822,0.09766 -0.48684,-0.04208 -0.94771,-0.189635 -1.39772,-0.371036 -0.0579,-0.02545 -0.11589,-0.0509 -0.17383,-0.07635 -0.40089,-0.1757 -0.64937,0.391239 -0.24848,0.566941 v 0 c 0.0637,0.02788 0.12747,0.05576 0.19121,0.08365 0.50725,0.20383 1.02819,0.366244 1.57633,0.413562 0.61131,0.05079 1.23248,0.05478 1.8265,-0.120917 0.30458,-0.09076 0.60154,-0.19653 0.88644,-0.338278 0.40639,-0.162557 0.1765,-0.737285 -0.2299,-0.574728 z" />
    <path
       style="fill:#000000;fill-opacity:1;fill-rule:evenodd;stroke:none;stroke-width:1;stroke-linecap:square;paint-order:stroke fill markers"
       id="path67009"
       d="m 149.62594,42.03433 c 0.16,0.118959 0.34601,0.193458 0.53027,0.26543 0.21891,0.07271 0.44387,0.129336 0.67557,0.135445 0.1552,0.0041 0.21127,-0.0074 0.36523,-0.02432 0.15523,-0.02066 0.30804,-0.05462 0.46063,-0.08904 0.4269,-0.09663 0.29024,-0.70036 -0.13666,-0.603729 v 0 c -0.13102,0.02978 -0.2622,0.05926 -0.3954,0.0779 -0.11181,0.01394 -0.14288,0.02146 -0.25442,0.02146 -0.16851,-6e-6 -0.33138,-0.04566 -0.49121,-0.09485 -0.14708,-0.05648 -0.29524,-0.114271 -0.42169,-0.210508 -0.36927,-0.234992 -0.70159,0.287237 -0.33232,0.522227 z" />
    <path
       style="fill:#000000;fill-opacity:1;fill-rule:evenodd;stroke:none;stroke-width:1;stroke-linecap:square;paint-order:stroke fill markers"
       id="path67025"
       d="m 173.43708,26.578536 c 0.33031,-0.14261 0.47314,-0.505381 0.60987,-0.811393 0.23615,-0.602352 0.48373,-1.200935 0.69362,-1.813107 0.0602,-0.28419 0.1079,-0.356754 0.014,-0.667843 -0.0952,-0.315172 -0.2936,-0.541325 -0.5107,-0.780327 -0.26592,-0.292749 -0.53339,-0.518221 -0.82794,-0.78231 -0.96879,-0.857733 -2.07552,-1.529177 -3.18813,-2.179759 -1.04621,-0.599328 -2.12975,-1.12988 -3.20885,-1.666618 -0.80241,-0.411964 -1.61677,-0.799189 -2.43826,-1.171373 -0.55242,-0.247435 -1.10846,-0.486845 -1.66776,-0.718299 -0.40445,-0.16735 -0.64112,0.404621 -0.23667,0.57197 v 0 c 0.55302,0.228801 1.10277,0.465579 1.64899,0.710165 0.8147,0.369078 1.62229,0.753157 2.41803,1.161765 1.06663,0.530537 2.13777,1.054754 3.17211,1.64677 1.07687,0.629435 2.14934,1.277243 3.08766,2.106568 0.32321,0.288898 0.47504,0.411857 0.76747,0.71999 0.10514,0.11079 0.4188,0.4447 0.424,0.640311 0.002,0.07075 -0.0264,0.139074 -0.0396,0.208611 -0.20341,0.595878 -0.4462,1.177593 -0.67453,1.764185 -0.0857,0.198642 -0.0774,0.200207 -0.17425,0.36246 -0.14997,0.251165 0.0166,-0.03161 -0.08,0.10919 -0.003,0.0042 0.0219,0.01014 0.0152,0.0018 -0.41524,0.138413 -0.2195,0.725649 0.19574,0.587237 z" />
    <path
       style="fill:#000000;fill-opacity:1;fill-rule:evenodd;stroke:none;stroke-width:1;stroke-linecap:square;paint-order:stroke fill markers"
       id="path67027"
       d="m 152.14245,16.835666 c -0.21033,-8.47e-4 -0.41395,0.03231 -0.60984,0.112646 -0.0992,0.04068 -0.19308,0.09317 -0.28962,0.139761 -0.82771,0.446756 -1.62692,0.943546 -2.43157,1.429945 -0.8156,0.490611 -1.63475,0.975287 -2.45067,1.46537 -0.61859,0.370319 -1.23592,0.742468 -1.84231,1.132487 -0.48281,0.312031 -0.96153,0.630078 -1.42705,0.967436 -0.23637,0.172116 -0.47403,0.351056 -0.63138,0.602761 -0.0998,0.159702 -0.10574,0.212694 -0.16504,0.390376 -0.11071,0.491549 -0.0725,1.001989 -0.047,1.501063 0.0316,0.470729 0.0848,0.940166 0.16337,1.405368 0.0519,0.300929 0.13623,0.594408 0.24086,0.880867 0.0555,0.144687 0.0282,0.07378 0.0817,0.212722 0.15712,0.408528 0.73487,0.186325 0.57775,-0.222202 v 0 c -0.0521,-0.135559 -0.0261,-0.06771 -0.0782,-0.203557 -0.0923,-0.250673 -0.16583,-0.507802 -0.21175,-0.771275 -0.0751,-0.44136 -0.12461,-0.887021 -0.15548,-1.333627 -0.022,-0.426358 -0.0559,-0.861509 0.0194,-1.284123 0.0313,-0.113129 0.067,-0.224952 0.14356,-0.317567 0.11869,-0.143561 0.28063,-0.246392 0.42554,-0.359641 0.45611,-0.330763 0.92555,-0.642057 1.39861,-0.948003 0.60102,-0.386654 1.21306,-0.755308 1.82616,-1.122449 0.81642,-0.490385 1.63608,-0.975343 2.45217,-1.46627 0.78919,-0.477059 1.57317,-0.963977 2.38398,-1.403952 0.0408,-0.02046 0.2645,-0.139453 0.3463,-0.162411 0.0893,-0.02507 0.18861,-0.02003 0.28053,-0.02672 0.4377,0 0.4377,-0.619 0,-0.619 z" />
    <path
       style="fill:#000000;fill-opacity:1;fill-rule:evenodd;stroke:none;stroke-width:1;stroke-linecap:square;paint-order:stroke fill markers"
       id="path67029"
       d="m 149.11848,22.769756 c 0.0322,0.193084 0.0375,0.390054 0.0386,0.585436 -0.004,0.300099 -0.0849,0.590011 -0.18294,0.871227 -0.0814,0.219038 -0.18243,0.432684 -0.33102,0.614285 -0.0913,0.08669 -0.21067,0.247252 -0.33489,0.284359 -0.021,0.0036 -0.042,0.0033 -0.0632,0.0017 -0.4374,0.01618 -0.41452,0.634757 0.0229,0.618578 v 0 c 0.10528,-0.0063 0.20762,-0.01733 0.30558,-0.06105 0.0383,-0.01973 0.078,-0.03707 0.11494,-0.05919 0.17082,-0.102182 0.30723,-0.256432 0.4405,-0.40088 0.18593,-0.240573 0.32952,-0.507734 0.43009,-0.795268 0.11992,-0.348344 0.21527,-0.707382 0.217,-1.078607 -0.002,-0.244039 -0.009,-0.490787 -0.0571,-0.730758 -0.10616,-0.424631 -0.70668,-0.274501 -0.60052,0.15013 z" />
    <path
       style="fill:#000000;fill-opacity:1;fill-rule:evenodd;stroke:none;stroke-width:1;stroke-linecap:square;paint-order:stroke fill markers"
       id="path67033"
       d="m 149.71217,22.603856 c 0.0133,-0.142879 -0.002,-0.267551 -0.0755,-0.397037 -0.0293,-0.0516 -0.0715,-0.0947 -0.10722,-0.142047 -0.16198,-0.168238 -0.3406,-0.325552 -0.54824,-0.435476 -0.0423,-0.02239 -0.0865,-0.04084 -0.12983,-0.06127 -0.21017,-0.0837 -0.4346,-0.156411 -0.6644,-0.12869 -0.0569,0.0069 -0.1123,0.02304 -0.16844,0.03457 -0.0526,0.02093 -0.10665,0.03841 -0.15771,0.0628 -0.14023,0.06698 -0.27038,0.165142 -0.37498,0.279938 -0.10139,0.111271 -0.11641,0.14986 -0.19516,0.278666 -0.12482,0.236161 -0.21611,0.488892 -0.27966,0.748111 -0.0122,0.04981 -0.0222,0.100118 -0.0334,0.150176 -0.047,0.252958 -0.0611,0.511289 -0.0555,0.768246 10e-4,0.04758 0.004,0.09511 0.006,0.142668 0.0174,0.28338 0.0811,0.560751 0.15474,0.834017 0.0474,0.169924 0.11321,0.335355 0.2167,0.479443 0.0665,0.09252 0.0917,0.110382 0.17212,0.18863 0.11587,0.101715 0.23782,0.175124 0.38981,0.208587 0.0789,0.01736 0.11093,0.01393 0.19022,0.01506 0.11038,-0.01159 0.0575,-0.0032 0.15866,-0.02405 0.42705,-0.09595 0.29136,-0.699897 -0.1357,-0.603943 v 0 c -0.0215,0.0065 -0.0113,0.0035 -0.0305,0.009 -0.0301,0.0053 10e-4,6.08e-4 -0.0336,0.0031 -0.004,2.91e-4 -0.008,0.0022 -0.0115,0.0017 -0.0403,-0.0054 -0.072,-0.03834 -0.10323,-0.06038 -0.0385,-0.03343 -0.0465,-0.03749 -0.0797,-0.07891 -0.0697,-0.08691 -0.10485,-0.194579 -0.1357,-0.299951 -0.062,-0.228484 -0.11686,-0.460238 -0.13376,-0.697084 -0.0104,-0.251342 -0.009,-0.504553 0.036,-0.752934 0.009,-0.04151 0.0172,-0.08322 0.0272,-0.124521 0.0492,-0.204241 0.11922,-0.403667 0.21387,-0.591366 0.0356,-0.06357 0.0507,-0.098 0.0967,-0.152948 0.0659,-0.07878 0.15036,-0.13878 0.24287,-0.182152 0.0173,-0.0061 0.0338,-0.01446 0.0517,-0.01816 0.13007,-0.02683 0.25849,0.03076 0.37817,0.07262 0.026,0.01144 0.0525,0.02157 0.0779,0.03431 0.14492,0.07282 0.26641,0.183493 0.38229,0.295001 0.0101,0.0079 0.0201,0.01587 0.0302,0.0238 0.003,-0.0054 0.002,-0.01835 0.008,-0.01612 0.01,0.004 0.007,0.06955 0.005,0.07783 -0.0415,0.435728 0.57471,0.494415 0.61621,0.05869 z" />
    <path
       style="fill:#000000;fill-opacity:1;fill-rule:evenodd;stroke:none;stroke-width:1;stroke-linecap:square;paint-order:stroke fill markers"
       id="path67039"
       d="m 166.10413,22.587075 c 0.0376,0.130701 0.0343,0.270006 0.04,0.404793 0.004,0.213473 -0.01,0.427596 -0.0485,0.637772 -0.0254,0.138314 -0.0406,0.183888 -0.077,0.319478 -0.0811,0.29093 -0.20518,0.565738 -0.3477,0.83102 -0.0657,0.112488 -0.12493,0.23169 -0.21777,0.325345 -0.08,0.08069 -0.17831,0.140455 -0.27599,0.196305 -0.13051,0.06651 -0.27848,0.108395 -0.42639,0.09147 -0.0181,-0.0021 -0.0356,-0.0077 -0.0534,-0.01149 -0.0587,-0.01267 -0.11378,-0.03608 -0.1688,-0.05933 -0.40481,-0.166466 -0.64023,0.40602 -0.23542,0.572486 v 0 c 0.10039,0.04059 0.20132,0.07984 0.30869,0.09843 0.0469,0.0063 0.0935,0.01569 0.14079,0.01885 0.26232,0.01756 0.52095,-0.05573 0.75066,-0.178223 0.051,-0.03101 0.1037,-0.05936 0.15298,-0.09302 0.0951,-0.06495 0.21003,-0.161622 0.28741,-0.24526 0.11626,-0.125675 0.19955,-0.27562 0.28305,-0.423561 0.16412,-0.307857 0.3074,-0.626509 0.4001,-0.963915 0.0437,-0.165653 0.0607,-0.216757 0.0909,-0.386327 0.0444,-0.249463 0.0606,-0.503363 0.0549,-0.756501 -0.008,-0.183531 -0.009,-0.371108 -0.0633,-0.54837 -0.12024,-0.420858 -0.71543,-0.250805 -0.59518,0.170053 z" />
    <path
       style="fill:#000000;fill-opacity:1;fill-rule:evenodd;stroke:none;stroke-width:1;stroke-linecap:square;paint-order:stroke fill markers"
       id="path67041"
       d="m 166.44944,22.130396 c -0.0592,-0.153399 -0.146,-0.293386 -0.23598,-0.430205 -0.14822,-0.195601 -0.31086,-0.415266 -0.52333,-0.546021 -0.0491,-0.03021 -0.10289,-0.05199 -0.15434,-0.07798 -0.068,-0.01373 -0.13489,-0.0363 -0.20414,-0.04118 -0.19575,-0.0138 -0.38997,0.05503 -0.55206,0.159713 -0.13141,0.08487 -0.18874,0.152519 -0.29891,0.261215 -0.16763,0.181877 -0.31045,0.385275 -0.42889,0.602234 -0.0741,0.135816 -0.0899,0.17798 -0.15333,0.318763 -0.14149,0.342509 -0.21697,0.706135 -0.27674,1.07033 -0.0376,0.23545 -0.0496,0.474267 -0.0283,0.711956 0.0125,0.138845 0.0274,0.210271 0.0508,0.346265 0.0565,0.274759 0.12811,0.54629 0.21595,0.812642 0.0499,0.149245 0.11864,0.290897 0.19399,0.42868 0.21072,0.383637 0.75327,0.08563 0.54255,-0.298004 v 0 c -0.0577,-0.104488 -0.11059,-0.211939 -0.14892,-0.325259 -0.0789,-0.23717 -0.14175,-0.479434 -0.19369,-0.723904 -0.0177,-0.100889 -0.0328,-0.174969 -0.0427,-0.276805 -0.0187,-0.192291 -0.01,-0.385295 0.0213,-0.575874 0.0505,-0.311498 0.11314,-0.622902 0.23076,-0.917026 0.11819,-0.265795 0.25705,-0.522463 0.45624,-0.737554 0.0703,-0.07284 0.14043,-0.152566 0.22975,-0.203523 0.0402,-0.02292 0.0847,-0.02992 0.12482,-0.05166 0.018,0.0064 0.0372,0.01028 0.0541,0.01921 0.0562,0.02962 0.0993,0.07199 0.14375,0.116754 0.0828,0.08342 0.15765,0.174882 0.22626,0.270218 0.0724,0.10663 0.13953,0.217495 0.18548,0.338422 0.17777,0.399975 0.74342,0.148575 0.56565,-0.2514 z" />
    <path
       style="fill:#000000;fill-opacity:1;fill-rule:evenodd;stroke:none;stroke-width:1;stroke-linecap:square;paint-order:stroke fill markers"
       id="path67043"
       d="m 151.84646,17.557419 c -0.002,-0.0029 -0.007,-0.01209 -0.006,-0.0086 0.003,0.02212 0.0127,0.043 0.0163,0.06506 0.0198,0.121519 0.0293,0.244338 0.0405,0.366854 0.0311,0.368459 0.0483,0.737886 0.0628,1.107306 0.013,0.318427 0.0198,0.637034 0.0207,0.955711 0.001,0.437698 0.62031,0.435848 0.619,-0.0019 v 0 c -0.001,-0.326178 -0.008,-0.652288 -0.0212,-0.97821 -0.015,-0.38013 -0.0328,-0.760267 -0.0649,-1.139395 -0.0208,-0.226808 -0.0285,-0.465516 -0.12971,-0.673973 -0.21717,-0.38003 -0.75461,-0.07292 -0.53745,0.30711 z" />
    <path
       style="fill:#000000;fill-opacity:1;fill-rule:evenodd;stroke:none;stroke-width:1;stroke-linecap:square;paint-order:stroke fill markers"
       id="path67045"
       d="m 162.26577,16.338157 c -0.0325,0.109303 -0.0741,0.21681 -0.11114,0.324889 -0.1166,0.353641 -0.2002,0.717077 -0.27866,1.080733 -0.0673,0.321372 -0.1251,0.644587 -0.177,0.968767 -0.0262,0.148067 -0.0395,0.298509 -0.071,0.445662 -0.012,0.05606 -0.0212,0.08238 -0.0376,0.135971 -0.12546,0.419332 0.46756,0.596765 0.59303,0.177433 v 0 c 0.0259,-0.08779 0.0339,-0.109175 0.0534,-0.201605 0.032,-0.151892 0.0471,-0.306795 0.0734,-0.459653 0.0501,-0.313255 0.10595,-0.625572 0.17087,-0.936128 0.0732,-0.339979 0.15091,-0.679857 0.25919,-1.010673 0.0426,-0.124644 0.0912,-0.248708 0.12602,-0.375267 0.10616,-0.424631 -0.49436,-0.57476 -0.60051,-0.150129 z" />
    <path
       style="fill:#000000;fill-opacity:1;fill-rule:evenodd;stroke:none;stroke-width:1;stroke-linecap:square;paint-order:stroke fill markers"
       id="path67061"
       d="m 160.9507,15.847816 c -0.10904,-0.06418 -0.20035,-0.143813 -0.27736,-0.2436 -0.0713,-0.114501 -0.20498,-0.298403 -0.17218,-0.439398 0.006,-0.0021 0.0118,-0.0043 0.0177,-0.0064 0.006,0.0089 0.007,0.02818 0.0181,0.02673 0.0292,-0.004 0.0521,-0.02759 0.0789,-0.03991 0.0429,-0.01975 0.0859,-0.03941 0.13,-0.05626 0.14643,-0.05594 0.2045,-0.06754 0.35907,-0.109875 0.45377,-0.117759 0.92137,-0.150651 1.38792,-0.166879 0.42047,-0.01382 0.84108,0.02151 1.2547,0.09608 0.21333,0.04609 0.10913,0.02169 0.31267,0.07278 0.42465,0.106077 0.57467,-0.49447 0.15002,-0.600547 v 0 c -0.23064,-0.05737 -0.11263,-0.03001 -0.35413,-0.08164 -0.45692,-0.08055 -0.92076,-0.121632 -1.38509,-0.105291 -0.51511,0.01841 -1.03113,0.05728 -1.53166,0.189047 -0.36353,0.10203 -0.81225,0.212874 -1.0064,0.576253 -0.0315,0.059 -0.0337,0.12946 -0.0506,0.194191 0.002,0.05899 -0.003,0.118403 0.005,0.176972 0.0302,0.245172 0.16973,0.46634 0.30628,0.664791 0.1471,0.17593 0.30038,0.314741 0.50614,0.41863 0.39998,0.177767 0.65138,-0.387883 0.2514,-0.56565 z" />
    <path
       style="fill:#000000;fill-opacity:1;fill-rule:evenodd;stroke:none;stroke-width:1;stroke-linecap:square;paint-order:stroke fill markers"
       id="path67063"
       d="m 153.45731,17.514504 c 0.15614,-0.217287 0.19598,-0.490752 0.24018,-0.74859 0.0323,-0.325005 -0.0535,-0.638873 -0.2375,-0.907977 -0.033,-0.04823 -0.0716,-0.09232 -0.10745,-0.138475 -0.22488,-0.255271 -0.5216,-0.413485 -0.82966,-0.54502 -0.29483,-0.121513 -0.60657,-0.182705 -0.92354,-0.202 -0.37014,6.88e-4 -0.69748,0.127923 -1.01969,0.297505 -0.17649,0.101729 -0.34967,0.209024 -0.52473,0.3132 -0.37613,0.22385 -0.0596,0.755775 0.31657,0.531925 v 0 c 0.16647,-0.09908 0.3314,-0.200674 0.4986,-0.298493 0.2172,-0.116827 0.44439,-0.215237 0.69482,-0.226094 0.24588,0.01191 0.4874,0.06193 0.71643,0.153886 0.21328,0.08954 0.42387,0.191636 0.58685,0.360544 0.13411,0.16144 0.23312,0.340712 0.21901,0.557518 -0.0199,0.119086 -0.0427,0.236248 -0.0725,0.353287 -0.008,0.03245 -0.0242,0.06271 -0.0315,0.0954 -8e-4,0.003 0.005,-0.0028 0.008,-0.0042 -0.28823,0.329403 0.17762,0.737017 0.46585,0.407615 z" />
    <path
       style="fill:#000000;fill-opacity:1;fill-rule:evenodd;stroke:none;stroke-width:0.461818;stroke-linecap:square;paint-order:stroke fill markers"
       d="m 560.41234,82.356023 c -1.73495,0.134122 -2.7582,1.825776 -3.17761,3.346932 -0.75569,2.213162 -0.66803,4.653814 -0.19242,6.917512 0.30811,1.231207 0.98205,2.850554 2.44836,2.912186 0.66897,-0.176784 1.33658,0.417078 1.98629,-0.02339 1.75947,-1.235218 2.53475,-3.420673 3.02395,-5.431455 0.42061,-1.762084 0.18468,-3.618017 -0.085,-5.371081 -0.64661,-1.151286 -1.97212,-1.795365 -3.18598,-2.231619 -0.26484,-0.07808 -0.5408,-0.126151 -0.81762,-0.119087 z"
       id="path69009"
       transform="scale(0.26458333)" />
    <path
       style="fill:#000000;fill-opacity:1;fill-rule:evenodd;stroke:none;stroke-width:0.461818;stroke-linecap:square;paint-order:stroke fill markers"
       d="m 624.55358,80.868274 c -1.51549,0.245515 -2.40741,1.711085 -3.18241,2.899607 -1.22882,2.20141 -1.78874,4.779781 -1.72163,7.291739 0.23694,1.750656 0.55945,3.552915 1.37272,5.134573 0.99879,1.151286 2.77567,0.838313 3.95946,0.145099 1.72984,-0.893907 2.38049,-2.897384 3.10914,-4.569686 0.75165,-2.080143 1.09627,-4.387056 0.65438,-6.568865 -0.21085,-0.680172 -0.98309,-0.923322 -1.17869,-1.626167 -0.68928,-1.107894 -1.58071,-2.601454 -3.01297,-2.7063 z"
       id="path69048"
       transform="scale(0.26458333)" />
    <path
       style="fill:#000000;fill-opacity:1;fill-rule:evenodd;stroke:none;stroke-width:1;stroke-linecap:square;paint-order:stroke fill markers"
       id="path69132"
       d="m 167.35499,21.614142 c 0.008,0.0066 0.0487,0.0388 0.0502,0.04042 0.0154,0.01603 0.11078,0.351468 0.11124,0.353053 0.1203,0.431061 0.19998,0.871709 0.26882,1.31344 0.0733,0.474096 0.0356,0.95138 -0.0454,1.421147 -0.0844,0.421599 -0.22247,0.829455 -0.41252,1.214658 -0.15188,0.308387 -0.34055,0.593276 -0.55823,0.858392 -0.14305,0.16339 -0.31547,0.296635 -0.48145,0.435353 -0.33586,0.280681 0.0611,0.755653 0.39694,0.474972 v 0 c 0.19586,-0.163687 0.39768,-0.322654 0.56351,-0.518258 0.24709,-0.302683 0.46272,-0.62711 0.63532,-0.978564 0.21335,-0.43961 0.37401,-0.901949 0.46666,-1.382698 0.0916,-0.544304 0.13094,-1.071157 0.0468,-1.620442 -0.0734,-0.469403 -0.15853,-0.937612 -0.28738,-1.395439 -0.0802,-0.265378 -0.15139,-0.555543 -0.39472,-0.719734 -0.35617,-0.254408 -0.71596,0.249293 -0.35979,0.503701 z" />
    <path
       style="fill:#000000;fill-opacity:1;fill-rule:evenodd;stroke:none;stroke-width:1;stroke-linecap:square;paint-order:stroke fill markers"
       id="path69136"
       d="m 170.18547,23.689348 c 0.0105,0.231553 0.0141,0.463355 0.0182,0.69509 0.004,0.22054 0.0108,0.44187 -0.0199,0.660994 -0.0197,0.140144 -0.0344,0.19276 -0.0654,0.330674 -0.0634,0.28753 -0.1825,0.556603 -0.30084,0.82455 -0.0443,0.102305 -0.0936,0.202069 -0.14521,0.300809 -0.20193,0.388335 0.34725,0.673915 0.54919,0.285584 v 0 c 0.0573,-0.110586 0.11289,-0.221914 0.16226,-0.336334 0.13477,-0.305217 0.26729,-0.612855 0.33887,-0.940385 0.0367,-0.166787 0.0544,-0.230817 0.0769,-0.401468 0.0321,-0.243957 0.0282,-0.48985 0.0231,-0.73526 -0.004,-0.246807 -0.008,-0.493759 -0.0206,-0.740296 -0.0396,-0.435902 -0.65609,-0.37986 -0.61646,0.05604 z" />
    <path
       style="fill:#000000;fill-opacity:1;fill-rule:evenodd;stroke:none;stroke-width:1;stroke-linecap:square;paint-order:stroke fill markers"
       id="path69138"
       d="m 145.31539,23.513539 c 0.0189,0.162234 0.0451,0.323566 0.0724,0.484569 0.0623,0.377456 0.15955,0.747719 0.26344,1.115482 0.12216,0.408825 0.26535,0.811653 0.45049,1.196273 0.16456,0.331601 0.40213,0.611689 0.66138,0.871986 0.21879,0.221335 0.4764,0.395489 0.74398,0.551498 0.0392,0.02141 0.0784,0.04279 0.11763,0.06419 0.38441,0.209314 0.68042,-0.33432 0.29601,-0.543634 v 0 c -0.0342,-0.01857 -0.0684,-0.03714 -0.10256,-0.05571 -0.22165,-0.128389 -0.436,-0.270717 -0.61709,-0.453766 -0.2113,-0.210891 -0.40739,-0.435588 -0.5424,-0.704705 -0.1717,-0.350716 -0.29774,-0.721551 -0.41179,-1.094534 -0.098,-0.346401 -0.19013,-0.695116 -0.24883,-1.050691 -0.0265,-0.15564 -0.0516,-0.311644 -0.0699,-0.468497 -0.0619,-0.433301 -0.67468,-0.345761 -0.61278,0.08754 z" />
    <path
       style="fill:#000000;fill-opacity:1;fill-rule:evenodd;stroke:none;stroke-width:1;stroke-linecap:square;paint-order:stroke fill markers"
       id="path69140"
       d="m 143.88841,25.804932 c 0.0667,0.148217 0.12478,0.300119 0.18294,0.451853 0.0968,0.282262 0.238,0.54159 0.40342,0.788571 0.13589,0.194614 0.29771,0.368144 0.46101,0.539541 0.30203,0.316804 0.75005,-0.110321 0.44803,-0.427122 v 0 c -0.13923,-0.145957 -0.27816,-0.292801 -0.39526,-0.457671 -0.14028,-0.207923 -0.25886,-0.426086 -0.33922,-0.664902 -0.0654,-0.170492 -0.13064,-0.341276 -0.20727,-0.507095 -0.19575,-0.391491 -0.7494,-0.114665 -0.55365,0.276825 z" />
    <path
       style="fill:#000000;fill-opacity:1;fill-rule:evenodd;stroke:none;stroke-width:1;stroke-linecap:square;paint-order:stroke fill markers"
       id="path69146"
       d="m 152.53697,27.848025 c -0.23863,0.168283 -0.50002,0.301271 -0.75919,0.434417 -0.4952,0.26671 -1.02657,0.450355 -1.56358,0.611523 -0.59839,0.17095 -1.21014,0.288113 -1.82455,0.383435 -0.36016,0.05242 -0.72349,0.07391 -1.08654,0.09382 -0.43704,0.02402 -0.40306,0.64209 0.034,0.618066 v 0 c 0.38349,-0.02114 0.76725,-0.04439 1.14762,-0.100224 0.64251,-0.100007 1.28223,-0.222776 1.90782,-0.402336 0.57289,-0.172728 1.13967,-0.369517 1.6683,-0.653783 0.29559,-0.152098 0.59402,-0.304482 0.86283,-0.501557 0.34179,-0.273428 -0.0449,-0.756788 -0.38668,-0.483357 z" />
    <path
       style="fill:#000000;fill-opacity:1;fill-rule:evenodd;stroke:none;stroke-width:1;stroke-linecap:square;paint-order:stroke fill markers"
       id="path69150"
       d="m 160.6163,27.865501 c 0.17683,0.192622 0.37562,0.36028 0.57879,0.524327 0.44095,0.367832 0.95836,0.611251 1.48221,0.835031 0.60293,0.235807 1.23964,0.363217 1.87045,0.498845 0.50508,0.108979 1.01119,0.214532 1.52548,0.268097 0.0705,0.0046 0.14098,0.0092 0.21147,0.01379 0.4368,0.02798 0.47637,-0.589756 0.0396,-0.617733 v 0 c -0.0626,-0.0039 -0.12521,-0.0079 -0.18782,-0.0118 -0.49195,-0.04968 -0.97538,-0.154935 -1.45858,-0.257506 -0.59225,-0.127328 -1.19042,-0.245356 -1.75776,-0.463071 -0.47194,-0.200837 -0.93964,-0.415986 -1.33663,-0.747628 -0.10832,-0.08708 -0.20574,-0.161972 -0.30732,-0.25573 -0.0825,-0.07616 -0.10789,-0.110657 -0.18271,-0.1866 -0.04,-0.04059 -0.0512,-0.04925 -0.0904,-0.08336 -0.34179,-0.273428 -0.72848,0.209928 -0.38669,0.483357 z" />
    <path
       style="fill:#000000;fill-opacity:1;fill-rule:evenodd;stroke:none;stroke-width:1;stroke-linecap:square;paint-order:stroke fill markers"
       id="path75430"
       d="m 156.9784,40.413408 c -0.0212,0.09806 -0.014,0.198477 -0.002,0.297156 0.008,0.05408 0.014,0.108339 0.02,0.162621 0.0485,0.435001 0.66371,0.366368 0.61518,-0.06863 v 0 c -0.006,-0.05777 -0.0131,-0.115506 -0.0213,-0.173066 -5.3e-4,-0.0032 -0.006,-0.114837 -0.0113,-0.06795 0.10616,-0.424633 -0.49436,-0.574763 -0.60052,-0.15013 z" />
    <path
       style="fill:#80e5ff;fill-opacity:1;fill-rule:evenodd;stroke:none;stroke-width:1;stroke-linecap:square;stroke-opacity:1;paint-order:stroke fill markers"
       id="path90566"
       d="m 178.9417,17.962167 c 0.0954,0.145635 0.15719,0.308929 0.21745,0.471226 0.0876,0.264072 0.17098,0.534551 0.20217,0.812309 0.0176,0.156913 0.009,0.23657 0.004,0.393922 -0.0134,0.188345 -0.038,0.375804 -0.0697,0.561906 -0.017,0.09971 -0.0282,0.180784 -0.0651,0.273575 -0.01,0.02503 -0.0254,0.04752 -0.0381,0.07128 -0.0315,0.03969 -0.0668,0.08665 -0.11582,0.106838 -0.003,0.0013 -0.0366,-0.0029 -0.0384,-0.0046 -0.003,-0.0032 0.001,-0.0092 0.002,-0.01374 -0.0661,-0.03908 -0.13385,-0.07715 -0.18778,-0.133195 -0.0254,-0.02638 -0.0786,-0.104567 -0.0963,-0.129726 -0.10303,-0.16034 -0.19202,-0.329284 -0.27965,-0.498393 -0.0518,-0.09919 -0.0994,-0.200557 -0.13293,-0.307413 -0.13419,-0.416626 -0.72338,-0.226868 -0.5892,0.189758 v 0 c 0.0455,0.139168 0.10386,0.273233 0.1726,0.402578 0.10207,0.196755 0.20575,0.393442 0.32891,0.578007 0.0772,0.103972 0.10525,0.150687 0.2018,0.241956 0.10146,0.09591 0.2316,0.179841 0.36276,0.228281 0.0504,0.0186 0.10335,0.02916 0.15503,0.04375 0.0611,0.0018 0.12236,0.01116 0.18317,0.0053 0.20159,-0.01929 0.38216,-0.151504 0.50287,-0.307101 0.0334,-0.04307 0.0601,-0.09098 0.0901,-0.136466 0.0242,-0.05384 0.0525,-0.106057 0.0727,-0.161532 0.0442,-0.121346 0.0618,-0.227543 0.0832,-0.354125 0.0359,-0.212286 0.0633,-0.426167 0.0769,-0.641104 0.005,-0.222199 0.0137,-0.290027 -0.0129,-0.513168 -0.0377,-0.316721 -0.13186,-0.625286 -0.23293,-0.926399 -0.0831,-0.219715 -0.16961,-0.442027 -0.30839,-0.633812 -0.26872,-0.345499 -0.75733,0.03453 -0.48861,0.38003 z" />
    <path
       style="fill:#80e5ff;fill-opacity:1;fill-rule:evenodd;stroke:none;stroke-width:1;stroke-linecap:square;stroke-opacity:1;paint-order:stroke fill markers"
       id="path90568"
       d="m 179.80311,22.99008 c 0.12226,0.161361 0.21739,0.340947 0.31438,0.517996 0.19015,0.40666 0.30561,0.840616 0.39333,1.279156 0.0649,0.409666 0.0776,0.824964 0.0565,1.238544 -0.0103,0.292815 -0.13017,0.482682 -0.31376,0.698934 -0.0919,0.08488 -0.21036,0.264549 -0.35817,0.236604 -0.0131,-0.0024 -0.0251,-0.0091 -0.0377,-0.01368 -0.17547,-0.09743 -0.308,-0.252936 -0.43088,-0.408149 -0.10662,-0.139312 -0.19328,-0.291653 -0.27582,-0.445933 -0.20719,-0.385553 -0.75245,-0.09254 -0.54525,0.293018 v 0 c 0.10101,0.187253 0.20732,0.371948 0.33831,0.540347 0.18201,0.224539 0.38624,0.462407 0.65973,0.577577 0.06,0.02529 0.12432,0.03897 0.18648,0.05846 0.16993,0.01013 0.21088,0.02795 0.37645,-0.0231 0.23228,-0.07162 0.40324,-0.245015 0.56252,-0.419074 0.0392,-0.0477 0.0806,-0.09362 0.11755,-0.143108 0.20158,-0.270314 0.32534,-0.582422 0.33876,-0.921178 0.0226,-0.464792 0.008,-0.931496 -0.0679,-1.391432 -0.10112,-0.499485 -0.23433,-0.993955 -0.45736,-1.454556 -0.11121,-0.202723 -0.22164,-0.407285 -0.36198,-0.591843 -0.26262,-0.350159 -0.75782,0.02124 -0.4952,0.371401 z" />
    <path
       style="fill:#80e5ff;fill-opacity:1;fill-rule:evenodd;stroke:none;stroke-width:1;stroke-linecap:square;stroke-opacity:1;paint-order:stroke fill markers"
       id="path90570"
       d="m 180.09228,29.668086 c 0.0378,0.233077 0.0362,0.470733 0.0388,0.706183 7.9e-4,0.290095 -0.003,0.58234 -0.0571,0.868381 -0.0322,0.169321 -0.0538,0.220438 -0.10546,0.382654 -0.065,0.156379 -0.16203,0.428001 -0.36458,0.456028 -0.0149,0.0021 -0.0298,-0.0047 -0.0447,-0.007 -0.17515,-0.08192 -0.29996,-0.239742 -0.41253,-0.391483 -0.097,-0.147807 -0.16298,-0.311994 -0.22842,-0.475289 -0.1634,-0.406059 -0.73765,-0.174985 -0.57426,0.231074 v 0 c 0.0864,0.213897 0.17609,0.427624 0.30912,0.617788 0.0369,0.04808 0.0717,0.09782 0.1107,0.144227 0.17208,0.204923 0.39036,0.401619 0.65847,0.465384 0.0733,0.01744 0.15004,0.014 0.22506,0.02098 0.0729,-0.01497 0.1485,-0.02048 0.21883,-0.04495 0.36847,-0.128241 0.56631,-0.489191 0.69303,-0.831665 0.0645,-0.208624 0.0873,-0.261117 0.12735,-0.478779 0.0585,-0.317923 0.0649,-0.642178 0.0635,-0.964414 -0.003,-0.262396 -0.003,-0.526905 -0.045,-0.786641 -0.0619,-0.4333 -0.67468,-0.345763 -0.61278,0.08754 z" />
    <path
       style="fill:#80e5ff;fill-opacity:1;fill-rule:evenodd;stroke:none;stroke-width:1;stroke-linecap:square;stroke-opacity:1;paint-order:stroke fill markers"
       id="path90576"
       d="m 177.95362,10.976731 c 0.39714,0.166864 0.79168,0.338941 1.1752,0.535233 0.48439,0.281958 0.9231,0.634793 1.3089,1.04018 0.21668,0.272258 0.40212,0.583983 0.46925,0.929083 0.0444,0.02187 -0.0372,0.04053 -0.0334,0.02677 0.0101,-0.03665 0.0414,-0.06628 0.0471,-0.103877 0.002,-0.01098 -0.0182,-0.0139 -0.0291,-0.01627 -0.0791,-0.01728 -0.16052,-0.0208 -0.24059,-0.03255 -0.18996,-0.03066 -0.37514,-0.08231 -0.55834,-0.139965 -0.41775,-0.130634 -0.60249,0.460155 -0.18474,0.590789 v 0 c 0.21537,0.06698 0.43294,0.127326 0.65625,0.162057 0.1799,0.02478 0.45744,0.07797 0.62707,-0.0073 0.27839,-0.139981 0.33132,-0.330805 0.32031,-0.612572 -0.10825,-0.461212 -0.31912,-0.862083 -0.62652,-1.22402 -0.43574,-0.453466 -0.92685,-0.851733 -1.47468,-1.16357 -0.41556,-0.211764 -0.84203,-0.401353 -1.27467,-0.575578 -0.41834,-0.128722 -0.60038,0.462906 -0.18204,0.591628 z" />
    <path
       style="fill:#80e5ff;fill-opacity:1;fill-rule:evenodd;stroke:none;stroke-width:1;stroke-linecap:square;stroke-opacity:1;paint-order:stroke fill markers"
       id="path90578"
       d="m 183.66073,14.663681 c 0.25501,0.0048 0.47526,0.141727 0.68506,0.272338 0.50017,0.361193 0.9558,0.782104 1.37454,1.234243 0.31857,0.351151 0.439,0.801317 0.51898,1.256489 0.0186,0.224453 0.0723,0.531427 -0.095,0.716002 -0.12712,0.136053 -0.2972,0.204543 -0.47699,0.236624 -0.11235,0.01262 -0.22364,-0.0036 -0.33417,-0.02204 -0.43221,-0.0691 -0.52993,0.54214 -0.0977,0.611239 v 0 c 0.18423,0.02852 0.36939,0.0485 0.55522,0.01738 0.33991,-0.07378 0.6481,-0.217761 0.86757,-0.498172 0.0367,-0.06014 0.0798,-0.116824 0.11018,-0.180428 0.14527,-0.304542 0.11861,-0.665992 0.0803,-0.989302 -0.10337,-0.57231 -0.27276,-1.129841 -0.67477,-1.569008 -0.45847,-0.492538 -0.95507,-0.953532 -1.50607,-1.341657 -0.3145,-0.188488 -0.6302,-0.362651 -1.00712,-0.362719 -0.4377,0 -0.4377,0.619001 0,0.619001 z" />
    <path
       style="fill:#80e5ff;fill-opacity:1;fill-rule:evenodd;stroke:none;stroke-width:1;stroke-linecap:square;stroke-opacity:1;paint-order:stroke fill markers"
       id="path90580"
       d="m 145.31247,13.381448 c -0.55174,0.340836 -1.04096,0.773398 -1.5318,1.194548 -0.60957,0.5141 -1.17475,1.074985 -1.68658,1.685945 -0.23208,0.334053 -0.54668,0.787511 -0.35804,1.21684 0.037,0.08416 0.10482,0.151046 0.15724,0.226569 0.29296,0.282634 0.66543,0.420693 1.05656,0.501182 0.0552,0.0074 0.11047,0.01475 0.1657,0.02212 0.43409,0.05605 0.51336,-0.557855 0.0793,-0.613904 v 0 c -0.0413,-0.0051 -0.0827,-0.01019 -0.12398,-0.01528 -0.25282,-0.04808 -0.49709,-0.129843 -0.70232,-0.290765 -0.012,-0.003 -0.0644,-0.01078 -0.07,-0.03138 -0.049,-0.181609 0.1829,-0.483822 0.27029,-0.618161 0.48926,-0.585514 1.03168,-1.121059 1.61497,-1.613435 0.45276,-0.388654 0.90427,-0.784667 1.4055,-1.11063 0.39149,-0.195745 0.11466,-0.749396 -0.27683,-0.553651 z" />
    <path
       style="fill:#80e5ff;fill-opacity:1;fill-rule:evenodd;stroke:none;stroke-width:1;stroke-linecap:square;stroke-opacity:1;paint-order:stroke fill markers"
       id="path90582"
       d="m 140.57292,19.150422 c -0.26613,0.175515 -0.45331,0.441485 -0.64008,0.694093 -0.24637,0.321061 -0.4071,0.689443 -0.54881,1.065202 -0.1281,0.357835 -0.21993,0.726808 -0.30322,1.09716 -0.0487,0.259173 -0.0554,0.52095 0.10908,0.744846 0.10531,0.143363 0.17814,0.168337 0.32443,0.256962 0.0697,0.0217 0.13732,0.05191 0.20913,0.0651 0.31428,0.05771 0.64963,-0.02429 0.9485,-0.115925 0.20753,-0.08238 0.10695,-0.03897 0.30201,-0.129588 0.39644,-0.185534 0.13405,-0.746173 -0.26238,-0.560639 v 0 c -0.14939,0.07058 -0.0744,0.03742 -0.22496,0.09962 -0.21438,0.06949 -0.44586,0.122422 -0.67215,0.100068 -0.2004,-0.08153 -0.15843,-0.08624 -0.12972,-0.324734 0.0769,-0.342417 0.1611,-0.683686 0.27861,-1.014826 0.12117,-0.322655 0.25506,-0.640311 0.46747,-0.915587 0.14012,-0.190096 0.27673,-0.39657 0.47016,-0.536842 0.37117,-0.23198 0.0431,-0.756891 -0.32807,-0.52491 z" />
    <path
       style="fill:#000000;fill-opacity:1;fill-rule:evenodd;stroke:none;stroke-width:1;stroke-linecap:square;stroke-opacity:1;paint-order:stroke fill markers"
       id="path90617"
       d="m 137.35223,26.645687 c -0.16474,0.352383 -0.41076,0.662832 -0.6256,0.985846 -0.20897,0.330697 -0.40584,0.668869 -0.59736,1.009909 -0.12334,0.219625 -0.24415,0.414176 -0.3124,0.660365 -0.0367,0.132369 -0.0464,0.27077 -0.0696,0.406157 -0.0425,0.556374 0.10868,1.095047 0.20129,1.637387 0.0691,0.404461 0.0565,0.387353 0.0804,0.799187 -0.005,0.141444 -0.002,0.283324 -0.0137,0.424334 -0.0237,0.278969 -0.0926,0.642334 -0.14879,0.914768 -0.0901,0.436438 -0.20079,0.868746 -0.30652,1.301559 -0.1708,0.663945 -0.28947,1.338276 -0.38085,2.017125 -0.011,0.09 -0.0219,0.179999 -0.0328,0.269997 -0.0528,0.434507 0.56172,0.50913 0.61448,0.07462 v 0 c 0.0106,-0.08737 0.0212,-0.174739 0.0318,-0.26211 0.0883,-0.657222 0.20306,-1.310023 0.36869,-1.952746 0.22657,-0.92755 0.49012,-1.862886 0.48555,-2.825004 -0.029,-0.461079 -0.0149,-0.435629 -0.0909,-0.881314 -0.0805,-0.472218 -0.21426,-0.940816 -0.19669,-1.424556 0.0113,-0.09107 0.0113,-0.184243 0.0339,-0.273193 0.0542,-0.214085 0.16734,-0.390062 0.27416,-0.580348 0.18446,-0.328604 0.37403,-0.654476 0.57486,-0.973399 0.24792,-0.372949 0.53883,-0.730668 0.70305,-1.150718 0.12578,-0.419241 -0.46712,-0.597109 -0.59289,-0.177869 z" />
    <path
       style="fill:#000000;fill-opacity:1;fill-rule:evenodd;stroke:none;stroke-width:1;stroke-linecap:square;stroke-opacity:1;paint-order:stroke fill markers"
       id="path90619"
       d="m 133.69643,28.176336 c -0.21274,0.256408 -0.3947,0.53385 -0.56873,0.81734 -0.14459,0.285136 -0.38264,0.566471 -0.45409,0.883965 -0.063,0.279898 -0.0294,0.367967 0.002,0.647063 0.089,0.434038 0.21576,0.85894 0.24863,1.302567 0.0234,0.315532 0.0141,0.429437 0.009,0.746025 -0.038,0.66167 -0.18541,1.3092 -0.32871,1.954119 -0.12211,0.486675 -0.20333,0.97994 -0.23284,1.48059 -0.0122,0.341569 0.0331,0.68107 0.16199,0.999138 0.0302,0.07444 0.069,0.145095 0.10342,0.217641 0.1913,0.393682 0.74805,0.123145 0.55675,-0.270539 v 0 c -0.14421,-0.287647 -0.2251,-0.585232 -0.20417,-0.910846 0.0259,-0.467535 0.10588,-0.927357 0.21912,-1.381734 0.15233,-0.685681 0.30719,-1.374529 0.34336,-2.078379 0.005,-0.34267 0.0153,-0.483412 -0.0124,-0.826129 -0.0362,-0.447154 -0.15154,-0.877838 -0.25002,-1.313889 -0.0124,-0.07584 -0.052,-0.260575 -0.0359,-0.349803 0.0485,-0.268693 0.28642,-0.533324 0.40164,-0.77624 0.16976,-0.277252 0.35046,-0.54532 0.55606,-0.797529 0.2428,-0.364188 -0.27224,-0.707548 -0.51503,-0.34336 z" />
    <path
       style="fill:#000000;fill-opacity:1;fill-rule:evenodd;stroke:none;stroke-width:1;stroke-linecap:square;stroke-opacity:1;paint-order:stroke fill markers"
       id="path90621"
       d="m 185.55317,30.920822 c 0.0964,0.223822 0.16441,0.45779 0.23214,0.691436 0.0174,0.07494 0.0419,0.14859 0.0522,0.224829 0.071,0.524465 -0.0717,1.142439 -0.19066,1.649632 -0.17501,0.669968 -0.43885,1.310172 -0.71699,1.942494 -0.10156,0.24375 -0.2232,0.488569 -0.26118,0.753428 -0.0409,0.285176 0.007,0.565835 0.049,0.847053 0.0814,0.400301 0.15055,0.799221 0.1271,1.209312 -0.0195,0.341487 -0.0448,0.421392 -0.1061,0.763133 -0.13371,0.758639 -0.41938,1.466887 -0.76629,2.149755 -0.27567,0.504068 -0.57448,0.996035 -0.90073,1.468993 -0.24836,0.360416 0.26134,0.71165 0.5097,0.351235 v 0 c 0.3415,-0.496062 0.65545,-1.011248 0.94314,-1.540336 0.37663,-0.744397 0.67681,-1.495621 0.82375,-2.321983 0.0657,-0.376949 0.0974,-0.487376 0.11551,-0.865608 0.0212,-0.442423 -0.044,-0.874535 -0.13392,-1.306248 -0.0295,-0.194233 -0.0821,-0.413435 -0.059,-0.612016 0.0267,-0.228679 0.14162,-0.437695 0.22562,-0.647522 0.29343,-0.667293 0.5703,-1.343549 0.75316,-2.051011 0.16566,-0.713248 0.32298,-1.463262 0.13014,-2.187673 -0.0749,-0.257865 -0.15119,-0.515731 -0.25766,-0.76274 -0.17242,-0.40231 -0.74137,-0.158473 -0.56895,0.243837 z" />
    <path
       style="fill:#000000;fill-opacity:1;fill-rule:evenodd;stroke:none;stroke-width:1;stroke-linecap:square;stroke-opacity:1;paint-order:stroke fill markers"
       id="path90623"
       d="m 187.79032,37.703278 c 0.14568,0.198062 0.22,0.435274 0.30558,0.663025 0.0822,0.224178 0.19401,0.446296 0.2347,0.683998 0.0463,0.270266 -0.005,0.545065 -0.0479,0.811154 -0.10827,0.519467 -0.30654,1.013108 -0.48923,1.509382 -0.17695,0.464865 -0.0642,0.938112 0.0335,1.405591 0.0404,0.216741 0.0977,0.433432 0.11176,0.654423 0.0128,0.200832 -0.0188,0.399386 -0.0508,0.596596 -0.0523,0.239963 -0.0219,0.124751 -0.0895,0.346077 -0.12547,0.41933 0.46756,0.596771 0.59303,0.17744 v 0 c 0.0823,-0.279738 0.0462,-0.137384 0.10793,-0.427201 0.0312,-0.202642 0.0508,-0.289986 0.0571,-0.497692 0.01,-0.330978 -0.0531,-0.654542 -0.12365,-0.976315 -0.0736,-0.351459 -0.18505,-0.713277 -0.0585,-1.065091 0.1969,-0.534942 0.40939,-1.067604 0.52013,-1.629031 0.0419,-0.280663 0.0769,-0.43057 0.0686,-0.716918 -0.0111,-0.384609 -0.13887,-0.740315 -0.2879,-1.090324 -0.10468,-0.278061 -0.20209,-0.564055 -0.38125,-0.804902 -0.25441,-0.356169 -0.75811,0.0036 -0.5037,0.359788 z" />
    <path
       style="fill:#000000;fill-opacity:1;fill-rule:evenodd;stroke:none;stroke-width:1;stroke-linecap:square;stroke-opacity:1;paint-order:stroke fill markers"
       id="path90643"
       d="m 150.58578,21.544634 c 0.0822,0.0883 0.11805,0.209494 0.15819,0.320673 0.0761,0.23079 0.12292,0.468976 0.15813,0.708929 0.0356,0.248596 0.0556,0.498684 0.0657,0.749474 0.006,0.2104 -0.0132,0.41985 -0.0451,0.627535 -0.0321,0.199787 -0.0959,0.392373 -0.15958,0.583844 -0.0325,0.09685 -0.0699,0.191897 -0.10787,0.286701 -0.16243,0.406445 0.41237,0.636154 0.5748,0.229709 v 0 c 0.0424,-0.106258 0.0842,-0.212746 0.12051,-0.32128 0.0746,-0.22477 0.14754,-0.45128 0.18411,-0.685954 0.0372,-0.246815 0.0593,-0.495724 0.0516,-0.74565 -0.0111,-0.272638 -0.033,-0.544549 -0.0718,-0.814783 -0.0418,-0.281495 -0.0977,-0.560954 -0.18913,-0.831093 -0.0656,-0.17762 -0.13361,-0.362586 -0.26402,-0.504379 -0.2802,-0.33625 -0.75573,0.06002 -0.47553,0.396274 z" />
    <path
       style="fill:#000000;fill-opacity:1;fill-rule:evenodd;stroke:none;stroke-width:1;stroke-linecap:square;stroke-opacity:1;paint-order:stroke fill markers"
       id="path90645"
       d="m 161.82779,21.048195 c -0.0368,0.139249 -0.0574,0.281534 -0.0772,0.424024 -0.0383,0.311739 -0.0597,0.625289 -0.075,0.938903 -0.0108,0.314842 0.005,0.629661 0.0186,0.944133 0.012,0.280538 0.0204,0.561194 0.0343,0.841649 0.0134,0.220428 0.0281,0.440768 0.0473,0.660775 0.008,0.0758 0.0128,0.151825 0.0157,0.227971 0.0178,0.437337 0.6363,0.412142 0.61848,-0.02519 v 0 c -0.004,-0.08565 -0.008,-0.171225 -0.0175,-0.256503 -0.0185,-0.212319 -0.0326,-0.424965 -0.0457,-0.637686 -0.0138,-0.279241 -0.022,-0.558687 -0.0341,-0.838009 -0.0129,-0.295477 -0.028,-0.59126 -0.0187,-0.8871 0.0143,-0.295376 0.0344,-0.590677 0.07,-0.884341 0.0165,-0.120447 0.0325,-0.240986 0.0645,-0.358492 0.10616,-0.42463 -0.49436,-0.57476 -0.60052,-0.150129 z" />
    <path
       style="fill:#80e5ff;fill-opacity:1;fill-rule:evenodd;stroke:none;stroke-width:1;stroke-linecap:square;stroke-opacity:1;paint-order:stroke fill markers"
       id="path94270"
       d="m 143.58851,17.096089 c -0.0645,0.07032 -0.14285,0.124808 -0.21969,0.180454 -0.0691,0.05029 -0.14247,0.09394 -0.21709,0.13537 -0.38207,0.213551 -0.0801,0.753878 0.30201,0.540327 v 0 c 0.0956,-0.05368 0.18975,-0.109822 0.27839,-0.174534 0.11602,-0.08418 0.23154,-0.17022 0.32636,-0.278776 0.28485,-0.332326 -0.18513,-0.735167 -0.46998,-0.402841 z" />
    <path
       style="fill:#80e5ff;fill-opacity:1;fill-rule:evenodd;stroke:none;stroke-width:1;stroke-linecap:square;stroke-opacity:1;paint-order:stroke fill markers"
       id="path94272"
       d="m 140.78907,21.913324 c 0.005,-0.157123 0.0142,-0.120902 -0.0371,-0.05035 -0.0231,0.03177 -0.0503,0.06031 -0.0756,0.09033 -0.0944,0.11968 -0.22006,0.206218 -0.34665,0.2883 -0.36659,0.239139 -0.0284,0.757586 0.3382,0.518447 v 0 c 0.17721,-0.116132 0.34969,-0.24222 0.48296,-0.409248 0.0767,-0.09202 0.20805,-0.246814 0.23407,-0.36823 0.011,-0.0514 0.0113,-0.104524 0.017,-0.156786 -0.0619,-0.4333 -0.67468,-0.34576 -0.61278,0.08754 z" />
    <path
       style="fill:#80e5ff;fill-opacity:1;fill-rule:evenodd;stroke:none;stroke-width:1;stroke-linecap:square;stroke-opacity:1;paint-order:stroke fill markers"
       id="path94274"
       d="m 151.3314,9.1211341 c -0.2574,0.1513504 -0.5184,0.2983873 -0.77438,0.4529486 -0.6452,0.394461 -1.27022,0.8192163 -1.87914,1.2673033 -0.36798,0.295313 -0.75935,0.570016 -1.09358,0.905259 -0.0504,0.05057 -0.0965,0.105292 -0.14475,0.157937 -0.0362,0.06269 -0.0873,0.118909 -0.10874,0.188078 -0.0789,0.254491 -0.007,0.460638 0.19327,0.626068 0.0992,0.08179 0.18418,0.104604 0.29992,0.14919 0.22912,0.07336 0.46488,0.09783 0.70406,0.09016 0.17898,-0.0049 0.35526,-0.03642 0.53001,-0.07295 0.10031,-0.02473 0.052,-0.0124 0.14485,-0.03683 0.42324,-0.11159 0.26543,-0.710135 -0.15781,-0.598545 v 0 c -0.0772,0.0204 -0.0393,0.01058 -0.11388,0.02951 -0.14014,0.02939 -0.28131,0.05635 -0.42493,0.0602 -0.16048,0.0063 -0.31772,-0.0078 -0.47269,-0.05397 -0.0207,-0.0062 -0.0413,-0.01276 -0.0621,-0.01861 -0.011,-0.0031 -0.022,-0.0097 -0.0334,-0.0083 -0.0365,0.0046 0.006,0.128358 -0.0572,0.117703 -0.0192,-0.0032 0.0113,-0.03721 0.017,-0.05582 0.33629,-0.375717 0.7543,-0.66774 1.14681,-0.980594 0.5937,-0.43711 1.20325,-0.851219 1.83235,-1.236035 0.29025,-0.175535 0.18536,-0.1151023 0.44991,-0.2650121 0.0853,-0.048358 0.22165,-0.1229204 0.30847,-0.1780318 0.0631,-0.040045 0.0791,-0.056242 0.13356,-0.1019907 0.3095,-0.3095004 -0.1282,-0.7471998 -0.4377,-0.4376995 z" />
    <path
       style="opacity:1;fill:#80e5ff;fill-opacity:1;fill-rule:evenodd;stroke:none;stroke-width:1;stroke-linecap:square;stroke-opacity:1;paint-order:stroke fill markers"
       id="path94758"
       d="m 176.33744,35.925326 c 0.009,0.396139 0.0218,0.791834 0.0536,1.186849 0.0393,0.374057 0.10482,0.756174 0.30435,1.082307 0.0348,0.05683 0.0773,0.108567 0.11591,0.162849 0.18235,0.204975 0.38913,0.440131 0.67776,0.483404 0.0706,0.01058 0.14286,2.65e-4 0.21429,5.29e-4 0.4049,-0.08318 0.70236,-0.353033 0.97098,-0.649843 0.16423,-0.21018 0.0857,-0.104532 0.23591,-0.316661 0.25235,-0.357635 -0.25342,-0.714508 -0.50577,-0.356876 v 0 c -0.12505,0.177943 -0.0612,0.09112 -0.19129,0.260612 -0.15849,0.179557 -0.32908,0.346933 -0.55111,0.445146 -0.0137,0.0094 -0.033,0.02756 -0.0529,0.02193 -0.12515,-0.03553 -0.20848,-0.173358 -0.2992,-0.254889 -0.20852,-0.267877 -0.27218,-0.595847 -0.30198,-0.928606 -0.031,-0.378306 -0.0422,-0.757322 -0.0516,-1.136708 0,-0.4377 -0.619,-0.4377 -0.619,0 z" />
    <path
       style="opacity:1;fill:#80e5ff;fill-opacity:1;fill-rule:evenodd;stroke:none;stroke-width:1;stroke-linecap:square;stroke-opacity:1;paint-order:stroke fill markers"
       id="path94762"
       d="m 174.38667,41.591356 c -0.1894,0.299035 -0.31542,0.634683 -0.44971,0.961189 -0.11793,0.275966 -0.20135,0.566026 -0.12651,0.865886 0.0133,0.05329 0.0353,0.104024 0.053,0.156036 0.0359,0.05579 0.0646,0.11698 0.10778,0.167375 0.18498,0.215937 0.4684,0.286504 0.74158,0.254032 0.0664,-0.0079 0.13074,-0.02811 0.19611,-0.04217 0.32848,-0.100061 0.62501,-0.273373 0.90438,-0.469284 0.35784,-0.252053 0.001,-0.758116 -0.35646,-0.506063 v 0 c -0.21404,0.151588 -0.44051,0.286803 -0.68967,0.372795 -0.10293,0.02832 -0.22479,0.07264 -0.32311,0.0087 -0.0971,-0.213593 -0.0175,-0.362612 0.0654,-0.571929 0.10843,-0.263803 0.22125,-0.526282 0.33985,-0.785336 0.29079,-0.327141 -0.17185,-0.738383 -0.46264,-0.411242 z" />
    <path
       style="opacity:1;fill:#80e5ff;fill-opacity:1;fill-rule:evenodd;stroke:none;stroke-width:1;stroke-linecap:square;stroke-opacity:1;paint-order:stroke fill markers"
       id="path94764"
       d="m 160.40574,46.125479 c 0.21529,0.418346 0.49163,0.798676 0.79402,1.157361 0.36361,0.367739 0.77539,0.729507 1.26918,0.91177 0.0953,0.03517 0.19582,0.05412 0.29372,0.08118 0.57535,0.108717 0.95751,-0.03412 1.45158,-0.30676 0.38258,-0.21263 0.0819,-0.753685 -0.30071,-0.541055 v 0 c -0.32619,0.18288 -0.61135,0.320847 -0.99628,0.248428 -0.0621,-0.01421 -0.12629,-0.02143 -0.18639,-0.04265 -0.41237,-0.145491 -0.75396,-0.449746 -1.05881,-0.751046 -0.26646,-0.312721 -0.50603,-0.645864 -0.70066,-1.008631 -0.17776,-0.399973 -0.74341,-0.148574 -0.56565,0.251402 z" />
    <path
       style="opacity:1;fill:#80e5ff;fill-opacity:1;fill-rule:evenodd;stroke:none;stroke-width:1;stroke-linecap:square;stroke-opacity:1;paint-order:stroke fill markers"
       id="path94766"
       d="m 143.53619,44.27058 c 0.21334,0.06622 0.43614,0.09847 0.65811,0.117523 0.42453,0.01746 0.77299,-0.207841 1.10139,-0.448371 0.35249,-0.25948 -0.0145,-0.757981 -0.36696,-0.498501 v 0 c -0.20407,0.151137 -0.42004,0.3239 -0.68478,0.329866 -0.17251,-0.01257 -0.3457,-0.03956 -0.51201,-0.08775 -0.41524,-0.138412 -0.61098,0.448823 -0.19575,0.587237 z" />
    <path
       style="opacity:1;fill:#80e5ff;fill-opacity:1;fill-rule:evenodd;stroke:none;stroke-width:1;stroke-linecap:square;stroke-opacity:1;paint-order:stroke fill markers"
       id="path94768"
       d="m 154.65114,29.249618 c 0.13046,0.323551 0.32084,0.607235 0.54129,0.875456 0.28805,0.286602 0.62801,0.536943 1.00894,0.686679 0.0807,0.03173 0.16485,0.05393 0.24728,0.0809 0.43093,0.118393 0.87607,0.105907 1.31577,0.05858 0.0576,-0.0088 0.11511,-0.0176 0.17267,-0.0264 0.43255,-0.06693 0.3379,-0.678649 -0.0947,-0.611722 v 0 c -0.0484,0.0076 -0.0968,0.01519 -0.14525,0.02278 -0.35383,0.03934 -0.71294,0.05566 -1.06142,-0.03329 -0.0587,-0.01778 -0.11865,-0.03168 -0.176,-0.05334 -0.29616,-0.111824 -0.56064,-0.30485 -0.79039,-0.518756 -0.18653,-0.223689 -0.34473,-0.459935 -0.45259,-0.732297 -0.17777,-0.399974 -0.74342,-0.148575 -0.56565,0.251401 z" />
    <path
       style="opacity:1;fill:#80e5ff;fill-opacity:1;fill-rule:evenodd;stroke:none;stroke-width:1;stroke-linecap:square;stroke-opacity:1;paint-order:stroke fill markers"
       id="path94770"
       d="m 156.11738,15.947823 c 0.10206,0.361905 0.18823,0.728185 0.27976,1.092865 0.14775,0.579608 0.27822,1.16972 0.5332,1.714384 0.0422,0.09009 0.092,0.176375 0.13803,0.264563 0.20623,0.32514 0.45622,0.555854 0.87184,0.462544 0.17026,-0.03822 0.26946,-0.121004 0.40863,-0.213552 0.28994,-0.21903 0.50187,-0.5076 0.68383,-0.817685 0.0881,-0.151117 0.13827,-0.31644 0.18648,-0.483051 0.11867,-0.421305 -0.47715,-0.589133 -0.59582,-0.167829 v 0 c -0.0316,0.116927 -0.0649,0.23276 -0.12534,0.338986 -0.13481,0.232817 -0.28846,0.451872 -0.50165,0.620751 -0.0496,0.03706 -0.10198,0.07062 -0.14941,0.110449 -0.0163,0.01372 -0.0445,0.05342 -0.0458,0.05308 -0.082,-0.02039 -0.14792,-0.142673 -0.18496,-0.192001 -0.0386,-0.07265 -0.0807,-0.143596 -0.11593,-0.217961 -0.24381,-0.514508 -0.36079,-1.075582 -0.50268,-1.623384 -0.0932,-0.371157 -0.18094,-0.743918 -0.28495,-1.112215 -0.12025,-0.420858 -0.71543,-0.250806 -0.59519,0.170053 z" />
    <path
       style="opacity:1;fill:#80e5ff;fill-opacity:1;fill-rule:evenodd;stroke:none;stroke-width:1;stroke-linecap:square;stroke-opacity:1;paint-order:stroke fill markers"
       id="path94772"
       d="m 167.73759,16.08475 c 0.20476,0.04549 0.3687,0.167785 0.53024,0.29499 0.24921,0.201574 0.47141,0.436748 0.62501,0.719186 0.015,0.05208 0.0384,0.122265 0.0411,0.177059 0.001,0.02684 -0.008,0.09735 -0.0247,0.07672 -0.0969,-0.116229 0.0425,-0.02225 -0.01,-0.05566 -0.14826,0.02081 -0.29702,0.03114 -0.44696,0.01652 -0.26547,-0.03552 -0.52641,-0.0973 -0.78751,-0.15577 -0.42712,-0.09565 -0.56239,0.50839 -0.13527,0.604039 v 0 c 0.28905,0.06473 0.5781,0.133007 0.87255,0.16869 0.29061,0.02082 0.58653,0.01147 0.8509,-0.125496 0.0464,-0.03734 0.10081,-0.0665 0.13924,-0.112015 0.22516,-0.266593 0.16569,-0.601825 0.0401,-0.897077 -0.20085,-0.350469 -0.46604,-0.65405 -0.78421,-0.904368 -0.22138,-0.171253 -0.45208,-0.332191 -0.72878,-0.398441 -0.41835,-0.128722 -0.60039,0.462906 -0.18204,0.591627 z" />
    <path
       style="opacity:1;fill:#80e5ff;fill-opacity:1;fill-rule:evenodd;stroke:none;stroke-width:1;stroke-linecap:square;stroke-opacity:1;paint-order:stroke fill markers"
       id="path94774"
       d="m 171.57842,18.468448 c 0.40559,0.15079 0.77744,0.373412 1.15291,0.585315 0.48577,0.267253 0.92355,0.60307 1.32655,0.981498 0.0695,0.06955 0.20968,0.201851 0.26919,0.28919 0.023,0.03379 0.0633,0.138753 0.0271,0.119631 -0.009,-0.0047 -0.027,-0.06851 -0.0326,-0.0873 -0.19408,0.08035 -0.42511,0.06884 -0.63177,0.06256 -0.28296,-0.01315 -0.55833,-0.08298 -0.83042,-0.15677 -0.42247,-0.114454 -0.58434,0.483009 -0.16187,0.597463 v 0 c 0.31975,0.08654 0.64385,0.16501 0.97641,0.178104 0.32463,0.0071 0.68626,0.01215 0.97451,-0.162644 0.0522,-0.03166 0.095,-0.07676 0.14249,-0.115141 0.0436,-0.06381 0.10357,-0.119097 0.13075,-0.191437 0.15146,-0.403176 -0.17779,-0.733046 -0.44053,-0.985323 -0.43976,-0.411375 -0.91661,-0.777608 -1.4456,-1.068917 -0.38999,-0.220089 -0.77678,-0.450949 -1.19775,-0.608264 -0.39741,-0.183421 -0.65681,0.378606 -0.25939,0.562028 z" />
    <path
       style="opacity:1;fill:#80e5ff;fill-opacity:1;fill-rule:evenodd;stroke:none;stroke-width:1;stroke-linecap:square;stroke-opacity:1;paint-order:stroke fill markers"
       id="path94776"
       d="m 147.62157,17.492076 c -0.3991,0.10197 -0.79603,0.211889 -1.18917,0.33486 -0.42638,0.140349 -0.81743,0.30543 -1.172,0.583518 -0.26575,0.282729 -0.30135,0.523643 -0.18377,0.880132 0.10348,0.214719 0.26838,0.389784 0.51135,0.43894 0.0595,0.01205 0.12087,0.01237 0.1813,0.01855 0.3327,-0.0038 0.65879,-0.077 0.97821,-0.164123 0.42215,-0.115659 0.25858,-0.712658 -0.16356,-0.596999 v 0 c -0.25353,0.06983 -0.51142,0.128686 -0.77485,0.143402 -0.0176,0.0012 -0.0352,0.003 -0.0529,0.0035 -0.01,2.27e-4 -0.0198,-0.0054 -0.0286,-0.0015 -0.004,0.0019 0.004,0.01518 -2.7e-4,0.01425 -0.0321,-0.0065 -0.0483,-0.05528 -0.0714,-0.07403 -0.0382,-0.05365 -0.0462,-0.125298 -0.009,-0.178211 0.28341,-0.232097 0.628,-0.357721 0.97091,-0.476656 0.3788,-0.118794 0.76146,-0.224281 1.14596,-0.323024 0.42606,-0.10025 0.28428,-0.702796 -0.14178,-0.602545 z" />
    <path
       style="opacity:1;fill:#80e5ff;fill-opacity:1;fill-rule:evenodd;stroke:none;stroke-width:1;stroke-linecap:square;stroke-opacity:1;paint-order:stroke fill markers"
       id="path94778"
       d="m 166.70064,10.527537 c 0.38595,0.04148 0.7098,0.170154 1.05626,0.33889 0.56572,0.312791 1.06684,0.723765 1.53195,1.169275 0.14498,0.155209 0.20304,0.204725 0.31974,0.374543 0.0271,0.03949 0.13583,0.169263 0.10296,0.252371 -10e-4,0.0036 -0.0695,0.0116 -0.0955,0.01495 -0.38077,0.200908 -0.75476,0.212457 -1.17358,0.190122 -0.29173,-0.02096 -0.57569,-0.0898 -0.85797,-0.162045 -0.42413,-0.108162 -0.57709,0.491641 -0.15297,0.599803 v 0 c 0.32239,0.08196 0.64698,0.158443 0.98016,0.180477 0.47541,0.02227 0.96807,0.0064 1.40168,-0.219239 0.0902,-0.04696 0.17026,-0.111307 0.25538,-0.16696 0.0659,-0.08763 0.15462,-0.162051 0.19761,-0.262899 0.20917,-0.490764 -0.25352,-0.928679 -0.54971,-1.248532 -0.5126,-0.489284 -1.06511,-0.940236 -1.69056,-1.279288 -0.0968,-0.04641 -0.19194,-0.09651 -0.29044,-0.139216 -0.31426,-0.136254 -0.64489,-0.2148756 -0.98357,-0.2591177 -0.43619,-0.036349 -0.4876,0.5805137 -0.0514,0.6168627 z" />
    <path
       style="opacity:1;fill:#80e5ff;fill-opacity:1;fill-rule:evenodd;stroke:none;stroke-width:1;stroke-linecap:square;stroke-opacity:1;paint-order:stroke fill markers"
       id="path94782"
       d="m 173.23383,29.989015 c 0.003,0.430821 -0.006,0.861563 -0.0124,1.292312 -7.9e-4,0.485024 -0.0457,0.998697 0.13938,1.460503 0.0305,0.07609 0.0748,0.145867 0.11224,0.218802 0.0571,0.06288 0.10711,0.133028 0.17131,0.188635 0.15849,0.137271 0.51375,0.288012 0.72925,0.286107 0.0813,-7.94e-4 0.16125,-0.02101 0.24188,-0.03153 0.072,-0.03493 0.14968,-0.05998 0.21597,-0.104796 0.31188,-0.21086 0.47728,-0.59812 0.63446,-0.92492 0.18935,-0.394623 -0.36873,-0.662403 -0.55808,-0.267779 v 0 c -0.11554,0.241432 -0.22875,0.500382 -0.42053,0.691909 -0.008,0.0082 -0.0124,0.02344 -0.0238,0.02469 -0.12948,0.01434 -0.34139,-0.08335 -0.44665,-0.157901 -0.0217,-0.03592 -0.0485,-0.06925 -0.0652,-0.107762 -0.17184,-0.395023 -0.10203,-0.850506 -0.11131,-1.266426 0.007,-0.433922 0.0152,-0.867844 0.0125,-1.30184 0,-0.437697 -0.619,-0.437697 -0.619,0 z" />
  </g>
</svg>
