<?xml version="1.0" encoding="UTF-8" standalone="no"?>
<svg
   viewBox="0 0 36 36"
   version="1.1"
   id="svg8"
   sodipodi:docname="open_mouth_face.svg"
   inkscape:version="1.1.1 (3bf5ae0d25, 2021-09-20)"
   xmlns:inkscape="http://www.inkscape.org/namespaces/inkscape"
   xmlns:sodipodi="http://sodipodi.sourceforge.net/DTD/sodipodi-0.dtd"
   xmlns="http://www.w3.org/2000/svg"
   xmlns:svg="http://www.w3.org/2000/svg">
  <defs
     id="defs12" />
  <sodipodi:namedview
     id="namedview10"
     pagecolor="#ffffff"
     bordercolor="#666666"
     borderopacity="1.0"
     inkscape:pageshadow="2"
     inkscape:pageopacity="0.0"
     inkscape:pagecheckerboard="0"
     showgrid="false"
     inkscape:snap-bbox="true"
     inkscape:bbox-nodes="true"
     inkscape:snap-page="true"
     inkscape:snap-bbox-midpoints="true"
     inkscape:snap-object-midpoints="true"
     inkscape:snap-center="true"
     inkscape:snap-midpoints="true"
     inkscape:snap-nodes="false"
     inkscape:snap-others="false"
     inkscape:snap-bbox-edge-midpoints="false"
     inkscape:zoom="11.277778"
     inkscape:cx="20.970443"
     inkscape:cy="20.172413"
     inkscape:window-width="1920"
     inkscape:window-height="1001"
     inkscape:window-x="-9"
     inkscape:window-y="-9"
     inkscape:window-maximized="1"
     inkscape:current-layer="svg8" />
  <g
     id="g1724"
     transform="matrix(0.56227994,0,0,0.56227994,-33.363983,2.7810489)">
    <path
       style="fill:#501616;fill-rule:evenodd;stroke:none;stroke-width:0.326554;stroke-linecap:square;paint-order:stroke fill markers"
       d="m 339.43092,131.37754 c -1.64308,0.0571 -3.33812,0.3658 -4.68792,1.36621 -2.25898,1.47528 -3.6741,3.8616 -4.94746,6.17125 -1.32324,2.59461 -1.85484,5.59069 -1.44168,8.47912 0.34868,3.60137 1.28673,7.34378 3.76236,10.10128 1.46237,1.62947 3.04417,3.19137 4.8781,4.39986 1.04202,0.59965 2.18639,-0.17113 3.04478,-0.75196 1.52558,-1.07826 2.70304,-2.60317 3.38225,-4.34198 1.39495,-2.98689 2.06847,-6.24739 2.57358,-9.48632 0.37827,-3.11651 -0.0689,-6.30956 -1.05089,-9.27886 -0.81615,-2.20211 -1.91388,-4.45052 -3.81075,-5.91896 -0.51528,-0.33881 -1.07903,-0.68204 -1.70237,-0.73964 z"
       id="path11788"
       transform="scale(0.26458333)" />
    <path
       style="fill:#ffff00;fill-rule:evenodd;stroke:none;stroke-width:1;stroke-linecap:square;paint-order:stroke fill markers"
       id="path7881"
       d="m 70.952216,13.063695 c 7.94e-4,-0.0126 0.0016,-0.0252 0.0021,-0.0378 -2.54e-4,0.0011 -7.94e-4,0.0044 -7.94e-4,0.0032 4.2e-5,-0.0027 0.0031,-0.0065 7.94e-4,-0.008 -0.0021,-0.0013 -0.0026,0.0041 -0.0035,0.0062 -0.0042,0.0093 -0.0079,0.01886 -0.01193,0.02825 -0.0055,0.01266 -0.01101,0.02526 -0.01651,0.03789 -0.03689,0.08406 -0.07586,0.16716 -0.114877,0.250242 -0.0059,0.01272 -0.0118,0.02544 -0.01773,0.03816 -0.184298,0.397007 0.377153,0.657645 0.561454,0.260638 v 0 c 0.0055,-0.0119 0.01103,-0.02379 0.01656,-0.03568 0.04159,-0.08857 0.08309,-0.177192 0.122368,-0.266825 0.03834,-0.0885 0.07907,-0.178198 0.08085,-0.276407 0,-0.4377 -0.619001,-0.4377 -0.619001,0 z" />
    <path
       style="fill:#ffff00;fill-rule:evenodd;stroke:none;stroke-width:1.84727;stroke-linecap:square;paint-order:stroke fill markers"
       d="m 349.1987,17.321279 c -14.94033,0.1776 -29.90502,2.481466 -44.18763,6.866462 -8.78775,3.297774 -16.45217,8.944349 -24.5668,13.564436 -4.53859,2.945849 -11.21743,5.867106 -11.49526,12.126806 1.05829,3.086826 -2.63333,4.66383 -4.1196,6.77401 -2.51847,3.135919 -6.35783,6.346618 -6.24644,10.693325 0.39087,2.146381 3.89492,1.156023 4.56014,1.516862 -3.0148,2.145467 -3.10545,6.508654 -4.44845,9.691171 -4.88159,15.875505 -7.87547,32.470519 -7.80293,49.108579 1.15012,9.67054 3.4964,19.21987 6.28511,28.54169 3.94084,7.11684 9.91798,13.14404 17.07145,17.06232 5.59062,3.74453 11.83194,6.253 18.33002,7.90533 6.14913,2.14827 12.1943,5.23037 18.88943,5.41718 15.74333,1.80945 31.77028,0.98416 47.35909,-1.72736 10.57003,-1.86955 20.48646,-6.00278 30.35352,-10.05989 6.07796,-2.64148 12.90606,-3.80392 18.4439,-7.53946 10.82175,-8.61997 18.11048,-20.85509 23.50085,-33.4093 3.95792,-10.95696 5.78213,-22.56322 7.91705,-33.979966 1.98512,-14.39156 0.50631,-29.446882 -4.85508,-42.985429 -5.67985,-12.607099 -13.8411,-25.489342 -27.13904,-31.003929 -12.99865,-6.185137 -27.68526,-7.020649 -41.80939,-8.168051 -5.33999,-0.313145 -10.69093,-0.449874 -16.03994,-0.394786 z m 28.85289,21.722955 c 8.45455,-0.24701 16.82864,3.166808 23.67321,7.890752 3.311,2.864068 6.18247,6.362715 8.05113,10.332627 -3.09479,-4.59538 -6.28547,-9.469964 -11.43424,-12.014638 -6.45849,-3.760689 -13.77179,-6.472201 -21.36021,-5.829763 -9.19351,-0.244118 -17.88065,3.893946 -24.50944,10.069157 -2.17336,1.795396 -4.06726,3.963727 -6.45503,5.478468 -0.17495,-1.355499 -1.63766,-2.119648 -1.5455,-3.551124 1.53344,2.03689 4.87487,0.479363 6.48461,-1.026199 6.51292,-6.044441 14.55135,-11.169091 23.72962,-11.252505 1.14905,-0.07178 2.22786,-0.09194 3.36585,-0.09677 z m -33.28988,3.468074 c 0.0341,2.808618 -0.22165,5.61104 -0.33221,8.415784 -0.0654,-2.837401 -0.27633,-5.790369 0.31693,-8.691664 z m -36.38185,1.720196 c 10.60797,-0.05781 20.35927,6.02311 28.10734,12.891919 1.42661,1.764377 -2.24514,-1.481778 -2.78935,-2.012304 -7.89446,-6.287897 -17.86516,-11.344006 -28.21235,-10.517821 -1.24105,-0.07261 -1.82032,1.508956 -2.85808,0.448664 -7.77365,0.300813 -14.36877,5.394744 -20.52332,9.676419 -5.1318,3.679554 -9.61665,8.214992 -13.62475,13.021188 0.62953,-1.613328 2.81027,-3.789702 4.29094,-5.308551 6.81495,-6.527479 14.48024,-12.915118 23.39924,-16.486956 3.94778,-1.278756 8.20276,-1.625261 12.21033,-1.712558 z m 68.60544,4.184027 c 5.17855,1.546659 9.41637,6.573251 8.80621,12.219878 -0.26216,4.396059 -1.17998,10.573103 -6.14573,11.922043 -4.44857,1.215426 -8.09443,-3.690765 -7.33804,-7.759018 0.336,-4.761659 -0.11752,-9.758612 1.71542,-14.217863 0.80646,-0.868498 1.76275,-1.935344 2.96214,-2.16504 z m -73.53311,0.79232 c 2.1806,1.948107 4.85862,3.553309 6.14192,6.383434 1.94196,4.626367 2.05376,9.993934 1.80038,14.830719 -0.92879,4.190255 -6.23679,8.791672 -10.29348,5.415466 -4.16496,-2.5179 -3.907,-7.991557 -5.00842,-12.117701 -1.05561,-4.118105 -0.0979,-8.731342 3.335,-11.457187 1.12407,-1.315094 2.89008,-1.845461 4.0246,-3.054731 z m 35.62772,81.790419 c 4.29185,1.18782 6.24176,6.20964 7.0001,10.21521 0.89225,6.66869 -0.67732,14.03383 -4.80738,19.29349 -1.39712,1.4011 -4.15221,3.31695 -5.59302,0.93551 -3.52509,-3.31721 -7.0222,-7.11226 -7.34399,-12.23197 -1.58639,-7.35183 2.50281,-16.76781 10.41208,-18.21415 l 0.16133,-0.003 z m 14.00594,7.19008 c 2.1496,4.96316 0.12081,10.50228 -1.96744,15.098 1.17724,-4.57017 3.70878,-9.18238 2.01708,-13.98876 0.0205,-0.10211 -0.18654,-1.20489 -0.0496,-1.10924 z m -32.67512,3.53012 c -0.63747,4.51263 0.0405,9.59248 1.34217,13.51909 -2.16901,-3.88152 -2.51187,-9.38122 -1.34217,-13.51909 z m 41.14436,0.0391 c 1.34246,4.19406 -0.30921,9.29583 -2.65284,12.5158 1.56363,-3.1496 2.99012,-6.45588 2.56314,-10.08154 0.0156,-0.80248 -0.002,-1.66299 0.0897,-2.43426 z m -49.65656,4.82074 c 0.11271,2.31351 1.6097,5.59068 1.81661,7.04498 -1.52534,-1.89648 -1.97842,-4.87367 -1.81661,-7.04498 z"
       id="path6967"
       transform="scale(0.26458333)" />
    <path
       style="fill:#ffff00;fill-rule:evenodd;stroke:none;stroke-width:1;stroke-linecap:square;paint-order:stroke fill markers"
       id="path7546"
       d="m 69.059496,17.697884 c -0.05635,-0.0012 -0.112395,0.0055 -0.168238,0.01209 -0.08408,0.0099 -0.167963,0.02126 -0.251796,0.03307 -0.06461,0.0095 -0.129194,0.01931 -0.193882,0.02832 -0.04802,0.0065 -0.09564,0.01559 -0.143055,0.02551 -0.428268,0.09037 -0.300458,0.696036 0.12781,0.605662 v 0 c 0.03337,-0.0071 0.06695,-0.01344 0.100761,-0.01811 0.06496,-0.0091 0.129826,-0.0188 0.194707,-0.02844 0.07964,-0.01122 0.159335,-0.02202 0.23922,-0.03143 0.03136,-0.0038 0.06279,-0.0087 0.09447,-0.0077 0.437697,0 0.437697,-0.619 0,-0.619 z" />
    <path
       style="fill:#ffff00;fill-rule:evenodd;stroke:none;stroke-width:1;stroke-linecap:square;paint-order:stroke fill markers"
       id="path7548"
       d="m 68.4595,17.272573 c 5.29e-4,-0.0011 0.0026,-0.0042 0.0019,-0.0032 -0.02117,0.03039 -0.04302,0.06028 -0.06485,0.09022 -0.04267,0.059 -0.0863,0.117305 -0.128895,0.176355 -0.03659,0.05246 -0.07323,0.104872 -0.110014,0.157188 -0.02816,0.03958 -0.05512,0.07997 -0.08258,0.120032 -0.01926,0.02885 -0.03907,0.05731 -0.05856,0.08599 -0.0021,0.0029 -0.004,0.0057 -0.006,0.0086 -0.249314,0.359754 0.259456,0.712339 0.50877,0.352585 v 0 c 0.0031,-0.0046 0.0063,-0.0091 0.0094,-0.01367 0.01887,-0.02789 0.03822,-0.05545 0.05686,-0.08349 0.02609,-0.03804 0.05165,-0.07642 0.07839,-0.114 0.03544,-0.0504 0.07079,-0.100867 0.105942,-0.15147 0.04182,-0.05818 0.08495,-0.115413 0.126854,-0.173535 0.02972,-0.04079 0.06003,-0.08121 0.08759,-0.123517 0.231981,-0.371168 -0.292931,-0.699238 -0.52491,-0.32807 z" />
    <path
       style="fill:#000000;fill-rule:evenodd;stroke-width:0.473293;stroke-linecap:square;paint-order:stroke fill markers"
       id="path970-5"
       d="m 70.737158,14.048364 c 0.183528,-0.247907 0.297224,-0.540936 0.429809,-0.817835 0.182467,-0.39061 0.403888,-0.761953 0.63993,-1.122223 0.323448,-0.445823 0.760113,-0.779998 1.205344,-1.094889 0.86728,-0.58425 1.777218,-1.1023928 2.675796,-1.6364623 0.979438,-0.5952118 1.966391,-1.1780995 2.963441,-1.7433344 0.578119,-0.3232901 1.165399,-0.6341051 1.781347,-0.8801497 0.436379,-0.1743145 0.584672,-0.2117689 1.03809,-0.3552131 1.289655,-0.3670592 2.605793,-0.6300479 3.924271,-0.8686965 1.417376,-0.250645 2.846497,-0.4242859 4.27611,-0.5871274 1.334685,-0.1461761 2.679499,-0.1827253 4.021283,-0.1737143 1.280418,0.018224 2.557602,0.1137681 3.832965,0.2222669 1.008804,0.084855 2.016288,0.1837177 3.020846,0.3093725 0.89406,0.120961 1.78732,0.2497771 2.67587,0.4065547 0.78041,0.1236896 1.54706,0.3081584 2.30428,0.531475 0.77473,0.2356424 1.51284,0.5693638 2.2435,0.9145218 0.6679,0.3153999 1.30992,0.6800231 1.91543,1.1026038 0.48582,0.3561673 0.92166,0.7733662 1.35708,1.1879535 0.44235,0.4393031 0.80656,0.9472505 1.16681,1.4536625 0.35374,0.489814 0.69475,0.988975 1.02343,1.495937 0.29851,0.472564 0.5606,0.967208 0.81364,1.46525 0.26898,0.536224 0.52069,1.080811 0.75622,1.632492 0.27928,0.657513 0.4764,1.34464 0.65087,2.036028 0.21614,0.858462 0.3579,1.731802 0.48083,2.607584 0.12706,0.890799 0.1863,1.788871 0.21533,2.687607 0.0321,0.897628 -0.032,1.795244 -0.11988,2.688008 -0.0878,0.924174 -0.26368,1.835541 -0.44529,2.744803 -0.18189,0.862154 -0.34417,1.728232 -0.51745,2.592099 -0.16302,0.80039 -0.33601,1.598826 -0.52966,2.392383 -0.22474,0.820094 -0.50438,1.623165 -0.81437,2.414487 -0.34987,0.846567 -0.81072,1.640539 -1.25039,2.442264 -0.36862,0.682031 -0.78324,1.336873 -1.19746,1.991609 -0.37114,0.607533 -0.77665,1.189873 -1.22661,1.741332 -0.51131,0.599237 -1.08005,1.145187 -1.65743,1.679691 -0.36928,0.323663 -0.73571,0.657369 -1.17434,0.885816 -0.30474,0.158719 -0.49652,0.224641 -0.81999,0.353071 -0.87237,0.319328 -1.75292,0.615673 -2.62895,0.924786 -0.58868,0.200274 -1.17625,0.401637 -1.75304,0.634252 -0.42651,0.170217 -0.85082,0.345876 -1.26965,0.534242 -0.32686,0.152833 -0.65014,0.313121 -0.97754,0.464846 -0.465895,0.215535 -0.951857,0.379744 -1.442993,0.526517 -0.552063,0.158832 -1.110666,0.294794 -1.670354,0.423935 -0.593447,0.134269 -1.183193,0.283984 -1.775533,0.422788 -0.845523,0.190512 -1.708889,0.280336 -2.569368,0.372359 -0.792193,0.08402 -1.586425,0.14639 -2.381202,0.199689 -0.740972,0.05312 -1.483195,0.08001 -2.225641,0.100912 -0.915459,0.02846 -1.831684,0.009 -2.746553,-0.02877 -0.684638,-0.02615 -1.367314,-0.08428 -2.049522,-0.145395 -0.487378,-0.03842 -0.972225,-0.10041 -1.455656,-0.172164 -0.362827,-0.05707 -0.722034,-0.133335 -1.077547,-0.225131 -0.307582,-0.08075 -0.604237,-0.195171 -0.896959,-0.318118 -0.33739,-0.161239 -0.68155,-0.307206 -1.025383,-0.453921 -0.323203,-0.141422 -0.65429,-0.262544 -0.990027,-0.37035 -0.316406,-0.106884 -0.642698,-0.177844 -0.967478,-0.253259 -0.286308,-0.06086 -0.570389,-0.128625 -0.847197,-0.224123 -0.290926,-0.103103 -0.571599,-0.231971 -0.852767,-0.358625 -0.30188,-0.123789 -0.589255,-0.27442 -0.869774,-0.440072 -0.361976,-0.205056 -0.719866,-0.417121 -1.077199,-0.630124 -0.324594,-0.194287 -0.648604,-0.389104 -0.966493,-0.594196 -0.291913,-0.184401 -0.571186,-0.388116 -0.847961,-0.5943 -0.250604,-0.172984 -0.483436,-0.367385 -0.704281,-0.576463 -0.204355,-0.215 -0.402917,-0.435562 -0.584459,-0.67023 -0.169051,-0.223063 -0.34308,-0.442343 -0.516249,-0.662231 C 69.067583,42.430289 68.902901,42.230734 68.750059,42.021462 68.603631,41.80853 68.461072,41.592986 68.316546,41.37877 68.186627,41.199652 68.07822,41.0102 67.991636,40.807048 67.837004,40.447677 67.328775,40.66636 67.483408,41.025732 v 0 c 0.10155,0.234222 0.224366,0.455373 0.374496,0.662496 0.148443,0.219984 0.294654,0.44148 0.445539,0.659812 0.15696,0.214418 0.325126,0.419623 0.48893,0.628731 0.17232,0.218788 0.345504,0.43696 0.513678,0.658943 0.199403,0.256622 0.415897,0.499276 0.641506,0.733158 0.236753,0.223728 0.485835,0.432579 0.753978,0.618226 0.286758,0.213535 0.576162,0.424395 0.878513,0.615497 0.323394,0.208614 0.652918,0.406931 0.983144,0.604525 0.35803,0.213403 0.716579,0.425943 1.079277,0.631358 0.298061,0.175805 0.603383,0.336097 0.923781,0.46806 0.296726,0.133609 0.593067,0.269227 0.900289,0.377439 0.294974,0.100865 0.596716,0.175744 0.901766,0.239781 0.31,0.07194 0.621608,0.139035 0.923589,0.241148 0.319491,0.102374 0.634409,0.21779 0.941886,0.352402 0.344853,0.147139 0.689824,0.293933 1.028415,0.455204 0.317443,0.133125 0.639353,0.256461 0.9729,0.343695 0.374328,0.09643 0.752473,0.176872 1.134498,0.236667 0.494011,0.07329 0.989478,0.136569 1.487505,0.175951 0.691059,0.06191 1.382603,0.120628 2.076121,0.147133 0.927648,0.03815 1.856655,0.0579 2.784901,0.02901 0.749602,-0.02111 1.498976,-0.04834 2.247086,-0.101933 0.802065,-0.05381 1.603572,-0.116776 2.40302,-0.20159 0.883164,-0.09449 1.769154,-0.18753 2.636812,-0.383827 0.591692,-0.138779 1.180865,-0.288142 1.773674,-0.422353 0.57115,-0.131856 1.141203,-0.270632 1.704521,-0.432982 0.516371,-0.154673 1.027267,-0.32782 1.517117,-0.554622 0.32546,-0.150956 0.64707,-0.309944 0.97188,-0.462259 0.41211,-0.185586 0.8299,-0.358019 1.24959,-0.52569 0.56916,-0.229708 1.14929,-0.427658 1.73015,-0.625597 0.88295,-0.311559 1.77057,-0.60999 2.64958,-0.932536 0.35326,-0.141155 0.56265,-0.213297 0.89638,-0.390534 0.47172,-0.250529 0.87161,-0.604542 1.26911,-0.956373 0.59623,-0.552131 1.18323,-1.11642 1.7104,-1.736115 0.46333,-0.569036 0.88283,-1.168548 1.2653,-1.795083 0.42038,-0.664472 0.84087,-1.329234 1.21502,-2.021374 0.45104,-0.822485 0.92317,-1.637357 1.28046,-2.506581 0.31873,-0.814408 0.60658,-1.640831 0.83669,-2.48508 0.19536,-0.800992 0.37018,-1.606834 0.53463,-2.414721 0.17326,-0.86402 0.33566,-1.730223 0.51753,-2.592529 0.18517,-0.927204 0.36389,-1.856657 0.45336,-2.79905 0.0899,-0.916731 0.1554,-1.838367 0.12223,-2.760063 -0.0299,-0.918464 -0.0905,-1.836251 -0.2204,-2.746606 -0.1258,-0.895489 -0.27123,-1.788424 -0.49232,-2.66618 -0.18195,-0.719211 -0.38749,-1.43392 -0.67848,-2.117822 -0.24053,-0.562889 -0.49715,-1.118718 -0.7718,-1.665834 -0.26193,-0.51526 -0.53332,-1.026945 -0.84266,-1.515621 -0.33313,-0.513554 -0.6784,-1.019428 -1.03684,-1.515665 -0.38085,-0.535099 -0.7671,-1.0707924 -1.2361,-1.5335983 -0.45578,-0.4339246 -0.91267,-0.8698299 -1.42228,-1.2411942 -0.63145,-0.4393414 -1.29926,-0.8209293 -1.99546,-1.1489464 -0.7565,-0.357214 -1.5211,-0.7016583 -2.32337,-0.9449427 C 104.90584,5.4787875 104.11913,5.2891825 103.31834,5.1620347 102.42066,5.0038272 101.5183,4.8733206 100.61503,4.7513478 99.603227,4.6248948 98.588512,4.525079 97.572433,4.4396913 96.282687,4.3300136 94.991076,4.2336159 93.696214,4.2154457 92.332298,4.2066723 90.965354,4.2437098 89.608675,4.3927036 88.16703,4.5569436 86.725901,4.732233 85.296615,4.9851267 83.954977,5.2280969 82.61569,5.4959349 81.303732,5.8708353 80.823284,6.0234166 80.67643,6.0600862 80.213493,6.2455161 79.579269,6.4995547 78.974087,6.8192258 78.378598,7.1523096 77.378306,7.719485 76.38799,8.304106 75.405356,8.901334 c -0.911349,0.5416592 -1.834249,1.0671465 -2.713169,1.660764 -0.500976,0.356156 -0.989357,0.73659 -1.348317,1.24334 -0.2489,0.381114 -0.483209,0.773254 -0.675936,1.18616 -0.111898,0.233739 -0.210207,0.478947 -0.350856,0.69669 -0.254607,0.297042 0.165473,0.657112 0.42008,0.36007 z" />
    <path
       style="fill:#000000;fill-rule:evenodd;stroke:none;stroke-width:1;stroke-linecap:square;paint-order:stroke fill markers"
       id="path2285"
       d="m 78.67434,17.069081 c -0.01524,-0.175319 -0.02847,-0.350676 -0.03792,-0.52643 -0.0117,-0.231524 -0.01963,-0.463217 -0.02619,-0.694937 -0.01071,-0.209159 0.0078,-0.418663 0.0511,-0.623305 0.06327,-0.202527 0.172889,-0.384071 0.288248,-0.560349 0.135334,-0.2072 0.301704,-0.389664 0.477573,-0.562633 0.173228,-0.174983 0.367702,-0.325325 0.574172,-0.458563 0.147839,-0.107142 0.298794,-0.08491 0.460584,-0.02295 0.235238,0.107125 0.435128,0.271878 0.611254,0.458511 0.190822,0.199845 0.338243,0.433418 0.47698,0.670822 0.131405,0.223901 0.220366,0.468181 0.29645,0.715345 0.0482,0.172043 0.08264,0.34738 0.114919,0.522953 0.0794,0.430437 0.688133,0.318144 0.608729,-0.112293 v 0 c -0.0369,-0.199433 -0.07632,-0.39861 -0.132342,-0.593744 -0.09092,-0.292197 -0.197654,-0.580491 -0.353642,-0.845122 -0.163626,-0.278768 -0.339193,-0.551703 -0.563999,-0.786056 -0.248404,-0.256704 -0.527973,-0.482787 -0.862586,-0.617645 -0.342562,-0.106254 -0.684385,-0.122352 -0.993199,0.09086 -0.241061,0.157016 -0.469288,0.332427 -0.672137,0.537318 -0.206697,0.2046 -0.402111,0.420512 -0.561239,0.665062 -0.157123,0.241628 -0.302231,0.493109 -0.376174,0.774268 -0.05038,0.251722 -0.07693,0.508086 -0.06344,0.765106 0.0067,0.236962 0.01484,0.473896 0.02685,0.710657 0.0089,0.164593 0.01807,0.329323 0.03702,0.493127 0,0.437699 0.619001,0.437699 0.619001,0 z" />
    <path
       style="fill:#000000;fill-rule:evenodd;stroke:none;stroke-width:1;stroke-linecap:square;paint-order:stroke fill markers"
       id="path2287"
       d="m 81.987296,16.215401 c -0.0069,0.23158 0.0091,0.462096 0.02946,0.692595 0.03183,0.324041 0.05406,0.648822 0.07211,0.973883 0.02453,0.292149 5.29e-4,0.585201 -0.07448,0.868273 -0.07109,0.236406 -0.215958,0.442573 -0.366133,0.635544 -0.142015,0.171535 -0.30689,0.321648 -0.485701,0.453677 -0.158959,0.114492 -0.333375,0.177072 -0.525703,0.20206 -0.192537,0.01285 -0.387022,-0.02609 -0.565835,-0.09658 -0.174181,-0.08483 -0.329716,-0.203231 -0.474708,-0.330654 -0.142944,-0.137385 -0.252624,-0.300961 -0.33823,-0.478655 -0.08498,-0.186373 -0.142182,-0.383264 -0.192074,-0.581389 -0.04456,-0.201006 -0.08716,-0.402497 -0.137073,-0.602271 -0.04705,-0.182027 -0.125278,-0.354049 -0.163743,-0.538283 -0.01482,-0.09022 -0.008,-0.04444 -0.02029,-0.137334 -0.05846,-0.433779 -0.671912,-0.351107 -0.613455,0.08267 v 0 c 0.01691,0.12364 0.0072,0.06111 0.02919,0.187567 0.04297,0.189623 0.111564,0.370321 0.167936,0.556101 0.05049,0.199996 0.09167,0.402181 0.13733,0.603296 0.06089,0.239917 0.131678,0.477999 0.236741,0.702849 0.124711,0.250002 0.28021,0.481462 0.486952,0.672071 0.201861,0.174844 0.418314,0.336732 0.664647,0.443828 0.278971,0.101056 0.573066,0.161456 0.87108,0.129433 0.293547,-0.04506 0.565049,-0.140982 0.806762,-0.318103 0.223194,-0.167063 0.430366,-0.354833 0.606221,-0.572098 0.200171,-0.261073 0.386879,-0.539735 0.475769,-0.860259 0.08612,-0.345501 0.123787,-0.700024 0.09285,-1.056093 -0.01844,-0.331781 -0.04112,-0.663283 -0.07356,-0.994029 -0.01881,-0.212399 -0.03406,-0.424668 -0.02706,-0.638098 0,-0.437699 -0.619001,-0.437699 -0.619001,0 z" />
    <path
       style="fill:#000000;fill-rule:evenodd;stroke:none;stroke-width:1;stroke-linecap:square;paint-order:stroke fill markers"
       id="path2289"
       d="m 98.534415,13.525602 c -0.03736,0.252556 -0.06998,0.50573 -0.107472,0.758321 -0.05164,0.352516 -0.09019,0.706712 -0.122573,1.061454 -0.02881,0.322088 -0.04955,0.64479 -0.06563,0.967738 -0.01416,0.325328 -0.02917,0.650771 -0.02879,0.976453 -0.0082,0.299016 0.03814,0.591206 0.124415,0.876383 0.08115,0.245489 0.222687,0.460882 0.373634,0.667983 0.16179,0.231167 0.380042,0.395638 0.624938,0.528998 0.244893,0.122468 0.505709,0.179635 0.777403,0.189876 0.24632,8.2e-4 0.48212,-0.05476 0.70619,-0.153727 0.24108,-0.114121 0.43373,-0.301544 0.62267,-0.485327 0.18327,-0.178675 0.32892,-0.387866 0.45413,-0.609805 0.11318,-0.204641 0.18564,-0.426153 0.24119,-0.652231 0.0517,-0.24224 0.0822,-0.488211 0.12167,-0.732584 0.0385,-0.230785 0.0681,-0.462847 0.0934,-0.695409 0.0352,-0.241744 0.0273,-0.484375 0.002,-0.726377 -0.025,-0.234371 -0.0791,-0.463917 -0.14655,-0.689325 -0.0665,-0.203709 -0.16372,-0.395585 -0.27085,-0.580553 -0.085,-0.150776 -0.16853,-0.301883 -0.27058,-0.441918 -0.0915,-0.129523 -0.19872,-0.245439 -0.30933,-0.358438 -0.11483,-0.109179 -0.23956,-0.207073 -0.35661,-0.313846 -0.0912,-0.07884 -0.0439,-0.03976 -0.14205,-0.117026 -0.34497,-0.269399 -0.72595,0.218463 -0.38098,0.487862 v 0 c 0.0706,0.0545 0.0351,0.02566 0.10623,0.0868 0.1085,0.09869 0.22244,0.190962 0.33115,0.289305 0.0909,0.09274 0.17991,0.186852 0.25427,0.293902 0.0914,0.11968 0.15589,0.256723 0.2333,0.385386 0.0839,0.142231 0.15881,0.290862 0.21278,0.447167 0.0574,0.188633 0.10237,0.38114 0.12383,0.577444 0.0223,0.197737 0.028,0.395428 -0.002,0.592988 -0.024,0.221808 -0.0523,0.44313 -0.089,0.663232 -0.037,0.228631 -0.066,0.458618 -0.11221,0.685644 -0.0408,0.171677 -0.095,0.339781 -0.17963,0.495468 -0.0948,0.170936 -0.20606,0.331629 -0.34623,0.469128 -0.13693,0.133914 -0.27434,0.275643 -0.44597,0.364676 -0.1355,0.06415 -0.28045,0.0951 -0.43074,0.09888 -0.176427,-0.0043 -0.344623,-0.03979 -0.505193,-0.116885 -0.165188,-0.0862 -0.309491,-0.192558 -0.41701,-0.348032 -0.110562,-0.151529 -0.219374,-0.306279 -0.282054,-0.48499 -0.07087,-0.226092 -0.104116,-0.458253 -0.09714,-0.695882 -7.94e-4,-0.315015 0.01487,-0.629806 0.02803,-0.944486 0.01561,-0.314447 0.03583,-0.62865 0.06384,-0.94226 0.03126,-0.343156 0.06853,-0.68578 0.118419,-1.026786 0.03651,-0.24596 0.06884,-0.492406 0.104196,-0.738478 0.0783,-0.430639 -0.530717,-0.54137 -0.609016,-0.11073 z" />
    <path
       style="fill:#000000;fill-rule:evenodd;stroke:none;stroke-width:1;stroke-linecap:square;paint-order:stroke fill markers"
       id="path2291"
       d="m 99.197249,13.602238 c 0.05563,-0.07778 0.120933,-0.148483 0.185227,-0.21916 0.06254,-0.07412 0.137702,-0.133087 0.221186,-0.181415 0.05546,-0.03047 0.11063,-0.04221 0.172096,-0.03033 0.07775,0.01365 0.144817,0.0498 0.213111,0.08689 0.09513,0.05061 0.187241,0.107199 0.278891,0.163894 0.37296,0.229085 0.69694,-0.298364 0.32398,-0.527449 v 0 c -0.10154,-0.06205 -0.20286,-0.124983 -0.308,-0.180702 -0.14031,-0.07586 -0.285719,-0.13812 -0.445567,-0.158481 -0.19494,-0.01539 -0.380527,0.01425 -0.551532,0.114515 -0.13485,0.08168 -0.259726,0.177169 -0.362911,0.297482 -0.08451,0.09358 -0.170322,0.187042 -0.241522,0.29139 -0.242792,0.364188 0.272248,0.707548 0.515041,0.34336 z" />
    <path
       style="fill:#000000;fill-rule:evenodd;stroke:none;stroke-width:1;stroke-linecap:square;paint-order:stroke fill markers"
       id="path2293"
       d="M 89.404596,15.126924 C 89.177669,14.89301 88.939088,14.671176 88.701143,14.448637 88.357005,14.137793 87.976516,13.871468 87.592108,13.613542 87.200988,13.355478 86.81305,13.09228 86.414413,12.84593 85.827485,12.499236 85.211371,12.211656 84.57399,11.972073 83.856043,11.712098 83.117057,11.53102 82.3587,11.447082 c -0.674558,-0.04628 -1.35264,-0.01872 -2.025296,0.04244 -0.563406,0.04305 -1.118716,0.125817 -1.664477,0.271584 -0.521994,0.13386 -1.009597,0.357777 -1.486604,0.603378 -0.467593,0.245763 -0.912704,0.531232 -1.344885,0.83421 -0.395846,0.271744 -0.78867,0.547748 -1.182598,0.822267 -0.346517,0.22731 -0.67673,0.477827 -1.001376,0.735017 -0.292717,0.227977 -0.57735,0.465252 -0.861071,0.704203 -0.275526,0.252396 -0.524205,0.532679 -0.778369,0.806272 -0.231852,0.25253 -0.464709,0.504615 -0.680723,0.770954 -0.177202,0.205378 -0.331833,0.428485 -0.495948,0.644107 -0.01799,0.02113 -0.03598,0.04226 -0.05396,0.06339 -0.282133,0.334637 0.191116,0.733632 0.473247,0.398995 v 0 c 0.0245,-0.02925 0.04899,-0.05851 0.07348,-0.08776 0.160126,-0.210838 0.311388,-0.428656 0.48441,-0.629395 0.206484,-0.255933 0.431369,-0.496371 0.653068,-0.739059 0.236937,-0.2552 0.469252,-0.516063 0.723586,-0.75408 0.278963,-0.23502 0.55876,-0.468438 0.846727,-0.692484 0.314653,-0.249408 0.634815,-0.492184 0.970878,-0.712337 0.394404,-0.274928 0.787778,-0.551235 1.184135,-0.823343 0.409038,-0.287133 0.830421,-0.557561 1.272923,-0.790706 0.437661,-0.225681 0.884045,-0.43334 1.363433,-0.55576 0.511408,-0.137788 1.032369,-0.212107 1.560488,-0.253025 0.63163,-0.05809 1.268392,-0.08384 1.901974,-0.0435 0.707292,0.07549 1.3952,0.249114 2.06493,0.48922 0.60027,0.224471 1.179538,0.496026 1.732631,0.821007 0.392295,0.241804 0.773182,0.501635 1.158079,0.754987 0.356928,0.239161 0.710565,0.485696 1.030949,0.773065 0.232907,0.217827 0.466556,0.434822 0.68857,0.663895 0.309502,0.3095 0.747202,-0.1282 0.4377,-0.4377 z" />
    <path
       style="fill:#000000;fill-rule:evenodd;stroke:none;stroke-width:1;stroke-linecap:square;paint-order:stroke fill markers"
       id="path2299"
       d="m 91.756491,14.846617 c 0.2145,-0.199324 0.421457,-0.406534 0.631534,-0.610479 0.328533,-0.315881 0.663001,-0.624887 1.006387,-0.924519 0.377272,-0.322993 0.774819,-0.620422 1.173893,-0.915575 0.362373,-0.283832 0.747961,-0.533105 1.14603,-0.763179 0.337084,-0.193542 0.685784,-0.365832 1.049155,-0.503843 0.354057,-0.135968 0.724352,-0.214675 1.096687,-0.280102 0.383169,-0.06458 0.769117,-0.110154 1.15584,-0.146831 0.36798,-0.03304 0.736595,-0.06056 1.105983,-0.07008 0.39541,-0.01127 0.79042,0.02512 1.18157,0.08 0.42159,0.06604 0.84224,0.14625 1.25528,0.254074 0.37943,0.109799 0.7444,0.264816 1.1064,0.421585 0.38842,0.171185 0.77244,0.351987 1.1535,0.538919 0.31451,0.156053 0.6205,0.326259 0.91677,0.514423 0.31231,0.190299 0.58463,0.434796 0.84127,0.693322 0.31233,0.311682 0.59102,0.652823 0.84759,1.011106 0.2066,0.293996 0.39593,0.599349 0.5846,0.904973 0.0402,0.08501 0.11336,0.160125 0.12078,0.256838 0.11115,0.423353 0.70986,0.266174 0.59871,-0.15718 v 0 c -0.0469,-0.152344 -0.10117,-0.292429 -0.1928,-0.424869 -0.1962,-0.317698 -0.39319,-0.635055 -0.60826,-0.940496 -0.27645,-0.38499 -0.57608,-0.752097 -0.91209,-1.087239 -0.28982,-0.290027 -0.59666,-0.564674 -0.94806,-0.779055 -0.31545,-0.200141 -0.6411,-0.381571 -0.97591,-0.547565 -0.38989,-0.191232 -0.78281,-0.376213 -1.18027,-0.551267 -0.39129,-0.169211 -0.78591,-0.336059 -1.19662,-0.452619 -0.43649,-0.112843 -0.8802,-0.19939 -1.32568,-0.268057 -0.42492,-0.05857 -0.8537,-0.09851 -1.28316,-0.08568 -0.383446,0.01039 -0.766139,0.0379 -1.148121,0.07264 -0.403106,0.03833 -0.805405,0.08591 -1.20478,0.153456 -0.410914,0.07264 -0.819325,0.161144 -1.209995,0.311411 -0.393719,0.150969 -0.773025,0.335478 -1.138343,0.546329 -0.41795,0.241971 -0.82327,0.503568 -1.204172,0.801326 -0.412427,0.305078 -0.8231,0.612767 -1.212792,0.946849 -0.351623,0.306874 -0.694174,0.623299 -1.030592,0.946801 -0.198823,0.19307 -0.395486,0.388408 -0.596609,0.579055 -0.336251,0.280208 0.06002,0.755738 0.396275,0.475528 z" />
    <path
       style="fill:#000000;fill-rule:evenodd;stroke:none;stroke-width:1;stroke-linecap:square;paint-order:stroke fill markers"
       id="path2301"
       d="m 90.945839,11.047027 c -0.04258,0.221192 -0.0803,0.442997 -0.111829,0.666071 -0.03712,0.261173 -0.06028,0.523934 -0.0793,0.786946 -0.02111,0.255736 -0.01609,0.512465 0.0024,0.768087 0.01434,0.225034 0.07763,0.437878 0.15649,0.647382 0.03763,0.09269 0.08078,0.182588 0.126045,0.271698 0.199787,0.389444 0.750544,0.106905 0.550757,-0.282539 v 0 c -0.03533,-0.06791 -0.06738,-0.137137 -0.09759,-0.207493 -0.05812,-0.153935 -0.108939,-0.307973 -0.118345,-0.47409 -0.01664,-0.225774 -0.02127,-0.452563 -0.0024,-0.678454 0.01797,-0.248996 0.03971,-0.497765 0.07483,-0.745023 0.0298,-0.211399 0.06534,-0.421617 0.105881,-0.631189 0.08584,-0.429199 -0.521139,-0.550596 -0.606978,-0.121396 z" />
    <path
       id="path12008"
       style="fill:#ff0000;fill-rule:evenodd;stroke:none;stroke-width:3.77953;stroke-linecap:square;paint-order:stroke fill markers"
       d="m 341.61914,149.60352 c -0.12199,0.001 -0.24458,0.007 -0.36719,0.0215 -0.55327,0.0598 -1.10107,0.16431 -1.63476,0.32422 -0.62839,0.19018 -1.2366,0.43343 -1.86524,0.62305 -0.0536,0.0144 -0.37612,0.106 -0.46289,0.11718 -0.40167,0.0518 -0.80711,-0.0778 -1.20703,-0.0898 -0.7929,-0.0842 -1.58982,-0.18904 -2.38867,-0.1582 -0.15984,0.0159 -0.31956,0.0239 -0.47852,0.0469 -0.70346,0.10144 -1.37955,0.34807 -2.01757,0.6543 -0.58123,0.29302 -1.18619,0.58201 -1.64258,1.05859 -0.38461,0.43269 -0.41884,0.90393 -0.25586,1.28125 0.0142,0.16217 0.0612,0.33523 0.15039,0.51367 0.17235,0.30437 0.40848,0.56608 0.6289,0.83594 0.34602,0.39828 0.7068,0.78398 1.09376,1.14258 0.49438,0.39871 0.94037,0.85046 1.38476,1.30273 0.40594,0.42655 0.79639,0.86729 1.18164,1.3125 0.33513,0.40602 0.70444,0.78078 1.08984,1.13868 0.32247,0.28629 0.66537,0.54783 0.9961,0.82421 0.25035,0.20871 0.49952,0.42025 0.75781,0.61915 0.0491,0.0351 0.0974,0.0702 0.14649,0.10546 0.30063,0.21396 0.60165,0.28472 0.87304,0.25586 0.33473,0.45253 0.97635,0.67693 1.64063,0.23828 0.10454,-0.0706 0.21345,-0.13354 0.32226,-0.19726 0.28751,-0.14162 0.59205,-0.24728 0.87891,-0.39063 0.46057,-0.22083 0.92518,-0.44593 1.32031,-0.77539 0.40121,-0.34439 0.78452,-0.71122 1.07617,-1.15625 0.21744,-0.34091 0.4176,-0.69178 0.60743,-1.04883 0.19702,-0.37915 0.38681,-0.76262 0.5664,-1.15039 0.1683,-0.38605 0.34652,-0.76736 0.52149,-1.15039 0.17196,-0.40631 0.32431,-0.82127 0.49414,-1.22851 0.19321,-0.47281 0.40665,-0.93725 0.56836,-1.42188 0.14883,-0.58461 0.18955,-1.12805 -0.18946,-1.65234 -0.20424,-0.25497 -0.4355,-0.47943 -0.6875,-0.6875 -0.25496,-0.21952 -0.51284,-0.43378 -0.78711,-0.62891 -0.37685,-0.25183 -0.78053,-0.45311 -1.22656,-0.55078 -0.35877,-0.0813 -0.72192,-0.13208 -1.08789,-0.1289 z m 1.88867,3.35156 c 0.0209,0.0222 0.0385,0.0446 0.0527,0.0684 0.005,0.009 -0.0159,-0.0131 -0.0234,-0.0195 -0.0125,-0.008 -0.0249,-0.0177 -0.0352,-0.0293 0.002,-0.006 0.004,-0.0131 0.006,-0.0195 z m -4.87695,3.0293 c 0.0227,0.0163 0.0453,0.0331 0.0684,0.0488 0.0191,0.0118 0.0396,0.025 0.0586,0.0391 -0.0194,-0.0126 -0.0395,-0.0261 -0.0586,-0.0391 -0.0276,-0.017 -0.0541,-0.0323 -0.082,-0.0449 0.005,-0.001 0.009,-0.003 0.0137,-0.004 z"
       transform="scale(0.26458333)" />
    <path
       style="fill:#000000;fill-rule:evenodd;stroke:none;stroke-width:1;stroke-linecap:square;paint-order:stroke fill markers"
       id="path2307"
       d="M 89.351023,42.645097 C 89.016818,42.434152 88.724144,42.17076 88.439941,41.898239 88.16333,41.618365 87.895728,41.323199 87.695925,40.981862 87.564459,40.757276 87.540586,40.673861 87.441891,40.4321 c -0.207444,-0.578606 -0.288039,-1.186431 -0.332436,-1.79592 -0.03817,-0.482176 0.06182,-0.946711 0.215813,-1.399865 0.173976,-0.432155 0.420751,-0.829186 0.686271,-1.210101 0.18883,-0.283078 0.438073,-0.509738 0.717052,-0.700604 0.218752,-0.149 0.461336,-0.238008 0.721458,-0.276383 0.166113,-0.01283 0.08222,-0.0087 0.251696,-0.01204 0.437575,-0.01042 0.42282,-0.629258 -0.01476,-0.618826 v 0 c -0.221303,0.006 -0.110289,-2.64e-4 -0.333034,0.01937 -0.35143,0.05757 -0.682075,0.175313 -0.977596,0.378864 -0.337671,0.235712 -0.642704,0.511178 -0.87299,0.856166 -0.298047,0.42935 -0.574521,0.877056 -0.764725,1.365975 -0.177805,0.531947 -0.291486,1.077989 -0.246533,1.642715 0.04981,0.675077 0.143118,1.347902 0.377706,1.987077 0.123142,0.294915 0.146253,0.37968 0.309451,0.654262 0.225668,0.379695 0.52278,0.710567 0.832609,1.02258 0.316199,0.302268 0.642906,0.593545 1.014725,0.826905 0.372772,0.229399 0.697188,-0.297778 0.324419,-0.527177 z" />
    <path
       style="fill:#000000;fill-rule:evenodd;stroke:none;stroke-width:1;stroke-linecap:square;paint-order:stroke fill markers"
       id="path2309"
       d="m 89.617742,34.960665 c 0.138197,0.03521 0.270915,0.07857 0.396531,0.146341 0.202128,0.110533 0.346475,0.286004 0.481767,0.467757 0.164592,0.236175 0.298876,0.49166 0.418274,0.753086 0.113173,0.254366 0.188566,0.522521 0.252907,0.792652 0.06073,0.280102 0.101137,0.564002 0.133374,0.848617 0.0337,0.289592 0.01976,0.580321 5.29e-4,0.870201 -0.01953,0.305348 -0.0965,0.602319 -0.162065,0.899967 -0.06427,0.284213 -0.130749,0.567682 -0.209336,0.848294 -0.06728,0.250656 -0.170449,0.488963 -0.276195,0.725202 -0.07653,0.193738 -0.166513,0.379135 -0.280604,0.553379 -0.103635,0.146574 -0.223385,0.27977 -0.354531,0.401939 -0.120537,0.118073 -0.260176,0.210026 -0.410583,0.284668 -0.137912,0.06398 -0.281255,0.116699 -0.428959,0.152865 -0.01582,0.0024 -0.03166,0.005 -0.04748,0.0075 -0.431112,0.07565 -0.324128,0.685334 0.106984,0.609685 v 0 c 0.03063,-0.0057 0.06127,-0.01132 0.0919,-0.01699 0.191039,-0.04912 0.377732,-0.114445 0.555688,-0.200067 0.202602,-0.10287 0.392295,-0.226973 0.555892,-0.386151 0.166656,-0.157099 0.320178,-0.327205 0.450218,-0.516308 0.130217,-0.201756 0.238609,-0.413999 0.32648,-0.637673 0.118179,-0.26413 0.231899,-0.53114 0.307298,-0.811252 0.08158,-0.291782 0.151087,-0.58642 0.217739,-0.881949 0.07223,-0.327988 0.15491,-0.655494 0.175193,-0.992079 0.02164,-0.326839 0.03506,-0.654719 -0.003,-0.981122 -0.03527,-0.309483 -0.07938,-0.618215 -0.146376,-0.922626 -0.07417,-0.309322 -0.161808,-0.616077 -0.292396,-0.907013 -0.138848,-0.30113 -0.293526,-0.59595 -0.486037,-0.866775 -0.192511,-0.254148 -0.404069,-0.492966 -0.690126,-0.644551 -0.164187,-0.08396 -0.333629,-0.148746 -0.512908,-0.192781 -0.420857,-0.120245 -0.59091,0.474938 -0.170053,0.595183 z" />
    <path
       style="fill:#000000;fill-rule:evenodd;stroke:none;stroke-width:1;stroke-linecap:square;paint-order:stroke fill markers"
       id="path2311"
       d="m 84.542819,37.258722 c -0.11744,0.265155 -0.150632,0.55856 -0.188346,0.843354 -0.05469,0.490953 -0.01307,0.983555 0.03924,1.472433 0.04283,0.402926 0.150122,0.793285 0.270645,1.178658 0.05669,0.182314 0.128633,0.358542 0.215723,0.528185 0.203168,0.387689 0.751446,0.100367 0.548278,-0.287324 v 0 c -0.07322,-0.135062 -0.125106,-0.280056 -0.173249,-0.425725 -0.108538,-0.346626 -0.207204,-0.697244 -0.245923,-1.059773 -0.04726,-0.440081 -0.08771,-0.883404 -0.04101,-1.32565 0.0284,-0.217098 0.05119,-0.441002 0.128294,-0.647332 0.195744,-0.391491 -0.357908,-0.668316 -0.553652,-0.276826 z" />
    <path
       style="fill:#000000;fill-rule:evenodd;stroke:none;stroke-width:1;stroke-linecap:square;paint-order:stroke fill markers"
       id="path2313"
       d="m 93.121989,36.491915 c -0.0063,0.21948 0.05023,0.433279 0.101013,0.644872 0.0412,0.195183 0.111022,0.386839 0.12551,0.587089 0.0068,0.09362 -0.0021,0.19677 -0.0073,0.289771 -0.02455,0.292413 -0.100558,0.57407 -0.185693,0.853433 -0.07387,0.248557 -0.160041,0.493183 -0.242001,0.739134 -0.08066,0.226518 -0.155477,0.454763 -0.225626,0.684729 -0.01879,0.05887 -0.04383,0.115115 -0.07111,0.170391 -0.18995,0.394335 0.367726,0.662964 0.557675,0.268629 v 0 c 0.03996,-0.08416 0.078,-0.169156 0.105508,-0.258421 0.06861,-0.224925 0.141915,-0.448098 0.220813,-0.66965 0.08364,-0.25106 0.171543,-0.500777 0.246902,-0.75451 0.09976,-0.327879 0.185647,-0.659587 0.211764,-1.002852 0.0075,-0.163338 0.01635,-0.243012 0.0019,-0.4083 -0.01923,-0.219377 -0.0882,-0.430379 -0.136411,-0.644086 -0.03949,-0.164097 -0.08841,-0.329869 -0.08388,-0.500229 0,-0.4377 -0.619001,-0.4377 -0.619001,0 z" />
    <path
       style="fill:#000000;fill-rule:evenodd;stroke:none;stroke-width:1;stroke-linecap:square;paint-order:stroke fill markers"
       id="path2317"
       d="m 82.194709,38.690303 c -0.0053,0.181592 0.0062,0.362247 0.02471,0.542777 0.03047,0.308332 0.103994,0.607883 0.207655,0.899102 0.0982,0.253947 0.209452,0.502711 0.359704,0.730245 0.244499,0.363045 0.757923,0.01728 0.513424,-0.345774 v 0 c -0.126611,-0.18166 -0.205838,-0.39081 -0.290656,-0.593963 -0.08877,-0.243594 -0.148132,-0.495281 -0.174447,-0.753644 -0.01683,-0.159253 -0.02646,-0.318506 -0.02138,-0.478743 0,-0.4377 -0.619,-0.4377 -0.619,0 z" />
    <path
       style="fill:#000000;fill-rule:evenodd;stroke:none;stroke-width:1;stroke-linecap:square;paint-order:stroke fill markers"
       id="path2319"
       d="m 95.325339,37.499038 c 0.02209,0.166389 0.0483,0.331814 0.08106,0.496448 0.06576,0.246595 0.05727,0.494493 0.03495,0.74566 -0.02487,0.255439 -0.0951,0.50343 -0.176964,0.745744 -0.08167,0.201641 -0.16619,0.402987 -0.262139,0.598342 -0.09424,0.178689 -0.181311,0.362069 -0.284874,0.535651 -0.0056,0.0041 -0.01114,0.0082 -0.0167,0.01228 -0.284602,0.332539 0.185679,0.735028 0.470281,0.402487 v 0 c 0.02649,-0.03336 0.05298,-0.06672 0.07947,-0.100089 0.110477,-0.188572 0.207717,-0.384861 0.308136,-0.578882 0.106778,-0.21997 0.203857,-0.445191 0.292696,-0.672939 0.09636,-0.288949 0.178676,-0.584229 0.206748,-0.888659 0.02669,-0.309242 0.03228,-0.617077 -0.04456,-0.92072 -0.02945,-0.147154 -0.05281,-0.294982 -0.07288,-0.443691 -0.04834,-0.435022 -0.663552,-0.366665 -0.615215,0.06836 z" />
    <path
       style="fill:#000000;fill-rule:evenodd;stroke:none;stroke-width:1;stroke-linecap:square;paint-order:stroke fill markers"
       id="path2325"
       d="m 68.745385,18.579555 c -0.06481,0.230428 -0.126743,0.461493 -0.182332,0.694351 -0.09964,0.379343 -0.223526,0.751967 -0.345173,1.124699 -0.184563,0.536534 -0.35392,1.077895 -0.515258,1.621793 -0.182983,0.565953 -0.338907,1.139308 -0.48202,1.716447 -0.141597,0.612316 -0.258038,1.230267 -0.377997,1.847133 -0.10591,0.593192 -0.211879,1.18637 -0.317905,1.779542 -0.10005,0.582483 -0.170754,1.169334 -0.254926,1.754204 -0.08816,0.580876 -0.136512,1.166479 -0.180131,1.752041 -0.04412,0.603155 -0.07125,1.207336 -0.0938,1.811621 -0.02789,0.648602 0.01844,1.294834 0.082,1.939705 0.06524,0.65971 0.210474,1.307346 0.349941,1.954295 0.131463,0.566883 0.282289,1.12908 0.427609,1.692526 0.115416,0.47035 0.227052,0.941549 0.345945,1.411041 0.08701,0.380551 0.19326,0.75618 0.287356,1.134952 0.08115,0.316677 0.16923,0.631896 0.307666,0.928677 0.02246,0.03957 0.04495,0.07915 0.06742,0.118724 0.218874,0.379044 0.754925,0.06951 0.536049,-0.309536 v 0 c -0.01482,-0.02503 -0.02966,-0.05005 -0.04448,-0.07507 -0.125775,-0.256786 -0.189997,-0.537792 -0.265932,-0.812107 -0.09441,-0.379635 -0.200748,-0.756174 -0.288018,-1.137597 -0.119118,-0.470371 -0.230846,-0.942483 -0.34662,-1.41368 -0.143272,-0.555431 -0.291872,-1.109654 -0.421894,-1.668372 -0.134514,-0.623949 -0.275592,-1.248405 -0.339029,-1.884606 -0.0609,-0.617022 -0.106336,-1.235229 -0.07944,-1.855877 0.02225,-0.596649 0.04899,-1.193195 0.09251,-1.788727 0.04254,-0.571447 0.08941,-1.142965 0.175528,-1.709832 0.08317,-0.577943 0.153103,-1.157828 0.251581,-1.733471 0.105458,-0.590092 0.210971,-1.180168 0.316183,-1.770303 0.117924,-0.606553 0.232463,-1.214154 0.371192,-1.816336 0.140792,-0.568083 0.294428,-1.13234 0.474649,-1.689363 0.159737,-0.538543 0.327488,-1.074542 0.51027,-1.605777 0.126841,-0.388687 0.255937,-0.777306 0.358833,-1.173163 0.05335,-0.224009 0.113028,-0.446244 0.1754,-0.667878 0.120246,-0.420859 -0.47494,-0.590911 -0.595185,-0.170053 z" />
    <path
       style="fill:#000000;fill-rule:evenodd;stroke:none;stroke-width:1.84727;stroke-linecap:square;paint-order:stroke fill markers"
       d="m 302.96439,50.325737 c -2.74231,1.236409 -5.26438,3.714551 -6.39107,6.54667 -0.99894,5.752741 0.31198,11.918059 2.94496,17.074037 1.78409,2.833656 5.92621,3.768469 8.41196,1.253394 4.27285,-2.797084 2.97954,-8.335521 2.92586,-12.613175 -0.15848,-4.914737 -2.49927,-11.223936 -7.89171,-12.260926 z"
       id="path5867"
       transform="scale(0.26458333)" />
    <path
       style="fill:#000000;fill-rule:evenodd;stroke:none;stroke-width:1.84727;stroke-linecap:square;paint-order:stroke fill markers"
       d="m 377.16285,49.370179 c -4.00153,0.128231 -3.61402,5.11254 -4.11911,7.928936 -0.25547,4.695234 -2.00705,10.738479 2.36933,14.156769 4.08055,2.889396 8.89336,-1.649094 9.38566,-5.800171 0.9246,-4.743342 1.24473,-10.425861 -2.7569,-13.933391 -1.30487,-1.267025 -3.00187,-2.350156 -4.87898,-2.352143 z"
       id="path5906"
       transform="scale(0.26458333)" />
    <path
       style="fill:#000000;fill-rule:evenodd;stroke:none;stroke-width:1;stroke-linecap:square;paint-order:stroke fill markers"
       id="path12335"
       d="m 70.642416,13.685587 c -0.0698,0.07297 -0.139364,0.145875 -0.211887,0.216185 -0.161612,0.157477 -0.301188,0.335493 -0.439121,0.513519 -0.163179,0.218535 -0.305943,0.451222 -0.449495,0.682823 -0.130363,0.21293 -0.268116,0.421134 -0.408128,0.627796 -0.117514,0.170863 -0.236513,0.340761 -0.348681,0.515209 -0.103574,0.163188 -0.192802,0.334663 -0.287753,0.502852 -0.09423,0.165475 -0.179607,0.335692 -0.264276,0.506181 -0.07601,0.152065 -0.14297,0.308209 -0.205637,0.466149 -0.05144,0.129574 -0.09605,0.261578 -0.137499,0.394632 -0.0324,0.109953 -0.0666,0.219363 -0.103174,0.327999 -0.139438,0.414895 0.447313,0.612089 0.586751,0.197194 v 0 c 0.03794,-0.113059 0.07384,-0.22679 0.10745,-0.341215 0.03675,-0.118143 0.07617,-0.235382 0.121872,-0.35041 0.05628,-0.141972 0.116263,-0.28238 0.184639,-0.419031 0.0798,-0.160707 0.160087,-0.321255 0.248931,-0.477225 0.08919,-0.158038 0.173,-0.319149 0.269679,-0.472852 0.109022,-0.170344 0.225989,-0.335424 0.340175,-0.502309 0.14469,-0.2136 0.287009,-0.42882 0.421783,-0.648862 0.132255,-0.213375 0.263406,-0.427969 0.412805,-0.629976 0.119918,-0.154996 0.240591,-0.310657 0.380707,-0.448202 0.07471,-0.07253 0.146862,-0.147302 0.218556,-0.222757 0.309502,-0.309501 -0.128198,-0.7472 -0.437697,-0.4377 z" />
    <path
       style="fill:#000000;fill-opacity:1;fill-rule:evenodd;stroke:none;stroke-width:1;stroke-linecap:square;paint-order:stroke fill markers"
       id="path12337"
       d="m 69.464623,18.001537 c -0.152694,0.02162 -0.299979,0.07131 -0.447786,0.114249 -0.140904,0.04036 -0.280448,0.08523 -0.420894,0.127127 -0.115107,0.03395 -0.231095,0.06478 -0.3473,0.09473 -0.10074,0.02676 -0.200488,0.05714 -0.300072,0.08789 -0.418224,0.129108 -0.235638,0.720568 0.182586,0.591459 v 0 c 0.09029,-0.02787 0.180708,-0.05552 0.272008,-0.07994 0.123727,-0.03191 0.247224,-0.06477 0.369776,-0.100974 0.139023,-0.0415 0.277186,-0.08584 0.416645,-0.125875 0.0754,-0.02192 0.150897,-0.04354 0.226441,-0.06498 0.02088,-0.0059 0.0418,-0.01172 0.06271,-0.01753 0.01278,-0.0035 0.05018,-0.0045 0.03835,-0.01053 -0.01564,-0.0079 -0.03498,0.0022 -0.05247,0.0034 0.437697,0 0.437697,-0.619 0,-0.619 z" />
    <path
       style="fill:#ffff00;fill-opacity:1;fill-rule:evenodd;stroke:none;stroke-width:1;stroke-linecap:square;paint-order:stroke fill markers"
       id="path62527"
       d="m 87.22275,44.333887 c 0.407797,0.08319 0.820893,0.13916 1.233043,0.195853 0.629435,0.09745 1.263832,0.127791 1.89956,0.139395 0.437628,0.0078 0.448677,-0.611089 0.01106,-0.618902 v 0 c -0.611267,-0.01066 -1.221144,-0.03966 -1.826331,-0.133729 -0.385823,-0.05298 -0.771753,-0.107074 -1.154451,-0.179805 -0.422278,-0.115168 -0.585147,0.482023 -0.16287,0.597188 z" />
    <path
       style="fill:#000000;fill-opacity:1;fill-rule:evenodd;stroke:none;stroke-width:1;stroke-linecap:square;paint-order:stroke fill markers"
       id="path62562"
       d="m 88.069961,44.425436 c 0.135253,0.102814 0.286028,0.180263 0.439359,0.251885 0.17449,0.08078 0.354878,0.147305 0.541642,0.192845 0.266991,0.05692 0.518864,-0.03456 0.762386,-0.135046 0.189559,-0.08702 0.378818,-0.174977 0.563941,-0.271132 0.104519,-0.05289 0.204785,-0.113329 0.305136,-0.173572 0.375262,-0.225301 0.05664,-0.755999 -0.318621,-0.530701 v 0 c -0.08957,0.05378 -0.178819,0.108135 -0.272225,0.155154 -0.169381,0.0883 -0.343006,0.168124 -0.516117,0.248788 -0.08243,0.03471 -0.164561,0.06371 -0.249248,0.09208 -0.01206,0.004 -0.02318,0.01127 -0.0357,0.01344 -0.02886,0.005 -0.06909,5.29e-4 -0.09819,-0.0016 -0.146285,-0.03182 -0.284895,-0.09145 -0.421579,-0.151289 -0.111418,-0.05175 -0.221752,-0.105693 -0.320749,-0.179409 -0.345501,-0.268721 -0.72553,0.21989 -0.380029,0.488612 z" />
  </g>
</svg>
