<?xml version="1.0" encoding="UTF-8" standalone="no"?>
<svg
   viewBox="0 0 36 36"
   version="1.1"
   id="svg8"
   sodipodi:docname="sleeping_face.svg"
   inkscape:version="1.1.1 (3bf5ae0d25, 2021-09-20)"
   xmlns:inkscape="http://www.inkscape.org/namespaces/inkscape"
   xmlns:sodipodi="http://sodipodi.sourceforge.net/DTD/sodipodi-0.dtd"
   xmlns="http://www.w3.org/2000/svg"
   xmlns:svg="http://www.w3.org/2000/svg">
  <defs
     id="defs12" />
  <sodipodi:namedview
     id="namedview10"
     pagecolor="#ffffff"
     bordercolor="#666666"
     borderopacity="1.0"
     inkscape:pageshadow="2"
     inkscape:pageopacity="0.0"
     inkscape:pagecheckerboard="0"
     showgrid="false"
     inkscape:snap-bbox="true"
     inkscape:bbox-nodes="true"
     inkscape:snap-page="true"
     inkscape:snap-bbox-midpoints="true"
     inkscape:snap-object-midpoints="true"
     inkscape:snap-center="true"
     inkscape:snap-midpoints="true"
     inkscape:snap-nodes="false"
     inkscape:snap-others="false"
     inkscape:snap-bbox-edge-midpoints="false"
     inkscape:zoom="15.949186"
     inkscape:cx="15.518033"
     inkscape:cy="17.775202"
     inkscape:window-width="1920"
     inkscape:window-height="1001"
     inkscape:window-x="-9"
     inkscape:window-y="-9"
     inkscape:window-maximized="1"
     inkscape:current-layer="svg8" />
  <g
     id="g1676"
     transform="matrix(0.58357499,0,0,0.58357499,-4.8377675,-31.498442)">
    <g
       id="g1663">
      <path
         style="fill:#ffffff;fill-rule:evenodd;stroke-width:0.326554;stroke-linecap:square;paint-order:stroke fill markers"
         d="m 140.31749,342.1927 c -4.54982,0.29486 -9.09679,0.69822 -13.61869,1.28687 -0.73486,-0.0252 -1.34704,0.57352 -1.28185,1.31571 -0.17584,0.7746 0.56294,1.43993 1.31873,1.29086 4.47436,-0.0172 8.93874,0.0919 13.41238,0.12791 0.78145,0.0872 1.62156,-0.51594 1.4948,-1.35963 0.002,-0.44414 -0.34643,-0.84209 -0.11762,-1.27712 0.22592,-0.77093 -0.42159,-1.48791 -1.20775,-1.3846 z"
         id="path1340"
         transform="scale(0.26458333)" />
      <path
         style="fill:#ffffff;fill-rule:evenodd;stroke-width:0.326554;stroke-linecap:square;paint-order:stroke fill markers"
         d="m 146.87889,341.8206 c -1.37707,0.0551 -2.79682,-0.0441 -4.13644,0.32181 -0.69591,0.24955 -0.76503,1.09487 -0.63248,1.68076 0.0291,0.78747 -0.41827,1.81065 0.40113,2.3484 0.85435,0.32869 1.82001,0.21185 2.71796,0.32895 3.14501,0.20685 6.27984,0.55183 9.40413,0.95571 0.73574,0.11051 1.45315,-0.55787 1.31205,-1.30614 0.007,-0.80575 0.50804,-1.80643 -0.15055,-2.47022 -0.64554,-0.51174 -1.54424,-0.5498 -2.30327,-0.82719 -2.15778,-0.58392 -4.35813,-1.13305 -6.61253,-1.03208 z"
         id="path1379"
         transform="scale(0.26458333)" />
      <path
         style="fill:#ffffff;fill-rule:evenodd;stroke-width:0.326554;stroke-linecap:square;paint-order:stroke fill markers"
         d="m 157.16497,344.19544 c -0.915,0.36169 -0.76561,1.49027 -0.9634,2.28726 -0.19242,0.79288 0.59,1.38865 1.32629,1.35181 2.08969,0.25099 4.14454,0.62815 6.22923,0.90879 0.87647,0.13132 1.55916,-0.81224 1.26243,-1.61664 -0.3604,-0.94724 -1.53519,-1.01123 -2.3456,-1.36453 -1.67605,-0.52901 -3.32523,-1.1615 -5.03054,-1.58795 -0.15947,0.007 -0.31894,0.0142 -0.47841,0.0213 z"
         id="path1418"
         transform="scale(0.26458333)" />
      <path
         style="fill:#ffffff;fill-rule:evenodd;stroke-width:0.0816386;stroke-linecap:square;paint-order:stroke fill markers"
         d="m 125.29488,343.69151 c -0.61247,0.0938 -1.2269,0.18406 -1.83371,0.30888 -0.48548,0.12621 -0.81089,0.62397 -0.77623,1.11719 -0.0111,0.51434 0.44024,0.97227 0.95158,0.98705 0.61809,-0.003 1.23773,0.0145 1.85502,-0.009 0.49155,-0.0378 0.88921,-0.49088 0.89457,-0.97902 0.0385,-0.35262 0.0544,-0.74904 -0.18918,-1.03719 -0.20313,-0.27828 -0.56195,-0.42255 -0.90205,-0.38814 z"
         id="path1457"
         transform="scale(0.26458333)" />
      <path
         style="fill:#ffffff;fill-rule:evenodd;stroke-width:0.0816386;stroke-linecap:square;paint-order:stroke fill markers"
         d="m 165.07934,346.61365 c -0.50483,0.0168 -0.93201,0.44182 -0.99327,0.93611 -0.11446,0.37288 -0.0655,0.81151 0.21424,1.10024 0.28966,0.32568 0.75012,0.33446 1.14446,0.43118 0.60361,0.11946 1.2064,0.24779 1.80938,0.36704 0.48969,0.0689 1.00949,-0.24162 1.14104,-0.72537 0.14138,-0.46562 -0.0335,-1.0381 -0.47673,-1.27503 -0.40374,-0.17772 -0.84002,-0.27408 -1.25729,-0.41766 -0.46551,-0.13642 -0.92295,-0.30707 -1.39734,-0.40955 -0.0615,-0.002 -0.123,-0.006 -0.18449,-0.007 z m 1.88529,2.76711 c -0.0389,-0.0114 -0.0689,-0.0317 0,0 z"
         id="path1496"
         transform="scale(0.26458333)" />
      <path
         style="fill:#ffffff;fill-rule:evenodd;stroke-width:0.0147638;stroke-linecap:square;paint-order:stroke fill markers"
         d="m 168.38914,347.62955 c -0.27841,0.009 -0.54992,0.13995 -0.72916,0.35327 -0.17163,0.20305 -0.25937,0.47327 -0.24852,0.73818 0.0116,0.30424 0.17216,0.598 0.42174,0.77235 0.12726,0.0919 0.27724,0.14675 0.43059,0.17613 0.16856,0.0365 0.3394,0.0827 0.51347,0.0647 0.30189,-0.0214 0.58843,-0.1897 0.75546,-0.44193 0.14217,-0.21005 0.19702,-0.47436 0.15749,-0.7243 -0.0429,-0.30353 -0.23484,-0.58113 -0.50389,-0.72814 -0.13324,-0.0755 -0.28445,-0.10767 -0.42874,-0.15504 -0.1189,-0.0384 -0.24327,-0.0596 -0.36844,-0.0552 z"
         id="path1535"
         transform="scale(0.26458333)" />
    </g>
    <path
       style="fill:#ffff00;fill-opacity:1;fill-rule:evenodd;stroke:none;stroke-width:1;stroke-linecap:square;paint-order:stroke fill markers"
       id="path61162"
       d="m 50.730279,100.26564 c 0.0029,-0.0541 -5.29e-4,-0.0176 0.0066,-0.0626 2.64e-4,-0.002 0.0019,-0.009 5.29e-4,-0.007 -0.0047,0.007 -0.0073,0.0145 -0.01111,0.0217 -0.01458,0.0273 -0.01828,0.0329 -0.03461,0.0607 -0.02738,0.0465 -0.05683,0.0917 -0.08637,0.13679 -0.239633,0.36628 0.278357,0.70517 0.517991,0.33889 v 0 c 0.03538,-0.0541 0.07052,-0.10835 0.103243,-0.16411 0.0486,-0.0839 0.100978,-0.171 0.117668,-0.26803 0.0032,-0.0186 0.0033,-0.0376 0.005,-0.0565 0,-0.437701 -0.619001,-0.437701 -0.619001,0 z" />
    <path
       style="fill:#80e5ff;fill-opacity:1;fill-rule:evenodd;stroke:none;stroke-width:0.461818;stroke-linecap:square;paint-order:stroke fill markers"
       d="m 188.83511,366.18778 c -1.76136,0.26131 -3.51612,0.64588 -5.31093,0.54078 -1.37999,0.0505 -2.74867,-0.1277 -4.13177,-0.11813 -1.26969,0.24913 -1.19168,1.79266 -1.30064,2.78362 -0.16203,3.19634 -0.063,6.44332 0.60617,9.58088 0.12002,1.27702 1.86653,1.5243 2.60464,0.64245 0.90337,-1.16717 0.96385,-2.71755 1.33692,-4.07974 0.14821,-0.22524 0.43902,0.0438 0.25392,0.28781 -0.31615,2.691 0.92108,5.20326 1.61567,7.73277 0.47103,1.09091 1.85402,0.74151 2.66883,0.29998 1.10489,-0.58308 2.36222,-0.96656 3.30221,-1.79775 0.49793,-2.1629 0.19957,-4.42686 0.17875,-6.63116 -0.1709,-2.81388 -0.19385,-5.65957 -0.70211,-8.43726 -0.1247,-0.48469 -0.61944,-0.85423 -1.12166,-0.80425 z"
       id="path27921"
       transform="scale(0.26458333)" />
    <path
       style="fill:#80e5ff;fill-opacity:1;fill-rule:evenodd;stroke:none;stroke-width:0.461818;stroke-linecap:square;paint-order:stroke fill markers"
       d="m 215.10938,378.79546 c -5.46583,0.17068 -10.96695,0.14545 -16.38601,0.96392 -1.61814,0.30442 -3.22662,0.69664 -4.81168,1.1269 -2.4537,1.11916 -4.80036,2.46361 -7.21895,3.65709 -0.57711,0.26058 -1.01885,0.74533 -1.21115,1.33167 -0.32864,0.13764 -0.6584,-0.32337 -1.02691,-0.17803 -1.65581,0.36837 -3.12373,1.23732 -4.73641,1.75888 -6.83766,2.50271 -13.77734,4.93898 -20.983,6.27506 -5.00446,0.93781 -10.08432,0.47895 -15.04264,-0.32767 -6.87675,-1.09122 -13.77407,-2.36893 -20.57337,-3.98714 -1.03335,-0.21042 -1.72909,0.80175 -1.77387,1.72773 -0.53971,2.26868 0.62507,4.45832 1.8636,6.27447 1.79887,2.56149 4.55467,4.48548 7.67298,4.99435 7.69224,1.68543 15.43748,3.14692 23.22305,4.33048 5.81876,0.64184 11.67593,0.86587 17.51829,1.20512 6.08598,0.26121 12.18375,0.12612 18.27063,-0.0473 8.37211,-0.53237 16.70359,-1.65005 24.9618,-3.1123 4.87681,-0.82717 9.70046,-2.13106 14.15026,-4.32716 2.05834,-1.06245 4.24776,-2.10935 5.8126,-3.86393 0.69589,-0.91374 0.0113,-2.21869 -1.06271,-2.39677 -3.01875,-0.97334 -6.19712,-1.4598 -9.13484,-2.67479 -1.42579,-0.75212 -3.02953,-1.62629 -3.69838,-3.17358 -0.34088,-1.76594 1.4359,-3.08054 1.29612,-4.84199 0.20585,-2.07178 -1.52138,-3.74001 -3.35925,-4.3444 -1.19768,-0.45437 -2.49523,-0.35887 -3.75016,-0.37063 z"
       id="path27960"
       transform="scale(0.26458333)" />
    <path
       style="fill:#d7eef4;fill-opacity:1;fill-rule:evenodd;stroke:none;stroke-width:1;stroke-linecap:square;paint-order:stroke fill markers"
       id="path2576"
       d="m 51.404961,100.98592 c 0.163817,0.006 0.323363,-0.0377 0.480547,-0.0781 0.2814,-0.0838 0.566158,-0.15093 0.856231,-0.19568 0.452282,-0.0656 0.908183,-0.1011 1.363882,-0.13251 0.649447,-0.0393 1.300044,-0.0541 1.950382,-0.0703 0.481666,0.002 0.96647,-0.0643 1.447443,-0.0123 0.07009,0.008 0.139289,0.0218 0.208933,0.0327 0.277879,0.075 0.540832,0.22342 0.704421,0.46767 0.0284,0.0424 0.04839,0.0899 0.07259,0.13483 0.135427,0.35991 0.03593,0.5654 -0.127137,0.88863 -0.0485,0.089 -0.125796,0.22072 -0.154504,0.31751 -0.06159,0.20766 -0.05626,0.43485 0.04229,0.63144 0.03707,0.0739 0.09168,0.13773 0.13752,0.2066 0.05823,0.0577 0.113041,0.11902 0.174689,0.17302 0.242429,0.21235 0.588904,0.42271 0.88597,0.54435 0.106458,0.0436 0.216771,0.0771 0.325154,0.11564 0.665139,0.2075 1.351132,0.33694 2.016543,0.54279 0.0035,-0.0597 0.324747,0.19492 0.233453,0.25063 -0.02614,0.016 -0.06282,-0.0327 -0.08995,-0.0185 -0.06617,0.0346 -0.106675,0.10486 -0.164761,0.15179 -0.09244,0.0747 -0.19081,0.1417 -0.286216,0.21254 -0.117218,0.0758 -0.231545,0.15631 -0.351655,0.22745 -0.510022,0.30211 -1.100897,0.56683 -1.655408,0.77637 -0.141687,0.0535 -0.28566,0.10082 -0.428488,0.15122 -0.94544,0.31896 -1.931434,0.48362 -2.912297,0.64971 -1.066739,0.17971 -2.137135,0.33463 -3.210679,0.46723 -0.947359,0.12021 -1.898936,0.19632 -2.8521,0.24998 -0.966931,0.051 -1.935435,0.0536 -2.903429,0.0526 -1.014354,-0.006 -2.027127,-0.0645 -3.039531,-0.12197 -0.784328,-0.0417 -1.567992,-0.0946 -2.352064,-0.14063 -1.1739,-0.0889 -2.3315,-0.31995 -3.488732,-0.52748 -0.994047,-0.1787 -1.985756,-0.37005 -2.97484,-0.57439 -0.405979,-0.0927 -0.82469,-0.15244 -1.21425,-0.3062 -0.181983,-0.0718 -0.249896,-0.11712 -0.418515,-0.21153 -0.338053,-0.19993 -0.602636,-0.4852 -0.839531,-0.79332 -0.167521,-0.22939 -0.29895,-0.48012 -0.405905,-0.74244 -0.03227,-0.10355 -0.08024,-0.20499 -0.09913,-0.31255 -0.01447,-0.0824 -0.0013,-0.17544 0.0046,-0.25784 0.01236,-0.16604 0.04312,-0.32982 0.0976,-0.48713 0.0226,-0.0455 0.01011,-0.0269 0.03452,-0.0579 0.231868,-0.37123 -0.293142,-0.69915 -0.52501,-0.32791 v 0 c -0.07213,0.12234 -0.04031,0.0598 -0.0959,0.18754 -0.06971,0.20951 -0.114353,0.42576 -0.128984,0.64649 -0.0062,0.1081 -0.01384,0.18134 -0.0057,0.29084 0.01442,0.19303 0.07702,0.37376 0.145335,0.55343 0.129135,0.31303 0.286525,0.61283 0.48862,0.88575 0.289814,0.37398 0.61651,0.71644 1.029647,0.95656 0.218083,0.11964 0.284342,0.16507 0.520319,0.25646 0.414038,0.16036 0.855779,0.23001 1.287049,0.32593 0.994397,0.20541 1.991419,0.39783 2.990805,0.57747 1.181357,0.21185 2.363177,0.447 3.561726,0.53614 0.784479,0.046 1.568548,0.099 2.353283,0.1407 1.023867,0.0581 2.048114,0.11726 3.073953,0.12296 0.979816,0.001 1.960145,-0.002 2.938878,-0.0536 0.966886,-0.0545 1.932168,-0.13177 2.893171,-0.25368 1.082723,-0.13379 2.162286,-0.28997 3.238146,-0.47125 1.015889,-0.17208 2.036659,-0.34445 3.015334,-0.67644 0.151294,-0.0536 0.303784,-0.10396 0.453882,-0.16084 0.591241,-0.22405 1.218285,-0.50693 1.760887,-0.83128 0.133168,-0.0796 0.259869,-0.16955 0.3898,-0.25433 0.195165,-0.15196 0.528788,-0.37213 0.644345,-0.61227 0.06701,-0.13925 0.104754,-0.29907 0.09676,-0.45339 -0.0093,-0.17917 -0.228791,-0.39313 -0.358815,-0.48269 -0.08196,-0.0565 -0.178618,-0.0879 -0.267925,-0.13178 -0.658363,-0.20219 -1.334958,-0.3355 -1.994106,-0.53539 -0.08905,-0.0307 -0.1796,-0.0572 -0.267145,-0.0919 -0.303064,-0.12016 -0.58066,-0.30922 -0.824479,-0.52328 -0.0191,-0.0196 -0.04086,-0.0368 -0.05729,-0.0587 -0.122898,-0.16347 0.0093,-0.30348 0.08749,-0.45526 0.20016,-0.40828 0.332142,-0.76705 0.202753,-1.22746 -0.02384,-0.0849 -0.06307,-0.16463 -0.0946,-0.24695 -0.04525,-0.0748 -0.08434,-0.1537 -0.135755,-0.2244 -0.261464,-0.35954 -0.659117,-0.57794 -1.084276,-0.67961 -0.0874,-0.01281 -0.174337,-0.02936 -0.262208,-0.03843 -0.499403,-0.05157 -1.001921,0.01019 -1.501949,0.01125 -0.659434,0.01635 -1.319128,0.03148 -1.977649,0.07153 -0.47339,0.0327 -0.946976,0.06987 -1.416754,0.13844 -0.310063,0.0489 -0.615328,0.11795 -0.916191,0.20811 -0.106191,0.0279 -0.214162,0.0625 -0.325107,0.0583 -0.4377,0 -0.4377,0.619 0,0.619 z" />
    <path
       id="path22970"
       style="fill:#501616;fill-opacity:1;fill-rule:evenodd;stroke:none;stroke-width:0.923635;stroke-linecap:square;paint-order:stroke fill markers"
       d="m 124.875,346.47852 c -2.55127,-0.008 -5.10247,-0.009 -7.65234,0.006 -3.93859,0.85023 -8.178,1.47498 -11.54883,3.82617 -0.24428,0.23911 -0.41268,0.56499 -0.51758,0.91601 -0.3208,0.0681 -0.63761,0.1524 -0.95508,0.23438 -0.38232,0.0916 -0.76381,0.18521 -1.14648,0.27539 -0.2143,0.0496 -0.4314,0.0907 -0.64649,0.13672 -1.61732,0.34779 -1.12513,2.63492 0.49219,2.28711 0.23014,-0.0499 0.46232,-0.0917 0.69141,-0.14649 0.39854,-0.0942 0.79722,-0.19111 1.19531,-0.28711 0.32529,-0.084 0.64868,-0.17161 0.97851,-0.23633 0.25695,0.1415 0.5798,0.19826 0.98243,0.11915 9.11157,0.1577 18.1031,1.51839 27.01757,3.58398 15.28651,3.54307 30.63609,6.95898 46.19922,9.04883 4.48401,0.84507 8.98336,-0.38573 13.19336,-1.85742 1.33761,-0.71428 3.26334,-0.91027 4.04297,-2.26954 0.12092,-1.55951 0.30237,-3.67752 -1.48828,-4.38671 -4.06678,-2.24023 -8.29457,-4.41862 -12.96289,-5.01563 -4.09543,-0.63154 -8.1079,-1.19775 -12.14453,-2.21094 -12.50869,-2.65406 -25.27961,-4.12602 -38.07617,-3.98437 -2.55069,-0.0144 -5.10303,-0.0306 -7.6543,-0.0391 z"
       transform="scale(0.26458333)" />
    <path
       id="path27678"
       style="fill:#ff0000;fill-opacity:1;fill-rule:evenodd;stroke:none;stroke-width:3.77953;stroke-linecap:square;paint-order:stroke fill markers"
       d="m 126.97461,351.72852 c -1.08396,0.007 -2.16811,0.033 -3.25,0.10351 -1.26967,0.0836 -2.53795,0.18978 -3.79102,0.41992 -0.93283,0.17299 -1.88496,0.35168 -2.75,0.75586 -1.44612,0.8034 -0.30938,2.84832 1.13672,2.04492 0.53311,-0.19453 1.08782,-0.3189 1.64453,-0.42578 0.19539,0.17992 0.46901,0.30095 0.82618,0.31641 0.24842,0.011 0.49787,0.0224 0.74609,0.0371 0.36692,0.0223 0.7338,0.0476 1.09961,0.084 0.38056,0.0388 0.75871,0.085 1.13476,0.15625 0.48011,0.088 0.95772,0.18758 1.4375,0.27735 0.56552,0.10261 1.13199,0.20273 1.70118,0.2832 0.62144,0.085 1.24291,0.16904 1.86328,0.26172 0.71526,0.10809 1.43267,0.21085 2.14453,0.33984 0.70361,0.14181 1.40279,0.29897 2.10156,0.46289 0.62188,0.14344 1.24379,0.29095 1.86719,0.42774 0.62489,0.14109 1.24761,0.2891 1.86328,0.46679 0.70105,0.19027 1.40183,0.38577 2.10742,0.5586 0.73262,0.17087 1.46991,0.31885 2.20899,0.45898 0.7588,0.1519 1.5147,0.31493 2.27148,0.47657 0.84356,0.16909 1.68772,0.33762 2.54102,0.45117 0.72325,0.10265 1.44719,0.19716 2.16797,0.3164 0.66613,0.12374 1.32844,0.26546 1.98632,0.42774 0.68489,0.16358 1.37087,0.32736 2.0586,0.47851 0.69972,0.15171 1.4008,0.29827 2.10351,0.43555 0.77389,0.14442 1.54576,0.2941 2.31641,0.45508 0.78479,0.15995 1.57013,0.31837 2.35156,0.49414 0.81907,0.18312 1.635,0.37642 2.44727,0.58789 0.89406,0.23327 1.784,0.48677 2.67578,0.72852 0.83715,0.21505 1.67925,0.40518 2.51367,0.63085 0.69112,0.19227 1.38222,0.39034 2.07617,0.57227 0.71166,0.17953 1.4258,0.34537 2.14063,0.51172 0.75114,0.18195 1.49627,0.38577 2.24218,0.58789 0.93905,0.24503 1.88067,0.47653 2.83399,0.66016 1.04138,0.19366 2.08428,0.3174 3.14062,0.39648 0.48291,0.0393 0.96457,0.0854 1.44922,0.0937 0.19608,0.028 0.37378,0.0176 0.53125,-0.0195 1.18273,0.37776 2.16215,-1.23586 0.95899,-2.10547 -0.0556,-0.0402 -0.11038,-0.0809 -0.16602,-0.12109 -0.40602,-0.30067 -0.8158,-0.5968 -1.2168,-0.9043 -0.5278,-0.4096 -1.04529,-0.83133 -1.55468,-1.26367 -0.7274,-0.59765 -1.49221,-1.14877 -2.30664,-1.62305 -0.92004,-0.53849 -1.85908,-1.04087 -2.82813,-1.48633 -1.1655,-0.52064 -2.35719,-0.98203 -3.5625,-1.40234 -1.30688,-0.45079 -2.61158,-0.91551 -3.95703,-1.24024 -1.08039,-0.24521 -2.17224,-0.43568 -3.2793,-0.50976 -0.98595,-0.0828 -1.97415,-0.1235 -2.96093,-0.19531 -1.11134,-0.079 -2.22197,-0.17306 -3.33594,-0.20703 -1.03307,-0.047 -2.06522,-0.10729 -3.0957,-0.19532 -1.14648,-0.10106 -2.29301,-0.21583 -3.4336,-0.37109 -1.17239,-0.15738 -2.34594,-0.30786 -3.51758,-0.4707 -1.07138,-0.17141 -2.13721,-0.37176 -3.19726,-0.60352 -1.13535,-0.25217 -2.27163,-0.50053 -3.40625,-0.75586 -1.17197,-0.26619 -2.32986,-0.58576 -3.49219,-0.89062 -1.36407,-0.33831 -2.7413,-0.63096 -4.14258,-0.76563 -1.45059,-0.13357 -2.9051,-0.17863 -4.36133,-0.20312 -0.36127,-0.001 -0.72266,-0.002 -1.08398,0 z"
       transform="scale(0.26458333)" />
    <path
       style="fill:#ffff00;fill-rule:evenodd;stroke:none;stroke-width:1.84727;stroke-linecap:square;paint-order:stroke fill markers"
       d="m 166.82077,233.21152 c -11.87666,0.47344 -23.95128,0.40451 -35.58014,3.14277 -14.97439,4.64538 -30.64304,8.55435 -43.782729,17.46712 -9.585185,6.20747 -16.550487,15.56262 -21.609304,25.66107 -7.156853,13.43793 -11.176454,28.79612 -10.229584,44.05935 2.298462,13.67763 8.424983,26.34844 14.315233,38.78649 2.573965,5.5492 6.108799,11.31768 12.291857,13.28211 21.318987,8.8177 43.734397,15.14065 66.626157,18.12911 11.41633,0.78046 22.36921,-3.56002 32.86414,-7.48027 2.31868,-0.40285 3.35723,-3.03615 1.69346,-4.77684 -1.10489,-1.45918 -3.31081,-0.5592 -4.57923,-1.28871 -1.69973,-4.38832 -0.45203,-9.35452 -1.45195,-13.78256 -15.92163,-2.72878 -31.78404,-6.07798 -47.56318,-9.67429 -10.21871,-2.02095 -20.89211,-3.63156 -31.242197,-1.74564 -1.616347,0.43687 0.522979,-1.3927 0.946012,-1.62377 10.789295,-7.01345 23.709345,-10.50115 36.547945,-11.18414 7.70299,-0.71292 15.58249,-0.93338 22.97341,1.97236 12.80352,4.50919 26.36946,7.40679 38.18135,14.02011 -0.0515,1.84332 1.02288,4.86968 -1.56459,5.48133 -2.09409,1.1126 -6.24578,1.67107 -5.06674,5.00022 0.63989,3.47293 -0.3248,7.494 1.35046,10.68392 2.81747,1.46732 5.63814,-1.56842 7.97358,-2.83532 12.61971,-8.84146 22.7646,-20.90211 29.80295,-34.57941 8.29963,-14.6097 12.60747,-31.8002 9.93697,-48.55957 -2.01414,-13.22191 -6.82916,-26.06497 -13.85151,-37.42653 -10.57272,-12.61137 -26.88868,-18.50927 -42.56511,-21.73135 -5.42109,-0.89265 -10.93384,-1.03346 -16.41726,-0.99756 z m -13.07139,43.423 c -1.23954,1.75861 -1.11217,4.76578 1.39372,5.22932 14.34268,3.63218 29.28839,4.8815 44.05676,4.39643 4.36273,-0.45052 9.23263,-0.75907 12.85956,-3.43896 0.50291,-0.75743 0.7298,-1.3516 0.80091,-0.083 0.0797,3.26915 0.22313,6.80581 -1.10925,9.8496 0.11231,-2.5319 1.56455,-5.47868 0.30357,-7.85544 -2.85907,-0.67358 -5.80313,1.41133 -8.7693,1.53981 -16.49466,1.02311 -33.1705,-0.1126 -49.24376,-4.23812 -1.21376,-0.39947 -4.12998,-0.14201 -2.51166,-2.0852 0.55988,-1.11719 1.46048,-2.75818 2.21945,-3.31439 z m -18.1451,0.23579 c 0.32951,1.03001 0.60339,3.76929 0.35606,3.81173 -1.59648,-3.16835 -5.40488,-0.69644 -7.88729,-0.33955 -2.66074,1.03769 -6.82882,0.37609 -8.30755,3.30837 -0.76649,1.2082 2.00812,3.27948 -0.27955,3.18885 -6.17302,0.98725 -12.44854,1.92738 -18.66933,1.88296 0.40737,-0.63344 2.55881,-0.48382 2.31205,-2.09631 0.92918,-3.503 -3.231514,-2.54486 -5.352198,-2.70097 -6.873526,-0.0846 -13.771158,-0.38012 -20.553829,-0.80052 -1.598856,0.63269 -0.596279,2.64175 -1.400403,3.79264 0.289573,-3.27918 1.057695,-7.18982 3.11678,-9.63099 -1.43426,2.03841 -0.861313,6.02614 2.258591,5.74193 16.633516,0.91253 33.612179,0.41611 49.780659,-3.91005 1.6836,-0.44546 3.17974,-1.4082 4.62601,-2.24809 z m 34.19294,15.15528 c 4.6869,1.49185 9.83961,1.44853 14.49756,2.11731 -4.74025,0.007 -10.20164,-0.0601 -14.49756,-2.11731 z m -63.14797,4.2604 c 2.88675,0.002 5.76835,0.0544 8.66493,0.14415 -4.0879,0.0611 -8.15279,0.30516 -12.18646,0.0439 1.15916,-0.18262 2.39079,-0.169 3.52153,-0.18806 z m 63.58136,2.55642 c 3.87208,0.51186 8.38853,1.20392 11.80081,2.13545 -3.92624,-0.15803 -8.30157,-1.14573 -11.80081,-2.13545 z"
       id="path7006"
       transform="scale(0.26458333)" />
    <path
       style="fill:#ffff00;fill-rule:evenodd;stroke:none;stroke-width:0.461818;stroke-linecap:square;paint-order:stroke fill markers"
       d="m 119.42327,282.03901 c -3.91419,0.39415 -7.80531,0.95082 -11.71698,1.26632 -1.62481,0.1922 -3.21877,0.18651 -4.79991,0.41653 -1.13013,0.37928 -0.52873,1.73673 -0.71418,2.62551 -0.20488,0.75086 -0.26524,1.91211 0.75116,2.03272 5.331,-0.28908 10.67938,-0.87179 15.94963,-1.70958 0.79568,-0.16088 2.10347,0.0619 2.16901,-1.05929 0.1382,-0.63588 -0.77241,-1.22802 -0.23474,-1.83006 0.4624,-0.96698 -0.4171,-1.87199 -1.40399,-1.74215 z"
       id="path7435"
       transform="scale(0.26458333)" />
    <g
       id="g33274">
      <path
         style="fill:#d7eef4;fill-opacity:1;fill-rule:evenodd;stroke:none;stroke-width:0.960212;stroke-linecap:square;paint-order:stroke fill markers"
         id="path2558"
         d="m 49.941601,97.136491 c 0.04358,0.19258 0.0731,0.38758 0.104024,0.582145 0.05491,0.389307 0.08555,0.780997 0.110455,1.172755 0.02029,0.34556 0.03552,0.691351 0.04898,1.037186 0.0077,0.238063 0.01185,0.476163 -5.29e-4,0.714123 -0.007,0.11106 -0.02016,0.22156 -0.03609,0.33178 -0.05749,0.40007 0.556144,0.47503 0.613638,0.075 v 0 c 0.01804,-0.12621 0.03311,-0.25273 0.04076,-0.37989 0.01275,-0.25374 0.0094,-0.5076 7.94e-4,-0.761454 -0.01363,-0.350156 -0.02906,-0.700265 -0.04964,-1.050139 -0.02601,-0.408257 -0.05814,-0.816445 -0.115932,-1.222086 -0.03289,-0.206905 -0.0646,-0.414227 -0.111223,-0.618972 -0.09171,-0.394605 -0.696971,-0.275022 -0.605261,0.119583 z" />
      <path
         style="fill:#d7eef4;fill-opacity:1;fill-rule:evenodd;stroke:none;stroke-width:0.936907;stroke-linecap:square;paint-order:stroke fill markers"
         id="path2562"
         d="m 49.269239,101.51555 c -0.03901,-0.0603 -0.08073,-0.12784 -0.116279,-0.19268 -0.07313,-0.14484 -0.118149,-0.29901 -0.169299,-0.45054 -0.06604,-0.19492 -0.137707,-0.3883 -0.206986,-0.58234 -0.04744,-0.13572 -0.09446,-0.27181 -0.127585,-0.410871 -0.02318,-0.08848 -0.0273,-0.178935 -0.02635,-0.269294 0.0024,-0.06287 0.01045,-0.12531 0.01826,-0.187776 0.04767,-0.381925 -0.567653,-0.441098 -0.61532,-0.05917 v 0 c -0.01008,0.08083 -0.01987,0.161718 -0.02191,0.243098 -7.93e-4,0.129605 0.0074,0.259279 0.03989,0.386179 0.03816,0.155564 0.08824,0.308514 0.14238,0.460354 0.06833,0.19132 0.13897,0.38202 0.204156,0.57419 0.06071,0.17983 0.1154,0.3624 0.205718,0.53306 0.05933,0.10697 0.121399,0.2142 0.203372,0.3094 0.284851,0.29172 0.754833,-0.0619 0.469982,-0.35361 z" />
      <path
         style="fill:#d7eef4;fill-opacity:1;fill-rule:evenodd;stroke:none;stroke-width:1;stroke-linecap:square;paint-order:stroke fill markers"
         id="path2566"
         d="m 48.055892,99.353948 c -0.0055,0.06211 -0.0109,0.123891 -0.02257,0.18519 -0.02141,0.106127 -0.05332,0.209632 -0.08358,0.313447 -0.03615,0.105605 -0.06253,0.215165 -0.105465,0.318315 -0.03052,0.0664 -0.07188,0.12689 -0.117668,0.18358 -0.02588,0.0312 -0.05729,0.0593 -0.0917,0.0782 -0.0092,-0.0108 0.03711,-0.0104 0.02721,-0.0142 0.0028,1.5e-4 0.0055,2.7e-4 0.0083,5.3e-4 -0.424119,-0.10819 -0.57712,0.49161 -0.153001,0.59979 v 0 c 0.01786,0.004 0.03571,0.008 0.05356,0.012 0.127526,0.0169 0.250793,0.002 0.366389,-0.058 0.104468,-0.0623 0.198573,-0.13796 0.274479,-0.23397 0.08193,-0.10454 0.155869,-0.21549 0.207375,-0.33855 0.04786,-0.12262 0.08512,-0.249 0.124791,-0.37446 0.03618,-0.124123 0.07368,-0.248077 0.0982,-0.375194 0.01304,-0.07288 0.02281,-0.146005 0.02791,-0.219879 0.05429,-0.434321 -0.55993,-0.511098 -0.61422,-0.07678 z" />
      <path
         style="fill:#d7eef4;fill-opacity:1;fill-rule:evenodd;stroke:none;stroke-width:1;stroke-linecap:square;paint-order:stroke fill markers"
         id="path2568"
         d="m 47.657085,100.49823 c -0.02845,-0.0452 -0.05063,-0.0937 -0.07278,-0.14223 -0.03997,-0.098 -0.06267,-0.20224 -0.08604,-0.30522 -0.03286,-0.146633 -0.05305,-0.295596 -0.0712,-0.444631 -0.01839,-0.1515 -0.0292,-0.303726 -0.03832,-0.456017 -0.009,-0.152369 -0.01474,-0.304903 -0.01984,-0.457446 -0.0041,-0.128673 -0.0073,-0.257374 -0.01008,-0.386083 -0.0047,-0.0976 -0.0013,-0.194995 0.0065,-0.292296 0.0094,-0.107847 0.01651,-0.215865 0.0226,-0.323942 0.0029,-0.08708 0.01455,-0.173665 0.02961,-0.259403 0.01267,-0.07758 0.02875,-0.1544 0.04542,-0.23119 0.0024,-0.009 0.0046,-0.01807 0.0069,-0.02711 0.105577,-0.424776 -0.495146,-0.574083 -0.600723,-0.149307 v 0 c -0.0037,0.01505 -0.0074,0.03009 -0.01109,0.04513 -0.01857,0.08563 -0.03627,0.171376 -0.0506,0.257847 -0.01839,0.10894 -0.03368,0.218684 -0.03754,0.329229 -0.0058,0.103571 -0.01267,0.207082 -0.0217,0.310431 -0.0092,0.117864 -0.01336,0.235915 -0.0082,0.354118 0.0029,0.131114 0.0061,0.262221 0.01029,0.393298 0.0053,0.158001 0.01122,0.315992 0.02061,0.473813 0.0099,0.16497 0.0218,0.329859 0.04177,0.493966 0.02082,0.170106 0.04439,0.340063 0.08217,0.507373 0.03309,0.14422 0.06684,0.28954 0.126825,0.42541 0.04501,0.0979 0.0925,0.19572 0.159935,0.28053 0.28021,0.33625 0.755738,-0.06 0.475531,-0.39627 z" />
    </g>
    <path
       style="fill:#000000;fill-rule:evenodd;stroke:none;stroke-width:1;stroke-linecap:square;paint-order:stroke fill markers"
       id="path2524"
       d="m 32.920609,62.797168 c -0.697138,0.05833 -1.368211,0.288197 -2.031106,0.498245 -1.306925,0.41144 -2.590842,0.891357 -3.861157,1.40367 -1.278589,0.507309 -2.50009,1.139245 -3.671741,1.857163 -0.996354,0.640922 -1.952755,1.355355 -2.796244,2.190367 -0.174258,0.172505 -0.338161,0.355168 -0.507241,0.532754 -0.964266,1.094174 -1.755535,2.322248 -2.487125,3.579461 -0.618608,1.108635 -1.150877,2.26197 -1.638251,3.433323 -0.381342,0.919937 -0.676943,1.870263 -0.931559,2.831893 -0.204362,0.795438 -0.34974,1.603907 -0.47353,2.415233 -0.114882,0.757309 -0.182181,1.520164 -0.238061,2.283691 -0.05441,0.87014 0.04155,1.737367 0.174662,2.595763 0.163094,0.941486 0.465056,1.848631 0.771134,2.750974 0.322172,0.917442 0.677143,1.822582 1.048991,2.720869 0.386838,0.910822 0.792015,1.813634 1.203992,2.713315 0.404412,0.869127 0.819056,1.733222 1.27304,2.57764 0.421055,0.783814 0.996885,1.505032 1.762488,1.979414 0.256114,0.158691 0.531607,0.283731 0.797411,0.425598 2.017946,0.886209 4.102508,1.613599 6.192218,2.310179 1.974054,0.6528 3.989369,1.16479 6.015797,1.62436 1.583711,0.35167 3.182186,0.63039 4.783574,0.88737 0.862251,0.10765 1.728997,0.21432 2.599587,0.16338 0.672399,-0.0393 0.821068,-0.0838 1.504799,-0.19733 1.863781,-0.40185 3.671411,-1.02637 5.454592,-1.69321 1.593405,-0.62671 3.134571,-1.4027 4.576135,-2.32859 0.300768,-0.19318 0.591915,-0.400939 0.887873,-0.601409 1.162775,-0.839387 2.277105,-1.753565 3.283506,-2.777304 0.639138,-0.650148 0.853278,-0.928807 1.441614,-1.623105 1.454806,-1.758429 2.563333,-3.764677 3.622997,-5.776167 0.872504,-1.749361 1.53419,-3.609136 1.941322,-5.522637 0.07993,-0.375671 0.13643,-0.755946 0.204648,-1.133919 0.247554,-1.783845 0.225446,-3.601911 -0.02709,-5.384448 -0.04735,-0.334235 -0.112998,-0.665623 -0.169497,-0.998435 -0.3565,-1.805519 -0.963089,-3.544212 -1.628831,-5.255117 -0.521694,-1.332079 -1.163574,-2.6085 -1.95789,-3.797786 -0.75439,-1.050899 -1.79927,-1.813547 -2.852658,-2.537619 -0.958776,-0.657889 -1.992505,-1.185587 -3.046383,-1.670582 -1.011603,-0.44487 -2.068232,-0.770517 -3.128997,-1.073843 -0.883589,-0.250391 -1.774121,-0.471437 -2.676001,-0.644581 -0.819121,-0.144306 -1.648579,-0.216066 -2.478728,-0.254267 -0.724889,-0.01442 -1.449909,0.0046 -2.174687,0.01736 -0.662599,0.01474 -1.323607,0.05861 -1.984483,0.105791 -0.663829,0.04811 -1.328825,0.07678 -1.993882,0.101002 -0.746469,0.02854 -1.491321,0.07607 -2.23484,0.147624 -0.650812,0.04427 -1.292177,0.153591 -1.930794,0.281744 -0.545468,0.110022 -1.080537,0.262427 -1.615988,0.412155 -0.417851,0.12782 -0.839443,0.240287 -1.267529,0.327821 -0.428786,0.08788 -0.304506,0.694278 0.12428,0.606396 v 0 c 0.442249,-0.09083 0.878245,-0.205756 1.309947,-0.338087 0.520634,-0.145587 1.04077,-0.294233 1.571114,-0.401391 0.617961,-0.124085 1.238409,-0.230373 1.868295,-0.272487 0.731279,-0.07044 1.463865,-0.117089 2.198055,-0.145185 0.672243,-0.0245 1.344419,-0.05353 2.015421,-0.102163 0.649825,-0.04639 1.299758,-0.08976 1.951276,-0.104315 0.711739,-0.01252 1.423696,-0.0311 2.135552,-0.01791 0.800534,0.03633 1.600388,0.105664 2.3904,0.243835 0.88392,0.169343 1.756457,0.386701 2.622446,0.631817 1.030507,0.294534 2.05725,0.609933 3.040431,1.041027 1.021976,0.470034 2.024803,0.980601 2.95458,1.618435 0.988934,0.679058 1.975491,1.389282 2.688712,2.371648 0.771239,1.150461 1.388864,2.388904 1.895504,3.678076 0.650857,1.671865 1.244986,3.370493 1.595456,5.134485 0.05491,0.321601 0.118724,0.641808 0.164719,0.964804 0.245314,1.722696 0.269566,3.480051 0.03288,5.204571 -0.06557,0.365477 -0.119687,0.733194 -0.196696,1.096433 -0.395264,1.864349 -1.038609,3.676713 -1.887733,5.381284 -1.038376,1.971852 -2.123083,3.939844 -3.547695,5.664599 -0.567539,0.670602 -0.782558,0.949801 -1.398503,1.57716 -0.981093,0.99927 -2.067888,1.891321 -3.201569,2.710908 -0.287335,0.194931 -0.569958,0.397004 -0.86201,0.584798 -1.40842,0.905624 -2.914452,1.664794 -4.47153,2.277794 -1.745991,0.65323 -3.515696,1.26516 -5.339781,1.66245 -0.649579,0.1093 -0.779746,0.14982 -1.4175,0.18904 -0.832736,0.0512 -1.661835,-0.0547 -2.486766,-0.15573 -1.588383,-0.25486 -3.173891,-0.53118 -4.744759,-0.87987 -2.006595,-0.45493 -4.00221,-0.96167 -5.956962,-1.60792 -2.057654,-0.68572 -4.109582,-1.402714 -6.098664,-2.270188 -0.239149,-0.125055 -0.48676,-0.235114 -0.717447,-0.375163 -0.692929,-0.420677 -1.209335,-1.070398 -1.58658,-1.775812 -0.448028,-0.83262 -0.856245,-1.68516 -1.255392,-2.542151 -0.408833,-0.892747 -0.810885,-1.788612 -1.194865,-2.692374 -0.366765,-0.885769 -0.71679,-1.77833 -1.034724,-2.682938 -0.294659,-0.86855 -0.586979,-1.741215 -0.745662,-2.647148 -0.126393,-0.811988 -0.219176,-1.632307 -0.168973,-2.45558 0.05464,-0.747418 0.120248,-1.494194 0.232635,-2.235533 0.120316,-0.78945 0.261482,-1.576149 0.460008,-2.350198 0.247187,-0.934681 0.534203,-1.858362 0.904686,-2.752516 0.476611,-1.146194 0.997291,-2.274681 1.601786,-3.35982 0.706952,-1.215898 1.470962,-2.403983 2.400687,-3.464203 0.95007,-1.000992 2.000693,-1.895816 3.178498,-2.621957 1.141669,-0.700984 2.333359,-1.315709 3.57965,-1.810755 1.255657,-0.506558 2.524829,-0.980932 3.81671,-1.387687 0.603231,-0.191431 1.211993,-0.399351 1.844003,-0.469289 0.4377,0 0.4377,-0.619 0,-0.619 z" />
    <path
       style="fill:#000000;fill-rule:evenodd;stroke:none;stroke-width:1;stroke-linecap:square;paint-order:stroke fill markers"
       id="path2526"
       d="m 33.45539,62.538532 c -0.08144,0.0029 -0.161989,0.01778 -0.241866,0.03301 -0.128045,0.02479 -0.253418,0.0602 -0.37733,0.100521 -0.120838,0.04117 -0.240343,0.08607 -0.360532,0.129074 -0.106146,0.03708 -0.210707,0.07848 -0.316699,0.115978 -0.07452,0.02806 -0.150611,0.05148 -0.226131,0.07659 -0.05973,0.02 -0.11911,0.04103 -0.17884,0.06105 -0.41498,0.139187 -0.218141,0.726057 0.19684,0.58687 v 0 c 0.05932,-0.01992 0.11834,-0.04071 0.177651,-0.06065 0.07922,-0.02646 0.159084,-0.05098 0.237279,-0.08042 0.106526,-0.03782 0.211778,-0.0791 0.318426,-0.116594 0.11484,-0.04109 0.229068,-0.08389 0.344413,-0.123555 0.09924,-0.03267 0.199718,-0.06103 0.30235,-0.0811 0.03458,-0.0068 0.06919,-0.0127 0.10405,-0.01788 0.0062,-0.0011 0.01252,-0.0019 0.01876,-0.0027 0.0034,-5.29e-4 0.0076,0.0011 0.01035,-0.0011 0.0024,-0.0019 -0.0058,-6.6e-5 -0.0087,-9.8e-5 0.4377,0 0.4377,-0.619001 0,-0.619001 z" />
    <path
       style="fill:#000000;fill-rule:evenodd;stroke:none;stroke-width:1;stroke-linecap:square;paint-order:stroke fill markers"
       id="path2534"
       d="m 35.695368,73.142114 c -0.241961,0.13734 -0.500173,0.246015 -0.755935,0.354746 -0.886032,0.360886 -1.837222,0.507214 -2.77554,0.662749 -1.119474,0.182877 -2.247136,0.307144 -3.375652,0.417835 -0.909905,0.08677 -1.822249,0.139346 -2.735248,0.178719 -0.750256,0.02432 -1.500959,0.03588 -2.251599,0.03699 -0.559312,0.0016 -1.118774,-0.0021 -1.675833,-0.05574 -0.366369,-0.04388 -0.724795,-0.13203 -1.077464,-0.238265 -0.05146,-0.01601 -0.102921,-0.03199 -0.154381,-0.04798 -0.41799,-0.129868 -0.601649,0.461259 -0.183659,0.591127 v 0 c 0.0533,0.01656 0.106597,0.03311 0.159895,0.04966 0.391673,0.117443 0.789802,0.214567 1.196755,0.261652 0.577023,0.05464 1.156279,0.06107 1.735624,0.05854 0.759222,-0.0011 1.51851,-0.01278 2.277341,-0.03757 0.924269,-0.03988 1.847876,-0.09321 2.769007,-0.181102 1.14218,-0.112083 2.283484,-0.238022 3.416496,-0.42322 0.986859,-0.163782 1.986124,-0.321355 2.91687,-0.703931 0.290526,-0.124016 0.584988,-0.246896 0.856681,-0.409184 0.364188,-0.242792 0.02082,-0.75783 -0.343358,-0.515038 z" />
    <path
       style="fill:#000000;fill-rule:evenodd;stroke:none;stroke-width:1;stroke-linecap:square;paint-order:stroke fill markers"
       id="path2536"
       d="m 40.268376,74.732077 c 0.280408,0.09825 0.579602,0.17303 0.869106,0.251042 0.836843,0.228283 1.687283,0.398487 2.543014,0.537203 1.239763,0.194262 2.485527,0.34491 3.733527,0.474395 1.179388,0.129783 2.365344,0.170619 3.550939,0.18206 0.848299,0.01045 1.695315,-0.02305 2.538373,-0.116682 0.565695,-0.08792 1.121608,-0.229647 1.672367,-0.384005 0.33972,-0.102471 0.675254,-0.218671 1.001649,-0.357868 0.402315,-0.172405 0.158499,-0.741365 -0.243816,-0.56896 v 0 c -0.300971,0.129707 -0.611785,0.234789 -0.925026,0.330835 -0.518419,0.145574 -1.041675,0.279014 -1.57368,0.3648 -0.81829,0.09138 -1.640515,0.122769 -2.463919,0.112908 -1.166252,-0.01117 -2.332874,-0.05102 -3.493019,-0.178784 -1.236289,-0.128209 -2.470356,-0.277418 -3.698497,-0.469747 -0.834882,-0.134911 -1.664464,-0.301313 -2.480886,-0.523846 -0.318802,-0.08587 -0.635908,-0.177646 -0.953355,-0.267573 -0.434319,-0.05429 -0.511096,0.559933 -0.07678,0.614222 z" />
    <path
       style="fill:#000000;fill-rule:evenodd;stroke:none;stroke-width:1;stroke-linecap:square;paint-order:stroke fill markers"
       id="path2538"
       d="m 48.91183,77.539174 c -0.271217,-0.04452 -0.547611,-0.04996 -0.82177,-0.06063 -0.561308,-0.01696 -1.121471,-0.05427 -1.678911,-0.122179 -0.552257,-0.06225 -1.071361,-0.256347 -1.586627,-0.453065 -0.408929,-0.15607 -0.629644,0.422246 -0.220715,0.578313 v 0 c 0.562356,0.214559 1.130366,0.421606 1.732838,0.489252 0.574278,0.06932 1.151168,0.109085 1.729399,0.126214 0.241538,0.0093 0.484939,0.014 0.724389,0.04907 0.4292,0.08584 0.550596,-0.521142 0.121397,-0.606981 z" />
    <path
       style="fill:#000000;fill-rule:evenodd;stroke:none;stroke-width:1;stroke-linecap:square;paint-order:stroke fill markers"
       id="path2540"
       d="m 48.235343,79.348205 c -0.234529,-0.02551 -0.465765,-0.07216 -0.697921,-0.113075 -0.408995,-0.07352 -0.817374,-0.150564 -1.22487,-0.231987 -0.316844,-0.06641 -0.636185,-0.119473 -0.953868,-0.181504 -0.160104,-0.03202 -0.320815,-0.06076 -0.481785,-0.08804 -0.431556,-0.07308 -0.5349,0.537236 -0.103343,0.610314 v 0 c 0.155874,0.02638 0.311483,0.05425 0.466516,0.08526 0.316809,0.06185 0.635248,0.114842 0.951232,0.180985 0.412113,0.08229 0.825093,0.160293 1.238721,0.234588 0.24733,0.04356 0.493805,0.09267 0.743726,0.11939 0.435525,0.04355 0.49712,-0.572375 0.06159,-0.615928 z" />
    <path
       style="fill:#000000;fill-rule:evenodd;stroke:none;stroke-width:1;stroke-linecap:square;paint-order:stroke fill markers"
       id="path2542"
       d="m 31.852086,75.534884 c -0.365373,0.03148 -0.727858,0.09301 -1.090088,0.149379 -0.53313,0.08595 -1.069536,0.14855 -1.606495,0.20466 -0.440555,0.0451 -0.881927,0.08133 -1.323649,0.112678 -0.338042,0.02363 -0.676447,0.04128 -1.014931,0.05709 -0.04742,0.0021 -0.09485,0.0042 -0.142275,0.0063 -0.437273,0.01929 -0.410003,0.637683 0.02727,0.6184 v 0 c 0.04797,-0.0021 0.09593,-0.0042 0.143894,-0.0063 0.343468,-0.01606 0.686858,-0.03398 1.029877,-0.05797 0.448572,-0.03186 0.896787,-0.06865 1.344171,-0.114477 0.547269,-0.05723 1.093967,-0.12111 1.637342,-0.208672 0.330964,-0.05153 0.661982,-0.10446 0.994883,-0.142012 0.437701,0 0.437701,-0.619001 0,-0.619001 z" />
    <path
       style="fill:#000000;fill-rule:evenodd;stroke:none;stroke-width:1;stroke-linecap:square;paint-order:stroke fill markers"
       id="path2544"
       d="m 31.102456,78.126682 c -0.224735,0.01804 -0.450509,0.02016 -0.675823,0.02511 -0.37569,0.0076 -0.75143,0.01241 -1.127172,0.0168 -0.347719,0.0082 -0.6954,-7.94e-4 -1.043017,-0.0088 -0.297315,-0.0071 -0.594654,-0.01315 -0.892003,-0.0186 -0.04254,-7.94e-4 -0.08508,-0.0013 -0.127617,-0.0021 -0.437636,-0.0074 -0.448066,0.611537 -0.01042,0.618911 v 0 c 0.04225,7.93e-4 0.08449,0.0013 0.126735,0.0021 0.296336,0.0054 0.592659,0.01146 0.888958,0.01852 0.354817,0.0082 0.7097,0.01712 1.064617,0.0089 0.377865,-0.0044 0.755729,-0.0092 1.133544,-0.01691 0.246385,-0.0054 0.493416,-0.0074 0.738984,-0.02974 0.434321,-0.05429 0.357542,-0.66851 -0.07678,-0.61422 z" />
    <path
       style="fill:#000000;fill-rule:evenodd;stroke:none;stroke-width:1;stroke-linecap:square;paint-order:stroke fill markers"
       id="path2546"
       d="m 26.167731,93.946577 c 0.252544,-0.131726 0.498607,-0.275948 0.745722,-0.417592 0.610357,-0.356902 1.234644,-0.68847 1.871658,-0.995027 0.81499,-0.383667 1.674029,-0.658997 2.534031,-0.920998 0.897122,-0.28211 1.825638,-0.424141 2.75595,-0.540621 1.027985,-0.118748 2.059617,-0.202631 3.091455,-0.279463 0.640974,-0.02747 1.2841,-0.109324 1.92669,-0.0955 0.104831,0.0024 0.209254,0.01378 0.313878,0.02069 0.958379,0.148791 1.880722,0.46736 2.799625,0.768183 1.357286,0.456814 2.729619,0.866717 4.095941,1.295305 1.064606,0.334931 2.131877,0.663035 3.177513,1.054103 0.64081,0.244263 1.264587,0.530844 1.868586,0.855173 0.227721,0.130998 0.449339,0.272047 0.670761,0.413282 0.369051,0.235336 0.701865,-0.286579 0.332816,-0.521915 v 0 c -0.234555,-0.149532 -0.469299,-0.298921 -0.710975,-0.436845 -0.628758,-0.336953 -1.277461,-0.635837 -1.944473,-0.889519 -1.056182,-0.39452 -2.133595,-0.72716 -3.208962,-1.064906 -1.363887,-0.427818 -2.733781,-0.836969 -4.088648,-1.292965 -0.968447,-0.316945 -1.941251,-0.653085 -2.953581,-0.79769 -0.121867,-0.0072 -0.243544,-0.01923 -0.365599,-0.02175 -0.653573,-0.01349 -1.307618,0.06871 -1.959543,0.09708 -1.042199,0.07763 -2.084192,0.162404 -3.122481,0.282562 -0.965311,0.121155 -1.928526,0.270097 -2.859405,0.5627 -0.890148,0.271364 -1.778918,0.557487 -2.622155,0.955413 -0.650179,0.313327 -1.287862,0.651208 -1.91094,1.015709 -0.246867,0.141544 -0.492658,0.285548 -0.744974,0.417165 -0.38003,0.21716 -0.07292,0.754603 0.30711,0.537443 z" />
    <path
       style="fill:#d7eef4;fill-opacity:1;fill-rule:evenodd;stroke:none;stroke-width:1;stroke-linecap:square;paint-order:stroke fill markers"
       id="path61047"
       d="m 52.139013,96.571971 c -5.29e-4,-1.27e-4 -0.0054,-0.0021 -0.005,-0.0013 0.0047,0.01378 0.01453,0.02529 0.02167,0.03804 0.0092,0.0164 0.01844,0.03275 0.02767,0.04912 0.01148,0.02058 0.02294,0.04115 0.03443,0.06173 0.0508,0.08923 0.08975,0.184211 0.127003,0.279646 0.159628,0.407554 0.735994,0.181806 0.576365,-0.225747 v 0 c -0.0477,-0.121447 -0.09832,-0.241946 -0.162877,-0.355611 -0.07402,-0.132511 -0.146942,-0.273267 -0.275852,-0.361008 -0.364189,-0.242792 -0.707549,0.272248 -0.343361,0.51504 z" />
    <path
       style="fill:#000000;fill-rule:evenodd;stroke:none;stroke-width:1;stroke-linecap:square;paint-order:stroke fill markers"
       id="path2548"
       d="m 51.934543,95.198738 c -5.29e-4,0.135457 0.0021,0.270928 -0.0029,0.406308 -0.01294,0.04806 -0.0032,0.11612 -0.03957,0.156138 -0.0052,0.0058 -0.015,0.0045 -0.02201,0.0079 -0.01947,0.0094 -0.03835,0.01995 -0.05734,0.03028 -0.04387,0.02384 -0.08749,0.04813 -0.131233,0.0722 -0.395407,0.210376 -0.814541,0.363723 -1.241359,0.49566 -0.491638,0.143883 -0.991227,0.260567 -1.49969,0.324009 -0.617945,0.051 -1.237028,-0.04797 -1.849337,-0.122759 -0.763495,-0.103746 -1.521844,-0.242247 -2.281714,-0.369377 -0.964112,-0.141925 -1.921991,-0.320167 -2.877238,-0.512072 -0.859515,-0.175934 -1.719651,-0.348607 -2.577319,-0.533357 -0.84646,-0.177745 -1.683668,-0.395455 -2.52435,-0.597967 -0.980551,-0.228033 -1.96668,-0.431106 -2.951665,-0.638849 -0.830382,-0.170215 -1.666957,-0.308102 -2.507319,-0.418169 -0.652423,-0.07963 -1.308401,-0.12038 -1.964605,-0.151797 -0.452856,-0.02537 -0.906121,-0.0326 -1.359514,-0.02384 -0.321747,0.0062 -0.643311,0.01587 -0.964044,0.04284 -0.245583,0.0181 -0.487796,0.05886 -0.726566,0.117959 -0.165281,0.04177 -0.328173,0.09194 -0.493799,0.13244 -0.42511,0.104222 -0.277717,0.705419 0.147393,0.601197 v 0 c 0.166169,-0.04084 0.329887,-0.09024 0.495559,-0.132874 0.206893,-0.05154 0.416779,-0.08653 0.629716,-0.101934 0.3073,-0.0263 0.615503,-0.03431 0.923785,-0.04075 0.439512,-0.0086 0.87889,-0.0013 1.317884,0.02323 0.639249,0.03057 1.278292,0.06997 1.91389,0.147272 0.824484,0.107747 1.645177,0.24334 2.459876,0.410075 0.979231,0.206529 1.959597,0.408409 2.934454,0.634963 0.845543,0.203661 1.68759,0.422603 2.538958,0.6013 0.86048,0.185346 1.72343,0.358619 2.585765,0.535112 0.961818,0.193175 1.926267,0.372758 2.896997,0.51571 0.768876,0.128638 1.536208,0.26882 2.308823,0.373298 0.663035,0.08095 1.333211,0.185031 2.00216,0.122415 0.543967,-0.06982 1.079259,-0.191021 1.60514,-0.346845 0.470156,-0.146055 0.931965,-0.316211 1.366565,-0.550241 0.369937,-0.218564 0.524107,-0.344379 0.560347,-0.781685 0.0047,-0.14256 0.0032,-0.285146 0.0033,-0.427773 0,-0.437697 -0.619001,-0.437697 -0.619001,0 z" />
    <path
       style="fill:#000000;fill-rule:evenodd;stroke:none;stroke-width:1;stroke-linecap:square;paint-order:stroke fill markers"
       id="path2550"
       d="m 31.448555,91.930552 c 0.657883,0 1.315767,0 1.973651,0 1.019786,-0.0016 2.039538,-0.0024 3.059194,0.01548 0.763855,0.01995 1.52753,0.05427 2.289583,0.110747 0.549735,0.03868 1.09747,0.100846 1.643803,0.172275 0.510614,0.06426 1.021334,0.127495 1.531522,0.195043 0.473536,0.05989 0.944131,0.138526 1.414214,0.220568 0.456237,0.08049 0.908817,0.17971 1.361257,0.278923 0.441119,0.09772 0.884873,0.182756 1.326936,0.275971 0.251394,0.05293 0.127146,0.02701 0.37274,0.0778 0.428627,0.08865 0.553992,-0.517528 0.125365,-0.606174 v 0 c -0.243372,-0.05033 -0.119902,-0.02458 -0.370404,-0.07731 -0.440438,-0.09285 -0.882544,-0.177634 -1.322054,-0.274921 -0.461121,-0.101108 -0.922411,-0.20211 -1.387414,-0.28407 -0.478449,-0.0835 -0.957445,-0.163396 -1.439394,-0.22443 -0.510535,-0.0676 -1.021601,-0.1309 -1.532565,-0.195181 -0.55781,-0.07285 -1.117039,-0.136313 -1.678313,-0.175805 -0.773657,-0.0572 -1.548934,-0.09228 -2.324422,-0.112339 -1.023276,-0.01791 -2.046642,-0.01728 -3.070048,-0.01558 -0.657884,0 -1.315768,0 -1.973651,0 -0.437701,0 -0.437701,0.619001 0,0.619001 z" />
    <path
       style="fill:#000000;fill-rule:evenodd;stroke:none;stroke-width:1;stroke-linecap:square;paint-order:stroke fill markers"
       id="path2903"
       d="m 20.56519,73.210192 c -0.07359,0.129899 -0.137293,0.265014 -0.201215,0.399904 -0.123181,0.272791 -0.224583,0.554686 -0.318237,0.83875 -0.07695,0.235173 -0.135051,0.475756 -0.186457,0.717601 -0.03974,0.184533 -0.06438,0.371718 -0.09516,0.557797 -0.0094,0.05977 -0.02041,0.119216 -0.03365,0.178244 -0.09414,0.427456 0.510369,0.560597 0.604513,0.133141 v 0 c 0.0152,-0.06991 0.02904,-0.140067 0.03992,-0.210812 0.02899,-0.176771 0.05265,-0.354494 0.08989,-0.529846 0.04659,-0.219867 0.09908,-0.43864 0.168873,-0.652466 0.08549,-0.259789 0.177927,-0.517625 0.289722,-0.767418 0.06202,-0.130993 0.123975,-0.261948 0.195454,-0.38807 0.195745,-0.391491 -0.357906,-0.668316 -0.553651,-0.276825 z" />
    <path
       style="fill:#000000;fill-rule:evenodd;stroke:none;stroke-width:1;stroke-linecap:square;paint-order:stroke fill markers"
       id="path2905"
       d="m 35.561539,73.370174 c 0.03415,0.11941 0.05055,0.243348 0.07155,0.365551 0.0445,0.243007 0.09128,0.485738 0.122338,0.730901 0.02209,0.152914 0.02551,0.306801 0.01606,0.460703 -0.02495,0.436986 0.59305,0.472263 0.617992,0.03527 v 0 c 0.01034,-0.191919 0.0074,-0.3839 -0.02006,-0.574562 -0.03277,-0.253878 -0.07945,-0.505568 -0.126281,-0.757181 -0.02757,-0.160401 -0.0491,-0.323483 -0.102018,-0.478034 -0.153685,-0.409829 -0.733274,-0.192484 -0.579588,0.217347 z" />
    <path
       style="fill:#000000;fill-rule:evenodd;stroke:none;stroke-width:1;stroke-linecap:square;paint-order:stroke fill markers"
       id="path2907"
       d="m 40.469259,72.948807 c -0.113848,0.15906 -0.229333,0.31687 -0.340749,0.477679 -0.165005,0.238477 -0.297432,0.496533 -0.419849,0.75874 -0.01802,0.03908 -0.03605,0.07817 -0.05407,0.117248 -0.183298,0.39747 0.378809,0.656693 0.562107,0.259222 v 0 c 0.01767,-0.03831 0.03533,-0.07662 0.053,-0.114927 0.107349,-0.23065 0.222877,-0.45802 0.367707,-0.667874 0.108622,-0.156938 0.221417,-0.310814 0.332468,-0.466011 0.257442,-0.353983 -0.243168,-0.71806 -0.50061,-0.364077 z" />
    <path
       style="fill:#000000;fill-rule:evenodd;stroke:none;stroke-width:1;stroke-linecap:square;paint-order:stroke fill markers"
       id="path2909"
       d="m 55.926645,74.450233 c 0.006,0.203565 0.03479,0.405934 0.05375,0.608647 0.03723,0.317262 0.02952,0.635236 0.0065,0.952908 -0.01937,0.278564 -0.06492,0.553804 -0.121346,0.826952 -0.03447,0.160182 -0.08207,0.317177 -0.140202,0.470234 -0.153392,0.409942 0.426352,0.626872 0.579744,0.216929 v 0 c 0.06792,-0.18355 0.126688,-0.370515 0.166748,-0.562361 0.0615,-0.299681 0.111276,-0.601644 0.132451,-0.907188 0.02524,-0.351724 0.03278,-0.703953 -0.0075,-1.055182 -0.0172,-0.183531 -0.04242,-0.3669 -0.05105,-0.550939 0,-0.4377 -0.619,-0.4377 -0.619,0 z" />
    <path
       style="fill:#000000;fill-rule:evenodd;stroke:none;stroke-width:1;stroke-linecap:square;paint-order:stroke fill markers"
       id="path8620"
       d="m 46.209209,93.239467 c 0.112458,0.07076 0.246036,0.08218 0.374933,0.09637 0.157784,0.01363 0.315648,0.0249 0.472987,0.04318 0.170173,0.02294 0.34017,0.04719 0.510223,0.07103 0.161309,0.02471 0.322368,0.0511 0.48315,0.07903 0.150162,0.02701 0.300421,0.05346 0.450329,0.08188 0.126386,0.02273 0.252656,0.04608 0.378415,0.07207 0.09395,0.02103 0.188074,0.04147 0.281175,0.06605 0.04926,0.01326 0.02617,0.0066 0.06933,0.01976 0.419126,0.126148 0.597527,-0.466587 0.1784,-0.592735 v 0 c -0.06205,-0.01849 -0.03185,-0.01 -0.09055,-0.02574 -0.103769,-0.02713 -0.208457,-0.05051 -0.313197,-0.07356 -0.129069,-0.02663 -0.25862,-0.05078 -0.388337,-0.07403 -0.153019,-0.02898 -0.306385,-0.05604 -0.459669,-0.08358 -0.167428,-0.02906 -0.335129,-0.05659 -0.503126,-0.08216 -0.174927,-0.02453 -0.349785,-0.04955 -0.52487,-0.0729 -0.158777,-0.01834 -0.317995,-0.03061 -0.477274,-0.04366 -0.02008,-0.0021 -0.04015,-0.0043 -0.06023,-0.0065 -0.01556,-0.0019 -0.03106,-0.0042 -0.04664,-0.0059 -0.0049,-5.29e-4 -0.0099,-5.29e-4 -0.01482,-7.94e-4 -0.0016,-7.6e-5 -0.0051,-0.0016 -0.0046,-1.95e-4 0.0037,0.01027 0.03916,-0.0049 0.0277,0.01733 -0.364188,-0.242792 -0.707549,0.272246 -0.34336,0.515038 z" />
    <path
       style="fill:#000000;fill-rule:evenodd;stroke:none;stroke-width:1;stroke-linecap:square;paint-order:stroke fill markers"
       id="path11140"
       d="m 32.002388,91.145544 c -0.1001,0.02487 -0.20217,0.04016 -0.303993,0.05596 -0.151841,0.02193 -0.303895,0.04239 -0.455882,0.06332 -0.145259,0.01802 -0.289444,0.04293 -0.432102,0.07557 -0.119864,0.03068 -0.239252,0.06319 -0.359243,0.09337 -0.09235,0.02262 -0.185192,0.04322 -0.278794,0.05993 -0.0961,0.01516 -0.192482,0.02847 -0.28842,0.04467 -0.09018,0.01548 -0.179906,0.03343 -0.268941,0.05449 -0.07976,0.01828 -0.158887,0.03899 -0.238101,0.05945 -0.04356,0.01228 -0.08689,0.02535 -0.130559,0.03725 -0.42219,0.11548 -0.258879,0.712549 0.163312,0.597069 v 0 c 0.04083,-0.01119 0.0815,-0.02294 0.122086,-0.035 0.07547,-0.0195 0.150842,-0.0393 0.226846,-0.05666 0.07575,-0.01826 0.152318,-0.03292 0.229063,-0.04636 0.09787,-0.01677 0.196379,-0.02953 0.294347,-0.04571 0.107484,-0.01945 0.214235,-0.04265 0.320278,-0.06888 0.116062,-0.02923 0.231637,-0.06032 0.347445,-0.09052 0.124381,-0.0291 0.250508,-0.04943 0.377214,-0.06548 0.155535,-0.02143 0.311147,-0.04231 0.466521,-0.06487 0.124643,-0.01939 0.249534,-0.03878 0.371793,-0.07042 0.422275,-0.115168 0.259405,-0.712356 -0.16287,-0.597191 z" />
    <path
       style="fill:#d7eef4;fill-opacity:1;fill-rule:evenodd;stroke:none;stroke-width:1;stroke-linecap:square;paint-order:stroke fill markers"
       id="path28252"
       d="m 49.125729,97.733412 c 0.0019,0.153295 0.0058,0.306565 0.0097,0.459822 0.007,0.263703 0.01757,0.527281 0.02946,0.790798 0.0083,0.218363 0.02598,0.436091 0.04661,0.653573 0.01812,0.184611 0.03545,0.369295 0.05187,0.554065 0.01093,0.11976 0.02331,0.23939 0.03805,0.35874 0.0047,0.0389 0.01064,0.0776 0.01675,0.11623 0.06884,0.43226 0.680138,0.33491 0.611298,-0.0974 v 0 c -0.0051,-0.0316 -0.0099,-0.0632 -0.01373,-0.0949 -0.01397,-0.11227 -0.02543,-0.22484 -0.03579,-0.33749 -0.01654,-0.185994 -0.03397,-0.371903 -0.05221,-0.557739 -0.01969,-0.207317 -0.03663,-0.414853 -0.04447,-0.623019 -0.01172,-0.259493 -0.02217,-0.519044 -0.02904,-0.778717 -0.0038,-0.147973 -0.0077,-0.295957 -0.0096,-0.443963 0,-0.4377 -0.619001,-0.4377 -0.619001,0 z" />
    <path
       style="fill:#d7eef4;fill-opacity:1;fill-rule:evenodd;stroke:none;stroke-width:1;stroke-linecap:square;paint-order:stroke fill markers"
       id="path28254"
       d="m 47.653813,97.870355 c 5.29e-4,-0.004 0.0026,-0.01601 0.0019,-0.01201 -0.0075,0.03919 -0.0136,0.07864 -0.0217,0.117727 -0.0094,0.04564 -0.01876,0.08303 -0.02968,0.128883 -0.04035,0.160412 -0.07472,0.32216 -0.103473,0.485029 -0.01408,0.08035 -0.02553,0.161097 -0.03647,0.241914 -0.0587,0.433747 0.554713,0.516758 0.61341,0.08301 v 0 c 0.0098,-0.07272 0.02003,-0.145389 0.0327,-0.217684 0.02646,-0.150945 0.05876,-0.300709 0.09611,-0.449344 0.02275,-0.09613 0.04396,-0.192532 0.06012,-0.289978 0.0619,-0.4333 -0.550881,-0.520841 -0.61278,-0.08754 z" />
    <path
       style="fill:#d7eef4;fill-opacity:1;fill-rule:evenodd;stroke:none;stroke-width:1;stroke-linecap:square;paint-order:stroke fill markers"
       id="path28256"
       d="m 53.442512,102.46545 c 0.174903,-0.01 0.350163,-0.0116 0.525254,-0.0164 0.209089,-0.006 0.419478,-0.0176 0.627604,0.0117 0.11343,0.016 0.184304,0.0396 0.294939,0.0702 0.204891,0.0699 0.41015,0.15658 0.572035,0.30455 0.02035,0.0186 0.03804,0.04 0.05705,0.0599 0.02424,0.0405 0.0696,0.0938 0.07435,0.14338 7.94e-4,0.007 -0.01543,-0.007 -0.02103,-0.002 -0.0065,0.005 -0.0083,0.014 -0.01252,0.0211 -0.05768,0.0788 -0.124542,0.14918 -0.204311,0.2055 -0.01722,0.011 -0.03446,0.0219 -0.05169,0.0328 -0.366993,0.23853 -0.02966,0.75754 0.337336,0.51901 v 0 c 0.02823,-0.0186 0.05646,-0.0372 0.08469,-0.0558 0.02858,-0.0219 0.05815,-0.0426 0.08575,-0.0657 0.142491,-0.1194 0.259744,-0.26976 0.335285,-0.43954 0.03444,-0.11765 0.05779,-0.16307 0.05,-0.29255 -0.01167,-0.19403 -0.120441,-0.35837 -0.239945,-0.50322 -0.03647,-0.0356 -0.07103,-0.0732 -0.109416,-0.10671 -0.228939,-0.1998 -0.509839,-0.32518 -0.79629,-0.41791 -0.171259,-0.0454 -0.226018,-0.0656 -0.403183,-0.0893 -0.231327,-0.031 -0.465137,-0.0206 -0.697481,-0.0138 -0.203377,0.006 -0.407667,0.004 -0.610214,0.0246 -0.431744,0.072 -0.32998,0.68253 0.101764,0.61057 z" />
    <path
       style="fill:#d7eef4;fill-opacity:1;fill-rule:evenodd;stroke:none;stroke-width:1;stroke-linecap:square;paint-order:stroke fill markers"
       id="path28258"
       d="m 57.546602,104.38661 c 0.09051,0.0467 0.186441,0.0812 0.282231,0.11516 0.104113,0.0371 0.207542,0.0807 0.298389,0.14462 0.06299,0.0444 0.07475,0.0594 0.131024,0.11266 0.07282,0.0826 0.160695,0.16273 0.198946,0.26892 0.01744,0.0484 0.01789,0.0352 0.0077,0.0673 -0.03181,0.0549 0.01246,-0.0159 -0.02201,0.0241 -0.02191,0.0254 -0.03733,0.0558 -0.05803,0.0823 -0.0293,0.0374 -0.04547,0.0517 -0.07894,0.0854 -0.01357,0.011 -0.02627,0.0231 -0.04071,0.0329 -0.01879,0.0128 -0.08348,0.0434 -0.09881,0.0502 -0.07338,0.0328 -0.148838,0.0596 -0.224771,0.0857 -0.413631,0.14314 -0.211193,0.7281 0.202438,0.58496 v 0 c 0.218265,-0.076 0.439425,-0.15983 0.607854,-0.32455 0.143872,-0.15211 0.279021,-0.32349 0.318833,-0.53551 0.0093,-0.0496 0.0064,-0.10072 0.0097,-0.15109 -0.0081,-0.0515 -0.01151,-0.10391 -0.02434,-0.15442 -0.05766,-0.22737 -0.222038,-0.40848 -0.379775,-0.57266 -0.03668,-0.0329 -0.07184,-0.0677 -0.110046,-0.0988 -0.157345,-0.12832 -0.340537,-0.21899 -0.531386,-0.28568 -0.07168,-0.0252 -0.143769,-0.0502 -0.211431,-0.0851 -0.391491,-0.19574 -0.668317,0.35791 -0.276826,0.55365 z" />
    <path
       style="fill:#d7eef4;fill-opacity:1;fill-rule:evenodd;stroke:none;stroke-width:1;stroke-linecap:square;paint-order:stroke fill markers"
       id="path28260"
       d="m 55.229386,105.30934 c 0.0016,0.0101 0.0064,0.0373 0.0065,0.042 5.29e-4,0.0216 -0.02564,0.079 -0.03362,0.0979 -0.04758,0.0999 -0.116107,0.18694 -0.188569,0.2697 -0.06304,0.0698 -0.14383,0.11957 -0.223268,0.16844 -0.04649,0.0246 -0.09017,0.0575 -0.140772,0.0733 -0.406495,0.1623 -0.176967,0.73717 0.229529,0.57487 v 0 c 0.08214,-0.0345 0.161472,-0.074 0.23691,-0.12178 0.13226,-0.0822 0.262046,-0.17048 0.364974,-0.28899 0.120833,-0.13996 0.231551,-0.28958 0.302165,-0.46194 0.01164,-0.0335 0.02516,-0.0663 0.03494,-0.10035 0.03781,-0.13162 0.04487,-0.27009 0.01172,-0.40332 -0.106156,-0.42463 -0.706676,-0.2745 -0.60052,0.15013 z" />
    <path
       style="fill:#d7eef4;fill-opacity:1;fill-rule:evenodd;stroke:none;stroke-width:1;stroke-linecap:square;paint-order:stroke fill markers"
       id="path28262"
       d="m 50.322725,105.40431 c -0.274574,0.16621 -0.594114,0.24495 -0.899178,0.33392 -0.867952,0.23266 -1.754727,0.38835 -2.640957,0.53288 -0.641591,0.0981 -1.288045,0.1605 -1.936311,0.18934 -0.202324,0.008 -0.404791,0.008 -0.607229,0.007 -0.437695,-0.002 -0.440894,0.61673 -0.0032,0.61899 v 0 c 0.212733,0.001 0.425495,0.001 0.638107,-0.008 0.672369,-0.0303 1.342898,-0.0946 2.008311,-0.1968 0.911273,-0.14875 1.823064,-0.30921 2.715242,-0.54976 0.355722,-0.10456 0.724778,-0.20101 1.043688,-0.39718 0.375325,-0.22519 0.05685,-0.75598 -0.318473,-0.53079 z" />
    <path
       style="fill:#d7eef4;fill-opacity:1;fill-rule:evenodd;stroke:none;stroke-width:1;stroke-linecap:square;paint-order:stroke fill markers"
       id="path28264"
       d="m 52.527755,103.62078 c -0.06802,-0.0918 -0.147309,-0.17722 -0.242287,-0.24187 -0.042,-0.0286 -0.08724,-0.0521 -0.130855,-0.0781 -0.0498,-0.023 -0.09906,-0.0472 -0.149415,-0.0689 -0.183645,-0.0793 -0.407615,-0.17032 -0.60765,-0.18525 -0.06143,-0.005 -0.123185,0.002 -0.18478,0.003 -0.219639,0.023 -0.421124,0.10611 -0.556858,0.28684 -0.06073,0.0809 -0.07269,0.13188 -0.106267,0.22286 -0.04546,0.162 -0.03703,0.32792 -0.0052,0.49103 0.04676,0.17613 0.145347,0.27938 0.291267,0.37888 0.0158,0.01 0.03161,0.0194 0.04741,0.0291 0.374351,0.22681 0.695108,-0.3026 0.320757,-0.52941 v 0 c -0.0081,-0.005 -0.01611,-0.01 -0.02418,-0.0143 -0.04328,-0.0275 -0.02524,-0.0204 -0.02882,0.0117 -0.01275,-0.056 -0.01847,-0.11338 -0.01413,-0.17083 2.65e-4,-0.002 0.0068,-0.0237 2.65e-4,-0.0297 -0.0027,-0.003 -0.01032,1.6e-4 -0.01058,-0.004 -0.0028,-0.0372 0.106823,-0.055 0.113486,-0.0542 0.02289,-0.003 0.04561,-0.008 0.06867,-0.008 0.07747,-1.4e-4 0.121557,0.0174 0.197487,0.0433 0.115679,0.0394 0.228878,0.0865 0.340749,0.13546 0.07147,0.0373 0.131403,0.0744 0.177112,0.14267 0.254408,0.35616 0.758108,-0.004 0.503701,-0.35979 z" />
    <path
       style="fill:#d7eef4;fill-opacity:1;fill-rule:evenodd;stroke:none;stroke-width:1;stroke-linecap:square;paint-order:stroke fill markers"
       id="path28266"
       d="m 49.473921,103.69552 c -0.11412,-0.1447 -0.257133,-0.23107 -0.419359,-0.31271 -0.07992,-0.0318 -0.141087,-0.0606 -0.226873,-0.0762 -0.167904,-0.0306 -0.338092,-0.0141 -0.506304,0.002 -0.153461,0.0139 -0.30222,0.0512 -0.442809,0.11455 -0.08329,0.0375 -0.11008,0.056 -0.187309,0.10158 -0.165029,0.10604 -0.29002,0.25647 -0.396015,0.41902 -0.07942,0.13076 -0.139708,0.27034 -0.13988,0.426 -3.4e-5,0.0328 0.0062,0.0653 0.0092,0.098 0.02747,0.17643 0.134951,0.31171 0.255609,0.43547 0.100467,0.0995 0.223808,0.16841 0.35049,0.22841 0.07489,0.035 0.153107,0.0617 0.231117,0.0887 0.413689,0.14298 0.615886,-0.44207 0.202197,-0.58505 v 0 c -0.05766,-0.0199 -0.115784,-0.0388 -0.17127,-0.0644 -0.06053,-0.0276 -0.121346,-0.0577 -0.171567,-0.10202 -0.02326,-0.0232 -0.04416,-0.0519 -0.06856,-0.0735 -0.0043,-0.004 -0.01326,0.008 -0.01424,-0.008 -0.01085,-0.0118 0.0049,0.002 -0.01138,0.008 -0.0031,0.001 -0.0016,-0.007 -7.94e-4,-0.01 0.0099,-0.0391 0.03306,-0.0738 0.05101,-0.1093 0.05073,-0.0835 0.113676,-0.16184 0.192106,-0.22077 0.120762,-0.0742 0.228907,-0.12206 0.373142,-0.13122 0.08217,-0.008 0.163693,-0.0138 0.246179,-0.0174 0.01392,-5.3e-4 0.02786,-0.004 0.04171,-0.002 0.03895,0.004 0.07506,0.0199 0.111299,0.0331 0.07751,0.0364 0.15471,0.0753 0.20896,0.14383 0.273429,0.34178 0.756788,-0.0449 0.48336,-0.38669 z" />
    <path
       style="fill:#d7eef4;fill-opacity:1;fill-rule:evenodd;stroke:none;stroke-width:1;stroke-linecap:square;paint-order:stroke fill markers"
       id="path28268"
       d="m 41.477205,105.73907 c -0.01746,0.001 -0.03499,0.001 -0.05238,0.003 -0.08681,0.009 -0.172063,0.0295 -0.258569,0.0412 -0.118187,0.016 -0.156866,0.0188 -0.278805,0.031 -0.285085,0.031 -0.571719,0.0253 -0.857054,0.003 -0.216302,-0.0207 -0.429334,-0.0656 -0.638648,-0.12287 -0.125347,-0.0365 -0.245147,-0.089 -0.360035,-0.15056 -0.38659,-0.20525 -0.67686,0.34147 -0.290269,0.54672 v 0 c 0.155914,0.0823 0.317894,0.15314 0.4879,0.20116 0.247213,0.0668 0.498541,0.11971 0.753983,0.14276 0.321762,0.0242 0.644935,0.0303 0.966361,-0.005 0.176575,-0.0179 0.353579,-0.0355 0.527519,-0.072 0.4377,0 0.4377,-0.619 0,-0.619 z" />
    <path
       style="fill:#d7eef4;fill-opacity:1;fill-rule:evenodd;stroke:none;stroke-width:1;stroke-linecap:square;paint-order:stroke fill markers"
       id="path28270"
       d="m 34.777251,104.50592 c 0.0019,-1.2e-4 0.0074,1.2e-4 0.0056,-2.6e-4 -0.0915,-0.0248 -0.187029,-0.0383 -0.28049,-0.0532 -0.166359,-0.024 -0.344241,-0.007 -0.493649,0.0759 -0.04056,0.0225 -0.07656,0.0523 -0.11484,0.0785 -0.118366,0.10714 -0.236262,0.22256 -0.320923,0.35945 -0.01717,0.0277 -0.03146,0.0571 -0.04719,0.0857 -0.06949,0.154 -0.08495,0.32344 -0.01884,0.48181 0.01146,0.0275 0.02712,0.053 0.04068,0.0795 0.0154,0.0218 0.0308,0.0435 0.04619,0.0653 0.264673,0.34861 0.757682,-0.0257 0.493011,-0.3743 v 0 c -2.64e-4,10e-4 -7.94e-4,0.002 -0.0011,0.003 0.0013,0.0126 -0.01074,0.0824 -0.01106,0.0312 0.03883,-0.094 0.124484,-0.16251 0.190929,-0.23646 0.0021,-0.003 0.01273,-0.0218 0.01796,-0.0246 0.03737,-0.0201 0.08187,-0.0205 0.121952,-0.0135 0.099,0.0156 0.197202,0.0349 0.295076,0.0564 0.434322,0.0543 0.511099,-0.55993 0.07678,-0.61422 z" />
    <path
       style="fill:#000000;fill-opacity:1;fill-rule:evenodd;stroke:none;stroke-width:1;stroke-linecap:square;paint-order:stroke fill markers"
       id="path33582"
       d="m 41.551825,71.186902 c -0.136498,0.06142 -0.249137,0.159258 -0.355928,0.261942 -0.12306,0.117169 -0.215498,0.256919 -0.29537,0.405601 -0.07962,0.152144 -0.147389,0.309521 -0.20946,0.469474 -0.06796,0.174813 -0.14351,0.34653 -0.220906,0.517335 -0.06753,0.143462 -0.134366,0.287173 -0.199612,0.431694 -0.180105,0.398928 0.384063,0.653635 0.564168,0.254706 v 0 c 0.06514,-0.144277 0.131934,-0.287705 0.199281,-0.430961 0.0821,-0.181255 0.162137,-0.363524 0.23422,-0.549034 0.05291,-0.136636 0.110316,-0.271113 0.178091,-0.40118 0.04925,-0.09252 0.102783,-0.1807 0.180369,-0.253124 0.05392,-0.05289 0.108273,-0.106585 0.176546,-0.140803 0.399973,-0.177766 0.148574,-0.743416 -0.251399,-0.56565 z" />
    <path
       style="fill:#000000;fill-opacity:1;fill-rule:evenodd;stroke:none;stroke-width:1;stroke-linecap:square;paint-order:stroke fill markers"
       id="path33584"
       d="m 35.23153,71.698423 c 0.03855,0.137425 0.07199,0.276209 0.109667,0.413901 0.06356,0.230055 0.135099,0.457788 0.196297,0.688483 0.06642,0.24212 0.112932,0.488947 0.164499,0.73447 0.0083,0.03958 0.01667,0.07916 0.025,0.11874 0.09023,0.428297 0.695936,0.300686 0.605702,-0.127611 v 0 c -0.0083,-0.03947 -0.01662,-0.07894 -0.02495,-0.118404 -0.05384,-0.256162 -0.102626,-0.513628 -0.172048,-0.766215 -0.06182,-0.23214 -0.133109,-0.461547 -0.197511,-0.692981 -0.03834,-0.139853 -0.07206,-0.280902 -0.111496,-0.420436 -0.120245,-0.420859 -0.715428,-0.250806 -0.595183,0.170053 z" />
    <path
       style="fill:#000000;fill-opacity:1;fill-rule:evenodd;stroke:none;stroke-width:1;stroke-linecap:square;paint-order:stroke fill markers"
       id="path33586"
       d="m 20.992351,72.171559 c -0.108139,0.15321 -0.195305,0.31945 -0.281278,0.485667 -0.06062,0.110995 -0.123024,0.221001 -0.184621,0.331456 -0.213175,0.382278 0.327449,0.683755 0.540624,0.301475 v 0 c 0.06476,-0.116129 0.130474,-0.23172 0.193841,-0.348618 0.07158,-0.138478 0.143118,-0.277474 0.232042,-0.4059 0.257442,-0.353983 -0.243166,-0.718063 -0.500608,-0.36408 z" />
    <path
       style="fill:#000000;fill-opacity:1;fill-rule:evenodd;stroke:none;stroke-width:1;stroke-linecap:square;paint-order:stroke fill markers"
       id="path33588"
       d="m 55.926645,72.941457 c 0.01741,0.201364 0.04216,0.402053 0.06368,0.603022 0.02524,0.221293 0.04396,0.442754 0.04081,0.665549 -0.008,0.130233 -0.02339,0.259839 -0.04093,0.389078 -0.05848,0.433776 0.554971,0.516477 0.613449,0.0827 v 0 c 0.02066,-0.154205 0.0392,-0.308856 0.04644,-0.464384 0.0024,-0.247282 -0.0155,-0.493278 -0.04429,-0.738878 -0.01918,-0.179067 -0.03829,-0.358486 -0.06016,-0.537088 0,-0.4377 -0.619001,-0.4377 -0.619001,0 z" />
    <path
       style="fill:#000000;fill-opacity:1;fill-rule:evenodd;stroke:none;stroke-width:1;stroke-linecap:square;paint-order:stroke fill markers"
       id="path50873"
       d="m 47.172179,67.602033 c 0.34299,0.02067 0.685434,0.0491 1.027867,0.07734 0.610701,0.04802 1.217486,0.132224 1.823896,0.217018 0.364466,0.05363 0.185373,0.02671 0.537305,0.08065 0.432649,0.06629 0.526406,-0.545566 0.09376,-0.611863 v 0 c -0.357049,-0.0547 -0.175274,-0.02739 -0.545344,-0.08182 -0.617992,-0.08641 -1.236398,-0.171944 -1.858755,-0.22089 -0.358682,-0.02957 -0.717384,-0.06025 -1.07681,-0.07943 -0.437699,-0.0014 -0.439614,0.617644 -0.0019,0.618998 z" />
    <path
       style="fill:#000000;fill-opacity:1;fill-rule:evenodd;stroke:none;stroke-width:1;stroke-linecap:square;paint-order:stroke fill markers"
       id="path50875"
       d="m 50.128608,67.729232 c -0.150058,0.309522 -0.375168,0.580973 -0.579633,0.855995 -0.368839,0.477312 -0.725222,0.963095 -1.056571,1.467174 -0.269233,0.415982 -0.528429,0.838317 -0.762399,1.275182 -0.0751,0.143379 -0.147437,0.288173 -0.220087,0.432804 -0.196445,0.391138 0.356707,0.668955 0.553155,0.277815 v 0 c 0.07023,-0.139873 0.140184,-0.279899 0.212716,-0.418602 0.224847,-0.420682 0.47519,-0.826695 0.733942,-1.227312 0.324558,-0.494259 0.674732,-0.969795 1.036048,-1.43782 0.235778,-0.317322 0.493771,-0.630914 0.656837,-0.993571 0.163815,-0.40589 -0.410199,-0.637558 -0.574014,-0.231669 z" />
    <path
       style="fill:#000000;fill-opacity:1;fill-rule:evenodd;stroke:none;stroke-width:1;stroke-linecap:square;paint-order:stroke fill markers"
       id="path50877"
       d="m 47.892829,72.384197 c 0.136283,6e-5 0.272612,-0.0044 0.40882,-0.0093 0.22972,-0.01037 0.457872,-0.03986 0.686905,-0.0587 0.196329,-0.01295 0.392964,-0.0097 0.589489,-0.0051 0.161879,5.24e-4 0.323582,0.0075 0.485165,0.01672 0.09658,0.0051 0.193256,0.0077 0.289877,0.01175 0.437315,0.01832 0.46322,-0.600141 0.0259,-0.618458 v 0 c -0.09359,-0.0039 -0.187198,-0.0065 -0.28074,-0.0113 -0.168479,-0.0095 -0.337075,-0.01693 -0.505854,-0.01754 -0.218347,-0.005 -0.436839,-0.0081 -0.65492,0.0071 -0.219501,0.01828 -0.438196,0.04595 -0.658285,0.057 -0.128088,0.0047 -0.256291,0.0091 -0.384446,0.0089 -0.437696,-0.0014 -0.439612,0.617645 -0.0019,0.618998 z" />
    <path
       style="fill:#000000;fill-opacity:1;fill-rule:evenodd;stroke:none;stroke-width:1;stroke-linecap:square;paint-order:stroke fill markers"
       id="path50879"
       d="m 51.555932,65.874631 c 0.198338,8.95e-4 0.396379,0.0012 0.594648,0.0093 0.439701,0.03423 0.87979,0.05233 1.320738,0.0573 0.40184,0.0067 0.803528,0.01136 1.205288,-5.31e-4 0.298135,-0.006 0.59114,-0.0673 0.883125,-0.122202 0.430161,-0.08089 0.315771,-0.689227 -0.114391,-0.608339 v 0 c -0.260313,0.04895 -0.521396,0.10584 -0.787167,0.111816 -0.393312,0.0118 -0.786554,0.0066 -1.179947,2.96e-4 -0.434907,-0.0048 -0.868875,-0.02341 -1.302566,-0.05684 -0.211016,-0.0084 -0.421812,-0.009 -0.632907,-0.0097 -0.437598,0.0093 -0.424422,0.628181 0.01318,0.618862 z" />
    <path
       style="fill:#000000;fill-opacity:1;fill-rule:evenodd;stroke:none;stroke-width:1;stroke-linecap:square;paint-order:stroke fill markers"
       id="path50881"
       d="m 55.203127,65.295318 c -0.09056,0.264249 -0.229516,0.502924 -0.375483,0.739601 -0.367305,0.581976 -0.722711,1.171183 -1.062012,1.7699 -0.277035,0.502431 -0.552296,1.005674 -0.843871,1.499863 -0.220346,0.364188 -0.430961,0.734167 -0.651636,1.098137 -0.148703,0.234933 -0.298521,0.469191 -0.450237,0.702196 -0.238817,0.366805 0.279924,0.704545 0.518743,0.337741 v 0 c 0.155323,-0.238588 0.308808,-0.478399 0.460849,-0.719086 0.221856,-0.366139 0.43392,-0.738117 0.65543,-1.104484 0.293332,-0.497335 0.57071,-1.003518 0.849283,-1.50922 0.335621,-0.59247 0.687589,-1.175286 1.050959,-1.75117 0.162955,-0.26645 0.318907,-0.535588 0.421993,-0.831808 0.163814,-0.40589 -0.410199,-0.637558 -0.574014,-0.231668 z" />
    <path
       style="fill:#000000;fill-opacity:1;fill-rule:evenodd;stroke:none;stroke-width:1;stroke-linecap:square;paint-order:stroke fill markers"
       id="path50883"
       d="m 52.178095,71.628053 c 0.237182,-0.04248 0.476562,-0.06968 0.715705,-0.09819 0.451674,-0.0662 0.903026,-0.1345 1.354849,-0.199764 0.39784,-0.05282 0.795951,-0.10333 1.193564,-0.157889 0.147819,-0.01867 0.295226,-0.04035 0.442781,-0.06096 0.433488,-0.06056 0.347845,-0.673605 -0.08564,-0.613048 v 0 c -0.147057,0.02054 -0.293968,0.04216 -0.441288,0.06076 -0.399061,0.05476 -0.798633,0.105371 -1.197906,0.158499 -0.44676,0.06453 -0.893094,0.131805 -1.339636,0.197758 -0.240109,0.02863 -0.480614,0.05538 -0.718676,0.09855 -0.434365,0.05392 -0.358119,0.668201 0.07625,0.614288 z" />
    <path
       style="fill:#000000;fill-opacity:1;fill-rule:evenodd;stroke:none;stroke-width:1;stroke-linecap:square;paint-order:stroke fill markers"
       id="path50885"
       d="m 56.986216,63.866906 c 0.245223,-0.04697 0.492103,-0.08629 0.738418,-0.127405 0.418522,-0.06933 0.8387,-0.127761 1.258785,-0.186636 0.374337,-0.05339 0.749598,-0.09981 1.125213,-0.143161 0.289164,-0.02871 0.57949,-0.04502 0.869813,-0.05638 0.218438,-0.01021 0.436307,-0.03029 0.654208,-0.04836 0.135025,-0.01254 0.06779,-0.0058 0.201717,-0.02023 0.435163,-0.04707 0.3686,-0.662479 -0.06656,-0.615413 v 0 c -0.122642,0.01331 -0.06054,0.007 -0.186321,0.01876 -0.20897,0.01733 -0.417897,0.03665 -0.627363,0.04672 -0.305909,0.01208 -0.611826,0.02925 -0.916479,0.05999 -0.380599,0.04394 -0.760838,0.09098 -1.140145,0.145072 -0.425434,0.05962 -0.850955,0.118855 -1.274804,0.189093 -0.271757,0.04537 -0.545138,0.08559 -0.814166,0.145003 -0.41928,0.125641 -0.2416,0.718591 0.17768,0.592953 z" />
    <path
       style="fill:#000000;fill-opacity:1;fill-rule:evenodd;stroke:none;stroke-width:1;stroke-linecap:square;paint-order:stroke fill markers"
       id="path50887"
       d="m 61.667978,62.836319 c -0.105576,0.236739 -0.234451,0.461446 -0.362257,0.686655 -0.282537,0.487502 -0.629342,0.933429 -0.967101,1.383107 -0.360576,0.465813 -0.696142,0.950072 -1.040778,1.427589 -0.271767,0.371941 -0.530479,0.753206 -0.7823,1.138862 -0.191728,0.293709 -0.385152,0.586276 -0.580691,0.877463 -0.141226,0.208817 -0.278358,0.420322 -0.410154,0.63521 -0.0526,0.08644 -0.102871,0.174247 -0.153039,0.262107 -0.216988,0.380129 0.320597,0.686994 0.537582,0.306869 v 0 c 0.04693,-0.08227 0.09397,-0.164473 0.143163,-0.245413 0.127277,-0.207652 0.259903,-0.411915 0.396332,-0.61368 0.19703,-0.293407 0.391926,-0.588214 0.585124,-0.884157 0.246492,-0.377618 0.499821,-0.75088 0.765922,-1.115014 0.342306,-0.474346 0.675612,-0.955377 1.033774,-1.418078 0.353634,-0.470819 0.715773,-0.93833 1.010545,-1.44939 0.129936,-0.229043 0.26232,-0.457261 0.368789,-0.698486 0.20763,-0.385319 -0.337285,-0.678958 -0.544918,-0.293643 z" />
    <path
       style="fill:#000000;fill-opacity:1;fill-rule:evenodd;stroke:none;stroke-width:1;stroke-linecap:square;paint-order:stroke fill markers"
       id="path50889"
       d="m 57.733895,69.695848 c 0.295272,-0.07982 0.603537,-0.103182 0.907191,-0.131698 0.378465,-0.0354 0.757023,-0.06954 1.135823,-0.10118 0.347439,-0.02694 0.695457,-0.04543 1.04294,-0.07161 0.30577,-0.01715 0.611628,-0.03231 0.917331,-0.05065 0.212996,-0.01141 0.426335,-0.0156 0.639569,-0.02041 0.437588,-0.0099 0.423596,-0.628735 -0.01399,-0.618843 v 0 c -0.220929,0.005 -0.441969,0.0094 -0.662646,0.02136 -0.30888,0.01853 -0.617927,0.0337 -0.92686,0.0513 -0.34912,0.0264 -0.698801,0.04472 -1.047866,0.07201 -0.380964,0.03182 -0.761685,0.06615 -1.142312,0.101753 -0.341399,0.03221 -0.687188,0.06075 -1.018721,0.152648 -0.420963,0.119884 -0.251419,0.715213 0.169542,0.595329 z" />
    <path
       style="fill:#d7eef4;fill-opacity:1;fill-rule:evenodd;stroke:none;stroke-width:1;stroke-linecap:square;paint-order:stroke fill markers"
       id="path61017"
       d="m 59.755161,102.5992 c -0.0011,2.1e-4 -0.0043,2.6e-4 -0.0032,5.3e-4 0.03017,0.01 0.0751,0.0126 0.103322,0.0171 0.12668,0.0205 0.06138,0.009 0.197708,0.0336 0.241204,0.0513 0.471858,0.13987 0.697568,0.23741 0.129617,0.0536 0.248431,0.12691 0.361633,0.20885 0.355621,0.25518 0.716494,-0.24775 0.360876,-0.50292 v 0 c -0.149982,-0.10694 -0.306922,-0.20339 -0.477557,-0.2744 -0.269942,-0.11602 -0.546153,-0.22026 -0.835052,-0.27854 -0.134339,-0.0237 -0.269129,-0.0507 -0.405257,-0.0608 -0.437697,0 -0.437697,0.619 0,0.619 z" />
    <path
       style="fill:#d7eef4;fill-opacity:1;fill-rule:evenodd;stroke:none;stroke-width:1;stroke-linecap:square;paint-order:stroke fill markers"
       id="path61019"
       d="m 59.71396,102.94865 c 0.115411,0.0297 0.229846,0.0632 0.34454,0.0957 0.185336,0.055 0.374394,0.095 0.564571,0.12878 0.161099,0.0277 0.323175,0.0493 0.485516,0.0683 0.09065,0.01 0.04588,0.005 0.134305,0.0142 0.435451,0.0443 0.498125,-0.5715 0.06267,-0.61582 v 0 c -0.08258,-0.008 -0.04082,-0.004 -0.125248,-0.0132 -0.150196,-0.0175 -0.300144,-0.0374 -0.449202,-0.063 -0.169905,-0.03 -0.338794,-0.0656 -0.504293,-0.11496 -0.120732,-0.0341 -0.241231,-0.0692 -0.362733,-0.10049 -0.42463,-0.10616 -0.57476,0.49436 -0.15013,0.60052 z" />
    <path
       style="fill:#d7eef4;fill-opacity:1;fill-rule:evenodd;stroke:none;stroke-width:1;stroke-linecap:square;paint-order:stroke fill markers"
       id="path61023"
       d="m 60.12698,101.45151 c -0.0029,-1e-5 -0.01167,-5.3e-4 -0.0088,-4e-5 0.02638,0.003 0.05325,0.003 0.07973,0.006 0.03564,0.004 0.07119,0.0106 0.106633,0.0163 0.07967,0.0135 0.158181,0.0322 0.234034,0.0603 0.04252,0.0157 0.05534,0.0227 0.09608,0.0416 0.08256,0.0426 0.160269,0.0939 0.236289,0.14711 0.01037,0.008 0.02077,0.0151 0.03114,0.0226 0.354497,0.25673 0.717571,-0.2446 0.363075,-0.50134 v 0 c -0.01323,-0.01 -0.02646,-0.0191 -0.03967,-0.0287 -0.107024,-0.0747 -0.216893,-0.14588 -0.334415,-0.2031 -0.06864,-0.0308 -0.08522,-0.0399 -0.156692,-0.0654 -0.107862,-0.0386 -0.219345,-0.0652 -0.332211,-0.0843 -0.09119,-0.0145 -0.18271,-0.0287 -0.275219,-0.0304 -0.4377,0 -0.4377,0.619 0,0.619 z" />
    <path
       style="fill:#d7eef4;fill-opacity:1;fill-rule:evenodd;stroke:none;stroke-width:1;stroke-linecap:square;paint-order:stroke fill markers"
       id="path61025"
       d="m 61.025679,101.30129 c -0.05127,5.3e-4 -0.10247,-2.7e-4 -0.153685,-0.003 -0.106871,-0.007 -0.212551,-0.0255 -0.317688,-0.0453 -0.08244,-0.015 -0.164124,-0.0336 -0.245126,-0.055 -0.02453,-0.006 -0.04869,-0.0142 -0.07274,-0.0222 -0.415668,-0.13711 -0.609579,0.45073 -0.19391,0.58785 v 0 c 0.03614,0.0118 0.07236,0.0234 0.109162,0.033 0.09528,0.025 0.191293,0.047 0.288226,0.0647 0.134004,0.0251 0.26879,0.0474 0.405072,0.0554 0.06022,0.003 0.120414,0.004 0.180686,0.003 0.437701,0 0.437701,-0.619 0,-0.619 z" />
    <path
       style="fill:#d7eef4;fill-opacity:1;fill-rule:evenodd;stroke:none;stroke-width:1;stroke-linecap:square;paint-order:stroke fill markers"
       id="path61031"
       d="m 31.380538,104.86558 c -0.05101,8e-4 -0.10187,-0.004 -0.152646,-0.008 -0.100864,-0.01 -0.202509,-0.0114 -0.303223,-0.023 -0.01852,-0.002 -0.03696,-0.005 -0.05544,-0.008 -0.09355,-0.0145 -0.186155,-0.037 -0.274955,-0.0701 -0.01585,-0.006 -0.0313,-0.0128 -0.04695,-0.0192 -0.04925,-0.0221 -0.05223,-0.0226 -0.100171,-0.0473 -0.01662,-0.009 -0.03366,-0.0165 -0.0495,-0.0264 -0.0091,-0.006 -0.01677,-0.0134 -0.02503,-0.0203 -0.0414,-0.0345 -0.0397,-0.0338 -0.08231,-0.072 -0.326996,-0.29096 -0.73847,0.17148 -0.411475,0.46244 v 0 c 0.04703,0.0416 0.08798,0.0796 0.139052,0.11684 0.02906,0.0212 0.05902,0.0412 0.08975,0.0599 0.0214,0.013 0.04411,0.0238 0.06645,0.0351 0.06785,0.0344 0.07454,0.0362 0.143973,0.0668 0.0263,0.0103 0.05238,0.0213 0.07894,0.031 0.126072,0.0459 0.257382,0.0768 0.389893,0.0968 0.02694,0.004 0.05382,0.008 0.08082,0.0106 0.102587,0.0115 0.20596,0.0139 0.308703,0.0235 0.0679,0.006 0.135914,0.011 0.20411,0.0102 0.4377,0 0.4377,-0.61901 0,-0.61901 z" />
    <path
       style="fill:#d7eef4;fill-opacity:1;fill-rule:evenodd;stroke:none;stroke-width:1;stroke-linecap:square;paint-order:stroke fill markers"
       id="path61033"
       d="m 31.775781,104.82434 c 0.0016,0.002 0.0059,0.008 0.0047,0.006 -0.01169,-0.0214 -0.02769,-0.0402 -0.04349,-0.0588 -0.04222,-0.0497 -0.07069,-0.0764 -0.124158,-0.11708 -0.02352,-0.0179 -0.04887,-0.0333 -0.07331,-0.0499 -0.116395,-0.0713 -0.243599,-0.12342 -0.374123,-0.16262 -0.08771,-0.0264 -0.142724,-0.0377 -0.231553,-0.0584 -0.11367,-0.0242 -0.228121,-0.0445 -0.342881,-0.0628 -0.06952,-0.011 -0.14432,-0.0226 -0.214464,-0.0286 -0.03862,-0.003 -0.07739,-0.004 -0.116091,-0.007 -0.189465,-0.006 -0.378232,0.013 -0.565041,0.0429 -0.09128,0.0168 -0.04714,0.008 -0.13244,0.0251 -0.429427,0.0847 -0.30965,0.692 0.119777,0.60731 v 0 c 0.07335,-0.0145 0.03623,-0.007 0.111392,-0.0213 0.143404,-0.0235 0.288295,-0.0385 0.433826,-0.0359 0.02614,0.001 0.05232,0.001 0.07839,0.004 0.0605,0.005 0.123811,0.0149 0.183565,0.0243 0.101907,0.0161 0.203546,0.0341 0.304551,0.0552 0.138245,0.0317 0.278831,0.0637 0.403511,0.13411 0.0098,0.006 0.01945,0.0122 0.02936,0.018 0.01209,0.007 0.01228,0.005 0.02212,0.0142 0.0176,0.0169 0.02641,0.0407 0.04298,0.0584 0.273431,0.34178 0.756787,-0.0449 0.483359,-0.38669 z" />
    <path
       style="fill:#d7eef4;fill-opacity:1;fill-rule:evenodd;stroke:none;stroke-width:1;stroke-linecap:square;paint-order:stroke fill markers"
       id="path61037"
       d="m 30.577962,104.79337 c -0.04072,-0.002 -0.08058,-0.0124 -0.120224,-0.0212 -0.09913,-0.0218 -0.197972,-0.0447 -0.296294,-0.0699 -0.08727,-0.021 -0.172704,-0.0485 -0.257228,-0.0784 -0.05785,-0.0226 -0.115628,-0.0455 -0.172246,-0.0711 -0.0052,-0.003 -0.01043,-0.005 -0.01564,-0.008 -0.394941,-0.18869 -0.661789,0.36984 -0.266851,0.55853 v 0 c 0.0098,0.005 0.01961,0.009 0.02941,0.0139 0.07201,0.0321 0.145092,0.0619 0.218852,0.0897 0.102005,0.036 0.2051,0.0691 0.310298,0.0946 0.104916,0.0268 0.210349,0.0514 0.316114,0.0746 0.06806,0.0149 0.136549,0.03 0.206333,0.034 0.436411,0.0336 0.483886,-0.5836 0.04747,-0.61717 z" />
    <path
       style="fill:#d7eef4;fill-opacity:1;fill-rule:evenodd;stroke:none;stroke-width:1;stroke-linecap:square;paint-order:stroke fill markers"
       id="path61039"
       d="m 30.551239,103.32423 c -0.06066,-0.0492 -0.125926,-0.0935 -0.194678,-0.13063 -0.02875,-0.0155 -0.05833,-0.0295 -0.0875,-0.0442 -0.149098,-0.0684 -0.30308,-0.12769 -0.460917,-0.17282 -0.03047,-0.009 -0.06128,-0.0162 -0.09192,-0.0243 -0.145688,-0.0345 -0.29576,-0.0499 -0.445395,-0.0423 -0.02758,10e-4 -0.05506,0.004 -0.08259,0.006 -0.07481,0.007 -0.148178,0.0225 -0.221433,0.0382 -0.427828,0.0924 -0.297095,0.69748 0.130731,0.60504 v 0 c 0.04733,-0.0104 0.09459,-0.0217 0.142917,-0.0265 0.01588,-0.002 0.03169,-0.003 0.04759,-0.005 0.09112,-0.006 0.182711,0.002 0.271709,0.0225 0.02249,0.006 0.0451,0.0111 0.06746,0.0174 0.125552,0.0353 0.247964,0.0823 0.366918,0.13544 0.05189,0.0249 0.04435,0.0197 0.09054,0.0473 0.0096,0.006 0.01894,0.0117 0.02823,0.0178 0.0077,0.005 0.01505,0.0105 0.02259,0.0158 0.0033,0.002 0.0061,0.005 0.0098,0.007 0.0021,0.001 -0.0035,-0.003 -0.0053,-0.005 0.327142,0.29079 0.738384,-0.17186 0.411242,-0.46265 z" />
    <path
       style="fill:#d7eef4;fill-opacity:1;fill-rule:evenodd;stroke:none;stroke-width:1;stroke-linecap:square;paint-order:stroke fill markers"
       id="path61041"
       d="m 30.154425,103.38918 c -0.06004,0.003 -0.120304,0.002 -0.18042,0.002 -0.0797,-1.7e-4 -0.159475,-0.005 -0.237821,-0.0202 -0.04119,-0.008 -0.06949,-0.0166 -0.110069,-0.0277 -0.09931,-0.0302 -0.19359,-0.0735 -0.286922,-0.11838 -0.01336,-0.007 -0.0267,-0.0133 -0.04005,-0.02 -0.391798,-0.19513 -0.667753,0.35896 -0.275952,0.55408 v 0 c 0.01606,0.008 0.03213,0.016 0.0482,0.024 0.127961,0.0613 0.257961,0.11901 0.394687,0.15827 0.07225,0.019 0.09968,0.0277 0.174506,0.0413 0.109977,0.0201 0.22175,0.0273 0.333407,0.0277 0.08291,-1e-5 0.166147,0.001 0.248795,-0.006 0.435023,-0.0483 0.366665,-0.66355 -0.06836,-0.61521 z" />
    <path
       style="fill:#d7eef4;fill-opacity:1;fill-rule:evenodd;stroke:none;stroke-width:1;stroke-linecap:square;paint-order:stroke fill markers"
       id="path61043"
       d="m 51.238948,97.910374 c 0.05749,0.139663 0.0924,0.28884 0.131432,0.434617 0.0532,0.204089 0.09785,0.410216 0.137083,0.617398 0.02029,0.113998 0.01037,0.05799 0.02979,0.16801 0.07608,0.431035 0.685654,0.323451 0.609578,-0.107587 v 0 c -0.02,-0.113303 -0.0096,-0.05473 -0.0312,-0.175718 -0.04218,-0.222263 -0.0901,-0.443415 -0.147349,-0.662332 -0.05211,-0.194283 -0.09795,-0.394229 -0.18823,-0.575003 -0.212566,-0.382616 -0.753668,-0.082 -0.541105,0.300615 z" />
    <path
       style="fill:#d7eef4;fill-opacity:1;fill-rule:evenodd;stroke:none;stroke-width:1;stroke-linecap:square;paint-order:stroke fill markers"
       id="path61045"
       d="m 51.491157,97.797153 c 0.03193,0.0646 0.04352,0.137314 0.06032,0.206888 0.03727,0.14736 0.06599,0.296694 0.09053,0.446641 0.0199,0.127606 0.03594,0.255786 0.04982,0.384175 0.0019,0.01818 0.0037,0.03638 0.0055,0.05456 0.04401,0.435483 0.659873,0.373245 0.615865,-0.06224 v 0 c -0.0021,-0.01968 -0.004,-0.03935 -0.006,-0.05903 -0.01516,-0.139624 -0.03258,-0.27903 -0.0544,-0.417783 -0.02719,-0.165084 -0.05874,-0.329525 -0.09969,-0.49181 -0.03056,-0.12618 -0.05889,-0.254942 -0.124537,-0.368519 -0.217159,-0.380029 -0.754602,-0.07292 -0.537443,0.307112 z" />
    <path
       style="fill:#000000;fill-opacity:1;fill-rule:evenodd;stroke:none;stroke-width:1;stroke-linecap:square;paint-order:stroke fill markers"
       id="path62564"
       d="m 35.538148,96.928769 c 0.116893,0.03572 0.231428,0.07863 0.346744,0.119084 0.222713,0.07851 0.447445,0.150104 0.67709,0.205237 0.282316,0.06655 0.573106,0.07934 0.861695,0.09318 0.266369,0.003 0.529802,0.03119 0.79081,0.08281 0.272635,0.06071 0.545833,0.118663 0.819867,0.172693 0.253307,0.05096 0.509638,0.0712 0.767387,0.0585 0.209177,-0.0213 0.414549,-0.06875 0.618326,-0.119137 0.424823,-0.105378 0.275797,-0.706173 -0.149029,-0.600794 v 0 c -0.166068,0.04135 -0.333375,0.07998 -0.503269,0.101862 -0.206129,0.01307 -0.411044,-0.0088 -0.613696,-0.04774 -0.274225,-0.05404 -0.547542,-0.112328 -0.82042,-0.172802 -0.290658,-0.05662 -0.583909,-0.09005 -0.880393,-0.09368 -0.250219,-0.01193 -0.502777,-0.02074 -0.747845,-0.07704 -0.20906,-0.04931 -0.41285,-0.116509 -0.615601,-0.18718 -0.118358,-0.04152 -0.235976,-0.08548 -0.355922,-0.122221 -0.415237,-0.138414 -0.610984,0.44882 -0.195744,0.587234 z" />
    <path
       style="fill:#000000;fill-opacity:1;fill-rule:evenodd;stroke:none;stroke-width:1;stroke-linecap:square;paint-order:stroke fill markers"
       id="path62566"
       d="m 37.06705,98.458484 c 0.152332,0.08487 0.314264,0.149924 0.476967,0.211731 0.216474,0.07818 0.441137,0.128706 0.666854,0.171381 0.212431,0.03858 0.427037,0.06277 0.641688,0.08486 0.435404,0.04478 0.498721,-0.570979 0.06332,-0.615751 v 0 c -0.197491,-0.02029 -0.394976,-0.04222 -0.590474,-0.07742 -0.190071,-0.03561 -0.379375,-0.07732 -0.562033,-0.141901 -0.128497,-0.04856 -0.256288,-0.09927 -0.377846,-0.163687 -0.375325,-0.225195 -0.693798,0.305594 -0.318474,0.530788 z" />
    <path
       style="fill:#000000;fill-rule:evenodd;stroke-width:1;stroke-linecap:square;paint-order:stroke fill markers"
       id="path1895"
       d="m 36.930602,90.663846 c 0.0024,0.04818 -0.0065,0.09546 -0.01495,0.142862 -0.01908,0.09937 -0.03017,0.199996 -0.04032,0.300593 -0.0094,0.09572 -0.01614,0.191667 -0.02196,0.28766 -7.94e-4,0.01447 -0.0016,0.02894 -0.0024,0.0434 -0.02416,0.437033 0.593889,0.471209 0.618056,0.03418 v 0 c 7.94e-4,-0.01341 0.0016,-0.02681 0.0021,-0.04022 0.0053,-0.08778 0.0114,-0.175511 0.01998,-0.263036 0.0087,-0.08641 0.01791,-0.172873 0.03457,-0.25818 0.01368,-0.08169 0.02635,-0.164163 0.02381,-0.247264 0,-0.4377 -0.619001,-0.4377 -0.619001,0 z" />
    <path
       style="fill:#000000;fill-rule:evenodd;stroke-width:1;stroke-linecap:square;paint-order:stroke fill markers"
       id="path1897"
       d="m 40.801676,90.950805 c -0.0073,0.07049 -0.01585,0.140719 -0.02739,0.210646 -0.01913,0.115607 -0.03439,0.231807 -0.05515,0.347141 -0.01939,0.09685 -0.03316,0.194744 -0.05491,0.291105 -0.09532,0.427194 0.50882,0.561999 0.604142,0.134803 v 0 c 0.02326,-0.105117 0.03975,-0.211482 0.06014,-0.317177 0.02096,-0.118293 0.03749,-0.23726 0.05665,-0.355846 0.01204,-0.07409 0.02241,-0.148371 0.02931,-0.223132 0.0619,-0.4333 -0.550881,-0.52084 -0.61278,-0.08754 z" />
  </g>
</svg>
