<?xml version="1.0" encoding="UTF-8" standalone="no"?>
<svg
   viewBox="0 0 36 36"
   version="1.1"
   id="svg8"
   sodipodi:docname="smiling_face.svg"
   inkscape:version="1.1.1 (3bf5ae0d25, 2021-09-20)"
   xmlns:inkscape="http://www.inkscape.org/namespaces/inkscape"
   xmlns:sodipodi="http://sodipodi.sourceforge.net/DTD/sodipodi-0.dtd"
   xmlns="http://www.w3.org/2000/svg"
   xmlns:svg="http://www.w3.org/2000/svg">
  <defs
     id="defs12" />
  <sodipodi:namedview
     id="namedview10"
     pagecolor="#ffffff"
     bordercolor="#666666"
     borderopacity="1.0"
     inkscape:pageshadow="2"
     inkscape:pageopacity="0.0"
     inkscape:pagecheckerboard="0"
     showgrid="false"
     inkscape:snap-bbox="true"
     inkscape:bbox-nodes="true"
     inkscape:snap-page="true"
     inkscape:snap-bbox-midpoints="true"
     inkscape:snap-object-midpoints="true"
     inkscape:snap-center="true"
     inkscape:snap-midpoints="true"
     inkscape:snap-nodes="false"
     inkscape:snap-others="false"
     inkscape:snap-bbox-edge-midpoints="false"
     inkscape:zoom="11.277778"
     inkscape:cx="29.216749"
     inkscape:cy="18.931034"
     inkscape:window-width="1920"
     inkscape:window-height="1001"
     inkscape:window-x="-9"
     inkscape:window-y="-9"
     inkscape:window-maximized="1"
     inkscape:current-layer="svg8" />
  <g
     id="g1695"
     transform="matrix(0.55686131,0,0,0.55686131,0.51629707,2.5112483)">
    <path
       style="fill:#ffff00;fill-rule:evenodd;stroke:none;stroke-width:1.84727;stroke-linecap:square;paint-order:stroke fill markers"
       d="M 125.92937,20.089629 C 110.37505,20.367947 94.708482,22.292624 79.81225,26.866146 69.337185,31.17856 59.830286,37.520563 50.270163,43.52579 c -6.579006,3.497265 -7.80092,11.471457 -12.70856,16.499049 -2.191401,3.332201 -6.799008,5.75722 -6.780416,10.153787 -0.200938,1.500503 1.12786,2.006459 2.233772,2.061943 4.825448,1.003516 9.894032,-0.247414 14.784074,-0.463053 11.709768,-0.912754 22.892902,-4.907463 33.840562,-8.722142 -4.533485,1.944625 -9.716073,2.724201 -13.86848,5.448876 -0.781568,1.456551 -0.349501,3.30285 -1.934981,4.524821 -2.760494,4.283695 -9.784425,3.445272 -11.958317,-0.967969 -2.242828,-1.458871 -5.116639,0.277556 -7.603802,-0.02363 -4.771778,0.595213 -9.801317,0.245683 -14.412217,1.367713 -4.159785,8.187539 -6.569616,17.252685 -7.938482,26.304097 -0.958507,12.347138 -1.79754,24.909838 0.216733,37.193108 1.047344,4.45342 1.516129,9.50365 4.442686,13.17081 3.345341,1.90268 5.834091,-2.22532 7.59387,-4.42077 2.341839,-3.19293 0.770829,-0.82871 -0.509758,0.80283 -1.681436,3.08737 -6.312087,4.96794 -5.807807,8.9704 1.28246,2.5588 5.00975,1.55676 7.330924,2.19849 20.041303,2.08344 40.512058,2.78897 60.293577,-1.72459 16.177439,-3.45432 32.773289,-7.38925 46.949869,-16.26113 5.34189,-4.01422 11.05509,-7.88768 15.29369,-13.09143 0.70163,-2.13271 -2.13823,-2.56754 -3.63417,-2.46669 3.72286,-0.36698 7.92172,-0.57977 10.98939,-2.83995 -0.14756,5.64449 -0.72049,11.20956 -2.52588,16.56046 -0.74954,1.68277 -1.64887,3.29751 -2.64902,4.84366 3.5389,-5.2772 4.87601,-11.84468 4.63937,-18.1031 -0.8407,-2.30606 -4.79983,-1.66898 -5.86699,0.13173 -0.008,1.319 -0.27462,2.49668 -1.55219,3.27334 -8.15848,6.95067 -16.29519,14.51381 -26.60658,18.10502 -17.3994,6.56352 -35.724149,10.8519 -54.226043,12.87189 -14.779697,0.91407 -29.58534,0.0331 -44.27674,-1.47203 -2.5267,0.90606 -0.820092,4.29443 0.306428,5.73048 5.604454,8.56813 14.82484,13.71741 23.815446,18.04297 6.362955,1.97886 12.700153,4.02541 18.898282,6.49225 11.412103,3.48002 23.534147,1.99677 35.276137,2.03785 16.03687,-0.0399 32.0278,-3.54624 46.58206,-10.28085 7.67562,-3.29435 15.99375,-5.22455 23.29614,-9.30833 11.0986,-9.05878 18.48325,-21.84803 23.91735,-34.91298 4.08263,-11.47585 5.73111,-23.65069 7.70485,-35.62267 1.34454,-12.125591 0.0375,-24.615804 -3.70367,-36.223001 C 206.00945,53.128332 200.43095,43.070413 192.2409,35.486427 179.24912,24.38554 161.43534,22.543384 145.10449,20.879086 138.72981,20.31602 132.32934,20.027996 125.92937,20.089629 Z m -20.50011,32.376329 c -1.98837,2.082087 -3.0131,5.36983 -3.18264,7.90889 -0.12586,-3.006006 1.30039,-5.906832 3.29624,-8.080718 z m 22.58974,8.686891 c 10.76389,0.310471 21.55036,2.034705 32.00499,4.794973 -5.78814,-1.109842 -11.6189,-3.067722 -17.5332,-2.929678 -2.17287,3.479537 -5.78828,6.973884 -10.25531,6.872188 -3.14119,-0.313029 -4.88211,-3.658099 -4.15825,-6.547623 0.92274,-1.08068 -1.82745,-2.719194 -0.0582,-2.18986 z m -7.24448,0.09451 c -6.10822,0.473622 -12.19931,2.103797 -17.874,4.096203 -0.41144,-1.064486 -0.43354,-2.386066 -0.55081,-3.374523 0.0182,1.973041 1.84443,3.278964 3.63323,2.177451 4.91384,-1.534082 9.92127,-2.795691 15.02736,-2.918223 z"
       id="path6778"
       transform="scale(0.26458333)" />
    <g
       id="g1188"
       transform="matrix(0.47329259,0,0,0.47329259,-18.951236,2.959809)">
      <path
         style="fill:#000000;fill-rule:evenodd;stroke-width:1;stroke-linecap:square;paint-order:stroke fill markers"
         id="path871"
         d="m 61.531819,72.645719 c -0.368813,0.318098 -0.657214,0.713883 -0.937929,1.108244 -0.43796,0.634511 -0.87144,1.271966 -1.336307,1.887233 -0.492445,0.649944 -1.085975,1.210678 -1.671839,1.774098 -0.595712,0.571381 -1.211596,1.120489 -1.851639,1.641612 -0.474472,0.377516 -0.95123,0.752563 -1.437849,1.114378 -0.182104,0.131336 -0.367165,0.258299 -0.553788,0.383079 -0.686917,0.459814 -0.03664,1.431259 0.650274,0.971447 v 0 c 0.202591,-0.135752 0.403786,-0.273452 0.601268,-0.416602 0.5002,-0.372306 0.99082,-0.757473 1.478465,-1.146003 0.664578,-0.541756 1.304992,-1.111523 1.923614,-1.705354 0.630311,-0.606263 1.266039,-1.212167 1.794565,-1.912426 0.47111,-0.624819 0.912953,-1.270273 1.356487,-1.914798 0.221332,-0.312796 0.445342,-0.630454 0.733055,-0.886857 0.635016,-0.529182 -0.113358,-1.427234 -0.748377,-0.898051 z" />
      <path
         style="fill:#000000;fill-rule:evenodd;stroke-width:1;stroke-linecap:square;paint-order:stroke fill markers"
         id="path873"
         d="m 53.982897,81.664573 c 1.247907,0.210342 2.508523,0.348742 3.765558,0.493575 3.964519,0.442024 7.937828,0.793017 11.917013,1.070272 2.740237,0.141136 5.483611,0.289443 8.228706,0.262019 1.794576,-0.01794 2.289392,-0.06441 4.081314,-0.161189 4.217419,-0.262607 8.381037,-1.014606 12.534707,-1.754807 4.133516,-0.715703 8.177545,-1.848133 12.195735,-3.035683 3.03548,-0.968127 6.0811,-1.941648 9.01703,-3.187838 0.55628,-0.236119 1.10352,-0.492988 1.65528,-0.739481 0.55436,-0.292772 1.12175,-0.562113 1.66309,-0.878316 1.07187,-0.626087 2.22199,-1.441789 3.21807,-2.181379 1.3784,-1.023469 2.7059,-2.114137 4.03225,-3.203292 1.37896,-1.141312 2.72181,-2.325015 4.05692,-3.516966 0.61661,-0.550518 -0.16194,-1.42254 -0.77855,-0.872021 v 0 c -1.32307,1.181293 -2.6538,2.354416 -4.02028,3.485586 -1.30673,1.073221 -2.61466,2.147723 -3.97206,3.157048 -0.93574,0.695788 -2.07548,1.507064 -3.08297,2.097696 -0.5186,0.304025 -1.06236,0.562946 -1.59354,0.844418 -0.53829,0.240773 -1.07213,0.491749 -1.61487,0.72232 -2.90131,1.232572 -5.91197,2.193454 -8.91173,3.151166 -3.97663,1.175478 -7.978638,2.297486 -12.069475,3.005873 -4.106743,0.731907 -8.22312,1.477164 -12.392787,1.738382 -1.757902,0.09536 -2.252025,0.141592 -4.012266,0.159496 -2.719946,0.02767 -5.438182,-0.11987 -8.153334,-0.259207 -3.961651,-0.27595 -7.917436,-0.625459 -11.864496,-1.065422 -1.216884,-0.140107 -2.436791,-0.275899 -3.645725,-0.473413 -0.806924,-0.179316 -1.060516,0.961845 -0.25359,1.141163 z" />
      <path
         style="fill:#000000;fill-rule:evenodd;stroke-width:1;stroke-linecap:square;paint-order:stroke fill markers"
         id="path875"
         d="m 124.58129,63.820484 c 0.62376,0 1.24753,0 1.87129,0 0.98571,0.01024 1.96408,-0.03981 2.9394,-0.181433 1.03938,-0.155258 2.03438,-0.494893 3.01072,-0.872157 0.5097,-0.201821 0.97946,-0.48284 1.43964,-0.777007 0.69592,-0.446069 0.0651,-1.430247 -0.63084,-0.984176 v 0 c -0.39354,0.25304 -0.79451,0.496441 -1.23056,0.670917 -0.89462,0.346494 -1.80549,0.661996 -2.75807,0.805718 -0.91909,0.135368 -1.84121,0.177847 -2.77029,0.169137 -0.62376,0 -1.24753,0 -1.87129,0 -0.82661,0 -0.82661,1.169001 0,1.169001 z" />
      <path
         style="fill:#000000;fill-rule:evenodd;stroke-width:1;stroke-linecap:square;paint-order:stroke fill markers"
         id="path877"
         d="m 132.87058,62.121208 c -0.013,0.551074 -0.0875,1.099219 -0.14582,1.646809 -0.12285,1.239184 -0.25046,2.477444 -0.42796,3.71013 -0.11208,0.971717 -0.35451,1.912112 -0.67289,2.834378 -0.3006,0.839415 -0.74685,1.61381 -1.21938,2.366002 -0.31879,0.48572 -0.65117,0.962311 -0.99336,1.431785 -0.4867,0.668128 0.45817,1.356437 0.94488,0.688306 v 0 c 0.35781,-0.49144 0.70595,-0.989928 1.03869,-1.498757 0.51916,-0.828262 1.00629,-1.682202 1.33451,-2.606825 0.34067,-0.992169 0.60256,-2.003944 0.72463,-3.048426 0.17922,-1.246913 0.30944,-2.499289 0.4333,-3.752781 0.0627,-0.588717 0.14199,-1.177965 0.1524,-1.770621 0,-0.826609 -1.169,-0.826609 -1.169,0 z" />
      <path
         style="fill:#000000;fill-rule:evenodd;stroke-width:1;stroke-linecap:square;paint-order:stroke fill markers"
         id="path881"
         d="m 62.533373,24.704855 c -0.257223,0.283986 -0.521787,0.561084 -0.77887,0.845176 -0.607451,0.69424 -1.200988,1.400059 -1.811144,2.091953 -0.663281,0.744828 -1.343216,1.474604 -2.010108,2.216192 -0.511485,0.568132 -1.003623,1.153258 -1.483014,1.748613 -0.350012,0.43892 -0.691988,0.88356 -1.01406,1.343427 -0.344535,0.500128 -0.646616,1.072081 -0.086,1.592614 0.131128,0.121753 0.31568,0.168574 0.47352,0.252862 0.190174,0.0403 0.377885,0.09479 0.570521,0.120899 0.42191,0.05719 1.10835,0.0665 1.522452,0.0716 0.819152,0.01011 1.638244,-0.0029 2.457204,-0.01855 1.435793,-0.02788 2.866017,-0.162721 4.296381,-0.280119 1.466551,-0.10441 2.929723,-0.24261 4.389932,-0.413451 1.528908,-0.177364 3.036858,-0.489641 4.538294,-0.821624 1.480119,-0.322276 2.932454,-0.752716 4.380498,-1.193946 1.526167,-0.474586 3.030463,-1.014881 4.540821,-1.536525 1.308891,-0.446347 2.609916,-0.915437 3.906457,-1.396378 0.682011,-0.25295 0.349459,-0.128778 0.997738,-0.372304 0.773811,-0.290689 0.362715,-1.385022 -0.411096,-1.094332 v 0 c -0.643716,0.241824 -0.312666,0.118211 -0.993225,0.370618 -1.288243,0.477922 -2.580984,0.943951 -3.881517,1.387448 -1.496806,0.517012 -2.987601,1.052502 -4.499954,1.523244 -1.418886,0.432456 -2.841813,0.854942 -4.292166,1.170757 -1.462907,0.323633 -2.932038,0.628904 -4.421735,0.801965 -1.446802,0.169371 -2.896574,0.306009 -4.349673,0.409446 -1.406014,0.115398 -2.811859,0.248554 -4.2232,0.276415 -1.354704,0.02609 -2.723433,0.0798 -4.070739,-0.08115 -0.02845,0.0052 -0.07628,-0.01196 -0.08534,0.0155 -0.01852,0.05617 0.02787,0.11716 0.0222,0.176027 -0.02006,0.207748 -0.113713,0.173977 0.05498,-0.104333 0.03846,-0.06345 0.08098,-0.124341 0.121468,-0.18651 0.306615,-0.438661 0.633497,-0.861814 0.966785,-1.280488 0.466023,-0.578853 0.944422,-1.147781 1.441727,-1.700104 0.669351,-0.744448 1.352061,-1.476799 2.017633,-2.224643 0.606944,-0.68828 1.197798,-1.390029 1.801482,-2.081132 0.243697,-0.269788 0.495956,-0.531611 0.73836,-0.802572 0.584499,-0.584501 -0.24211,-1.411109 -0.826609,-0.826609 z" />
      <path
         style="fill:#000000;fill-rule:evenodd;stroke-width:1;stroke-linecap:square;paint-order:stroke fill markers"
         id="path883"
         d="m 69.812315,34.37972 c 0.150206,0.417703 0.40101,0.779518 0.693994,1.107998 0.504904,0.52364 1.144931,0.843209 1.821894,1.081617 0.746228,0.255227 1.507405,0.272999 2.278742,0.157363 0.697566,-0.134247 1.308254,-0.476916 1.873004,-0.893519 0.497996,-0.379502 0.8836,-0.870524 1.228577,-1.387118 0.244586,-0.367318 0.431525,-0.765243 0.5461,-1.190868 0.04437,-0.220554 0.02647,-0.109101 0.05347,-0.334402 0.08816,-0.821893 -1.074176,-0.946568 -1.162333,-0.124674 v 0 c -0.008,0.103484 -0.0013,0.04777 -0.02302,0.166799 -0.07129,0.301646 -0.222408,0.575675 -0.387538,0.835668 -0.269078,0.406371 -0.565798,0.79721 -0.954606,1.097851 -0.406619,0.3086 -0.848965,0.564719 -1.352991,0.675098 -0.582819,0.09467 -1.152674,0.08449 -1.718784,-0.107495 -0.496118,-0.165502 -0.966631,-0.393854 -1.341789,-0.767326 -0.192128,-0.197662 -0.340982,-0.431038 -0.44572,-0.686663 -0.261398,-0.78419 -1.370409,-0.41452 -1.109012,0.369671 z" />
      <path
         style="fill:#000000;fill-rule:evenodd;stroke-width:1;stroke-linecap:square;paint-order:stroke fill markers"
         id="path893"
         d="m 97.597107,30.890109 c 0.07071,-0.02267 0.142018,-0.04357 0.212132,-0.06802 0.302848,-0.105606 0.599025,-0.232603 0.899094,-0.345554 0.607163,-0.22855 0.53612,-0.198165 1.191408,-0.421309 0.958859,-0.319955 1.925809,-0.618456 2.910329,-0.849895 0.62365,-0.146603 0.86885,-0.183896 1.49904,-0.300098 1.61385,-0.282416 3.25105,-0.369914 4.8861,-0.4093 1.76275,-0.02696 3.52441,0.05046 5.28317,0.16051 1.72374,0.09716 3.43617,0.31555 5.1422,0.572987 1.67915,0.25672 3.35192,0.551883 5.01932,0.875725 1.44027,0.292802 2.87669,0.605444 4.30296,0.960483 0.77608,0.206224 0.39346,0.102518 1.14795,0.310835 0.7968,0.219964 1.10787,-0.906888 0.31107,-1.126852 v 0 c -0.7714,-0.212908 -0.37917,-0.106659 -1.17676,-0.318397 -1.44602,-0.359627 -2.90212,-0.677196 -4.36236,-0.97363 -1.68351,-0.326924 -3.37244,-0.62494 -5.06782,-0.884089 -1.73969,-0.262308 -3.48593,-0.484577 -5.24362,-0.583785 -1.79251,-0.111969 -3.58796,-0.190545 -5.38452,-0.162443 -1.69673,0.0416 -3.39559,0.133778 -5.07009,0.428413 -0.67021,0.124068 -0.91054,0.160197 -1.57485,0.316727 -1.0145,0.239046 -2.01109,0.546532 -2.999253,0.876314 -0.719762,0.245533 -1.439699,0.49899 -2.140932,0.7924 -0.81245,0.152334 -0.597016,1.301311 0.215432,1.148978 z" />
      <path
         style="fill:#000000;fill-rule:evenodd;stroke-width:1;stroke-linecap:square;paint-order:stroke fill markers"
         id="path895"
         d="m 111.14678,28.660402 c -0.0534,0.323257 -0.0633,0.65187 -0.0798,0.978524 -0.0274,0.502248 -0.0158,1.011402 0.0843,1.505982 0.02,0.0991 0.0475,0.196567 0.0712,0.294852 0.16954,0.522316 0.48806,0.972002 0.91812,1.312791 0.0828,0.06557 0.17202,0.122457 0.25803,0.183687 0.52403,0.350943 1.1384,0.471691 1.76184,0.460605 0.13822,-0.0024 0.27592,-0.01746 0.41388,-0.02622 0.8503,-0.07973 1.61211,-0.359482 2.37751,-0.721453 0.67208,-0.334708 1.23262,-0.832604 1.75584,-1.362207 0.37466,-0.405387 0.69179,-0.857832 0.96724,-1.334992 0.19875,-0.344218 0.342,-0.71142 0.43024,-1.09814 0.17702,-0.807429 -0.96486,-1.057778 -1.14188,-0.250346 v 0 c -0.0552,0.271954 -0.16714,0.52451 -0.30208,0.766294 -0.22344,0.391596 -0.48375,0.761243 -0.78604,1.096531 -0.42657,0.433856 -0.87909,0.848889 -1.42602,1.127469 -0.61897,0.297394 -1.26737,0.541605 -1.95583,0.610653 -0.49111,0.03821 -0.99745,0.05482 -1.42565,-0.226817 -0.31657,-0.214034 -0.57401,-0.450987 -0.71042,-0.818626 -0.12219,-0.477578 -0.16022,-0.968928 -0.12275,-1.461047 0.015,-0.297966 0.0227,-0.597771 0.0723,-0.892551 0.10252,-0.820227 -1.05745,-0.965224 -1.15998,-0.144997 z" />
      <path
         style="fill:#000000;fill-rule:evenodd;stroke-width:1;stroke-linecap:square;paint-order:stroke fill markers"
         id="path964"
         d="m 98.982476,22.276832 c -0.420301,0.282907 -0.746421,0.673679 -1.053296,1.071083 -0.380431,0.52211 -0.648279,1.11237 -0.888195,1.708892 -0.189556,0.471607 -0.313227,0.964688 -0.397973,1.464735 -0.06621,0.391083 -0.09955,0.785087 -0.09603,1.18147 0.0021,0.3721 0.06187,0.737931 0.14953,1.098328 0.07948,0.290812 0.175736,0.576501 0.264234,0.864568 0.09144,0.282851 0.188875,0.560467 0.333623,0.820704 0.101918,0.152254 0.05325,0.08373 0.144283,0.20679 0.494302,0.662527 1.431261,-0.03652 0.936956,-0.699053 v 0 c -0.0464,-0.06128 -0.02394,-0.03136 -0.06741,-0.08974 -0.111221,-0.178753 -0.1542,-0.387892 -0.230127,-0.582441 -0.08198,-0.266149 -0.170103,-0.530357 -0.245983,-0.798388 -0.06742,-0.274225 -0.115528,-0.55196 -0.116197,-0.83557 -0.0059,-0.326594 0.02749,-0.650719 0.07997,-0.973005 0.06942,-0.417692 0.172337,-0.829497 0.330171,-1.223387 0.198898,-0.497926 0.418418,-0.992557 0.730139,-1.431688 0.212429,-0.278213 0.43311,-0.546857 0.706292,-0.768326 0.717697,-0.410112 0.13771,-1.425089 -0.579985,-1.014976 z" />
      <path
         style="fill:#000000;fill-rule:evenodd;stroke-width:1;stroke-linecap:square;paint-order:stroke fill markers"
         id="path966"
         d="m 57.035337,79.382381 c -0.194734,-0.526812 -0.373814,-1.058662 -0.575588,-1.583018 -0.508929,-1.023533 -0.986472,-2.055614 -1.358921,-3.137027 -0.459309,-1.400818 -0.755682,-2.844559 -1.020837,-4.292171 -0.262154,-1.407663 -0.419036,-2.830896 -0.553302,-4.255418 -0.151341,-1.483604 -0.15036,-2.975891 -0.142525,-4.465299 0.01185,-1.259221 0.02709,-2.518407 0.03994,-3.777618 0.01111,-1.168418 0.01397,-2.336757 0.04613,-3.504832 0.03859,-1.465014 0.224171,-2.920312 0.408001,-4.372576 0.195834,-1.473596 0.453662,-2.937253 0.753417,-4.39294 0.249854,-1.189463 0.575103,-2.361679 0.927571,-3.524348 0.279291,-0.945361 0.585306,-1.881997 0.904327,-2.814539 0.222062,-0.663869 0.461174,-1.32234 0.7205,-1.97258 0.235165,-0.542507 0.513543,-1.066573 0.800553,-1.583362 0.255106,-0.445281 0.524914,-0.881793 0.795147,-1.317961 0.435334,-0.702683 -0.558409,-1.318342 -0.993744,-0.615659 v 0 c -0.280098,0.45213 -0.559704,0.904668 -0.82364,1.366528 -0.310591,0.560435 -0.61224,1.128461 -0.864314,1.71782 -0.26598,0.668348 -0.51262,1.344573 -0.740569,2.026828 -0.32349,0.945599 -0.633709,1.895385 -0.917035,2.853946 -0.362431,1.196779 -0.697087,2.403274 -0.953791,3.627641 -0.305596,1.485162 -0.56869,2.978418 -0.768173,4.481852 -0.188576,1.490331 -0.377687,2.983843 -0.416808,4.487256 -0.03219,1.1748 -0.03554,2.349855 -0.04651,3.525001 -0.01286,1.261145 -0.02812,2.522263 -0.03998,3.783418 -0.008,1.528093 -0.0075,3.059051 0.147669,4.58117 0.137586,1.458352 0.298902,2.915306 0.567288,4.356394 0.276061,1.505661 0.586287,3.006992 1.065855,4.463423 0.37918,1.092927 0.848408,2.144029 1.37283,3.175108 0.195586,0.507611 0.368589,1.022726 0.557501,1.532633 0.261395,0.784191 1.370407,0.41452 1.109012,-0.36967 z" />
      <path
         style="fill:#000000;fill-rule:evenodd;stroke-width:1;stroke-linecap:square;paint-order:stroke fill markers"
         id="path970"
         d="m 63.407167,25.008698 c 0.387769,-0.523792 0.627992,-1.14292 0.908125,-1.727968 0.385527,-0.825305 0.853358,-1.6099 1.352081,-2.371099 0.6834,-0.941961 1.60601,-1.648024 2.546721,-2.313345 1.83244,-1.234437 3.755009,-2.329199 5.653577,-3.457612 2.069412,-1.257598 4.154704,-2.489157 6.26133,-3.683418 1.221483,-0.683066 2.462321,-1.339774 3.763732,-1.8596312 0.922007,-0.3683018 1.235329,-0.4474376 2.193337,-0.7505149 2.724857,-0.7755438 5.50567,-1.3312016 8.291426,-1.8354323 2.994715,-0.5295773 6.014244,-0.8964557 9.034814,-1.2405167 2.82,-0.3088494 5.6614,-0.3860726 8.4964,-0.3670337 2.70534,0.038504 5.40385,0.2403758 8.09851,0.4696185 2.13146,0.1792875 4.26013,0.3881694 6.38261,0.65366 1.88903,0.2555735 3.77637,0.5277435 5.65374,0.8589925 1.6489,0.2613385 3.26873,0.6510949 4.86861,1.1229311 1.6369,0.4978789 3.19642,1.2029847 4.74021,1.9322547 1.41117,0.666395 2.76767,1.436792 4.04703,2.329645 1.02646,0.752531 1.94734,1.634013 2.86731,2.509977 0.93462,0.928185 1.70416,2.001405 2.4653,3.071382 0.74741,1.034908 1.46792,2.089563 2.16237,3.160703 0.6307,0.998461 1.18447,2.043573 1.7191,3.095865 0.56832,1.132965 1.10014,2.283599 1.5978,3.449223 0.59007,1.389232 1.00656,2.841033 1.37518,4.301839 0.45668,1.813807 0.75619,3.65905 1.01594,5.509454 0.26846,1.882132 0.39361,3.779631 0.45495,5.678532 0.0679,1.89656 -0.0676,3.793096 -0.25329,5.679379 -0.18547,1.952649 -0.55711,3.878236 -0.94084,5.799378 -0.38429,1.821609 -0.72718,3.651509 -1.09328,5.476738 -0.34445,1.69111 -0.70996,3.378091 -1.11911,5.054764 -0.47483,1.732743 -1.06567,3.429518 -1.72064,5.101468 -0.73923,1.788676 -1.71295,3.466227 -2.64191,5.160158 -0.77883,1.441034 -1.65487,2.824623 -2.53006,4.207986 -0.78415,1.283631 -1.64095,2.514034 -2.59165,3.679187 -1.08033,1.266103 -2.28199,2.419618 -3.5019,3.548949 -0.78024,0.683853 -1.55447,1.388928 -2.48122,1.871604 -0.64387,0.335349 -1.04907,0.474634 -1.73253,0.745988 -1.84319,0.674695 -3.70367,1.300829 -5.55459,1.953942 -1.24381,0.423151 -2.48526,0.848601 -3.70393,1.340083 -0.90115,0.359646 -1.79766,0.730787 -2.68259,1.128779 -0.69061,0.322913 -1.37366,0.66158 -2.0654,0.982154 -0.98437,0.455393 -2.01114,0.802344 -3.04884,1.112454 -1.16643,0.33559 -2.34668,0.622859 -3.52922,0.895715 -1.25387,0.283692 -2.49992,0.600017 -3.75145,0.893292 -1.78647,0.402524 -3.61064,0.592309 -5.42871,0.786741 -1.67379,0.177517 -3.35189,0.309301 -5.03114,0.421915 -1.56557,0.112229 -3.13378,0.169043 -4.702463,0.213212 -1.934236,0.06013 -3.870089,0.01894 -5.803077,-0.06078 -1.446543,-0.05525 -2.88894,-0.17807 -4.330348,-0.3072 -1.029761,-0.08118 -2.054174,-0.212151 -3.075596,-0.363757 -0.766601,-0.120587 -1.525555,-0.281718 -2.276702,-0.475671 -0.649878,-0.170606 -1.276668,-0.412369 -1.895147,-0.672137 -0.712859,-0.340675 -1.440019,-0.649083 -2.16649,-0.959072 -0.682882,-0.298804 -1.382422,-0.554717 -2.091786,-0.782497 -0.66852,-0.22583 -1.357929,-0.375759 -2.044144,-0.535099 -0.604927,-0.128582 -1.205151,-0.271767 -1.790007,-0.47354 -0.614685,-0.217843 -1.207706,-0.490123 -1.801775,-0.757725 -0.637829,-0.261548 -1.245013,-0.57981 -1.837709,-0.929809 -0.764804,-0.433255 -1.520975,-0.881317 -2.275969,-1.331362 -0.685821,-0.410501 -1.370407,-0.822122 -2.042062,-1.255453 -0.616771,-0.389613 -1.206834,-0.820032 -1.791621,-1.255671 -0.52949,-0.36549 -1.021432,-0.776232 -1.488046,-1.217985 -0.431773,-0.454263 -0.851305,-0.920279 -1.234879,-1.4161 -0.35718,-0.4713 -0.724879,-0.934607 -1.090761,-1.399199 -0.336896,-0.431353 -0.684847,-0.852985 -1.007779,-1.295146 -0.309383,-0.449895 -0.61059,-0.905309 -0.915951,-1.357918 -0.274502,-0.37845 -0.503549,-0.778735 -0.68649,-1.207966 -0.326715,-0.759301 -1.40053,-0.297254 -1.073814,0.462047 v 0 c 0.214561,0.494877 0.474054,0.962139 0.791257,1.39976 0.31364,0.464796 0.622562,0.932785 0.941361,1.394089 0.331635,0.453036 0.686946,0.886603 1.03304,1.32842 0.364087,0.462267 0.730001,0.923234 1.085328,1.392253 0.42131,0.542206 0.878732,1.054899 1.355411,1.549059 0.500226,0.472705 1.026501,0.913977 1.593048,1.306222 0.60588,0.45117 1.21735,0.896688 1.856174,1.300458 0.683286,0.440772 1.379524,0.859788 2.077243,1.277276 0.756468,0.45089 1.514031,0.899957 2.280359,1.333969 0.629762,0.371451 1.274863,0.710125 1.951818,0.988946 0.626941,0.282295 1.253067,0.568838 1.902183,0.797475 0.623239,0.213112 1.260776,0.371322 1.905304,0.506622 0.654986,0.152 1.31337,0.293761 1.951413,0.509511 0.675039,0.216302 1.340416,0.46016 1.990071,0.744577 0.728626,0.310883 1.4575,0.621038 2.172894,0.961781 0.670713,0.281274 1.350862,0.541864 2.0556,0.726178 0.790901,0.203738 1.589868,0.373706 2.397033,0.500044 1.043776,0.15486 2.090626,0.28855 3.142887,0.37176 1.460109,0.1308 2.921244,0.25487 4.386549,0.31087 1.959988,0.0806 3.922847,0.12233 5.8841,0.0613 1.583803,-0.0446 3.167123,-0.10214 4.747773,-0.21537 1.69465,-0.1137 3.38812,-0.24673 5.07724,-0.42593 1.866,-0.199636 3.73797,-0.396224 5.57121,-0.810972 1.25016,-0.293221 2.495,-0.608803 3.74752,-0.892373 1.20676,-0.278593 2.4112,-0.571807 3.60141,-0.914829 1.09102,-0.326802 2.17047,-0.692636 3.20545,-1.171836 0.68766,-0.31895 1.36717,-0.654868 2.05344,-0.976689 0.87074,-0.392117 1.75347,-0.756443 2.64021,-1.110707 1.20256,-0.485341 2.42829,-0.903581 3.65556,-1.321798 1.86556,-0.65828 3.74096,-1.288822 5.5982,-1.970317 0.74639,-0.298239 1.1888,-0.450665 1.89391,-0.825143 0.99669,-0.529331 1.84159,-1.277311 2.68145,-2.020679 1.25975,-1.166574 2.5,-2.358837 3.61383,-3.668164 0.97895,-1.202294 1.86531,-2.468976 2.67341,-3.792757 0.8882,-1.403935 1.77664,-2.808481 2.56715,-4.270875 0.953,-1.737794 1.95053,-3.459504 2.70545,-5.296049 0.67342,-1.72073 1.28161,-3.466843 1.7678,-5.250621 0.41276,-1.692384 0.78214,-3.395012 1.1296,-5.101963 0.36606,-1.825551 0.70919,-3.655716 1.09346,-5.477645 0.39123,-1.959052 0.76884,-3.922853 0.95788,-5.913996 0.19004,-1.936922 0.32835,-3.884208 0.25827,-5.83162 -0.0632,-1.940584 -0.19114,-3.879739 -0.46569,-5.803188 -0.26578,-1.892041 -0.57307,-3.778687 -1.0402,-5.63326 -0.38443,-1.519592 -0.81871,-3.02967 -1.43352,-4.474657 -0.50821,-1.189304 -1.05041,-2.363693 -1.6307,-3.519671 -0.55344,-1.088671 -1.12685,-2.169789 -1.78043,-3.202291 -0.70385,-1.085068 -1.43336,-2.153907 -2.19069,-3.202386 -0.80468,-1.130588 -1.62077,-2.262432 -2.6117,-3.240275 -0.963,-0.916821 -1.92836,-1.837827 -3.00509,-2.622467 -1.33416,-0.928266 -2.74514,-1.734507 -4.21611,-2.4275605 -1.59839,-0.7547425 -3.21388,-1.4825043 -4.90896,-1.9965297 -1.64192,-0.4836014 -3.30413,-0.8842097 -4.99608,-1.1528549 -1.89668,-0.3342701 -3.80324,-0.6100119 -5.71171,-0.8677232 -2.1378,-0.2671771 -4.28175,-0.4780738 -6.42858,-0.6584858 -2.72505,-0.2317334 -5.45404,-0.4354081 -8.1899,-0.4737991 -2.88176,-0.018537 -5.76992,0.059718 -8.63639,0.3745206 -3.04599,0.3470158 -6.090891,0.7173775 -9.110769,1.2517059 -2.83469,0.5133615 -5.664414,1.0792653 -8.436395,1.8713765 -1.015119,0.3223826 -1.325399,0.3998602 -2.303521,0.7916473 -1.340024,0.5367475 -2.618687,1.2121671 -3.876871,1.9159259 -2.113475,1.198361 -4.205872,2.433582 -6.282039,3.69544 -1.92555,1.144449 -3.875508,2.254729 -5.732541,3.508959 -1.05849,0.752506 -2.09037,1.55631 -2.848801,2.627001 -0.525891,0.805239 -1.020953,1.633776 -1.428157,2.506187 -0.236424,0.493856 -0.444138,1.011946 -0.74131,1.472007 -0.537948,0.627608 0.349623,1.388383 0.887571,0.760776 z" />
    </g>
    <path
       style="fill:#000000;fill-rule:evenodd;stroke:none;stroke-width:0.326554;stroke-linecap:square;paint-order:stroke fill markers"
       d="m 66.280243,68.385419 c -2.132584,0.51343 -4.162023,1.172169 -6.313507,1.629277 -1.652233,0.403364 -3.344249,0.66928 -4.999582,1.068173 -0.857638,0.401036 -0.653537,1.523117 -0.18936,2.149941 1.016861,1.509046 2.813392,2.348775 4.5703,2.614807 1.396678,0.102853 2.883721,0.04227 4.093998,-0.747575 1.706821,-0.927117 3.003891,-2.517248 3.715153,-4.308224 0.238611,-0.720119 0.618024,-1.766169 -0.212964,-2.261441 -0.199849,-0.118441 -0.433506,-0.164188 -0.664038,-0.144958 z"
       id="path5789"
       transform="scale(0.26458333)" />
    <path
       style="fill:#000000;fill-rule:evenodd;stroke:none;stroke-width:0.461818;stroke-linecap:square;paint-order:stroke fill markers"
       d="m 128.80559,61.388875 c -0.81537,0.702235 -0.52662,1.922087 -0.64592,2.888139 -0.0405,1.547779 -0.0225,3.352378 1.29338,4.421498 0.94043,0.907286 2.27218,1.238775 3.54734,1.046946 3.70662,-0.196689 7.15772,-2.666128 8.69593,-6.013032 0.34071,-0.838004 -0.46212,-1.610542 -1.28609,-1.574857 -3.70754,-0.454548 -7.44852,-0.789954 -11.17688,-0.872365 -0.14258,0.03456 -0.28517,0.06911 -0.42776,0.103671 z"
       id="path5828"
       transform="scale(0.26458333)" />
    <path
       style="fill:#333333;fill-rule:evenodd;stroke:none;stroke-width:1;stroke-linecap:square;paint-order:stroke fill markers"
       id="path11633"
       d="m 14.954241,44.159849 c 0.340951,0.137523 0.70469,0.205878 1.063381,0.279342 0.719241,0.133168 1.446922,0.2163 2.175646,0.275513 0.643627,0.04611 1.289042,0.02724 1.932649,-0.0062 0.481388,-0.02859 0.961096,-0.079 1.439705,-0.137097 0.434505,-0.05278 0.359862,-0.667266 -0.07464,-0.614484 v 0 c -0.464501,0.05646 -0.930073,0.105458 -1.397266,0.133419 -0.616216,0.03216 -1.234167,0.05096 -1.850454,0.0074 -0.703914,-0.05687 -1.40678,-0.1373 -2.101659,-0.264993 -0.317711,-0.06482 -0.640286,-0.123651 -0.943522,-0.241835 -0.402309,-0.172418 -0.646145,0.396534 -0.243836,0.568952 z" />
    <path
       style="fill:#333333;fill-rule:evenodd;stroke:none;stroke-width:1;stroke-linecap:square;paint-order:stroke fill markers"
       id="path11635"
       d="m 16.7,46.229269 c 0.151747,0.07733 0.313805,0.130152 0.476764,0.177848 0.308815,0.08639 0.626188,0.132157 0.944281,0.167084 0.320494,0.03184 0.642481,0.03866 0.964211,0.03073 0.252659,-0.007 0.504848,-0.02479 0.757054,-0.04075 0.03185,-0.0019 0.06369,-0.004 0.09554,-0.0059 0.436856,-0.02716 0.398443,-0.644969 -0.03841,-0.617807 v 0 c -0.03207,0.0021 -0.06413,0.004 -0.0962,0.006 -0.244348,0.01545 -0.488675,0.03281 -0.733456,0.03971 -0.29415,0.0075 -0.588507,0.0013 -0.881576,-0.02726 -0.282506,-0.03063 -0.564442,-0.07037 -0.83891,-0.146209 -0.134675,-0.03866 -0.268257,-0.08241 -0.393151,-0.146894 -0.398467,-0.18112 -0.654611,0.382397 -0.256144,0.563518 z" />
  </g>
</svg>
