<?xml version="1.0" encoding="UTF-8" standalone="no"?>
<svg
   version="1.1"
   id="レイヤー_1"
   x="0px"
   y="0px"
   width="76px"
   height="76px"
   viewBox="0 0 76 76"
   enable-background="new 0 0 76 76"
   xml:space="preserve"
   sodipodi:docname="5.svg"
   inkscape:version="1.1.1 (3bf5ae0d25, 2021-09-20, custom)"
   xmlns:inkscape="http://www.inkscape.org/namespaces/inkscape"
   xmlns:sodipodi="http://sodipodi.sourceforge.net/DTD/sodipodi-0.dtd"
   xmlns="http://www.w3.org/2000/svg"
   xmlns:svg="http://www.w3.org/2000/svg"
   xmlns:rdf="http://www.w3.org/1999/02/22-rdf-syntax-ns#"
   xmlns:cc="http://creativecommons.org/ns#"
   xmlns:dc="http://purl.org/dc/elements/1.1/"><metadata
   id="metadata2662"><rdf:RDF><cc:Work
       rdf:about=""><dc:format>image/svg+xml</dc:format><dc:type
         rdf:resource="http://purl.org/dc/dcmitype/StillImage" /></cc:Work></rdf:RDF></metadata><defs
   id="defs2660" /><sodipodi:namedview
   pagecolor="#ffffff"
   bordercolor="#666666"
   borderopacity="1"
   objecttolerance="10"
   gridtolerance="10"
   guidetolerance="10"
   inkscape:pageopacity="0"
   inkscape:pageshadow="2"
   inkscape:window-width="1920"
   inkscape:window-height="995"
   id="namedview2658"
   showgrid="false"
   inkscape:zoom="7.8049168"
   inkscape:cx="16.720229"
   inkscape:cy="26.201432"
   inkscape:window-x="0"
   inkscape:window-y="55"
   inkscape:window-maximized="1"
   inkscape:current-layer="レイヤー_1"
   inkscape:pagecheckerboard="0" />
<g
   id="rect1313_66_">
	<polygon
   fill="#B9B9B9"
   points="75.001,75.001 1,75.001 1,1 75.001,1 75.001,75.001  "
   id="polygon2652" />
	<path
   fill="#757575"
   d="M75.991,0C75.996,0,76,0.004,76,0.009V75.99c0,0.006-0.004,0.01-0.009,0.01H0.009   C0.004,76,0,75.996,0,75.99V0.009C0,0.004,0.004,0,0.009,0H75.991 M74,2H2v72h72V2L74,2z"
   id="path2654" />
</g>
<path
   style="fill:#666666;stroke:#ff0000;stroke-width:0;stroke-linecap:round;stroke-linejoin:round;paint-order:markers fill stroke;stroke-miterlimit:4;stroke-dasharray:none"
   d="M 0.06950256,38.0029 V 0.02465109 H 38.001605 75.933708 V 38.0029 75.981149 H 38.001605 0.06950256 Z m 74.01836044,0 V 1.9627877 H 38.001605 1.915347 V 38.0029 74.043012 h 36.086258 36.086258 z"
   id="path8366" /><path
   style="fill:#1a1a1a;stroke:#ff0000;stroke-width:0;stroke-linecap:round;stroke-linejoin:round;stroke-miterlimit:4;stroke-dasharray:none;paint-order:markers fill stroke"
   d="M 2.0942343,38.014116 V 2.057038 H 38.001989 73.909743 V 38.014116 73.971195 H 38.001989 2.0942343 Z"
   id="path8368" /><path
   style="fill:#840000;fill-opacity:1;stroke:#fffffe;stroke-width:0.0145067;stroke-miterlimit:4;stroke-dasharray:none"
   d="m 35.594496,50.350636 c -2.015123,-0.457054 -3.626224,-1.193158 -5.168615,-2.361514 -2.256405,-1.709223 -3.858619,-4.173875 -4.616015,-7.100721 -0.403284,-1.55843 -0.403284,-4.243299 0,-5.801728 0.99016,-3.826325 3.391443,-6.797371 6.824689,-8.444018 1.966693,-0.94326 2.87469,-1.135404 5.365446,-1.135404 2.490754,0 3.398752,0.192144 5.365444,1.135404 3.433248,1.646647 5.834531,4.617693 6.824691,8.444018 0.403282,1.558429 0.403282,4.243298 0,5.801728 -0.99018,3.826404 -3.391822,6.797838 -6.824691,8.443863 -1.836566,0.880613 -2.778323,1.09425 -5.064015,1.148768 -1.396504,0.03331 -2.143898,-0.0027 -2.706934,-0.130396 z"
   id="path4686" /><path
   style="fill:#840000;fill-opacity:1;stroke:#fffffe;stroke-width:0.0145067;stroke-miterlimit:4;stroke-dasharray:none"
   d="M 56.094494,70.850638 C 54.079371,70.393584 52.46827,69.65748 50.925879,68.489124 48.669474,66.779901 47.06726,64.315249 46.309864,61.388403 c -0.403284,-1.55843 -0.403284,-4.243299 0,-5.801728 0.99016,-3.826325 3.391443,-6.797371 6.824689,-8.444018 1.966693,-0.94326 2.87469,-1.135404 5.365446,-1.135404 2.490754,0 3.398752,0.192144 5.365444,1.135404 3.433248,1.646647 5.834531,4.617693 6.824691,8.444018 0.403282,1.558429 0.403282,4.243298 0,5.801728 -0.99018,3.826404 -3.391822,6.797838 -6.824691,8.443863 -1.836566,0.880613 -2.778323,1.09425 -5.064015,1.148768 -1.396504,0.03331 -2.143898,-0.0027 -2.706934,-0.130396 z"
   id="path4686-6" /><path
   style="fill:#840000;fill-opacity:1;stroke:#fffffe;stroke-width:0.0145067;stroke-miterlimit:4;stroke-dasharray:none"
   d="M 15.094494,70.850638 C 13.079371,70.393584 11.46827,69.65748 9.9258804,68.489124 c -2.256406,-1.709223 -3.85862,-4.173875 -4.616016,-7.100721 -0.403284,-1.55843 -0.403284,-4.243299 0,-5.801728 0.990161,-3.826325 3.391443,-6.797371 6.8246886,-8.444018 1.966693,-0.94326 2.87469,-1.135404 5.365446,-1.135404 2.490754,0 3.398752,0.192144 5.365444,1.135404 3.433248,1.646647 5.834531,4.617693 6.824691,8.444018 0.403282,1.558429 0.403282,4.243298 0,5.801728 -0.99018,3.826404 -3.391822,6.797838 -6.824691,8.443863 -1.836566,0.880613 -2.778323,1.09425 -5.064015,1.148768 -1.396504,0.03331 -2.143898,-0.0027 -2.706934,-0.130396 z"
   id="path4686-6-7" /><path
   style="fill:#840000;fill-opacity:1;stroke:#fffffe;stroke-width:0.0145067;stroke-miterlimit:4;stroke-dasharray:none"
   d="m 15.094495,29.850638 c -2.015123,-0.457054 -3.626224,-1.193158 -5.1686146,-2.361514 -2.256405,-1.709223 -3.858619,-4.173875 -4.616015,-7.100721 -0.403285,-1.55843 -0.403285,-4.243299 0,-5.801728 0.99016,-3.826325 3.391443,-6.7973706 6.8246886,-8.4440176 1.966693,-0.94326 2.87469,-1.135404 5.365446,-1.135404 2.490754,0 3.398752,0.192144 5.365444,1.135404 3.433248,1.646647 5.834531,4.6176926 6.824691,8.4440176 0.403282,1.558429 0.403282,4.243298 0,5.801728 -0.99018,3.826404 -3.391822,6.797838 -6.824691,8.443863 -1.836566,0.880613 -2.778323,1.09425 -5.064015,1.148768 -1.396504,0.03331 -2.143898,-0.0027 -2.706934,-0.130396 z"
   id="path4686-6-7-5" /><path
   style="fill:#840000;fill-opacity:1;stroke:#fffffe;stroke-width:0.0145067;stroke-miterlimit:4;stroke-dasharray:none"
   d="m 56.094495,29.850638 c -2.015123,-0.457054 -3.626224,-1.193158 -5.168616,-2.361514 -2.256405,-1.709223 -3.858619,-4.173875 -4.616015,-7.100721 -0.403284,-1.55843 -0.403284,-4.243299 0,-5.801728 0.99016,-3.826325 3.391443,-6.7973706 6.82469,-8.4440176 1.966693,-0.94326 2.87469,-1.135404 5.365446,-1.135404 2.490754,0 3.398752,0.192144 5.365444,1.135404 3.433248,1.646647 5.834531,4.6176926 6.824691,8.4440176 0.403282,1.558429 0.403282,4.243298 0,5.801728 -0.99018,3.826404 -3.391822,6.797838 -6.824691,8.443863 -1.836566,0.880613 -2.778323,1.09425 -5.064015,1.148768 -1.396504,0.03331 -2.143898,-0.0027 -2.706934,-0.130396 z"
   id="path4686-6-7-5-3" /></svg>
