<?xml version="1.0" encoding="UTF-8" standalone="no"?>
<svg
   version="1.1"
   id="レイヤー_1"
   x="0px"
   y="0px"
   width="76px"
   height="76px"
   viewBox="0 0 76 76"
   enable-background="new 0 0 76 76"
   xml:space="preserve"
   sodipodi:docname="6.svg"
   inkscape:version="1.1.1 (3bf5ae0d25, 2021-09-20, custom)"
   xmlns:inkscape="http://www.inkscape.org/namespaces/inkscape"
   xmlns:sodipodi="http://sodipodi.sourceforge.net/DTD/sodipodi-0.dtd"
   xmlns="http://www.w3.org/2000/svg"
   xmlns:svg="http://www.w3.org/2000/svg"
   xmlns:rdf="http://www.w3.org/1999/02/22-rdf-syntax-ns#"
   xmlns:cc="http://creativecommons.org/ns#"
   xmlns:dc="http://purl.org/dc/elements/1.1/"><metadata
   id="metadata2662"><rdf:RDF><cc:Work
       rdf:about=""><dc:format>image/svg+xml</dc:format><dc:type
         rdf:resource="http://purl.org/dc/dcmitype/StillImage" /></cc:Work></rdf:RDF></metadata><defs
   id="defs2660" /><sodipodi:namedview
   pagecolor="#ffffff"
   bordercolor="#666666"
   borderopacity="1"
   objecttolerance="10"
   gridtolerance="10"
   guidetolerance="10"
   inkscape:pageopacity="0"
   inkscape:pageshadow="2"
   inkscape:window-width="1920"
   inkscape:window-height="995"
   id="namedview2658"
   showgrid="false"
   inkscape:zoom="7.8049168"
   inkscape:cx="16.720229"
   inkscape:cy="26.201432"
   inkscape:window-x="0"
   inkscape:window-y="55"
   inkscape:window-maximized="1"
   inkscape:current-layer="レイヤー_1"
   inkscape:pagecheckerboard="0" />
<g
   id="rect1313_66_">
	<polygon
   fill="#B9B9B9"
   points="75.001,75.001 1,75.001 1,1 75.001,1 75.001,75.001  "
   id="polygon2652" />
	<path
   fill="#757575"
   d="M75.991,0C75.996,0,76,0.004,76,0.009V75.99c0,0.006-0.004,0.01-0.009,0.01H0.009   C0.004,76,0,75.996,0,75.99V0.009C0,0.004,0.004,0,0.009,0H75.991 M74,2H2v72h72V2L74,2z"
   id="path2654" />
</g>
<path
   style="fill:#666666;stroke:#ff0000;stroke-width:0;stroke-linecap:round;stroke-linejoin:round;paint-order:markers fill stroke;stroke-miterlimit:4;stroke-dasharray:none"
   d="M 0.06950256,38.0029 V 0.02465109 H 38.001605 75.933708 V 38.0029 75.981149 H 38.001605 0.06950256 Z m 74.01836044,0 V 1.9627877 H 38.001605 1.915347 V 38.0029 74.043012 h 36.086258 36.086258 z"
   id="path8366" /><path
   style="fill:#1a1a1a;stroke:#ff0000;stroke-width:0;stroke-linecap:round;stroke-linejoin:round;stroke-miterlimit:4;stroke-dasharray:none;paint-order:markers fill stroke"
   d="M 2.0942343,38.014116 V 2.057038 H 38.001989 73.909743 V 38.014116 73.971195 H 38.001989 2.0942343 Z"
   id="path8368" /><path
   style="fill:#008284;fill-opacity:1;stroke:#fffffe;stroke-width:0.121002"
   d="m 35.827333,27.764183 c -2.676038,-0.531129 -4.756568,-1.666762 -6.73451,-3.675956 -1.675406,-1.701873 -2.658633,-3.457508 -3.254478,-5.811137 -0.38342,-1.514541 -0.366118,-4.13267 0.03782,-5.723282 0.534853,-2.106111 1.544113,-3.9380114 3.035052,-5.5088988 2.017529,-2.125715 4.321854,-3.3484597 7.223782,-3.8331583 2.985837,-0.4987134 6.339168,0.253783 8.953296,2.0091443 1.645432,1.1048915 3.466086,3.3025433 4.350936,5.2518758 0.195267,0.430172 0.500208,1.260165 0.677649,1.844429 0.296639,0.976762 0.322617,1.232706 0.322617,3.178651 0,1.945946 -0.02598,2.201888 -0.322617,3.178651 -1.283516,4.226288 -4.230599,7.317937 -8.256903,8.661937 -1.781495,0.594673 -4.294009,0.772822 -6.032646,0.427744 z"
   id="path2555" /><path
   style="fill:#008284;fill-opacity:1;stroke:#fffffe;stroke-width:0.121002"
   d="m 58.327336,42.764183 c -2.676038,-0.531129 -4.756568,-1.666762 -6.73451,-3.675956 -1.675406,-1.701873 -2.658633,-3.457508 -3.254478,-5.811136 -0.38342,-1.514541 -0.366118,-4.13267 0.03782,-5.723282 0.534853,-2.106113 1.544113,-3.938013 3.035052,-5.5089 2.017529,-2.125715 4.321854,-3.348459 7.223782,-3.833158 2.985837,-0.498714 6.339168,0.253783 8.953296,2.009144 1.645432,1.104891 3.466086,3.302542 4.350936,5.251875 0.195267,0.430172 0.500208,1.260167 0.677649,1.844431 0.296639,0.976762 0.322617,1.232706 0.322617,3.178651 0,1.945946 -0.02598,2.201888 -0.322617,3.17865 -1.283516,4.226288 -4.230599,7.317938 -8.256903,8.661937 -1.781495,0.594673 -4.294009,0.772822 -6.032646,0.427744 z"
   id="path2555-3" /><path
   style="fill:#008284;fill-opacity:1;stroke:#fffffe;stroke-width:0.121002"
   d="m 58.327336,72.764183 c -2.676038,-0.531129 -4.756568,-1.666762 -6.73451,-3.675956 -1.675406,-1.701873 -2.658633,-3.457508 -3.254478,-5.811137 -0.38342,-1.51454 -0.366118,-4.132669 0.03782,-5.723282 0.534853,-2.106111 1.544113,-3.938012 3.035052,-5.508899 2.017529,-2.125715 4.321854,-3.348459 7.223782,-3.833158 2.985837,-0.498714 6.339168,0.253783 8.953296,2.009144 1.645432,1.104892 3.466086,3.302543 4.350936,5.251875 0.195267,0.430173 0.500208,1.260167 0.677649,1.84443 0.296639,0.976763 0.322617,1.232706 0.322617,3.178652 0,1.945945 -0.02598,2.201888 -0.322617,3.17865 -1.283516,4.226288 -4.230599,7.317937 -8.256903,8.661937 -1.781495,0.594673 -4.294009,0.772822 -6.032646,0.427744 z"
   id="path2555-6" /><path
   style="fill:#008284;fill-opacity:1;stroke:#fffffe;stroke-width:0.121002"
   d="M 13.327336,42.764183 C 10.651298,42.233054 8.5707679,41.097421 6.5928249,39.088227 4.9174199,37.386354 3.9341929,35.630719 3.338348,33.27709 2.9549275,31.76255 2.9722293,29.144421 3.37617,27.553808 c 0.5348519,-2.106111 1.5441119,-3.938012 3.0350509,-5.508899 2.01753,-2.125715 4.3218551,-3.348459 7.2237821,-3.833158 2.985838,-0.498714 6.339169,0.253783 8.953296,2.009144 1.645432,1.104892 3.466086,3.302543 4.350937,5.251875 0.195266,0.430173 0.500208,1.260167 0.677648,1.84443 0.296639,0.976763 0.322618,1.232706 0.322618,3.178652 0,1.945945 -0.02598,2.201888 -0.322618,3.17865 -1.283516,4.226288 -4.230599,7.317937 -8.256902,8.661937 -1.781496,0.594673 -4.294009,0.772822 -6.032646,0.427744 z"
   id="path2555-7" /><path
   style="fill:#008284;fill-opacity:1;stroke:#fffffe;stroke-width:0.121002"
   d="M 13.327336,72.764183 C 10.651297,72.233054 8.5707679,71.097421 6.5928249,69.088227 4.9174199,67.386354 3.9341929,65.630719 3.338348,63.27709 2.9549275,61.76255 2.9722293,59.144421 3.3761703,57.553808 c 0.5348526,-2.106111 1.5441116,-3.938012 3.0350516,-5.508899 2.017529,-2.125715 4.3218531,-3.348459 7.2237821,-3.833158 2.985837,-0.498714 6.339168,0.253783 8.953295,2.009144 1.645432,1.104892 3.466086,3.302543 4.350937,5.251875 0.195266,0.430173 0.500208,1.260167 0.677648,1.84443 0.296639,0.976763 0.322618,1.232706 0.322618,3.178652 0,1.945945 -0.02598,2.201888 -0.322618,3.17865 -1.283516,4.226288 -4.230599,7.317937 -8.256902,8.661937 -1.781496,0.594673 -4.294009,0.772822 -6.032646,0.427744 z"
   id="path2555-5" /><path
   style="fill:#008284;fill-opacity:1;stroke:#fffffe;stroke-width:0.121001"
   d="m 35.827343,57.764174 c -2.676039,-0.531128 -4.756572,-1.666762 -6.734516,-3.675954 -1.675406,-1.701873 -2.658635,-3.457508 -3.25448,-5.811135 -0.38342,-1.514541 -0.366118,-4.132668 0.03782,-5.723281 0.534854,-2.106111 1.544114,-3.938009 3.035055,-5.508896 2.017531,-2.125715 4.321857,-3.348458 7.223787,-3.833157 2.985841,-0.498714 6.339173,0.253783 8.953303,2.009144 1.645433,1.10489 3.466088,3.302541 4.35094,5.251873 0.195267,0.430172 0.500208,1.260164 0.677649,1.844429 0.296639,0.976761 0.322617,1.232704 0.322617,3.17865 0,1.945944 -0.02598,2.201887 -0.322617,3.178649 -1.283517,4.226287 -4.230602,7.317934 -8.25691,8.661935 -1.781497,0.594671 -4.294012,0.772821 -6.032651,0.427743 z"
   id="path2555-35" /></svg>
