<?xml version="1.0" encoding="UTF-8" standalone="no"?>
<svg
   version="1.1"
   id="レイヤー_1"
   x="0px"
   y="0px"
   width="76px"
   height="76px"
   viewBox="0 0 76 76"
   enable-background="new 0 0 76 76"
   xml:space="preserve"
   sodipodi:docname="8.svg"
   inkscape:version="1.1.1 (3bf5ae0d25, 2021-09-20, custom)"
   xmlns:inkscape="http://www.inkscape.org/namespaces/inkscape"
   xmlns:sodipodi="http://sodipodi.sourceforge.net/DTD/sodipodi-0.dtd"
   xmlns="http://www.w3.org/2000/svg"
   xmlns:svg="http://www.w3.org/2000/svg"
   xmlns:rdf="http://www.w3.org/1999/02/22-rdf-syntax-ns#"
   xmlns:cc="http://creativecommons.org/ns#"
   xmlns:dc="http://purl.org/dc/elements/1.1/"><metadata
   id="metadata2662"><rdf:RDF><cc:Work
       rdf:about=""><dc:format>image/svg+xml</dc:format><dc:type
         rdf:resource="http://purl.org/dc/dcmitype/StillImage" /></cc:Work></rdf:RDF></metadata><defs
   id="defs2660" /><sodipodi:namedview
   pagecolor="#ffffff"
   bordercolor="#666666"
   borderopacity="1"
   objecttolerance="10"
   gridtolerance="10"
   guidetolerance="10"
   inkscape:pageopacity="0"
   inkscape:pageshadow="2"
   inkscape:window-width="1920"
   inkscape:window-height="995"
   id="namedview2658"
   showgrid="false"
   inkscape:zoom="7.8049168"
   inkscape:cx="62.716876"
   inkscape:cy="47.470077"
   inkscape:window-x="0"
   inkscape:window-y="55"
   inkscape:window-maximized="1"
   inkscape:current-layer="レイヤー_1"
   inkscape:pagecheckerboard="0" />
<g
   id="rect1313_66_">
	<polygon
   fill="#B9B9B9"
   points="75.001,75.001 1,75.001 1,1 75.001,1 75.001,75.001  "
   id="polygon2652" />
	<path
   fill="#757575"
   d="M75.991,0C75.996,0,76,0.004,76,0.009V75.99c0,0.006-0.004,0.01-0.009,0.01H0.009   C0.004,76,0,75.996,0,75.99V0.009C0,0.004,0.004,0,0.009,0H75.991 M74,2H2v72h72V2L74,2z"
   id="path2654" />
</g>
<path
   style="fill:#666666;stroke:#ff0000;stroke-width:0;stroke-linecap:round;stroke-linejoin:round;paint-order:markers fill stroke;stroke-miterlimit:4;stroke-dasharray:none"
   d="M 0.06950256,38.0029 V 0.02465109 H 38.001605 75.933708 V 38.0029 75.981149 H 38.001605 0.06950256 Z m 74.01836044,0 V 1.9627877 H 38.001605 1.915347 V 38.0029 74.043012 h 36.086258 36.086258 z"
   id="path8366" /><path
   style="fill:#1a1a1a;stroke:#ff0000;stroke-width:0;stroke-linecap:round;stroke-linejoin:round;stroke-miterlimit:4;stroke-dasharray:none;paint-order:markers fill stroke"
   d="M 2.0942343,38.014116 V 2.057038 H 38.001989 73.909743 V 38.014116 73.971195 H 38.001989 2.0942343 Z"
   id="path8368" /><path
   style="fill:#757575;fill-opacity:1;stroke:#fffffe;stroke-width:0.121201"
   d="M 11.613032,25.639267 C 9.0114944,24.87132 6.9593344,23.434748 5.2738854,21.201672 c -1.558144,-2.064406 -2.219067,-4.06447 -2.213247,-6.697664 0.0074,-3.341086 1.046815,-5.8253256 3.410088,-8.1501146 1.453968,-1.4302931 2.935897,-2.3358722 4.8106596,-2.9397075 1.133303,-0.3650209 4.53159,-0.4782416 5.761836,-0.1919666 3.460946,0.8053523 6.61462,3.4832251 8.081255,6.8620187 0.722346,1.664124 0.827805,2.252629 0.813807,4.541403 -0.01167,1.907068 -0.03706,2.130825 -0.343536,3.027546 -1.298776,3.800012 -3.990457,6.577418 -7.554018,7.794592 -1.055158,0.360402 -2.135463,0.496248 -3.908752,0.491516 -1.245609,-0.0033 -1.695255,-0.05689 -2.518946,-0.300028 z"
   id="path3257" /><path
   style="fill:#757575;fill-opacity:1;stroke:#fffffe;stroke-width:0.121201"
   d="M 11.613031,49.139267 C 9.0114944,48.37132 6.9593344,46.934748 5.2738854,44.701672 c -1.558144,-2.064406 -2.219067,-4.06447 -2.213247,-6.697664 0.0074,-3.341086 1.046815,-5.825326 3.410088,-8.150115 1.453968,-1.430293 2.935897,-2.335872 4.8106586,-2.939708 1.133303,-0.36502 4.53159,-0.478241 5.761836,-0.191966 3.460946,0.805352 6.61462,3.483225 8.081255,6.862019 0.722346,1.664124 0.827805,2.252629 0.813807,4.541403 -0.01167,1.907068 -0.03706,2.130825 -0.343536,3.027546 -1.298776,3.800012 -3.990457,6.577418 -7.554018,7.794592 -1.055158,0.360402 -2.135463,0.496248 -3.908752,0.491516 -1.245609,-0.0033 -1.695255,-0.05689 -2.518946,-0.300028 z"
   id="path3257-3" /><path
   style="fill:#757575;fill-opacity:1;stroke:#fffffe;stroke-width:0.121201"
   d="M 11.613032,72.639267 C 9.0114944,71.87132 6.9593344,70.434748 5.2738854,68.201672 c -1.558144,-2.064406 -2.219067,-4.06447 -2.213247,-6.697664 0.0074,-3.341086 1.046815,-5.825326 3.410088,-8.150115 1.453968,-1.430293 2.935897,-2.335872 4.8106596,-2.939708 1.133303,-0.36502 4.53159,-0.478241 5.761836,-0.191966 3.460946,0.805352 6.61462,3.483225 8.081255,6.862019 0.722346,1.664124 0.827805,2.252629 0.813807,4.541403 -0.01167,1.907068 -0.03706,2.130825 -0.343536,3.027546 -1.298776,3.800012 -3.990457,6.577418 -7.554018,7.794592 -1.055158,0.360402 -2.135463,0.496248 -3.908752,0.491516 -1.245609,-0.0033 -1.695255,-0.05689 -2.518946,-0.300028 z"
   id="path3257-6" /><path
   style="fill:#757575;fill-opacity:1;stroke:#fffffe;stroke-width:0.121201"
   d="m 35.113031,37.389267 c -2.601538,-0.767947 -4.653697,-2.204519 -6.339147,-4.437595 -1.558144,-2.064406 -2.219066,-4.06447 -2.213246,-6.697664 0.0074,-3.341086 1.046815,-5.825326 3.410087,-8.150115 1.453968,-1.430293 2.935897,-2.335872 4.81066,-2.939707 1.133303,-0.365021 4.53159,-0.478242 5.761836,-0.191967 3.460946,0.805353 6.61462,3.483225 8.081255,6.862019 0.722346,1.664124 0.827805,2.252629 0.813807,4.541403 -0.01167,1.907068 -0.03706,2.130825 -0.343536,3.027546 -1.298776,3.800012 -3.990457,6.577418 -7.554018,7.794592 -1.055158,0.360402 -2.135463,0.496248 -3.908752,0.491516 -1.245609,-0.0033 -1.695255,-0.05689 -2.518946,-0.300028 z"
   id="path3257-7" /><path
   style="fill:#757575;fill-opacity:1;stroke:#fffffe;stroke-width:0.121201"
   d="m 35.113031,60.889267 c -2.601538,-0.767947 -4.653697,-2.204519 -6.339147,-4.437595 -1.558144,-2.064406 -2.219067,-4.06447 -2.213246,-6.697664 0.0074,-3.341086 1.046815,-5.825326 3.410087,-8.150115 1.453968,-1.430293 2.935897,-2.335872 4.81066,-2.939707 1.133303,-0.365021 4.53159,-0.478242 5.761836,-0.191967 3.460946,0.805352 6.61462,3.483225 8.081255,6.862019 0.722346,1.664124 0.827805,2.252629 0.813807,4.541403 -0.01167,1.907068 -0.03706,2.130825 -0.343536,3.027546 -1.298776,3.800012 -3.990457,6.577418 -7.554018,7.794592 -1.055158,0.360402 -2.135463,0.496248 -3.908752,0.491516 -1.245609,-0.0033 -1.695255,-0.05689 -2.518946,-0.300028 z"
   id="path3257-5" /><path
   style="fill:#757575;fill-opacity:1;stroke:#fffffe;stroke-width:0.121201"
   d="m 58.613031,25.639267 c -2.601538,-0.767947 -4.653697,-2.204519 -6.339147,-4.437595 -1.558144,-2.064406 -2.219067,-4.06447 -2.213246,-6.697664 0.0074,-3.341086 1.046815,-5.8253256 3.410087,-8.1501146 1.453968,-1.4302931 2.935897,-2.3358722 4.81066,-2.9397075 1.133303,-0.3650209 4.53159,-0.4782416 5.761836,-0.1919666 3.460946,0.8053523 6.614619,3.4832251 8.081259,6.8620187 0.72234,1.664124 0.8278,2.252629 0.8138,4.541403 -0.0117,1.907068 -0.0371,2.130825 -0.34353,3.027546 -1.29878,3.800012 -3.99046,6.577418 -7.554021,7.794592 -1.055158,0.360402 -2.135463,0.496248 -3.908752,0.491516 -1.245609,-0.0033 -1.695255,-0.05689 -2.518946,-0.300028 z"
   id="path3257-35" /><path
   style="fill:#757575;fill-opacity:1;stroke:#fffffe;stroke-width:0.121201"
   d="m 58.613031,49.139267 c -2.601538,-0.767947 -4.653697,-2.204519 -6.339147,-4.437595 -1.558144,-2.064406 -2.219066,-4.06447 -2.213246,-6.697664 0.0074,-3.341086 1.046815,-5.825326 3.410087,-8.150115 1.453968,-1.430293 2.935897,-2.335872 4.81066,-2.939708 1.133303,-0.36502 4.53159,-0.478241 5.761836,-0.191966 3.460946,0.805352 6.614619,3.483225 8.081259,6.862019 0.72234,1.664124 0.8278,2.252629 0.8138,4.541403 -0.0117,1.907068 -0.0371,2.130825 -0.34353,3.027546 -1.29878,3.800012 -3.99046,6.577418 -7.554021,7.794592 -1.055158,0.360402 -2.135463,0.496248 -3.908752,0.491516 -1.245609,-0.0033 -1.695255,-0.05689 -2.518946,-0.300028 z"
   id="path3257-62" /><path
   style="fill:#757575;fill-opacity:1;stroke:#fffffe;stroke-width:0.121201"
   d="m 58.613031,72.639267 c -2.601538,-0.767947 -4.653697,-2.204519 -6.339147,-4.437595 -1.558144,-2.064406 -2.219066,-4.06447 -2.213246,-6.697664 0.0074,-3.341086 1.046815,-5.825326 3.410087,-8.150115 1.453968,-1.430293 2.935897,-2.335872 4.81066,-2.939708 1.133303,-0.36502 4.53159,-0.478241 5.761836,-0.191966 3.460946,0.805352 6.614619,3.483225 8.081259,6.862019 0.72234,1.664124 0.8278,2.252629 0.8138,4.541403 -0.0117,1.907068 -0.0371,2.130825 -0.34353,3.027546 -1.29878,3.800012 -3.99046,6.577418 -7.554021,7.794592 -1.055158,0.360402 -2.135463,0.496248 -3.908752,0.491516 -1.245609,-0.0033 -1.695255,-0.05689 -2.518946,-0.300028 z"
   id="path3257-9" /></svg>
