<?xml version="1.0" encoding="UTF-8" standalone="no"?>
<svg
   xmlns:dc="http://purl.org/dc/elements/1.1/"
   xmlns:cc="http://creativecommons.org/ns#"
   xmlns:rdf="http://www.w3.org/1999/02/22-rdf-syntax-ns#"
   xmlns:svg="http://www.w3.org/2000/svg"
   xmlns="http://www.w3.org/2000/svg"
   xmlns:sodipodi="http://sodipodi.sourceforge.net/DTD/sodipodi-0.dtd"
   xmlns:inkscape="http://www.inkscape.org/namespaces/inkscape"
   version="1.1"
   id="レイヤー_1"
   x="0px"
   y="0px"
   width="76px"
   height="76px"
   viewBox="0 0 76 76"
   enable-background="new 0 0 76 76"
   xml:space="preserve"
   sodipodi:docname="Minesweeper_flag.svg"
   inkscape:version="1.0.1 (3bc2e813f5, 2020-09-07, custom)"><metadata
   id="metadata1177"><rdf:RDF><cc:Work
       rdf:about=""><dc:format>image/svg+xml</dc:format><dc:type
         rdf:resource="http://purl.org/dc/dcmitype/StillImage" /><dc:title></dc:title></cc:Work></rdf:RDF></metadata><defs
   id="defs1175" /><sodipodi:namedview
   pagecolor="#ffffff"
   bordercolor="#666666"
   borderopacity="1"
   objecttolerance="10"
   gridtolerance="10"
   guidetolerance="10"
   inkscape:pageopacity="0"
   inkscape:pageshadow="2"
   inkscape:window-width="1920"
   inkscape:window-height="1024"
   id="namedview1173"
   showgrid="false"
   inkscape:pagecheckerboard="true"
   inkscape:zoom="7.6085367"
   inkscape:cx="35.251561"
   inkscape:cy="41.514525"
   inkscape:window-x="0"
   inkscape:window-y="28"
   inkscape:window-maximized="1"
   inkscape:current-layer="g1170"
   inkscape:document-rotation="0" />
<g
   id="g1170">
	<g
   id="g1158">
		<path
   id="rect1313_65_"
   fill="#FDFCFD"
   d="M0.009,0h75.982C75.996,0,76,0.004,76,0.009V75.99c0,0.006-0.004,0.01-0.009,0.01H0.009    C0.004,76,0,75.996,0,75.99V0.009C0,0.004,0.004,0,0.009,0z" />
		<path
   id="path1341_65_"
   fill="#757575"
   d="m 75.99,0 c 0.005,0 0.01765,-0.03572983 0.01765,-0.03072983 L 76,75.991 C 75.999999,75.996 75.995,76 75.99,76 H 0.009 C 0.004,76 0,75.996 0,75.991 Z"
   sodipodi:nodetypes="csssscc" />
		<polygon
   id="rect1311_65_"
   fill="#B9B9B9"
   points="8.508,8.5 67.492,8.5 67.5,8.508 67.5,67.491 67.492,67.5 8.508,67.5     8.5,67.491 8.5,8.508   " />
	</g>
	
<path
   style="fill:#020202;fill-opacity:1;stroke-width:0;stroke-linecap:round;stroke-linejoin:round;paint-order:markers fill stroke"
   d="M 0.13711084,37.834039 V -0.04052671 H 38.011714 L 76.015322,-0.0532428 71.708082,4.1409475 67.5,8.508 37.938498,8.5635011 8.4061984,8.4186548 8.5385333,37.994871 8.5,67.491 4.2909761,71.727853 0,75.991 Z"
   id="path9638"
   sodipodi:nodetypes="ccccccccccccc" /><path
   style="fill:#464646;fill-opacity:1;stroke-width:0;stroke-linecap:round;stroke-linejoin:round;paint-order:markers fill stroke"
   d="M 8.4578845,51.332368 C 8.43479,42.471597 8.4292812,29.213549 8.4574934,21.870004 L 8.4061984,8.4186548 24.045199,8.4683797 c 8.545027,0.027169 21.802382,-0.027788 29.460793,-9.756e-4 L 67.5,8.508 67.430375,37.979493 V 67.442831 H 37.969973 L 8.5,67.491 Z"
   id="path9640"
   sodipodi:nodetypes="sscsscccccs" /><path
   style="fill:#8a8a8a;fill-opacity:1;stroke-width:0;stroke-linecap:round;stroke-linejoin:round;paint-order:markers fill stroke"
   d="M 4.4142251,71.814993 8.5930516,67.632925 H 38.106761 67.620469 V 38.119218 8.6055081 c 1.289829,-1.4384178 2.523537,-2.8696975 3.94784,-4.3252188 l 4.447013,-4.3335321 -0.03072,38.1756998 V 75.99706 H 38.11 0.23539849 Z"
   id="path9642"
   sodipodi:nodetypes="ccccccccccccc" /><g
   id="g10677"><polygon
     points="40,55.5 35.999,55.5 35.999,16.5 40,16.5 "
     id="polygon10669" /><polygon
     fill="#ff0000"
     points="19.375,27 40,40.125 40,13.875 "
     id="polygon10671" /><rect
     x="28.570999"
     y="51.625"
     width="18.857"
     height="5.5"
     id="rect10673" /><rect
     x="20.222"
     y="56.459"
     width="35.555"
     height="7.0409999"
     id="rect10675" /></g></g>
</svg>
