<?xml version="1.0" encoding="UTF-8" standalone="no"?>
<svg
   version="1.1"
   id="レイヤー_1"
   x="0px"
   y="0px"
   width="76px"
   height="76px"
   viewBox="0 0 76 76"
   enable-background="new 0 0 76 76"
   xml:space="preserve"
   sodipodi:docname="question_flag.svg"
   inkscape:version="1.1.2 (0a00cf5339, 2022-02-04)"
   xmlns:inkscape="http://www.inkscape.org/namespaces/inkscape"
   xmlns:sodipodi="http://sodipodi.sourceforge.net/DTD/sodipodi-0.dtd"
   xmlns="http://www.w3.org/2000/svg"
   xmlns:svg="http://www.w3.org/2000/svg"
   xmlns:rdf="http://www.w3.org/1999/02/22-rdf-syntax-ns#"
   xmlns:cc="http://creativecommons.org/ns#"
   xmlns:dc="http://purl.org/dc/elements/1.1/"><metadata
   id="metadata1177"><rdf:RDF><cc:Work
       rdf:about=""><dc:format>image/svg+xml</dc:format><dc:type
         rdf:resource="http://purl.org/dc/dcmitype/StillImage" /></cc:Work></rdf:RDF></metadata><defs
   id="defs1175"><inkscape:path-effect
     effect="spiro"
     id="path-effect29116"
     is_visible="true"
     lpeversion="1" /></defs><sodipodi:namedview
   pagecolor="#ffffff"
   bordercolor="#666666"
   borderopacity="1"
   objecttolerance="10"
   gridtolerance="10"
   guidetolerance="10"
   inkscape:pageopacity="0"
   inkscape:pageshadow="2"
   inkscape:window-width="3440"
   inkscape:window-height="1350"
   id="namedview1173"
   showgrid="false"
   inkscape:pagecheckerboard="true"
   inkscape:zoom="10.746561"
   inkscape:cx="26.566638"
   inkscape:cy="35.034464"
   inkscape:window-x="0"
   inkscape:window-y="28"
   inkscape:window-maximized="1"
   inkscape:current-layer="g1170"
   inkscape:document-rotation="0" />
<g
   id="g1170">
	<g
   id="g1158">
		<path
   id="rect1313_65_"
   fill="#FDFCFD"
   d="M0.009,0h75.982C75.996,0,76,0.004,76,0.009V75.99c0,0.006-0.004,0.01-0.009,0.01H0.009    C0.004,76,0,75.996,0,75.99V0.009C0,0.004,0.004,0,0.009,0z" />
		<path
   id="path1341_65_"
   fill="#757575"
   d="m 75.99,0 c 0.005,0 0.01765,-0.03572983 0.01765,-0.03072983 L 76,75.991 C 75.999999,75.996 75.995,76 75.99,76 H 0.009 C 0.004,76 0,75.996 0,75.991 Z"
   sodipodi:nodetypes="csssscc" />
		<polygon
   id="rect1311_65_"
   fill="#B9B9B9"
   points="8.508,8.5 67.492,8.5 67.5,8.508 67.5,67.491 67.492,67.5 8.508,67.5     8.5,67.491 8.5,8.508   " />
	</g>
	
<path
   style="fill:#020202;fill-opacity:1;stroke-width:0;stroke-linecap:round;stroke-linejoin:round;paint-order:markers fill stroke"
   d="M 0.13711084,37.834039 V -0.04052671 H 38.011714 L 76.015322,-0.0532428 71.708082,4.1409475 67.5,8.508 37.938498,8.5635011 8.4061984,8.4186548 8.5385333,37.994871 8.5,67.491 4.2909761,71.727853 0,75.991 Z"
   id="path9638"
   sodipodi:nodetypes="ccccccccccccc" /><path
   style="fill:#464646;fill-opacity:1;stroke-width:0;stroke-linecap:round;stroke-linejoin:round;paint-order:markers fill stroke"
   d="M 8.4578845,51.332368 C 8.43479,42.471597 8.4292812,29.213549 8.4574934,21.870004 L 8.4061984,8.4186548 24.045199,8.4683797 c 8.545027,0.027169 21.802382,-0.027788 29.460793,-9.756e-4 L 67.5,8.508 67.430375,37.979493 V 67.442831 H 37.969973 L 8.5,67.491 Z"
   id="path9640"
   sodipodi:nodetypes="sscsscccccs" /><path
   style="fill:#000000"
   d="m 27.730957,17.660972 c 2.019261,-1.979058 4.851861,-3.102059 7.678651,-3.044246 2.82679,0.05781 5.611106,1.29569 7.547762,3.355653 1.936656,2.059964 3.000532,4.915295 2.883971,7.740273 -0.116561,2.824978 -1.412047,5.58296 -3.511823,7.476377 -0.625826,0.564322 -1.315979,1.052194 -1.968346,1.585612 -1.662975,1.359758 -3.071126,3.008641 -4.319424,4.756834 -2.987675,4.184122 -5.128437,9.129614 -5.194245,14.270504 -4.67e-4,0.03645 -8.3e-4,0.07291 0,0.109353 0.0086,0.376477 0.149864,0.750057 0.399303,1.032172 0.249438,0.282115 0.606218,0.469004 0.981098,0.50469 0.37488,0.03569 0.763689,-0.08238 1.049853,-0.327162 0.286163,-0.244784 0.463819,-0.614439 0.467588,-0.990995 0.0017,-0.165249 -0.02848,-0.32892 -0.05468,-0.492087 -0.510355,-3.17868 0.472135,-6.449833 2.077698,-9.240287 1.638652,-2.847963 3.901536,-5.286572 6.287769,-7.545324 1.921191,-1.818554 3.974538,-3.586833 5.248921,-5.905036 1.2601,-2.292221 1.663314,-5.027372 1.204279,-7.602526 -0.459036,-2.575153 -1.763379,-4.979443 -3.610034,-6.832007 -1.930449,-1.936626 -4.462745,-3.279216 -7.160985,-3.722676 -2.69824,-0.44346 -5.549063,0.02627 -7.929663,1.371597 -0.819268,0.462984 -1.580497,1.024038 -2.405755,1.476259 -0.368159,0.201742 -0.750671,0.382874 -1.084779,0.637065 -0.334107,0.254191 -0.62234,0.594819 -0.719538,1.003223 -0.04533,0.190463 -0.04743,0.391629 -0.0015,0.581942 0.04596,0.190312 0.140338,0.369324 0.27485,0.511583 0.145334,0.153705 0.336935,0.263086 0.543182,0.310094 0.206246,0.04701 0.426322,0.03145 0.623907,-0.04409 0.197585,-0.07555 0.371897,-0.210789 0.49417,-0.383406 0.122272,-0.172617 0.19202,-0.381927 0.197734,-0.593385 z"
   id="path29114"
   inkscape:path-effect="#path-effect29116"
   inkscape:original-d="m 27.730957,17.660972 c 0.618664,-0.237931 9.733374,10.353038 14.598561,15.528057 4.865187,5.17502 -1.31123,1.058075 -1.968346,1.585612 -0.657115,0.527537 -2.878616,3.172223 -4.319424,4.756834 -1.440808,1.584612 -3.46183,9.51467 -5.194245,14.270504 -1.732415,4.755835 0.001,0.0739 0,0.109353 -0.001,0.03545 1.932895,0.146803 2.897842,0.218705 0.964947,0.0719 -0.03545,-0.327058 -0.05468,-0.492087 -0.01923,-0.165028 1.386132,-6.159192 2.077698,-9.240287 0.691566,-3.081096 4.192846,-5.029216 6.287769,-7.545324 2.094924,-2.516108 3.500281,-3.935691 5.248921,-5.905036 1.748641,-1.969346 -1.602837,-9.622022 -2.405755,-14.434533 -0.802919,-4.81251 -10.059432,-1.566386 -15.090648,-2.351079 -5.031215,-0.784693 -1.602836,0.985173 -2.405755,1.476259 -0.802918,0.491087 -1.201878,1.094525 -1.804317,1.640288 -0.602438,0.545763 0.183255,0.730017 0.273382,1.093525 0.09013,0.363509 1.240328,-0.472861 1.858993,-0.710791 z" /><ellipse
   style="fill:#000000"
   id="path29140"
   cx="32.522995"
   cy="60.973663"
   rx="1.4691542"
   ry="1.5851401" /><path
   style="fill:#8a8a8a;fill-opacity:1;stroke-width:0;stroke-linecap:round;stroke-linejoin:round;paint-order:markers fill stroke"
   d="M 4.4142251,71.814993 8.5930516,67.632925 H 38.106761 67.620469 V 38.119218 8.6055081 c 1.289829,-1.4384178 2.523537,-2.8696975 3.94784,-4.3252188 l 4.447013,-4.3335321 -0.03072,38.1756998 V 75.99706 H 38.11 0.23539849 Z"
   id="path9642"
   sodipodi:nodetypes="ccccccccccccc" /></g>
</svg>
