<?xml version="1.0" encoding="UTF-8" standalone="no"?>
<svg
   xmlns:dc="http://purl.org/dc/elements/1.1/"
   xmlns:cc="http://creativecommons.org/ns#"
   xmlns:rdf="http://www.w3.org/1999/02/22-rdf-syntax-ns#"
   xmlns:svg="http://www.w3.org/2000/svg"
   xmlns="http://www.w3.org/2000/svg"
   xmlns:sodipodi="http://sodipodi.sourceforge.net/DTD/sodipodi-0.dtd"
   xmlns:inkscape="http://www.inkscape.org/namespaces/inkscape"
   version="1.1"
   id="レイヤー_1"
   x="0px"
   y="0px"
   width="76px"
   height="76px"
   viewBox="0 0 76 76"
   enable-background="new 0 0 76 76"
   xml:space="preserve"
   sodipodi:docname="Minesweeper_mine.svg"
   inkscape:version="1.0.1 (3bc2e813f5, 2020-09-07, custom)"><metadata
   id="metadata1315"><rdf:RDF><cc:Work
       rdf:about=""><dc:format>image/svg+xml</dc:format><dc:type
         rdf:resource="http://purl.org/dc/dcmitype/StillImage" /><dc:title></dc:title></cc:Work></rdf:RDF></metadata><defs
   id="defs1313" /><sodipodi:namedview
   pagecolor="#ffffff"
   bordercolor="#666666"
   borderopacity="1"
   objecttolerance="10"
   gridtolerance="10"
   guidetolerance="10"
   inkscape:pageopacity="0"
   inkscape:pageshadow="2"
   inkscape:window-width="1920"
   inkscape:window-height="1024"
   id="namedview1311"
   showgrid="false"
   inkscape:snap-global="true"
   inkscape:zoom="9.9322328"
   inkscape:cx="43.797087"
   inkscape:cy="47.005858"
   inkscape:window-x="0"
   inkscape:window-y="28"
   inkscape:window-maximized="1"
   inkscape:current-layer="レイヤー_1" />
<g
   id="rect1313_66_">
	<polygon
   fill="#B9B9B9"
   points="75.001,75.001 1,75.001 1,1 75.001,1 75.001,75.001  "
   id="polygon1305" />
	<path
   fill="#757575"
   d="M75.991,0C75.996,0,76,0.004,76,0.009V75.99c0,0.006-0.004,0.01-0.009,0.01H0.009   C0.004,76,0,75.996,0,75.99V0.009C0,0.004,0.004,0,0.009,0H75.991 M74,2H2v72h72V2L74,2z"
   id="path1307" />
</g>
<path
   id="path1390"
   style="fill:#000000;stroke-width:0.381281"
   d="m 36.458984,6.71875 v 3.748047 3.746094 L 33.884766,14.6875 c -3.293356,0.60591 -7.158651,2.231316 -9.642578,4.054688 l -1.951172,1.43164 -2.742188,-2.722656 -2.74414,-2.72461 -1.039063,1.039063 -1.039063,1.039063 2.699219,2.71875 2.701172,2.71875 -1.917969,2.722656 c -2.073664,2.94529 -2.881017,5.444004 -3.535156,8.99414 l -0.460937,2.5 H 10.466797 6.71875 v 1.525391 1.525391 h 3.748047 3.746094 l 0.466797,2.535156 c 0.612486,3.32409 1.931039,6.503792 3.878906,9.357422 l 1.578125,2.314453 -2.705078,2.722656 -2.705079,2.724609 1.039063,1.039063 1.039063,1.039063 2.724609,-2.705079 2.724609,-2.705078 2.3125,1.578125 c 2.884379,1.968858 6.061594,3.276345 9.353516,3.84961 l 2.539062,0.443359 V 65.476562 69.25 h 1.525391 1.525391 v -3.773438 -3.773437 l 2.539062,-0.443359 c 3.291917,-0.573265 6.469139,-1.880752 9.353516,-3.84961 l 2.314453,-1.578125 2.722656,2.705078 2.724609,2.705079 1.039063,-1.039063 1.039063,-1.039063 -2.705079,-2.724609 -2.705078,-2.722656 1.578125,-2.314453 c 1.947866,-2.85363 3.266415,-6.033332 3.878906,-9.357422 l 0.466797,-2.535156 H 65.501953 69.25 v -1.525391 -1.525391 h -3.748047 -3.746094 l -0.466797,-2.535156 c -0.612492,-3.324089 -1.93104,-6.503796 -3.878906,-9.357422 l -1.578125,-2.3125 2.705078,-2.724609 2.705079,-2.724609 -1.039063,-1.039063 -1.039063,-1.039063 -2.742187,2.72461 -2.742187,2.722656 -1.953126,-1.43164 C 49.242635,16.918816 45.37734,15.29341 42.083984,14.6875 L 39.509766,14.212891 V 10.466797 6.71875 H 37.984375 Z M 12.601562,63.0625 c 5.25e-4,0.02301 0.0028,0.03963 0,0.07422 -0.006,0.03927 0.0016,-0.03774 0.0039,-0.07227 -9.15e-4,-10e-4 -0.003,-6.55e-4 -0.0039,-0.002 z" /></svg>
