<?xml version="1.0" encoding="UTF-8" standalone="no"?>
<!-- Generator: Adobe Illustrator 13.0.3, SVG Export Plug-In . SVG Version: 6.00 Build 14948)  -->

<svg
   version="1.1"
   id="レイヤー_1"
   x="0px"
   y="0px"
   width="76px"
   height="76px"
   viewBox="0 0 76 76"
   enable-background="new 0 0 76 76"
   xml:space="preserve"
   sodipodi:docname="0.svg"
   inkscape:version="1.1.2 (0a00cf5339, 2022-02-04)"
   xmlns:inkscape="http://www.inkscape.org/namespaces/inkscape"
   xmlns:sodipodi="http://sodipodi.sourceforge.net/DTD/sodipodi-0.dtd"
   xmlns="http://www.w3.org/2000/svg"
   xmlns:svg="http://www.w3.org/2000/svg"><defs
   id="defs10"><rect
     x="1"
     y="1"
     width="74.001"
     height="74.001"
     id="rect5341" /></defs><sodipodi:namedview
   id="namedview8"
   pagecolor="#ffffff"
   bordercolor="#666666"
   borderopacity="1.0"
   inkscape:pageshadow="2"
   inkscape:pageopacity="0.0"
   inkscape:pagecheckerboard="0"
   showgrid="false"
   inkscape:snap-bbox="true"
   inkscape:snap-bbox-midpoints="true"
   inkscape:zoom="8.4761501"
   inkscape:cx="35.570394"
   inkscape:cy="33.682745"
   inkscape:window-width="1920"
   inkscape:window-height="987"
   inkscape:window-x="0"
   inkscape:window-y="56"
   inkscape:window-maximized="1"
   inkscape:current-layer="レイヤー_1" />
<g
   id="rect1313_66_">
	<polygon
   fill="#B9B9B9"
   points="75.001,75.001 1,75.001 1,1 75.001,1 75.001,75.001  "
   id="polygon2"
   style="fill:#e9c6af;fill-opacity:1" />
	<path
   fill="#757575"
   d="M75.991,0C75.996,0,76,0.004,76,0.009V75.99c0,0.006-0.004,0.01-0.009,0.01H0.009   C0.004,76,0,75.996,0,75.99V0.009C0,0.004,0.004,0,0.009,0H75.991 M74,2H2v72h72V2L74,2z"
   id="path4"
   style="fill:#d38d5f;fill-opacity:1" />
</g>
<path
   style="fill:#000000;fill-opacity:0;stroke-width:0.117978"
   d="M 2.0646166,37.988945 V 2.0056275 H 37.988945 73.913273 V 37.988945 73.972262 H 37.988945 2.0646166 Z"
   id="path3753" /><path
   style="fill:#d38d5f;fill-opacity:1;stroke-width:0.117978"
   d="M 0.05898904,37.988945 V 0 H 37.988945 75.918901 V 37.988945 75.97789 H 37.988945 0.05898904 Z m 73.97226196,0 V 1.8876494 H 37.988945 1.9466385 V 37.988945 74.09024 H 37.988945 74.031251 Z"
   id="path6834" /><path
   style="fill:#e9c6af;fill-opacity:1;stroke-width:0.117978"
   d="M 2.0646166,37.988945 V 2.0056275 H 37.988945 73.913273 V 37.988945 73.972262 H 37.988945 2.0646166 Z"
   id="path1805" /></svg>
