<?xml version="1.0" encoding="UTF-8" standalone="no"?>
<!-- Generator: Adobe Illustrator 13.0.3, SVG Export Plug-In . SVG Version: 6.00 Build 14948)  -->

<svg
   version="1.1"
   id="レイヤー_1"
   x="0px"
   y="0px"
   width="76px"
   height="76px"
   viewBox="0 0 76 76"
   enable-background="new 0 0 76 76"
   xml:space="preserve"
   sodipodi:docname="1.svg"
   inkscape:version="1.1.2 (0a00cf5339, 2022-02-04)"
   xmlns:inkscape="http://www.inkscape.org/namespaces/inkscape"
   xmlns:sodipodi="http://sodipodi.sourceforge.net/DTD/sodipodi-0.dtd"
   xmlns="http://www.w3.org/2000/svg"
   xmlns:svg="http://www.w3.org/2000/svg"><defs
   id="defs10"><rect
     x="1"
     y="1"
     width="74.001"
     height="74.001"
     id="rect5341" /><rect
     x="1"
     y="1"
     width="117.61676"
     height="101.51824"
     id="rect5341-2" /></defs><sodipodi:namedview
   id="namedview8"
   pagecolor="#ffffff"
   bordercolor="#666666"
   borderopacity="1.0"
   inkscape:pageshadow="2"
   inkscape:pageopacity="0.0"
   inkscape:pagecheckerboard="0"
   showgrid="false"
   inkscape:snap-bbox="true"
   inkscape:snap-bbox-midpoints="true"
   inkscape:zoom="8.0296636"
   inkscape:cx="43.650646"
   inkscape:cy="40.910805"
   inkscape:window-width="1920"
   inkscape:window-height="987"
   inkscape:window-x="0"
   inkscape:window-y="56"
   inkscape:window-maximized="1"
   inkscape:current-layer="レイヤー_1" />
<g
   id="rect1313_66_">
	<polygon
   fill="#B9B9B9"
   points="75.001,75.001 1,75.001 1,1 75.001,1 75.001,75.001  "
   id="polygon2"
   style="fill:#e9c6af;fill-opacity:1" />
	<path
   fill="#757575"
   d="M75.991,0C75.996,0,76,0.004,76,0.009V75.99c0,0.006-0.004,0.01-0.009,0.01H0.009   C0.004,76,0,75.996,0,75.99V0.009C0,0.004,0.004,0,0.009,0H75.991 M74,2H2v72h72V2L74,2z"
   id="path4"
   style="fill:#d38d5f;fill-opacity:1" />
</g>
<g
   aria-label="1"
   transform="matrix(1.8322237,0,0,1.8322237,-66.715879,-47.369155)"
   id="text5339"
   style="font-size:64px;line-height:1.25;text-align:center;white-space:pre;shape-inside:url(#rect5341-2);fill:#000080"><path
     d="m 50.628906,34.726007 13.046875,-3.203125 v 30.140625 h -6.59375 V 37.210382 l -6.453125,1.40625 z"
     style="font-family:LilyUPC;-inkscape-font-specification:LilyUPC"
     id="path828" /></g><path
   style="fill:#e9c6af;fill-opacity:1;stroke-width:0.124538"
   d="M 2.0548806,38.046426 V 2.1171497 H 37.984157 73.913433 V 38.046426 73.975702 H 37.984157 2.0548806 Z m 47.9472144,-0.06227 c 0,-15.206117 -0.0236,-27.647485 -0.05244,-27.647485 -0.02884,0 -5.417479,1.316992 -11.974755,2.926648 -6.557276,1.609657 -11.941752,2.926648 -11.965503,2.926648 -0.02375,0 -0.04318,1.625224 -0.04318,3.611609 0,2.470451 0.04189,3.611608 0.132562,3.611608 0.07291,0 2.703281,-0.560422 5.845272,-1.245382 3.141991,-0.68496 5.744343,-1.245382 5.783003,-1.245382 0.03866,0 0.07029,10.059574 0.07029,22.35461 v 22.35461 h 6.102373 6.102373 z"
   id="path11638" /><path
   style="fill:#d38d5f;fill-opacity:1;stroke-width:0.124538"
   d="M 0.06226911,37.984157 V 0 H 37.984157 75.906044 V 37.984157 75.968314 H 37.984157 0.06226911 Z M 74.037971,38.046426 V 1.9926115 H 37.984157 1.9303424 V 38.046426 74.10024 H 37.984157 74.037971 Z"
   id="path14719" /></svg>
