<?xml version="1.0" encoding="UTF-8" standalone="no"?>
<!-- Generator: Adobe Illustrator 13.0.3, SVG Export Plug-In . SVG Version: 6.00 Build 14948)  -->

<svg
   version="1.1"
   id="レイヤー_1"
   x="0px"
   y="0px"
   width="76px"
   height="76px"
   viewBox="0 0 76 76"
   enable-background="new 0 0 76 76"
   xml:space="preserve"
   sodipodi:docname="2.svg"
   inkscape:version="1.1.2 (0a00cf5339, 2022-02-04)"
   xmlns:inkscape="http://www.inkscape.org/namespaces/inkscape"
   xmlns:sodipodi="http://sodipodi.sourceforge.net/DTD/sodipodi-0.dtd"
   xmlns="http://www.w3.org/2000/svg"
   xmlns:svg="http://www.w3.org/2000/svg"><defs
   id="defs10"><rect
     x="1"
     y="1"
     width="74.001"
     height="74.001"
     id="rect5341" /><rect
     x="1"
     y="1"
     width="117.61676"
     height="101.51824"
     id="rect5341-2" /></defs><sodipodi:namedview
   id="namedview8"
   pagecolor="#ffffff"
   bordercolor="#666666"
   borderopacity="1.0"
   inkscape:pageshadow="2"
   inkscape:pageopacity="0.0"
   inkscape:pagecheckerboard="0"
   showgrid="false"
   inkscape:snap-bbox="true"
   inkscape:snap-bbox-midpoints="true"
   inkscape:zoom="8.1123618"
   inkscape:cx="39.014532"
   inkscape:cy="56.272145"
   inkscape:window-width="1920"
   inkscape:window-height="987"
   inkscape:window-x="0"
   inkscape:window-y="56"
   inkscape:window-maximized="1"
   inkscape:current-layer="レイヤー_1" />
<g
   id="rect1313_66_">
	<polygon
   fill="#B9B9B9"
   points="75.001,75.001 1,75.001 1,1 75.001,1 75.001,75.001  "
   id="polygon2"
   style="fill:#e9c6af;fill-opacity:1" />
	<path
   fill="#757575"
   d="M75.991,0C75.996,0,76,0.004,76,0.009V75.99c0,0.006-0.004,0.01-0.009,0.01H0.009   C0.004,76,0,75.996,0,75.99V0.009C0,0.004,0.004,0,0.009,0H75.991 M74,2H2v72h72V2L74,2z"
   id="path4"
   style="fill:#d38d5f;fill-opacity:1" />
</g>
<g
   aria-label="2"
   transform="matrix(1.8322237,0,0,1.8322237,-71.396638,-47.369155)"
   id="text5339"
   style="font-size:64px;line-height:1.25;text-align:center;white-space:pre;shape-inside:url(#rect5341-2);fill:#008000"><path
     d="m 71.363281,57.694757 v 3.96875 h -23.6875 v -3.78125 q 0,-0.640625 0.78125,-2.203125 0.796875,-1.578125 2.84375,-3.71875 2.0625,-2.140625 5.65625,-4.3125 3.375,-2 4.9375,-3.109375 1.578125,-1.125 2.28125,-2.234375 0.71875,-1.125 0.71875,-2.65625 -0.125,-4.203125 -5.765625,-4.28125 -4.46875,0 -7.296875,1.9375 -2.828125,1.9375 -3.828125,3.234375 v -5.4375 q 0,-0.09375 0.6875,-0.65625 0.703125,-0.578125 2,-1.234375 1.296875,-0.671875 3.390625,-1.171875 2.09375,-0.5 4.921875,-0.515625 4.234375,0 7.0625,1.09375 2.84375,1.09375 4.25,3.1875 1.421875,2.09375 1.421875,5 -0.1875,1.53125 -0.765625,2.703125 -0.5625,1.15625 -2.125,2.5 -1.546875,1.34375 -4.34375,2.859375 -7.015625,3.828125 -9.53125,8.0625 l -0.453125,0.765625 z"
     style="font-family:LilyUPC;-inkscape-font-specification:LilyUPC"
     id="path828" /></g><path
   style="fill:#e9c6af;fill-opacity:1;stroke-width:0.123269"
   d="M 2.033933,38.028383 V 2.0955673 H 37.966749 73.899564 V 38.028383 73.961198 H 37.966749 2.033933 Z m 57.414214,23.944938 0.03265,-3.667243 H 44.070382 c -8.475729,0 -15.410418,-0.02578 -15.410418,-0.0573 0,-0.03151 0.311992,-0.572356 0.693315,-1.20187 2.480558,-4.095066 6.500709,-7.949793 12.139906,-11.640367 0.893025,-0.58444 3.099773,-1.90478 4.903884,-2.93409 5.842811,-3.333532 7.666107,-4.622112 10.06176,-7.110967 1.762792,-1.831372 2.554833,-3.237003 3.233462,-5.738399 0.282307,-1.040573 0.328128,-1.450885 0.327802,-2.935419 -0.0013,-5.877106 -2.990217,-10.723751 -8.266631,-13.404604 -3.778222,-1.919648 -7.764833,-2.7557 -13.786713,-2.891281 -5.451261,-0.122734 -9.592156,0.444513 -13.781873,1.887932 -2.443701,0.841891 -5.698882,2.679684 -7.142983,4.032749 l -0.585526,0.548614 v 5.082028 5.082028 l 1.14343,-1.154883 c 2.450243,-2.474782 6.416138,-5.327546 8.963121,-6.44739 4.362685,-1.91816 10.961212,-2.485901 15.147748,-1.303321 2.97099,0.839223 4.875767,2.680299 5.496188,5.31238 0.399979,1.696876 0.168888,4.101008 -0.53976,5.615357 -1.306474,2.791868 -3.559155,4.656719 -11.288987,9.345426 -6.871883,4.168298 -8.926218,5.648577 -12.0335,8.670901 -2.97979,2.898322 -4.904248,5.360558 -6.137498,7.852588 -1.32391,2.675222 -1.292265,2.511739 -1.342182,6.934204 l -0.04348,3.852488 21.797026,-0.03116 21.797026,-0.03116 z"
   id="path28290" /><path
   style="fill:#d38d5f;fill-opacity:1;stroke-width:0.123269"
   d="m -7.8580075e-4,37.966749 c 0,-20.915611 0.0142200507,-29.4719972 0.0316001107,-19.014192 0.01738005,10.457805 0.01738005,27.570578 0,38.028383 -0.01738006,10.457805 -0.0316001107,1.901419 -0.0316001107,-19.014191 z"
   id="path30201" /><path
   style="fill:#d38d5f;fill-opacity:1;stroke-width:0.123269"
   d="M 0.06163433,37.966749 V 0 H 38.028383 75.995131 V 37.966749 75.933497 H 38.028383 0.06163433 Z M 74.022833,38.028383 V 1.9722986 H 37.966749 1.9106643 V 38.028383 74.084467 H 37.966749 74.022833 Z"
   id="path30240" /></svg>
