<?xml version="1.0" encoding="UTF-8" standalone="no"?>
<!-- Generator: Adobe Illustrator 13.0.3, SVG Export Plug-In . SVG Version: 6.00 Build 14948)  -->

<svg
   version="1.1"
   id="レイヤー_1"
   x="0px"
   y="0px"
   width="76px"
   height="76px"
   viewBox="0 0 76 76"
   enable-background="new 0 0 76 76"
   xml:space="preserve"
   sodipodi:docname="2.svg"
   inkscape:version="1.1.1 (3bf5ae0d25, 2021-09-20)"
   xmlns:inkscape="http://www.inkscape.org/namespaces/inkscape"
   xmlns:sodipodi="http://sodipodi.sourceforge.net/DTD/sodipodi-0.dtd"
   xmlns="http://www.w3.org/2000/svg"
   xmlns:svg="http://www.w3.org/2000/svg"><defs
   id="defs10"><rect
     x="1"
     y="1"
     width="74.001"
     height="74.001"
     id="rect5341" /><rect
     x="1"
     y="1"
     width="117.61676"
     height="101.51824"
     id="rect5341-2" /></defs><sodipodi:namedview
   id="namedview8"
   pagecolor="#ffffff"
   bordercolor="#666666"
   borderopacity="1.0"
   inkscape:pageshadow="2"
   inkscape:pageopacity="0.0"
   inkscape:pagecheckerboard="0"
   showgrid="false"
   inkscape:snap-bbox="true"
   inkscape:snap-bbox-midpoints="true"
   inkscape:zoom="3.7774389"
   inkscape:cx="11.251009"
   inkscape:cy="49.636806"
   inkscape:window-width="1920"
   inkscape:window-height="1001"
   inkscape:window-x="-9"
   inkscape:window-y="-9"
   inkscape:window-maximized="1"
   inkscape:current-layer="レイヤー_1" />
<g
   id="rect1313_66_">
	<polygon
   fill="#B9B9B9"
   points="75.001,75.001 1,75.001 1,1 75.001,1 75.001,75.001  "
   id="polygon2"
   style="fill:#e9c6af;fill-opacity:1" />
	<path
   fill="#757575"
   d="M75.991,0C75.996,0,76,0.004,76,0.009V75.99c0,0.006-0.004,0.01-0.009,0.01H0.009   C0.004,76,0,75.996,0,75.99V0.009C0,0.004,0.004,0,0.009,0H75.991 M74,2H2v72h72V2L74,2z"
   id="path4"
   style="fill:#d38d5f;fill-opacity:1" />
</g>
<g
   aria-label="2"
   transform="matrix(1.8322237,0,0,1.8322237,-71.396638,-47.369155)"
   id="text5339"
   style="font-size:64px;line-height:1.25;text-align:center;white-space:pre;shape-inside:url(#rect5341-2);fill:#008000"><path
     d="m 71.363281,57.694757 v 3.96875 h -23.6875 v -3.78125 q 0,-0.640625 0.78125,-2.203125 0.796875,-1.578125 2.84375,-3.71875 2.0625,-2.140625 5.65625,-4.3125 3.375,-2 4.9375,-3.109375 1.578125,-1.125 2.28125,-2.234375 0.71875,-1.125 0.71875,-2.65625 -0.125,-4.203125 -5.765625,-4.28125 -4.46875,0 -7.296875,1.9375 -2.828125,1.9375 -3.828125,3.234375 v -5.4375 q 0,-0.09375 0.6875,-0.65625 0.703125,-0.578125 2,-1.234375 1.296875,-0.671875 3.390625,-1.171875 2.09375,-0.5 4.921875,-0.515625 4.234375,0 7.0625,1.09375 2.84375,1.09375 4.25,3.1875 1.421875,2.09375 1.421875,5 -0.1875,1.53125 -0.765625,2.703125 -0.5625,1.15625 -2.125,2.5 -1.546875,1.34375 -4.34375,2.859375 -7.015625,3.828125 -9.53125,8.0625 l -0.453125,0.765625 z"
     style="font-family:LilyUPC;-inkscape-font-specification:LilyUPC"
     id="path828" /></g></svg>
