<?xml version="1.0" encoding="UTF-8" standalone="no"?>
<!-- Generator: Adobe Illustrator 13.0.3, SVG Export Plug-In . SVG Version: 6.00 Build 14948)  -->

<svg
   version="1.1"
   id="レイヤー_1"
   x="0px"
   y="0px"
   width="76px"
   height="76px"
   viewBox="0 0 76 76"
   enable-background="new 0 0 76 76"
   xml:space="preserve"
   sodipodi:docname="3.svg"
   inkscape:version="1.1.2 (0a00cf5339, 2022-02-04)"
   xmlns:inkscape="http://www.inkscape.org/namespaces/inkscape"
   xmlns:sodipodi="http://sodipodi.sourceforge.net/DTD/sodipodi-0.dtd"
   xmlns="http://www.w3.org/2000/svg"
   xmlns:svg="http://www.w3.org/2000/svg"><defs
   id="defs10"><rect
     x="1"
     y="1"
     width="74.001"
     height="74.001"
     id="rect5341" /><rect
     x="1"
     y="1"
     width="117.61676"
     height="101.51824"
     id="rect5341-2" /></defs><sodipodi:namedview
   id="namedview8"
   pagecolor="#ffffff"
   bordercolor="#666666"
   borderopacity="1.0"
   inkscape:pageshadow="2"
   inkscape:pageopacity="0.0"
   inkscape:pagecheckerboard="0"
   showgrid="false"
   inkscape:snap-bbox="true"
   inkscape:snap-bbox-midpoints="true"
   inkscape:zoom="5.2379425"
   inkscape:cx="33.123693"
   inkscape:cy="42.287596"
   inkscape:window-width="1920"
   inkscape:window-height="987"
   inkscape:window-x="0"
   inkscape:window-y="56"
   inkscape:window-maximized="1"
   inkscape:current-layer="レイヤー_1" />
<g
   id="rect1313_66_">
	<polygon
   fill="#B9B9B9"
   points="75.001,75.001 1,75.001 1,1 75.001,1 75.001,75.001  "
   id="polygon2"
   style="fill:#e9c6af;fill-opacity:1" />
	<path
   fill="#757575"
   d="M75.991,0C75.996,0,76,0.004,76,0.009V75.99c0,0.006-0.004,0.01-0.009,0.01H0.009   C0.004,76,0,75.996,0,75.99V0.009C0,0.004,0.004,0,0.009,0H75.991 M74,2H2v72h72V2L74,2z"
   id="path4"
   style="fill:#d38d5f;fill-opacity:1" />
</g>
<g
   aria-label="3"
   transform="matrix(1.8322237,0,0,1.8322237,-71.940579,-47.540926)"
   id="text5339"
   style="font-size:64px;line-height:1.25;text-align:center;white-space:pre;shape-inside:url(#rect5341-2);fill:#800000"><path
     d="m 49.347656,39.257257 v -5.109375 q 0,-0.15625 1.09375,-0.796875 1.09375,-0.640625 3.234375,-1.21875 2.140625,-0.59375 5.328125,-0.671875 4.828125,0 8.34375,1.453125 3.515625,1.4375 3.5625,5.0625 0,4.359375 -2.953125,5.671875 -2.953125,1.3125 -4.921875,1.3125 0.1875,0.01563 1.59375,0.21875 1.421875,0.1875 3.078125,0.875 1.671875,0.671875 2.9375,2.125 1.265625,1.453125 1.359375,3.828125 0,3.34375 -1.8125,5.578125 -1.796875,2.21875 -4.734375,3.28125 -2.921875,1.046875 -6.328125,1.046875 -3.828125,-0.07813 -6.34375,-0.890625 -2.5,-0.828125 -3.640625,-1.734375 -1.140625,-0.921875 -1.140625,-1.203125 v -6.65625 q 0.859375,1.5625 3.265625,3.9375 2.421875,2.375 6.140625,2.453125 3.9375,0 5.828125,-1.515625 1.90625,-1.53125 1.90625,-4.171875 -0.125,-3.03125 -2.6875,-4.140625 -2.546875,-1.109375 -5.75,-1.109375 -0.84375,0 -1.453125,0.04687 -0.609375,0.04687 -0.859375,0.07813 v -3.90625 q 0.265625,0.03125 0.90625,0.07813 0.65625,0.04687 1.53125,0.04687 7.875,0 7.875,-4.46875 -0.1875,-1.796875 -1.71875,-2.53125 -1.53125,-0.734375 -4.5625,-0.734375 -2.828125,0 -4.84375,0.828125 -2.015625,0.828125 -2.984375,1.671875 -0.953125,0.84375 -1.25,1.265625 z"
     style="font-family:LilyUPC;-inkscape-font-specification:LilyUPC"
     id="path828" /></g><path
   style="fill:#e9c6af;fill-opacity:1;stroke-width:0.190915"
   d="M 2.0046039,37.992017 V 2.1000612 H 37.992017 73.979429 V 37.992017 73.883972 H 37.992017 2.0046039 Z M 39.13886,65.858074 c 9.608235,-0.780212 16.206925,-4.388478 19.316008,-10.562292 1.934632,-3.841665 2.094145,-9.215979 0.376705,-12.691964 -1.893615,-3.832547 -6.669666,-6.62072 -13.012055,-7.596202 -0.790788,-0.121626 -0.856302,-0.158826 -0.38183,-0.216811 1.857527,-0.227003 6.08529,-1.639928 7.959858,-2.660195 1.769667,-0.963174 3.414748,-3.135987 4.079778,-5.388553 0.141775,-0.480217 0.355515,-1.682221 0.474976,-2.671121 0.592097,-4.90137 -1.210643,-8.716311 -5.074973,-10.739607 -2.63165,-1.377886 -7.001341,-2.563505 -11.162475,-3.02869 -2.382681,-0.266367 -8.047029,-0.268377 -10.213934,-0.0036 -4.733391,0.578327 -9.115644,1.933405 -11.862231,3.668031 l -1.215423,0.767609 v 4.876541 4.876542 l 1.498187,-1.43136 c 1.767771,-1.688919 3.446176,-2.72903 6.243223,-3.868939 2.876517,-1.172296 4.956198,-1.522489 9.05908,-1.525435 6.123719,-0.0044 9.201357,1.025189 10.595764,3.544684 0.502766,0.908428 0.572743,1.221967 0.572743,2.566201 0,1.349743 -0.07547,1.684642 -0.636478,2.824204 -0.97995,1.99056 -2.601318,3.151911 -5.62283,4.027511 -2.339243,0.677884 -4.996813,0.927784 -9.019611,0.848136 l -3.526174,-0.06981 v 3.680011 3.68001 l 0.429558,-0.0874 c 1.147636,-0.23352 4.106045,-0.287314 6.229476,-0.113276 4.111867,0.337016 8.082926,1.529114 10.030042,3.010984 1.928724,1.467876 2.975133,3.795601 2.975133,6.618156 0,3.833329 -1.943098,6.899239 -5.387901,8.501277 -2.497351,1.161416 -4.062626,1.440827 -8.071582,1.440827 -4.01853,0 -5.280562,-0.271338 -8.196308,-1.762211 -1.521653,-0.77805 -2.045604,-1.198795 -4.327699,-3.475256 -2.183815,-2.178422 -4.013557,-4.357902 -5.076643,-6.046994 -0.178737,-0.283988 -0.229819,1.00616 -0.238643,6.027231 l -0.01123,6.388565 1.072506,1.014206 c 2.532234,2.394581 7.436795,4.39643 12.741332,5.200509 1.176261,0.178301 3.81576,0.403321 6.443119,0.549281 0.27351,0.0152 1.59675,-0.06165 2.940529,-0.17077 z"
   id="path37910" /><path
   style="fill:#d38d5f;fill-opacity:1;stroke-width:0.190915"
   d="M 0.09545733,37.992017 V 0 H 37.992017 75.888576 V 37.992017 75.984033 H 37.992017 0.09545733 Z m 74.07488667,0 V 1.9091466 H 38.087474 2.0046039 v 36.0828704 36.08287 h 36.0828701 36.08287 z"
   id="path42005" /></svg>
