<?xml version="1.0" encoding="UTF-8" standalone="no"?>
<!-- Generator: Adobe Illustrator 13.0.3, SVG Export Plug-In . SVG Version: 6.00 Build 14948)  -->

<svg
   version="1.1"
   id="レイヤー_1"
   x="0px"
   y="0px"
   width="76px"
   height="76px"
   viewBox="0 0 76 76"
   enable-background="new 0 0 76 76"
   xml:space="preserve"
   sodipodi:docname="4.svg"
   inkscape:version="1.1.2 (0a00cf5339, 2022-02-04)"
   xmlns:inkscape="http://www.inkscape.org/namespaces/inkscape"
   xmlns:sodipodi="http://sodipodi.sourceforge.net/DTD/sodipodi-0.dtd"
   xmlns="http://www.w3.org/2000/svg"
   xmlns:svg="http://www.w3.org/2000/svg"><defs
   id="defs10"><rect
     x="1"
     y="1"
     width="74.001"
     height="74.001"
     id="rect5341" /><rect
     x="1"
     y="1"
     width="117.61676"
     height="101.51824"
     id="rect5341-2" /></defs><sodipodi:namedview
   id="namedview8"
   pagecolor="#ffffff"
   bordercolor="#666666"
   borderopacity="1.0"
   inkscape:pageshadow="2"
   inkscape:pageopacity="0.0"
   inkscape:pagecheckerboard="0"
   showgrid="false"
   inkscape:snap-bbox="true"
   inkscape:snap-bbox-midpoints="true"
   inkscape:zoom="8.2256999"
   inkscape:cx="31.547468"
   inkscape:cy="35.316144"
   inkscape:window-width="1920"
   inkscape:window-height="987"
   inkscape:window-x="0"
   inkscape:window-y="56"
   inkscape:window-maximized="1"
   inkscape:current-layer="レイヤー_1" />
<g
   id="rect1313_66_">
	<polygon
   fill="#B9B9B9"
   points="75.001,75.001 1,75.001 1,1 75.001,1 75.001,75.001  "
   id="polygon2"
   style="fill:#e9c6af;fill-opacity:1" />
	<path
   fill="#757575"
   d="M75.991,0C75.996,0,76,0.004,76,0.009V75.99c0,0.006-0.004,0.01-0.009,0.01H0.009   C0.004,76,0,75.996,0,75.99V0.009C0,0.004,0.004,0,0.009,0H75.991 M74,2H2v72h72V2L74,2z"
   id="path4"
   style="fill:#d38d5f;fill-opacity:1" />
</g>
<g
   aria-label="4"
   transform="matrix(1.8322237,0,0,1.8322237,-72.570406,-47.483669)"
   id="text5339"
   style="font-size:64px;line-height:1.25;text-align:center;white-space:pre;shape-inside:url(#rect5341-2);fill:#800080"><path
     d="m 69.566406,61.663507 h -6.90625 v -6.90625 H 47.550781 v -4.359375 l 15.8125,-18.75 h 6.203125 v 19.390625 h 3.578125 v 3.71875 h -3.578125 z m -16.640625,-10.625 h 9.734375 V 39.647882 Z"
     style="font-family:LilyUPC;-inkscape-font-specification:LilyUPC"
     id="path3073" /></g><path
   style="fill:#e9c6af;fill-opacity:1;stroke-width:0.12157"
   d="M 2.0059083,37.990688 V 2.0666934 H 37.990688 73.975468 V 37.990688 73.914683 H 37.990688 2.0059083 Z m 52.9753097,21.183608 0.03149,-6.291258 h 3.220516 3.220516 v -3.464751 -3.46475 H 58.232533 55.01133 L 54.98053,28.23468 54.94973,10.515823 49.213089,10.484243 43.476451,10.452663 29.002043,27.615529 14.527637,44.778395 v 4.05232 4.05232 h 13.798218 13.798218 v 6.322725 6.322726 l 6.412828,-0.03147 6.412829,-0.03147 z"
   id="path20043" /><path
   style="fill:#e9c6af;fill-opacity:1;stroke-width:0.12157"
   d="m 24.762901,45.740789 c 0.100441,-0.117012 4.023686,-4.712365 8.718323,-10.211897 4.694638,-5.499532 8.559813,-9.999149 8.589278,-9.999149 0.02947,0 0.05357,4.595353 0.05357,10.211897 v 10.211897 h -8.771896 c -8.34271,0 -8.762962,-0.01041 -8.589278,-0.212748 z"
   id="path20940" /><path
   style="fill:#d38d5f;fill-opacity:1;stroke-width:0.12157"
   d="M 0.0607851,37.990688 V 0 H 37.990688 75.920592 V 37.990688 75.981377 H 37.990688 0.0607851 Z M 74.097039,37.990445 V 1.9447187 L 38.021081,1.9753135 1.9451232,2.0059083 1.914528,38.021081 1.8839329,74.036253 H 37.990485 74.097039 V 37.990487 Z"
   id="path23163" /></svg>
