<?xml version="1.0" encoding="UTF-8" standalone="no"?>
<!-- Generator: Adobe Illustrator 13.0.3, SVG Export Plug-In . SVG Version: 6.00 Build 14948)  -->

<svg
   version="1.1"
   id="レイヤー_1"
   x="0px"
   y="0px"
   width="76px"
   height="76px"
   viewBox="0 0 76 76"
   enable-background="new 0 0 76 76"
   xml:space="preserve"
   sodipodi:docname="5.svg"
   inkscape:version="1.1.2 (0a00cf5339, 2022-02-04)"
   xmlns:inkscape="http://www.inkscape.org/namespaces/inkscape"
   xmlns:sodipodi="http://sodipodi.sourceforge.net/DTD/sodipodi-0.dtd"
   xmlns="http://www.w3.org/2000/svg"
   xmlns:svg="http://www.w3.org/2000/svg"><defs
   id="defs10"><rect
     x="1"
     y="1"
     width="74.001"
     height="74.001"
     id="rect5341" /><rect
     x="1"
     y="1"
     width="117.61676"
     height="101.51824"
     id="rect5341-2" /></defs><sodipodi:namedview
   id="namedview8"
   pagecolor="#ffffff"
   bordercolor="#666666"
   borderopacity="1.0"
   inkscape:pageshadow="2"
   inkscape:pageopacity="0.0"
   inkscape:pagecheckerboard="0"
   showgrid="false"
   inkscape:snap-bbox="true"
   inkscape:snap-bbox-midpoints="true"
   inkscape:zoom="7.6212167"
   inkscape:cx="50.188837"
   inkscape:cy="44.021842"
   inkscape:window-width="1920"
   inkscape:window-height="987"
   inkscape:window-x="0"
   inkscape:window-y="56"
   inkscape:window-maximized="1"
   inkscape:current-layer="レイヤー_1" />
<g
   id="rect1313_66_">
	<polygon
   fill="#B9B9B9"
   points="75.001,75.001 1,75.001 1,1 75.001,1 75.001,75.001  "
   id="polygon2"
   style="fill:#e9c6af;fill-opacity:1" />
	<path
   fill="#757575"
   d="M75.991,0C75.996,0,76,0.004,76,0.009V75.99c0,0.006-0.004,0.01-0.009,0.01H0.009   C0.004,76,0,75.996,0,75.99V0.009C0,0.004,0.004,0,0.009,0H75.991 M74,2H2v72h72V2L74,2z"
   id="path4"
   style="fill:#d38d5f;fill-opacity:1" />
</g>
<g
   aria-label="5"
   transform="matrix(1.8322237,0,0,1.8322237,-71.811251,-47.712197)"
   id="text5339"
   style="font-size:64px;line-height:1.25;text-align:center;white-space:pre;shape-inside:url(#rect5341-2);fill:#808000"><path
     d="m 65.019531,50.147882 q -0.15625,-5.671875 -7.171875,-6.140625 -3.703125,0 -6.171875,0.796875 -2.453125,0.78125 -3.359375,1.3125 v -14.46875 h 22.015625 v 4.03125 h -16.1875 v 4.609375 q 0.59375,-0.140625 2.078125,-0.359375 1.5,-0.21875 3.8125,-0.21875 1.46875,0 2.296875,0.0625 9.265625,0.75 9.53125,10.109375 0,5.296875 -3.375,8.671875 -3.359375,3.359375 -11.46875,3.359375 -4.09375,-0.04687 -6.25,-1.34375 -2.140625,-1.3125 -2.765625,-2.171875 v -6.46875 q 0.734375,1.453125 2.953125,3.671875 2.234375,2.203125 6,2.28125 4.46875,0 6.265625,-2.03125 1.796875,-2.03125 1.796875,-5.703125 z"
     style="font-family:LilyUPC;-inkscape-font-specification:LilyUPC"
     id="path828" /></g><path
   style="fill:#e9c6af;fill-opacity:1;stroke-width:0.131213"
   d="M 2.033796,38.051667 V 2.0994023 H 37.986061 73.938326 V 38.051667 74.003932 H 37.986061 2.033796 Z M 39.035762,65.48032 c 7.209113,-0.907666 12.097516,-2.97477 15.249166,-6.448244 3.956443,-4.360446 5.809416,-9.680305 5.571024,-15.994328 -0.35781,-9.47694 -4.85921,-15.342305 -13.275463,-17.298053 -2.326806,-0.540697 -4.114449,-0.694891 -8.135184,-0.701698 -4.115255,-0.007 -6.036881,0.126297 -8.978631,0.62267 -1.04123,0.175689 -1.912154,0.319437 -1.935386,0.319437 -0.02323,0 -0.04224,-1.859939 -0.04224,-4.133199 v -4.133198 h 14.827029 14.827029 v -3.73956 -3.739561 H 36.870753 16.5984 V 23.55267 c 0,7.324946 0.02162,13.318083 0.04804,13.318083 0.02642,0 0.602116,-0.261152 1.279323,-0.580339 1.665476,-0.784985 5.688015,-2.11845 7.569065,-2.509132 3.254283,-0.675895 8.444658,-0.968303 10.719864,-0.603923 6.2819,1.006065 9.705576,3.729005 10.773685,8.568595 0.280428,1.270616 0.281542,4.217821 0.0022,5.9047 -0.651573,3.935154 -2.324505,6.809564 -4.951385,8.507398 -3.277922,2.118623 -9.798912,2.732864 -14.512303,1.366977 -2.487448,-0.720835 -4.349358,-1.866269 -6.419469,-3.949216 -2.061977,-2.074762 -3.267044,-3.569856 -4.86217,-6.032364 -0.12221,-0.188664 -0.157983,1.079462 -0.164016,5.814333 l -0.0077,6.055624 1.005483,0.93901 c 1.205479,1.125784 3.775962,2.876503 5.227839,3.560605 1.703938,0.80287 3.799926,1.336037 6.625517,1.68537 1.248193,0.154315 8.624619,0.06811 10.103374,-0.118071 z"
   id="path25472" /><path
   style="fill:#d38d5f;fill-opacity:1;stroke-width:0.131213"
   d="M 0.06560632,37.986061 V 0 H 37.986061 75.906515 V 37.986061 75.972122 H 37.986061 0.06560632 Z m 74.00393168,0 V 1.9681897 H 37.986061 1.9025834 V 37.986061 74.003932 H 37.986061 74.069538 Z"
   id="path26915" /></svg>
