<?xml version="1.0" encoding="UTF-8" standalone="no"?>
<!-- Generator: Adobe Illustrator 13.0.3, SVG Export Plug-In . SVG Version: 6.00 Build 14948)  -->

<svg
   version="1.1"
   id="レイヤー_1"
   x="0px"
   y="0px"
   width="76px"
   height="76px"
   viewBox="0 0 76 76"
   enable-background="new 0 0 76 76"
   xml:space="preserve"
   sodipodi:docname="5.svg"
   inkscape:version="1.1.1 (3bf5ae0d25, 2021-09-20)"
   xmlns:inkscape="http://www.inkscape.org/namespaces/inkscape"
   xmlns:sodipodi="http://sodipodi.sourceforge.net/DTD/sodipodi-0.dtd"
   xmlns="http://www.w3.org/2000/svg"
   xmlns:svg="http://www.w3.org/2000/svg"><defs
   id="defs10"><rect
     x="1"
     y="1"
     width="74.001"
     height="74.001"
     id="rect5341" /><rect
     x="1"
     y="1"
     width="117.61676"
     height="101.51824"
     id="rect5341-2" /></defs><sodipodi:namedview
   id="namedview8"
   pagecolor="#ffffff"
   bordercolor="#666666"
   borderopacity="1.0"
   inkscape:pageshadow="2"
   inkscape:pageopacity="0.0"
   inkscape:pagecheckerboard="0"
   showgrid="false"
   inkscape:snap-bbox="true"
   inkscape:snap-bbox-midpoints="true"
   inkscape:zoom="3.7774389"
   inkscape:cx="11.251009"
   inkscape:cy="49.636806"
   inkscape:window-width="1920"
   inkscape:window-height="1001"
   inkscape:window-x="-9"
   inkscape:window-y="-9"
   inkscape:window-maximized="1"
   inkscape:current-layer="レイヤー_1" />
<g
   id="rect1313_66_">
	<polygon
   fill="#B9B9B9"
   points="75.001,75.001 1,75.001 1,1 75.001,1 75.001,75.001  "
   id="polygon2"
   style="fill:#e9c6af;fill-opacity:1" />
	<path
   fill="#757575"
   d="M75.991,0C75.996,0,76,0.004,76,0.009V75.99c0,0.006-0.004,0.01-0.009,0.01H0.009   C0.004,76,0,75.996,0,75.99V0.009C0,0.004,0.004,0,0.009,0H75.991 M74,2H2v72h72V2L74,2z"
   id="path4"
   style="fill:#d38d5f;fill-opacity:1" />
</g>
<g
   aria-label="5"
   transform="matrix(1.8322237,0,0,1.8322237,-71.811251,-47.712197)"
   id="text5339"
   style="font-size:64px;line-height:1.25;text-align:center;white-space:pre;shape-inside:url(#rect5341-2);fill:#808000"><path
     d="m 65.019531,50.147882 q -0.15625,-5.671875 -7.171875,-6.140625 -3.703125,0 -6.171875,0.796875 -2.453125,0.78125 -3.359375,1.3125 v -14.46875 h 22.015625 v 4.03125 h -16.1875 v 4.609375 q 0.59375,-0.140625 2.078125,-0.359375 1.5,-0.21875 3.8125,-0.21875 1.46875,0 2.296875,0.0625 9.265625,0.75 9.53125,10.109375 0,5.296875 -3.375,8.671875 -3.359375,3.359375 -11.46875,3.359375 -4.09375,-0.04687 -6.25,-1.34375 -2.140625,-1.3125 -2.765625,-2.171875 v -6.46875 q 0.734375,1.453125 2.953125,3.671875 2.234375,2.203125 6,2.28125 4.46875,0 6.265625,-2.03125 1.796875,-2.03125 1.796875,-5.703125 z"
     style="font-family:LilyUPC;-inkscape-font-specification:LilyUPC"
     id="path828" /></g></svg>
