<?xml version="1.0" encoding="UTF-8" standalone="no"?>
<!-- Generator: Adobe Illustrator 13.0.3, SVG Export Plug-In . SVG Version: 6.00 Build 14948)  -->

<svg
   version="1.1"
   id="レイヤー_1"
   x="0px"
   y="0px"
   width="76px"
   height="76px"
   viewBox="0 0 76 76"
   enable-background="new 0 0 76 76"
   xml:space="preserve"
   sodipodi:docname="6.svg"
   inkscape:version="1.1.2 (0a00cf5339, 2022-02-04)"
   xmlns:inkscape="http://www.inkscape.org/namespaces/inkscape"
   xmlns:sodipodi="http://sodipodi.sourceforge.net/DTD/sodipodi-0.dtd"
   xmlns="http://www.w3.org/2000/svg"
   xmlns:svg="http://www.w3.org/2000/svg"><defs
   id="defs10"><rect
     x="1"
     y="1"
     width="74.001"
     height="74.001"
     id="rect5341" /><rect
     x="1"
     y="1"
     width="117.61676"
     height="101.51824"
     id="rect5341-2" /></defs><sodipodi:namedview
   id="namedview8"
   pagecolor="#ffffff"
   bordercolor="#666666"
   borderopacity="1.0"
   inkscape:pageshadow="2"
   inkscape:pageopacity="0.0"
   inkscape:pagecheckerboard="0"
   showgrid="false"
   inkscape:snap-bbox="true"
   inkscape:snap-bbox-midpoints="true"
   inkscape:zoom="11.51516"
   inkscape:cx="26.096034"
   inkscape:cy="36.256553"
   inkscape:window-width="1920"
   inkscape:window-height="987"
   inkscape:window-x="0"
   inkscape:window-y="56"
   inkscape:window-maximized="1"
   inkscape:current-layer="レイヤー_1" />
<g
   id="rect1313_66_">
	<polygon
   fill="#B9B9B9"
   points="75.001,75.001 1,75.001 1,1 75.001,1 75.001,75.001  "
   id="polygon2"
   style="fill:#e9c6af;fill-opacity:1" />
	<path
   fill="#757575"
   d="M75.991,0C75.996,0,76,0.004,76,0.009V75.99c0,0.006-0.004,0.01-0.009,0.01H0.009   C0.004,76,0,75.996,0,75.99V0.009C0,0.004,0.004,0,0.009,0H75.991 M74,2H2v72h72V2L74,2z"
   id="path4"
   style="fill:#d38d5f;fill-opacity:1" />
</g>
<g
   aria-label="6"
   transform="matrix(1.8322237,0,0,1.8322237,-71.983522,-47.483669)"
   id="text5339"
   style="font-size:64px;line-height:1.25;text-align:center;white-space:pre;shape-inside:url(#rect5341-2);fill:#008080"><path
     d="m 60.675781,35.554132 q -3.21875,0.203125 -4.5625,2.953125 -1.328125,2.75 -1.328125,5.359375 0.390625,-0.59375 2.1875,-1.46875 1.796875,-0.890625 5.875,-0.890625 4.421875,0.234375 6.6875,2.96875 2.265625,2.71875 2.265625,7.453125 -0.07813,2.859375 -1.40625,5.09375 -1.328125,2.234375 -4.03125,3.53125 -2.703125,1.296875 -6.65625,1.296875 -11.453125,-0.625 -11.453125,-14.328125 v -1.40625 q 0.1875,-5.734375 2.671875,-9.953125 2.484375,-4.21875 8.984375,-4.640625 0.5625,-0.0625 1.71875,-0.0625 4,0 6.0625,0.984375 2.0625,0.984375 2.640625,1.640625 v 5.046875 q -0.109375,-0.140625 -0.53125,-0.6875 -0.421875,-0.546875 -1.34375,-1.234375 -0.921875,-0.6875 -2.546875,-1.203125 -1.625,-0.515625 -3.953125,-0.515625 -0.234375,0 -0.65625,0.03125 -0.421875,0.03125 -0.625,0.03125 z m -0.140625,22.078125 q 2.328125,0 3.59375,-1.734375 1.28125,-1.734375 1.28125,-4.09375 0,-2.40625 -1.34375,-4.171875 -1.34375,-1.78125 -3.84375,-1.78125 -2.4375,0.04687 -3.78125,1.75 -1.34375,1.6875 -1.34375,4.015625 0,2.40625 1.453125,4.21875 1.453125,1.796875 3.984375,1.796875 z"
     style="font-family:LilyUPC;-inkscape-font-specification:LilyUPC"
     id="path828" /></g><path
   style="fill:#e9c6af;fill-opacity:1;stroke-width:0.086842"
   d="M 2.040788,37.993394 V 1.997367 H 37.993394 73.946 V 37.993394 73.989421 H 37.993394 2.040788 Z m 38.774973,27.737061 c 3.904177,-0.32484 7.260103,-1.292906 10.137973,-2.924448 4.164006,-2.360687 6.825282,-5.843857 8.00993,-10.483676 0.483123,-1.892212 0.606143,-2.954164 0.598574,-5.167101 -0.01328,-3.883245 -0.66798,-7.065566 -2.036725,-9.899993 -0.826943,-1.712453 -1.569774,-2.794542 -2.763756,-4.025991 -2.463776,-2.541086 -5.522174,-3.970166 -9.694167,-4.529735 -1.80743,-0.242422 -5.404347,-0.160064 -7.942616,0.181862 -2.233153,0.300823 -3.556112,0.696614 -5.340786,1.597804 -1.406965,0.710463 -2.294355,1.264769 -2.953225,1.84473 l -0.417707,0.367681 0.06173,-0.90962 c 0.178539,-2.630873 0.824518,-5.153935 2.007603,-7.841274 1.184788,-2.691209 2.611681,-4.270067 4.764962,-5.272439 1.574331,-0.732864 2.763042,-0.944165 5.698474,-1.01294 3.457866,-0.08102 5.698039,0.197468 8.186019,1.01763 3.190295,1.05168 5.459396,2.592413 7.141601,4.849189 0.286579,0.384462 0.550362,0.700771 0.586184,0.702909 0.03582,0.0021 0.06513,-2.082198 0.06513,-4.631857 V 14.95744 L 56.642723,14.678117 C 55.627791,13.673662 52.495892,11.9682 50.425222,11.292404 48.107576,10.536005 45.88925,10.248906 41.880841,10.186578 c -5.016504,-0.078 -7.981993,0.282153 -11.310323,1.373627 -4.063926,1.332702 -7.191997,3.727016 -9.184383,7.029987 -3.784973,6.274718 -5.443548,14.250546 -4.928812,23.701883 0.568739,10.442912 3.899615,17.157569 10.311776,20.787336 2.715337,1.537087 5.731717,2.36406 10.13877,2.779656 0.489233,0.04614 2.670379,-0.02565 3.907892,-0.128612 z"
   id="path32710" /><path
   style="fill:#e9c6af;fill-opacity:1;stroke-width:0.086842"
   d="m 37.69855,58.001927 c -0.888918,-0.09373 -1.862887,-0.342776 -2.694511,-0.688981 -2.746098,-1.143204 -4.945662,-4.053384 -5.741093,-7.595876 -0.186894,-0.832344 -0.267089,-3.459798 -0.134215,-4.397337 0.495803,-3.498309 2.434566,-6.468356 5.087034,-7.792976 2.330977,-1.164069 5.434102,-1.258435 7.931764,-0.241204 2.568019,1.045886 4.642597,3.897266 5.411735,7.4381 0.17145,0.78929 0.197825,1.156942 0.19624,2.735524 -0.002,2.027259 -0.128035,2.86674 -0.654174,4.358464 -0.869066,2.464005 -2.51079,4.498791 -4.391764,5.443245 -0.655646,0.329205 -1.793922,0.63724 -2.747843,0.743608 -0.926126,0.103269 -1.263103,0.102887 -2.263173,-0.0026 z"
   id="path32749" /><path
   style="fill:#d38d5f;fill-opacity:1;stroke-width:0.086842"
   d="M 0.04342102,37.993394 V 0 H 37.993394 75.943367 V 37.993394 75.986788 H 37.993394 0.04342102 Z M 74.032842,38.036815 V 1.997367 H 37.993394 1.953946 v 36.039448 36.039448 h 36.039448 36.039448 z"
   id="path35362" /></svg>
