<?xml version="1.0" encoding="UTF-8" standalone="no"?>
<!-- Generator: Adobe Illustrator 13.0.3, SVG Export Plug-In . SVG Version: 6.00 Build 14948)  -->

<svg
   version="1.1"
   id="レイヤー_1"
   x="0px"
   y="0px"
   width="76px"
   height="76px"
   viewBox="0 0 76 76"
   enable-background="new 0 0 76 76"
   xml:space="preserve"
   sodipodi:docname="6.svg"
   inkscape:version="1.1.1 (3bf5ae0d25, 2021-09-20)"
   xmlns:inkscape="http://www.inkscape.org/namespaces/inkscape"
   xmlns:sodipodi="http://sodipodi.sourceforge.net/DTD/sodipodi-0.dtd"
   xmlns="http://www.w3.org/2000/svg"
   xmlns:svg="http://www.w3.org/2000/svg"><defs
   id="defs10"><rect
     x="1"
     y="1"
     width="74.001"
     height="74.001"
     id="rect5341" /><rect
     x="1"
     y="1"
     width="117.61676"
     height="101.51824"
     id="rect5341-2" /></defs><sodipodi:namedview
   id="namedview8"
   pagecolor="#ffffff"
   bordercolor="#666666"
   borderopacity="1.0"
   inkscape:pageshadow="2"
   inkscape:pageopacity="0.0"
   inkscape:pagecheckerboard="0"
   showgrid="false"
   inkscape:snap-bbox="true"
   inkscape:snap-bbox-midpoints="true"
   inkscape:zoom="3.7774389"
   inkscape:cx="11.251009"
   inkscape:cy="49.636806"
   inkscape:window-width="1920"
   inkscape:window-height="1001"
   inkscape:window-x="-9"
   inkscape:window-y="-9"
   inkscape:window-maximized="1"
   inkscape:current-layer="レイヤー_1" />
<g
   id="rect1313_66_">
	<polygon
   fill="#B9B9B9"
   points="75.001,75.001 1,75.001 1,1 75.001,1 75.001,75.001  "
   id="polygon2"
   style="fill:#e9c6af;fill-opacity:1" />
	<path
   fill="#757575"
   d="M75.991,0C75.996,0,76,0.004,76,0.009V75.99c0,0.006-0.004,0.01-0.009,0.01H0.009   C0.004,76,0,75.996,0,75.99V0.009C0,0.004,0.004,0,0.009,0H75.991 M74,2H2v72h72V2L74,2z"
   id="path4"
   style="fill:#d38d5f;fill-opacity:1" />
</g>
<g
   aria-label="6"
   transform="matrix(1.8322237,0,0,1.8322237,-71.983522,-47.483669)"
   id="text5339"
   style="font-size:64px;line-height:1.25;text-align:center;white-space:pre;shape-inside:url(#rect5341-2);fill:#008080"><path
     d="m 60.675781,35.554132 q -3.21875,0.203125 -4.5625,2.953125 -1.328125,2.75 -1.328125,5.359375 0.390625,-0.59375 2.1875,-1.46875 1.796875,-0.890625 5.875,-0.890625 4.421875,0.234375 6.6875,2.96875 2.265625,2.71875 2.265625,7.453125 -0.07813,2.859375 -1.40625,5.09375 -1.328125,2.234375 -4.03125,3.53125 -2.703125,1.296875 -6.65625,1.296875 -11.453125,-0.625 -11.453125,-14.328125 v -1.40625 q 0.1875,-5.734375 2.671875,-9.953125 2.484375,-4.21875 8.984375,-4.640625 0.5625,-0.0625 1.71875,-0.0625 4,0 6.0625,0.984375 2.0625,0.984375 2.640625,1.640625 v 5.046875 q -0.109375,-0.140625 -0.53125,-0.6875 -0.421875,-0.546875 -1.34375,-1.234375 -0.921875,-0.6875 -2.546875,-1.203125 -1.625,-0.515625 -3.953125,-0.515625 -0.234375,0 -0.65625,0.03125 -0.421875,0.03125 -0.625,0.03125 z m -0.140625,22.078125 q 2.328125,0 3.59375,-1.734375 1.28125,-1.734375 1.28125,-4.09375 0,-2.40625 -1.34375,-4.171875 -1.34375,-1.78125 -3.84375,-1.78125 -2.4375,0.04687 -3.78125,1.75 -1.34375,1.6875 -1.34375,4.015625 0,2.40625 1.453125,4.21875 1.453125,1.796875 3.984375,1.796875 z"
     style="font-family:LilyUPC;-inkscape-font-specification:LilyUPC"
     id="path828" /></g></svg>
