<?xml version="1.0" encoding="UTF-8" standalone="no"?>
<!-- Generator: Adobe Illustrator 13.0.3, SVG Export Plug-In . SVG Version: 6.00 Build 14948)  -->

<svg
   version="1.1"
   id="レイヤー_1"
   x="0px"
   y="0px"
   width="76px"
   height="76px"
   viewBox="0 0 76 76"
   enable-background="new 0 0 76 76"
   xml:space="preserve"
   sodipodi:docname="8.svg"
   inkscape:version="1.1.2 (0a00cf5339, 2022-02-04)"
   xmlns:inkscape="http://www.inkscape.org/namespaces/inkscape"
   xmlns:sodipodi="http://sodipodi.sourceforge.net/DTD/sodipodi-0.dtd"
   xmlns="http://www.w3.org/2000/svg"
   xmlns:svg="http://www.w3.org/2000/svg"><defs
   id="defs10"><rect
     x="1"
     y="1"
     width="74.001"
     height="74.001"
     id="rect5341" /><rect
     x="1"
     y="1"
     width="117.61676"
     height="101.51824"
     id="rect5341-2" /></defs><sodipodi:namedview
   id="namedview8"
   pagecolor="#ffffff"
   bordercolor="#666666"
   borderopacity="1.0"
   inkscape:pageshadow="2"
   inkscape:pageopacity="0.0"
   inkscape:pagecheckerboard="0"
   showgrid="false"
   inkscape:snap-bbox="true"
   inkscape:snap-bbox-midpoints="true"
   inkscape:zoom="8.4644892"
   inkscape:cx="31.838897"
   inkscape:cy="34.083569"
   inkscape:window-width="1920"
   inkscape:window-height="987"
   inkscape:window-x="0"
   inkscape:window-y="56"
   inkscape:window-maximized="1"
   inkscape:current-layer="レイヤー_1" />
<g
   id="rect1313_66_">
	<polygon
   fill="#B9B9B9"
   points="75.001,75.001 1,75.001 1,1 75.001,1 75.001,75.001  "
   id="polygon2"
   style="fill:#e9c6af;fill-opacity:1" />
	<path
   fill="#757575"
   d="M75.991,0C75.996,0,76,0.004,76,0.009V75.99c0,0.006-0.004,0.01-0.009,0.01H0.009   C0.004,76,0,75.996,0,75.99V0.009C0,0.004,0.004,0,0.009,0H75.991 M74,2H2v72h72V2L74,2z"
   id="path4"
   style="fill:#d38d5f;fill-opacity:1" />
</g>
<g
   aria-label="8"
   transform="matrix(1.8322237,0,0,1.8322237,-71.811751,-47.540926)"
   id="text5339"
   style="font-size:64px;line-height:1.25;text-align:center;white-space:pre;shape-inside:url(#rect5341-2);fill:#666666"><path
     d="m 60.097656,31.522882 q 11.453125,0 11.453125,7.234375 0,1.859375 -0.8125,3.15625 -0.8125,1.296875 -1.875,2 -1.046875,0.703125 -1.9375,1.03125 -0.890625,0.328125 -1.140625,0.40625 0.25,0.04687 1.265625,0.21875 1.03125,0.171875 2.28125,0.78125 1.25,0.609375 2.25,1.96875 1,1.359375 1.125,3.609375 0,9.921875 -12.609375,9.921875 -12.9375,0 -12.9375,-9.921875 0.21875,-2.359375 1.25,-3.71875 1.046875,-1.375 2.34375,-1.953125 1.3125,-0.59375 2.34375,-0.734375 1.03125,-0.140625 1.296875,-0.171875 0,0 -0.01563,0 -0.140625,0 -1.5625,-0.640625 -1.59375,-0.703125 -2.859375,-2.09375 -1.25,-1.390625 -1.25,-3.671875 0.04687,-3.5625 2.890625,-5.46875 2.859375,-1.90625 8.5,-1.953125 z m 0,3.90625 q -2.578125,0 -4.015625,1.1875 -1.421875,1.171875 -1.421875,2.78125 0,1.640625 1.4375,2.875 1.453125,1.234375 4,1.28125 2.421875,0 3.796875,-1.21875 1.390625,-1.21875 1.390625,-2.875 0,-1.65625 -1.375,-2.84375 -1.359375,-1.1875 -3.8125,-1.1875 z m 0,12.859375 q -2.8125,0.04687 -4.421875,1.53125 -1.59375,1.46875 -1.59375,3.453125 0,1.984375 1.578125,3.4375 1.578125,1.4375 4.4375,1.4375 2.8125,0 4.375,-1.4375 1.578125,-1.453125 1.578125,-3.4375 0,-2 -1.59375,-3.484375 -1.59375,-1.5 -4.359375,-1.5 z"
     style="font-family:LilyUPC;-inkscape-font-specification:LilyUPC"
     id="path828" /></g><path
   style="fill:#e9c6af;fill-opacity:1;stroke-width:0.118141"
   d="m 36.15103,58.81781 c -3.822536,-0.482885 -6.668179,-2.396271 -8.093423,-5.441949 -1.071243,-2.289193 -0.893484,-5.266345 0.446109,-7.471553 0.55237,-0.909299 1.904535,-2.330381 2.789148,-2.931305 2.050014,-1.392589 4.862838,-2.09409 7.7991,-1.945048 3.310786,0.168052 5.662021,1.157313 7.600206,3.197719 1.851241,1.948875 2.637104,4.162852 2.386073,6.722182 -0.194427,1.982246 -0.890271,3.359049 -2.5264,4.998764 -1.027347,1.029596 -1.335855,1.26187 -2.308181,1.737805 -2.218667,1.085997 -5.182221,1.501046 -8.092632,1.133385 z"
   id="path46231" /><path
   style="fill:#e9c6af;fill-opacity:1;stroke-width:0.118141"
   d="m 37.037084,32.129498 c -5.03352,-0.450854 -8.629467,-3.575397 -8.622863,-7.492465 0.0029,-1.743535 0.569778,-2.997839 2.006197,-4.439323 1.195582,-1.199798 2.348128,-1.853398 4.10927,-2.330336 1.076994,-0.291663 1.311193,-0.311146 3.747873,-0.311795 2.504356,-6.68e-4 2.637689,0.01119 3.657961,0.325459 1.470796,0.453034 2.583058,1.069256 3.513088,1.946341 1.569622,1.48027 2.25528,2.95404 2.262933,4.86401 0.0067,1.680996 -0.340621,2.70005 -1.401307,4.111075 -1.030301,1.370602 -2.712191,2.46753 -4.549103,2.966923 -0.742737,0.201923 -3.207317,0.521093 -3.601713,0.466431 -0.06498,-0.009 -0.570028,-0.05685 -1.122336,-0.10632 z"
   id="path46270" /><path
   style="fill:#e9c6af;fill-opacity:1;stroke-width:0.118141"
   d="M 2.0674608,37.982209 V 2.0083905 H 37.982209 73.896957 V 37.982209 73.956028 H 37.982209 2.0674608 Z M 42.294342,65.682823 c 10.91161,-0.916405 17.093234,-5.344732 18.713245,-13.405599 0.976204,-4.857408 0.289189,-8.949695 -1.975816,-11.769176 -1.218935,-1.51733 -2.30171,-2.421769 -3.80292,-3.176562 -1.25874,-0.632882 -3.042119,-1.230441 -4.369314,-1.464029 -2.021584,-0.355803 -1.960583,-0.282049 -0.642893,-0.777283 4.077315,-1.532395 6.850334,-3.866019 8.200745,-6.901307 0.958984,-2.155489 1.181849,-5.067944 0.594638,-7.770886 C 58.019139,15.8477 54.5538,12.788404 48.656873,11.276167 42.338637,9.6558866 32.739079,9.8438159 27.091389,11.698351 c -5.608249,1.841585 -8.766634,5.170933 -9.551245,10.06825 -0.214659,1.339841 -0.0896,4.148828 0.234855,5.274967 0.484522,1.681727 1.207236,2.870258 2.559843,4.209762 1.625653,1.609904 2.991802,2.494164 5.577187,3.609917 0.888104,0.383272 1.54989,0.697358 1.470636,0.697969 -0.07925,5.91e-4 -0.717214,0.08409 -1.417688,0.185511 -5.421476,0.784966 -9.184221,3.620114 -10.65242,8.026372 -0.587755,1.763929 -0.766692,3.142016 -0.682628,5.257258 0.258533,6.505233 3.196995,11.253013 8.643773,13.966067 2.628048,1.309035 6.09522,2.232586 9.628461,2.564731 0.747239,0.07024 1.544688,0.145637 1.772109,0.167537 0.990625,0.0954 6.327693,0.06467 7.62007,-0.04387 z"
   id="path46309" /><path
   style="fill:#e9c6af;fill-opacity:1;stroke-width:0.118141"
   d="M 2.0674608,37.982209 V 2.0083905 H 37.982209 73.896957 V 37.982209 73.956028 H 37.982209 2.0674608 Z m 41.9399202,27.53581 c 9.949718,-1.310238 15.441486,-5.60427 17.009598,-13.299865 0.867828,-4.258909 0.3577,-8.215416 -1.404549,-10.893577 -1.971948,-2.996844 -4.845632,-4.739195 -9.097273,-5.515785 -0.740542,-0.135266 -1.36303,-0.262525 -1.383305,-0.282801 -0.02028,-0.02027 0.453195,-0.213641 1.052157,-0.429701 4.882224,-1.761139 7.976175,-4.900242 8.91014,-9.040174 0.268558,-1.190423 0.263857,-3.943817 -0.0091,-5.322437 -0.439245,-2.218593 -1.3448,-3.937365 -2.902189,-5.508448 -3.186963,-3.214983 -8.321458,-4.796126 -16.310416,-5.022714 -6.693595,-0.189849 -12.617587,0.901203 -16.244335,2.991801 -4.180319,2.409699 -6.206039,5.910164 -6.20083,10.715098 0.0038,3.471871 0.99801,5.650433 3.667725,8.036594 1.367279,1.222061 2.619371,1.963304 5.179864,3.066501 l 1.226233,0.528326 -0.577879,0.07717 c -3.372088,0.450339 -5.838314,1.318641 -7.681775,2.704578 -3.602066,2.708077 -5.184469,7.128968 -4.474708,12.50136 1.09494,8.287932 6.629962,13.093239 16.776791,14.565011 2.299904,0.333595 3.589515,0.396957 7.324719,0.35988 2.531001,-0.02512 4.118552,-0.09643 5.139117,-0.230822 z"
   id="path46348" /><path
   style="fill:#d38d5f;fill-opacity:1;stroke-width:0.118141"
   d="M 0.05907031,37.982209 V 0 H 37.982209 75.905348 V 37.982209 75.964418 H 37.982209 0.05907031 Z m 73.95602769,0 V 1.8902499 H 37.982209 1.9493202 V 37.982209 74.074168 H 37.982209 74.015098 Z"
   id="path49507" /></svg>
