<?xml version="1.0" encoding="UTF-8" standalone="no"?>
<!-- Generator: Adobe Illustrator 13.0.3, SVG Export Plug-In . SVG Version: 6.00 Build 14948)  -->

<svg
   version="1.1"
   id="レイヤー_1"
   x="0px"
   y="0px"
   width="76px"
   height="76px"
   viewBox="0 0 76 76"
   enable-background="new 0 0 76 76"
   xml:space="preserve"
   sodipodi:docname="8.svg"
   inkscape:version="1.1.1 (3bf5ae0d25, 2021-09-20)"
   xmlns:inkscape="http://www.inkscape.org/namespaces/inkscape"
   xmlns:sodipodi="http://sodipodi.sourceforge.net/DTD/sodipodi-0.dtd"
   xmlns="http://www.w3.org/2000/svg"
   xmlns:svg="http://www.w3.org/2000/svg"><defs
   id="defs10"><rect
     x="1"
     y="1"
     width="74.001"
     height="74.001"
     id="rect5341" /><rect
     x="1"
     y="1"
     width="117.61676"
     height="101.51824"
     id="rect5341-2" /></defs><sodipodi:namedview
   id="namedview8"
   pagecolor="#ffffff"
   bordercolor="#666666"
   borderopacity="1.0"
   inkscape:pageshadow="2"
   inkscape:pageopacity="0.0"
   inkscape:pagecheckerboard="0"
   showgrid="false"
   inkscape:snap-bbox="true"
   inkscape:snap-bbox-midpoints="true"
   inkscape:zoom="3.7774389"
   inkscape:cx="11.251009"
   inkscape:cy="49.636806"
   inkscape:window-width="1920"
   inkscape:window-height="1001"
   inkscape:window-x="-9"
   inkscape:window-y="-9"
   inkscape:window-maximized="1"
   inkscape:current-layer="レイヤー_1" />
<g
   id="rect1313_66_">
	<polygon
   fill="#B9B9B9"
   points="75.001,75.001 1,75.001 1,1 75.001,1 75.001,75.001  "
   id="polygon2"
   style="fill:#e9c6af;fill-opacity:1" />
	<path
   fill="#757575"
   d="M75.991,0C75.996,0,76,0.004,76,0.009V75.99c0,0.006-0.004,0.01-0.009,0.01H0.009   C0.004,76,0,75.996,0,75.99V0.009C0,0.004,0.004,0,0.009,0H75.991 M74,2H2v72h72V2L74,2z"
   id="path4"
   style="fill:#d38d5f;fill-opacity:1" />
</g>
<g
   aria-label="8"
   transform="matrix(1.8322237,0,0,1.8322237,-71.811751,-47.540926)"
   id="text5339"
   style="font-size:64px;line-height:1.25;text-align:center;white-space:pre;shape-inside:url(#rect5341-2);fill:#666666"><path
     d="m 60.097656,31.522882 q 11.453125,0 11.453125,7.234375 0,1.859375 -0.8125,3.15625 -0.8125,1.296875 -1.875,2 -1.046875,0.703125 -1.9375,1.03125 -0.890625,0.328125 -1.140625,0.40625 0.25,0.04687 1.265625,0.21875 1.03125,0.171875 2.28125,0.78125 1.25,0.609375 2.25,1.96875 1,1.359375 1.125,3.609375 0,9.921875 -12.609375,9.921875 -12.9375,0 -12.9375,-9.921875 0.21875,-2.359375 1.25,-3.71875 1.046875,-1.375 2.34375,-1.953125 1.3125,-0.59375 2.34375,-0.734375 1.03125,-0.140625 1.296875,-0.171875 0,0 -0.01563,0 -0.140625,0 -1.5625,-0.640625 -1.59375,-0.703125 -2.859375,-2.09375 -1.25,-1.390625 -1.25,-3.671875 0.04687,-3.5625 2.890625,-5.46875 2.859375,-1.90625 8.5,-1.953125 z m 0,3.90625 q -2.578125,0 -4.015625,1.1875 -1.421875,1.171875 -1.421875,2.78125 0,1.640625 1.4375,2.875 1.453125,1.234375 4,1.28125 2.421875,0 3.796875,-1.21875 1.390625,-1.21875 1.390625,-2.875 0,-1.65625 -1.375,-2.84375 -1.359375,-1.1875 -3.8125,-1.1875 z m 0,12.859375 q -2.8125,0.04687 -4.421875,1.53125 -1.59375,1.46875 -1.59375,3.453125 0,1.984375 1.578125,3.4375 1.578125,1.4375 4.4375,1.4375 2.8125,0 4.375,-1.4375 1.578125,-1.453125 1.578125,-3.4375 0,-2 -1.59375,-3.484375 -1.59375,-1.5 -4.359375,-1.5 z"
     style="font-family:LilyUPC;-inkscape-font-specification:LilyUPC"
     id="path828" /></g></svg>
