<?xml version="1.0" encoding="UTF-8" standalone="no"?>
<!-- Generator: Adobe Illustrator 13.0.3, SVG Export Plug-In . SVG Version: 6.00 Build 14948)  -->

<svg
   version="1.1"
   id="レイヤー_1"
   x="0px"
   y="0px"
   width="76px"
   height="76px"
   viewBox="0 0 76 76"
   enable-background="new 0 0 76 76"
   xml:space="preserve"
   sodipodi:docname="boom.svg"
   inkscape:version="1.1.1 (3bf5ae0d25, 2021-09-20, custom)"
   xmlns:inkscape="http://www.inkscape.org/namespaces/inkscape"
   xmlns:sodipodi="http://sodipodi.sourceforge.net/DTD/sodipodi-0.dtd"
   xmlns="http://www.w3.org/2000/svg"
   xmlns:svg="http://www.w3.org/2000/svg"><defs
   id="defs10"><rect
     x="1"
     y="1"
     width="74.001"
     height="74.001"
     id="rect5341" /><rect
     x="1"
     y="1"
     width="117.61676"
     height="101.51824"
     id="rect5341-2" /></defs><sodipodi:namedview
   id="namedview8"
   pagecolor="#4d4d4d"
   bordercolor="#666666"
   borderopacity="1.0"
   inkscape:pageshadow="2"
   inkscape:pageopacity="0"
   inkscape:pagecheckerboard="0"
   showgrid="false"
   inkscape:snap-bbox="true"
   inkscape:snap-bbox-midpoints="false"
   inkscape:zoom="9.1838962"
   inkscape:cx="37.511312"
   inkscape:cy="40.995672"
   inkscape:window-width="1920"
   inkscape:window-height="987"
   inkscape:window-x="0"
   inkscape:window-y="56"
   inkscape:window-maximized="1"
   inkscape:current-layer="レイヤー_1"
   inkscape:snap-center="true"
   inkscape:snap-bbox-edge-midpoints="true"
   inkscape:object-paths="false"
   inkscape:snap-midpoints="true"
   inkscape:snap-global="false" />
<g
   id="rect1313_66_"
   style="stroke:none">
	<polygon
   fill="#B9B9B9"
   points="75.001,75.001 1,75.001 1,1 75.001,1 75.001,75.001  "
   id="polygon2"
   style="fill:#800000;fill-opacity:1;stroke:none" />
	<path
   fill="#757575"
   d="M75.991,0C75.996,0,76,0.004,76,0.009V75.99c0,0.006-0.004,0.01-0.009,0.01H0.009   C0.004,76,0,75.996,0,75.99V0.009C0,0.004,0.004,0,0.009,0H75.991 M74,2H2v72h72V2L74,2z"
   id="path4"
   style="fill:#d38d5f;fill-opacity:1;stroke:none" />
</g><ellipse
   style="fill:#ffffff;fill-opacity:1;fill-rule:evenodd;stroke:#000000;stroke-width:1.88976378;stroke-linecap:square;paint-order:stroke fill markers;stroke-opacity:1;stroke-miterlimit:4;stroke-dasharray:none"
   id="path35273-0"
   cx="53.740116"
   cy="-14"
   rx="7.1208916"
   ry="18.001616"
   inkscape:transform-center-y="-9.8994941"
   transform="rotate(45)"
   inkscape:transform-center-x="-9.8994954" /><ellipse
   style="fill:#ffffff;fill-opacity:1;fill-rule:evenodd;stroke:#000000;stroke-width:1.88976378;stroke-linecap:square;paint-order:stroke fill markers;stroke-opacity:1;stroke-miterlimit:4;stroke-dasharray:none"
   id="path35273-0-1"
   cx="38"
   cy="-52.000004"
   rx="7.1208916"
   ry="18.001616"
   transform="rotate(90)"
   inkscape:transform-center-x="-14.000004" /><ellipse
   style="fill:#ffffff;fill-opacity:1;fill-rule:evenodd;stroke:none;stroke-width:1.66338;stroke-linecap:square;stroke-miterlimit:4;stroke-dasharray:none;stroke-opacity:1;paint-order:stroke fill markers"
   id="path35273-0-1-9"
   cx="2.4034836"
   cy="-65.599243"
   rx="6.2678533"
   ry="15.845135"
   transform="matrix(-0.74119817,0.67128629,-0.74119817,-0.67128629,0,0)"
   inkscape:transform-center-x="-9.1337069"
   inkscape:transform-center-y="8.2721909" /><ellipse
   style="fill:#ffffff;fill-opacity:1;fill-rule:evenodd;stroke:none;stroke-width:1.5187;stroke-linecap:square;stroke-miterlimit:4;stroke-dasharray:none;stroke-opacity:1;paint-order:stroke fill markers"
   id="path35273-0-1-9-4"
   cx="27.496431"
   cy="-71.887413"
   rx="4.7383246"
   ry="17.472157"
   transform="rotate(120.63955)"
   inkscape:transform-center-y="6.9250503"
   inkscape:transform-center-x="-11.691192" /><ellipse
   style="fill:#ffffff;fill-opacity:1;fill-rule:evenodd;stroke:none;stroke-width:1.88976378;stroke-linecap:square;paint-order:stroke fill markers;stroke-opacity:1;stroke-miterlimit:4;stroke-dasharray:none"
   id="path35273-0-1-9-4-0-7-4"
   cx="-3.5527137e-15"
   cy="39.740116"
   rx="7.1208916"
   ry="18.001616"
   transform="rotate(-45)"
   inkscape:transform-center-x="9.8994944"
   inkscape:transform-center-y="-9.8994944" /><ellipse
   style="fill:#ffffff;fill-opacity:1;fill-rule:evenodd;stroke:#000000;stroke-width:2.04174;stroke-linecap:square;stroke-miterlimit:4;stroke-dasharray:none;stroke-opacity:1;paint-order:stroke fill markers"
   id="path35273"
   cx="38.595642"
   cy="22.61017"
   rx="7.7165332"
   ry="19.391445"
   inkscape:transform-center-y="-15.080881" /><ellipse
   style="fill:#ffffff;fill-opacity:1;fill-rule:evenodd;stroke:none;stroke-width:1.88976378;stroke-linecap:square;paint-order:stroke fill markers;stroke-opacity:1;stroke-miterlimit:4;stroke-dasharray:none"
   id="path35273-0-1-9-4-0"
   cx="-53.740116"
   cy="-14"
   rx="7.1208916"
   ry="18.001616"
   transform="rotate(-135)"
   inkscape:transform-center-y="9.8994955"
   inkscape:transform-center-x="9.8994944" />
<ellipse
   style="fill:#ffff00;fill-opacity:1;fill-rule:evenodd;stroke:#000000;stroke-width:1.53706;stroke-linecap:square;stroke-miterlimit:4;stroke-dasharray:none;stroke-opacity:1;paint-order:stroke fill markers"
   id="path35151"
   cx="37.868134"
   cy="37.272491"
   rx="9.2900438"
   ry="5.914741" /><ellipse
   style="fill:#ffffff;fill-opacity:1;fill-rule:evenodd;stroke:none;stroke-width:1.88976;stroke-linecap:square;stroke-miterlimit:4;stroke-dasharray:none;stroke-opacity:1;paint-order:stroke fill markers"
   id="path36934"
   cx="17.472157"
   cy="38.054886"
   rx="4.8974981"
   ry="2.3163843" /><ellipse
   style="fill:#ffffff;fill-opacity:1;fill-rule:evenodd;stroke:none;stroke-width:1.88976;stroke-linecap:square;stroke-miterlimit:4;stroke-dasharray:none;stroke-opacity:1;paint-order:stroke fill markers"
   id="path36936"
   cx="10.324455"
   cy="31.238096"
   rx="2.9120259"
   ry="1.456013" /><ellipse
   style="fill:#ffffff;fill-opacity:1;fill-rule:evenodd;stroke:none;stroke-width:1.88976;stroke-linecap:square;stroke-miterlimit:4;stroke-dasharray:none;stroke-opacity:1;paint-order:stroke fill markers"
   id="path36938"
   cx="33.753029"
   cy="65.785316"
   rx="5.0298629"
   ry="1.456013" /><path
   style="fill:#800000;fill-opacity:1;stroke-width:0.108886"
   d="M 2.0143956,38.0013 V 2.0688387 H 38.0013 73.988205 V 38.0013 73.933762 H 38.0013 2.0143956 Z M 61.859245,69.961974 c 1.5617,-0.463776 1.643503,-1.940431 0.225159,-4.064416 -0.662192,-0.991638 -2.757156,-3.181354 -4.211363,-4.401836 -4.569489,-3.835066 -10.847488,-7.52228 -16.259867,-9.549796 -1.723713,-0.645715 -4.098102,-1.288849 -5.112494,-1.384783 -0.406129,-0.03841 -0.76257,-0.108916 -0.792092,-0.156682 -0.02952,-0.04777 0.262571,-0.478557 0.649093,-0.957315 0.386521,-0.478756 1.062496,-1.378285 1.502165,-1.998953 l 0.799399,-1.128486 1.030164,1.140822 c 2.652462,2.937385 6.866605,6.188654 10.136242,7.82025 2.531022,1.263016 4.311425,1.793907 6.087437,1.815182 1.439899,0.01725 2.118846,-0.192729 2.78853,-0.862414 1.626497,-1.626497 0.684297,-5.497289 -2.310991,-9.494125 -0.325383,-0.434184 -0.527729,-0.789425 -0.449656,-0.789425 0.437942,0 3.036652,-0.372464 4.251742,-0.609388 5.336268,-1.040487 9.170264,-3.093334 10.378872,-5.557187 0.28477,-0.580528 0.313362,-0.743135 0.313362,-1.782122 0,-1.038986 -0.02859,-1.201593 -0.313362,-1.782121 -0.393967,-0.803137 -1.510159,-1.995007 -2.450233,-2.616361 -2.149171,-1.420523 -5.338455,-2.54122 -8.864527,-3.11495 -0.791025,-0.128707 -1.625054,-0.267045 -1.853398,-0.307417 l -0.41517,-0.0734 0.590212,-0.762204 c 3.079582,-3.976997 4.97668,-8.241765 4.97668,-11.187816 0,-4.31222 -3.579474,-5.868102 -8.832716,-3.839298 -1.471942,0.568465 -3.560009,1.678516 -5.104723,2.713756 -0.868285,0.58191 -1.385452,0.866978 -1.428397,0.78735 -0.03703,-0.06865 -0.100435,-0.463331 -0.140909,-0.877066 C 46.744406,13.834261 45.689598,9.8040339 44.531879,7.3265834 43.593964,5.3194979 42.155007,3.5395224 40.861088,2.7858496 39.44322,1.9599797 37.688028,1.9807254 36.252321,2.8403235 32.996302,4.7897919 30.507894,11.162822 29.935365,19.018598 l -0.07273,0.997924 -0.824476,-0.655181 c -2.251588,-1.789254 -5.725857,-3.761445 -7.805343,-4.43075 -1.975015,-0.635681 -3.803254,-0.723542 -4.923156,-0.236598 -0.749548,0.325912 -1.465954,1.099138 -1.725354,1.862198 -0.279866,0.823266 -0.261162,2.362895 0.04396,3.618732 0.659955,2.716254 2.491247,6.040545 5.201499,9.442136 1.433484,1.799142 4.869816,5.255996 6.606789,6.646246 0.70611,0.565162 1.303259,1.126165 1.326998,1.246674 0.02374,0.120508 0.06607,0.415101 0.09405,0.654651 l 0.05089,0.435545 -1.254974,0.979976 c -1.504515,1.174837 -4.468096,4.020092 -5.828122,5.595427 -3.203078,3.710161 -5.443754,7.568717 -6.203689,10.683067 -0.294225,1.205784 -0.314334,2.773369 -0.0457,3.562784 0.260332,0.765031 0.996465,1.567355 1.7265,1.881741 0.798656,0.343938 2.152416,0.412241 3.358492,0.169452 3.472776,-0.699088 8.049773,-3.400293 12.083004,-7.131027 l 1.077016,-0.996237 0.264678,0.521661 c 1.107453,2.182717 4.865237,5.688263 9.216606,8.597953 7.777013,5.200362 16.295038,8.465681 19.556938,7.497002 z m -26.196143,-2.78156 c 3.169788,-0.38232 4.187128,-1.644646 1.920013,-2.382373 -1.128477,-0.367211 -2.011828,-0.477353 -3.828378,-0.477353 -3.091781,0 -5.148398,0.622371 -5.043089,1.526133 0.119901,1.02898 3.731886,1.721917 6.951454,1.333593 z M 19.413564,40.226922 c 1.827167,-0.369831 2.963423,-1.201615 2.961842,-2.168185 -0.0022,-1.350092 -2.079621,-2.344048 -4.899163,-2.344048 -2.816946,0 -4.898446,0.994786 -4.898446,2.341055 0,0.722602 0.469228,1.250858 1.544478,1.738768 1.279913,0.580779 3.615346,0.771632 5.291289,0.43241 z m -7.336637,-7.784638 c 1.434896,-0.536863 1.601628,-1.674494 0.332825,-2.270902 -1.513643,-0.711496 -4.0072311,-0.482041 -4.7831955,0.440141 -0.3294225,0.391496 -0.3476989,0.684451 -0.071008,1.138196 0.5546675,0.909595 2.9575685,1.277662 4.5213785,0.692565 z"
   id="path1930" /><path
   style="fill:#d38d5f;fill-opacity:1;stroke-width:0.108886"
   d="M 0.05444312,38.0013 V 0 H 38.0013 75.948158 V 38.0013 76.002601 H 38.0013 0.05444312 Z m 74.04264888,0 V 1.9599525 H 38.0013 1.9055093 V 38.0013 74.042648 H 38.0013 74.097092 Z"
   id="path4816" /></svg>
