<?xml version="1.0" encoding="UTF-8" standalone="no"?>
<!-- Generator: Adobe Illustrator 13.0.3, SVG Export Plug-In . SVG Version: 6.00 Build 14948)  -->

<svg
   version="1.1"
   id="レイヤー_1"
   x="0px"
   y="0px"
   width="76px"
   height="76px"
   viewBox="0 0 76 76"
   enable-background="new 0 0 76 76"
   xml:space="preserve"
   sodipodi:docname="mine.svg"
   inkscape:version="1.1.1 (3bf5ae0d25, 2021-09-20, custom)"
   xmlns:inkscape="http://www.inkscape.org/namespaces/inkscape"
   xmlns:sodipodi="http://sodipodi.sourceforge.net/DTD/sodipodi-0.dtd"
   xmlns="http://www.w3.org/2000/svg"
   xmlns:svg="http://www.w3.org/2000/svg"><defs
   id="defs10"><rect
     x="1"
     y="1"
     width="74.001"
     height="74.001"
     id="rect5341" /><rect
     x="1"
     y="1"
     width="117.61676"
     height="101.51824"
     id="rect5341-2" /></defs><sodipodi:namedview
   id="namedview8"
   pagecolor="#a1a1a1"
   bordercolor="#666666"
   borderopacity="1.0"
   inkscape:pageshadow="2"
   inkscape:pageopacity="0"
   inkscape:pagecheckerboard="0"
   showgrid="false"
   inkscape:snap-bbox="true"
   inkscape:snap-bbox-midpoints="false"
   inkscape:zoom="9.4791353"
   inkscape:cx="29.591307"
   inkscape:cy="35.077039"
   inkscape:window-width="1920"
   inkscape:window-height="987"
   inkscape:window-x="0"
   inkscape:window-y="56"
   inkscape:window-maximized="1"
   inkscape:current-layer="レイヤー_1"
   inkscape:snap-center="true"
   inkscape:snap-bbox-edge-midpoints="true"
   inkscape:object-paths="false"
   inkscape:snap-midpoints="true" />
<g
   id="rect1313_66_"
   style="stroke:none">
	<polygon
   fill="#B9B9B9"
   points="75.001,75.001 1,75.001 1,1 75.001,1 75.001,75.001  "
   id="polygon2"
   style="fill:#338000;fill-opacity:1;stroke:none" />
	<path
   fill="#757575"
   d="M75.991,0C75.996,0,76,0.004,76,0.009V75.99c0,0.006-0.004,0.01-0.009,0.01H0.009   C0.004,76,0,75.996,0,75.99V0.009C0,0.004,0.004,0,0.009,0H75.991 M74,2H2v72h72V2L74,2z"
   id="path4"
   style="fill:#d38d5f;fill-opacity:1;stroke:none" />
</g><path
   id="path35273-0"
   style="fill:#ffffff;fill-opacity:1;fill-rule:evenodd;stroke:#000000;stroke-width:1.88976378;stroke-linecap:square;paint-order:stroke fill markers;stroke-opacity:1;stroke-miterlimit:4;stroke-dasharray:none"
   inkscape:transform-center-x="-9.8994954"
   inkscape:transform-center-y="-9.8994941"
   d="M 38 5.9980469 A 7.1208916 18.001616 0 0 0 30.986328 21.066406 A 18.001616 7.1208916 45 0 0 15.371094 15.371094 A 18.001616 7.1208916 45 0 0 21.066406 30.986328 A 18.001616 7.1208916 0 0 0 5.9980469 38 A 18.001616 7.1208916 0 0 0 21.066406 45.013672 A 7.1208916 18.001616 45 0 0 15.371094 60.628906 A 7.1208916 18.001616 45 0 0 31.763672 54.236328 A -7.1208916 -18.001616 0 0 0 38 70.001953 A -7.1208916 -18.001616 0 0 0 44.236328 54.236328 A 18.001616 7.1208916 45 0 0 60.628906 60.628906 A 18.001616 7.1208916 45 0 0 54.947266 45.013672 A 18.001616 7.1208916 0 0 0 70.001953 38 A 18.001616 7.1208916 0 0 0 54.957031 30.976562 A 7.1208916 18.001616 45 0 0 60.628906 15.371094 A 7.1208916 18.001616 45 0 0 45.025391 21.056641 A 7.1208916 18.001616 0 0 0 38 5.9980469 z " />
<circle
   style="fill:#ffff00;fill-opacity:1;fill-rule:evenodd;stroke:#000000;stroke-width:1.88976378;stroke-linecap:square;paint-order:stroke fill markers;stroke-opacity:1;stroke-miterlimit:4;stroke-dasharray:none"
   id="path35151"
   cx="38.0005"
   cy="38.0005"
   r="9.1136904" /><rect
   style="fill:#000000;fill-opacity:1;fill-rule:evenodd;stroke:none;stroke-width:4.80814;stroke-linecap:square;stroke-miterlimit:4;stroke-dasharray:none;stroke-opacity:1;paint-order:stroke fill markers"
   id="rect36281"
   width="1.4808432"
   height="10.531264"
   x="25.803572"
   y="41.797699"
   transform="matrix(0.65456381,-0.75600676,0.31147263,0.95025512,0,0)"
   inkscape:transform-center-x="5.9668231"
   inkscape:transform-center-y="-13.345767" /><rect
   style="fill:#000000;fill-opacity:1;fill-rule:evenodd;stroke:none;stroke-width:4.80814;stroke-linecap:square;stroke-miterlimit:4;stroke-dasharray:none;stroke-opacity:1;paint-order:stroke fill markers"
   id="rect36281-3"
   width="1.4808432"
   height="10.531264"
   x="57.050365"
   y="26.667326"
   transform="matrix(0.99742401,-0.071731,-0.45168743,0.89217625,0,0)"
   inkscape:transform-center-x="-5.2177027"
   inkscape:transform-center-y="-13.656064" /><rect
   style="fill:#000000;fill-opacity:1;fill-rule:evenodd;stroke:none;stroke-width:4.80814;stroke-linecap:square;stroke-miterlimit:4;stroke-dasharray:none;stroke-opacity:1;paint-order:stroke fill markers"
   id="rect36281-3-7"
   width="1.4808432"
   height="10.531264"
   x="53.410381"
   y="-16.218372"
   transform="matrix(0.75600676,0.65456381,-0.95025512,0.31147263,0,0)"
   inkscape:transform-center-x="-13.345769"
   inkscape:transform-center-y="-5.9668212" /><rect
   style="fill:#000000;fill-opacity:1;fill-rule:evenodd;stroke:none;stroke-width:4.80814;stroke-linecap:square;stroke-miterlimit:4;stroke-dasharray:none;stroke-opacity:1;paint-order:stroke fill markers"
   id="rect36281-3-7-5"
   width="1.4808432"
   height="10.531264"
   x="17.015873"
   y="-61.737534"
   transform="matrix(0.071731,0.99742401,-0.89217625,-0.45168743,0,0)"
   inkscape:transform-center-x="-13.656065"
   inkscape:transform-center-y="5.2177043" /><rect
   style="fill:#000000;fill-opacity:1;fill-rule:evenodd;stroke:none;stroke-width:4.48655;stroke-linecap:square;stroke-miterlimit:4;stroke-dasharray:none;stroke-opacity:1;paint-order:stroke fill markers"
   id="rect36281-3-7-5-4"
   width="1.3510011"
   height="10.050893"
   x="-35.954197"
   y="-87.556732"
   transform="matrix(-0.59895429,0.80078322,-0.27244829,-0.96217043,0,0)"
   inkscape:transform-center-x="-4.9811684"
   inkscape:transform-center-y="12.896727" /><rect
   style="fill:#000000;fill-opacity:1;fill-rule:evenodd;stroke:none;stroke-width:4.80814;stroke-linecap:square;stroke-miterlimit:4;stroke-dasharray:none;stroke-opacity:1;paint-order:stroke fill markers"
   id="rect36281-3-7-5-4-8"
   width="1.4808432"
   height="10.531264"
   x="-62.059753"
   y="-68.09465"
   transform="matrix(-0.99742401,0.071731,0.45168743,-0.89217625,0,0)"
   inkscape:transform-center-x="5.2177037"
   inkscape:transform-center-y="13.656062" /><rect
   style="fill:#000000;fill-opacity:1;fill-rule:evenodd;stroke:none;stroke-width:4.80814;stroke-linecap:square;stroke-miterlimit:4;stroke-dasharray:none;stroke-opacity:1;paint-order:stroke fill markers"
   id="rect36281-3-7-5-4-8-5"
   width="1.4808432"
   height="10.531264"
   x="-58.419815"
   y="-25.209518"
   transform="matrix(-0.75600676,-0.65456381,0.95025512,-0.31147263,0,0)"
   inkscape:transform-center-x="13.345769"
   inkscape:transform-center-y="5.9668194" /><rect
   style="fill:#000000;fill-opacity:1;fill-rule:evenodd;stroke:none;stroke-width:4.80814;stroke-linecap:square;stroke-miterlimit:4;stroke-dasharray:none;stroke-opacity:1;paint-order:stroke fill markers"
   id="rect36281-3-7-5-4-8-5-0"
   width="1.4808432"
   height="10.531264"
   x="-22.025787"
   y="20.309042"
   transform="matrix(-0.071731,-0.99742401,0.89217625,0.45168743,0,0)"
   inkscape:transform-center-x="13.656063"
   inkscape:transform-center-y="-5.2177051" /><path
   style="fill:#ffffff;fill-opacity:1;stroke-width:0.162367"
   d="m 17.048487,61.395026 c -0.897854,-0.236884 -1.540496,-0.673897 -1.989683,-1.353034 -0.414276,-0.626355 -0.445137,-0.789718 -0.436224,-2.309195 0.01078,-1.836859 0.247494,-2.694162 1.437818,-5.20722 0.670186,-1.414923 2.864165,-4.820956 3.784263,-5.874864 0.398061,-0.45595 0.976648,-0.687644 4.916237,-1.96869 l 4.46508,-1.451922 0.311183,0.426208 c 0.710051,0.972509 2.674699,2.741138 3.544636,3.190976 0.513273,0.26541 0.933396,0.537923 0.933607,0.605586 1.63e-4,0.06766 -0.911983,1.946643 -2.027104,4.17551 -2.288508,4.574201 -2.067745,4.308834 -5.44137,6.540777 -3.680194,2.434767 -7.534921,3.743912 -9.498443,3.225868 z"
   id="path1934" /><path
   style="fill:#ffffff;fill-opacity:1;stroke-width:0.162367"
   d="M 18.10387,44.636559 C 13.174172,43.871204 9.6744796,42.57054 7.6721907,40.759615 5.6002325,38.88568 5.5739414,37.142035 7.589863,35.299596 c 1.7064273,-1.559579 4.639446,-2.792711 8.403242,-3.532984 3.799056,-0.747209 3.046517,-0.899143 7.874777,1.589881 l 4.22153,2.176249 -0.08118,0.62164 c -0.179709,1.376071 -0.03804,3.704278 0.286848,4.714294 l 0.324145,1.00769 -4.405303,1.4684 c -2.422918,0.80762 -4.587944,1.459859 -4.811169,1.449419 -0.223225,-0.01044 -0.807722,-0.08137 -1.29888,-0.157626 z"
   id="path1973" /><path
   style="fill:#ffffff;fill-opacity:1;stroke-width:0.162367"
   d="m 24.354982,31.984439 -4.059164,-2.067965 -0.940623,-1.197672 c -3.019635,-3.844826 -4.952071,-8.216052 -4.792054,-10.83976 0.11698,-1.918061 0.909716,-2.8913 2.677257,-3.286858 2.311637,-0.517322 6.879013,1.328998 11.124757,4.497082 l 1.41231,1.053834 1.50974,4.562591 1.509741,4.56259 -0.405369,0.252129 c -0.832002,0.517484 -2.721463,2.581501 -3.258785,3.559846 -0.305954,0.557076 -0.592813,1.003703 -0.637464,0.992506 -0.04465,-0.0112 -1.907806,-0.950943 -4.140346,-2.088323 z"
   id="path2012" /><path
   style="fill:#ffffff;fill-opacity:1;stroke-width:0.162367"
   d="m 32.646922,24.199558 c -1.641935,-5.022449 -1.620909,-4.802604 -0.821471,-8.588942 1.325516,-6.2779777 4.118661,-10.1456259 6.804658,-9.4223621 2.748354,0.7400549 5.055581,5.3222951 5.990178,11.8967171 l 0.205046,1.4424 -2.145668,4.240428 -2.145667,4.24043 -2.000763,-0.04692 c -1.863699,-0.04371 -2.59406,0.05044 -4.117838,0.530793 -0.306121,0.0965 -0.439265,-0.226675 -1.768475,-4.292541 z"
   id="path2051" /><path
   style="fill:#ffffff;fill-opacity:1;stroke-width:0.162367"
   d="m 46.372422,32.2569 c -0.5378,-0.870179 -2.43453,-2.572541 -3.467432,-3.112105 -0.512857,-0.267905 -0.932641,-0.553021 -0.932853,-0.633592 -2.12e-4,-0.08057 0.931193,-1.972548 2.069788,-4.204396 l 2.070173,-4.057904 1.679563,-1.255393 c 4.948689,-3.698908 9.65055,-5.275004 12.063785,-4.043863 2.692423,1.373572 1.911221,6.285216 -1.896213,11.922016 -2.059558,3.049119 -1.636139,2.766011 -6.570222,4.393015 -2.366492,0.780347 -4.385323,1.449057 -4.48629,1.486023 -0.100967,0.03696 -0.339601,-0.185246 -0.530299,-0.493801 z"
   id="path2090" /><path
   style="fill:#ffffff;fill-opacity:1;stroke-width:0.162367"
   d="m 52.11966,42.642268 -4.22153,-2.172692 0.08118,-0.547844 c 0.19645,-1.325672 0.04765,-3.958612 -0.2766,-4.894346 l -0.32462,-0.936803 4.510202,-1.467479 4.510203,-1.467479 1.351463,0.182517 c 1.955849,0.26414 4.129991,0.754884 5.709033,1.288634 8.702051,2.94148 8.524721,8.012477 -0.379589,10.854856 -1.549537,0.494634 -4.181992,1.050638 -5.845195,1.23457 l -0.893016,0.09876 z"
   id="path2129" /><path
   style="fill:#ffffff;fill-opacity:1;stroke-width:0.162367"
   d="m 56.747107,61.433577 c -2.903788,-0.56297 -6.457452,-2.415483 -10.02715,-5.227118 -1.12132,-0.883196 -1.369083,-1.164291 -1.515085,-1.718906 -0.096,-0.364674 -0.610418,-2.187146 -1.143151,-4.049937 -0.532734,-1.862791 -0.94692,-3.4427 -0.920413,-3.510907 0.02651,-0.06821 0.500789,-0.485725 1.053963,-0.927817 1.201111,-0.959917 2.15902,-2.08498 2.768676,-3.251806 0.245896,-0.470622 0.483616,-0.836661 0.528267,-0.81342 0.04465,0.02324 1.911547,0.96591 4.148657,2.094819 4.537252,2.289625 4.299542,2.098384 6.338724,5.099586 1.332005,1.960403 2.688977,4.736972 3.159512,6.464845 0.491568,1.805101 0.410596,3.511138 -0.211243,4.450779 -0.247359,0.373776 -0.739432,0.824324 -1.102714,1.009657 -0.654974,0.334142 -2.280209,0.534905 -3.078043,0.380225 z"
   id="path2168" /><path
   style="fill:#ffffff;fill-opacity:1;stroke-width:0.162367"
   d="m 37.243031,69.51419 c -1.714379,-1.089279 -3.07496,-3.399966 -4.100069,-6.963184 -0.458166,-1.592555 -0.97337,-4.404126 -1.155418,-6.305339 l -0.110203,-1.150906 1.788334,-3.573841 1.788334,-3.573842 2.000531,0.06864 c 1.629056,0.05589 2.226651,0.0092 3.218279,-0.251278 0.669762,-0.175955 1.228504,-0.309187 1.241648,-0.296072 0.01314,0.01311 0.514605,1.774648 1.114358,3.914518 l 1.090459,3.890673 -0.191024,1.710973 c -0.693832,6.214526 -2.893103,11.409031 -5.364128,12.669655 l -0.610543,0.311476 z"
   id="path2207" /><path
   style="fill:#000000;fill-opacity:1;stroke-width:0.0908392"
   d="M 37.500012,70.768659 C 36.512337,70.41461 35.30579,69.365743 34.481476,68.144606 32.832235,65.701422 31.519888,61.36493 31.063179,56.849255 c -0.07414,-0.733027 -0.0616,-0.734368 -1.119598,0.119741 -4.358103,3.518252 -9.249952,5.709294 -12.258402,5.490497 -2.284616,-0.166155 -3.699546,-1.411031 -4.080692,-3.590251 -0.512513,-2.93031 1.476967,-7.750942 5.138021,-12.449738 0.301453,-0.386902 0.422258,-0.608591 0.351198,-0.644484 -0.05958,-0.03009 -0.517094,-0.104945 -1.01671,-0.166338 C 12.359601,44.906127 7.4853299,42.788589 5.8601234,40.301282 5.2986785,39.442016 5.1032902,38.750981 5.1493552,37.787491 c 0.033452,-0.69967 0.081109,-0.88644 0.3810406,-1.493311 1.3142688,-2.659242 5.5675902,-4.791822 11.4204242,-5.726106 0.819243,-0.130774 1.664055,-0.266184 1.877361,-0.30091 l 0.387827,-0.06314 -0.900654,-1.198891 C 14.136207,23.44213 12.539031,18.264476 14.152726,15.510915 c 0.304414,-0.519443 1.018459,-1.177587 1.594069,-1.46927 2.825831,-1.431957 7.99254,0.264782 13.439028,4.413356 0.51416,0.391635 0.965452,0.712063 1.002869,0.712063 0.03742,0 0.121197,-0.454816 0.186179,-1.010703 0.163113,-1.39537 0.661911,-3.815125 1.055609,-5.120941 0.931476,-3.0895176 2.041309,-5.1543105 3.516261,-6.5418397 1.399718,-1.3167541 2.825458,-1.690449 4.373558,-1.1463355 2.947127,1.0358313 5.369659,5.9040722 6.292924,12.6460462 0.08499,0.620595 0.166625,1.143851 0.181419,1.162791 0.01479,0.01894 0.492063,-0.31495 1.060598,-0.74198 3.062737,-2.300438 6.063065,-3.883769 8.647497,-4.563453 1.199655,-0.315499 2.81947,-0.398745 3.702508,-0.19028 1.615537,0.381391 2.694811,1.427601 3.107597,3.012392 0.177879,0.682922 0.18006,2.170692 0.0045,3.099477 -0.489561,2.59064 -2.359637,6.290789 -4.776891,9.451596 -0.396323,0.518234 -0.720588,0.956988 -0.720588,0.975008 0,0.01802 0.255486,0.06097 0.567745,0.09544 1.138137,0.125644 3.148409,0.495795 4.38657,0.8077 6.690068,1.68529 10.117535,4.876818 8.85661,8.24694 -0.696652,1.861971 -2.840497,3.502795 -6.200807,4.745879 -1.646156,0.608965 -4.983075,1.378161 -6.747145,1.555291 -0.349731,0.03512 -0.686658,0.09104 -0.748728,0.124282 -0.07716,0.04132 0.105784,0.346759 0.578331,0.965604 3.152798,4.128879 4.939453,8.158636 4.939453,11.140813 0,2.501722 -1.173003,4.024004 -3.457393,4.486881 -3.031027,0.614164 -8.09713,-1.51098 -12.997582,-5.452268 -0.5174,-0.416129 -0.947494,-0.750923 -0.955765,-0.743986 -0.0083,0.0069 -0.101168,0.687093 -0.20644,1.511459 -0.848962,6.648108 -3.063827,11.502237 -5.864747,12.853254 -0.860943,0.415274 -0.929803,0.426167 -1.469995,0.232527 z m 1.133969,-0.981461 c 1.82933,-0.886465 3.583929,-3.981281 4.604662,-8.121849 0.468345,-1.899824 0.954617,-5.0936 0.954617,-6.269807 0,-0.270599 -0.397218,-1.82623 -1.087797,-4.260155 -0.598288,-2.10865 -1.106028,-3.852139 -1.128309,-3.874421 -0.02228,-0.02228 -0.340107,0.06217 -0.706278,0.187674 -0.36617,0.125502 -0.980842,0.292594 -1.365938,0.371316 -0.89805,0.183579 -2.820571,0.187729 -3.759337,0.0081 -0.388117,-0.07426 -0.712445,-0.125357 -0.720728,-0.113549 -0.0083,0.01181 -0.838887,1.652702 -1.845786,3.646434 l -1.830725,3.624967 0.09506,1.053251 c 0.550912,6.104164 2.241634,10.933677 4.573894,13.065231 0.480429,0.439085 1.314958,0.932602 1.577016,0.932602 0.06828,0 0.35612,-0.112414 0.639651,-0.249808 z m -18.89534,-8.340675 c 2.675173,-0.544221 6.067309,-2.313108 9.349254,-4.875327 l 0.927751,-0.724296 2.138072,-4.227934 c 1.175939,-2.325363 2.137374,-4.252511 2.136521,-4.282554 -8.18e-4,-0.03004 -0.227158,-0.152299 -0.502902,-0.271684 -1.320657,-0.571786 -3.026655,-1.987731 -3.897474,-3.234825 -0.24421,-0.349731 -0.471931,-0.668824 -0.506047,-0.709096 -0.03412,-0.04027 -2.075161,0.587352 -4.535655,1.394719 -2.460493,0.807368 -4.53102,1.476365 -4.601171,1.486661 -0.31529,0.04628 -2.836832,3.617455 -3.757073,5.321026 -1.031034,1.908671 -1.782255,3.891296 -2.00469,5.290785 -0.153117,0.963359 -0.07272,2.336369 0.174711,2.98371 0.348055,0.910601 0.990522,1.495967 1.994187,1.816948 0.660284,0.211165 2.128591,0.226334 3.084516,0.03187 z m 39.602969,-0.02545 c 2.767614,-0.861379 3.035339,-4.295824 0.705651,-9.052287 -0.9096,-1.857104 -2.213772,-3.902093 -3.562808,-5.58661 l -0.618359,-0.772133 -4.224022,-2.153155 c -2.323212,-1.184236 -4.24446,-2.154893 -4.269441,-2.157016 -0.02498,-0.0021 -0.238995,0.374072 -0.475587,0.835988 -0.236592,0.461916 -0.632315,1.10764 -0.879385,1.434942 -0.591278,0.78329 -1.720516,1.854642 -2.483775,2.356456 -0.336806,0.221436 -0.612436,0.445039 -0.612514,0.496894 -3.63e-4,0.271462 2.324161,8.295954 2.445793,8.442973 0.22224,0.268622 2.226316,1.850492 3.186377,2.515091 2.664743,1.844658 5.423416,3.17199 7.539652,3.627694 1.056577,0.22752 2.536916,0.232607 3.248418,0.01116 z M 39.571272,47.012202 c 4.716629,-0.82603 8.043852,-5.197022 7.53368,-9.897041 -0.133835,-1.232969 -0.383157,-2.100673 -0.915662,-3.186728 -1.143177,-2.331532 -3.066929,-3.933072 -5.694631,-4.740827 -0.737352,-0.226662 -0.922089,-0.245667 -2.433044,-0.250307 -1.437772,-0.0044 -1.72829,0.02042 -2.407238,0.205767 -6.429236,1.755143 -8.921132,9.424715 -4.754253,14.632671 0.963417,1.204121 2.496715,2.293513 4.02754,2.861521 1.271396,0.471748 3.201147,0.627564 4.643608,0.374944 z M 24.219796,43.499809 c 2.466961,-0.806071 4.501366,-1.479501 4.5209,-1.496513 0.01953,-0.01701 -0.06922,-0.348781 -0.197232,-0.737266 -0.517147,-1.569419 -0.663361,-3.509033 -0.381937,-5.066618 0.07222,-0.399692 0.132106,-0.734136 0.13309,-0.743207 9.81e-4,-0.0091 -1.944127,-1.004869 -4.322464,-2.212884 L 19.647902,31.04693 18.77161,31.15248 c -6.884035,0.829189 -11.8623414,3.201548 -12.6895579,6.047073 -0.8206943,2.823089 2.6377673,5.546439 8.8631269,6.97923 1.276316,0.293748 3.547415,0.671953 4.641819,0.772999 0.08108,0.0075 2.165836,-0.645902 4.632798,-1.451973 z m 33.507417,1.281108 c 9.700031,-1.294197 14.727144,-5.495763 11.15041,-9.319302 -1.431187,-1.529944 -4.399435,-2.899186 -8.029615,-3.704032 -1.397314,-0.309797 -3.824815,-0.690584 -4.402453,-0.690584 -0.204553,0 -9.115028,2.839924 -9.222996,2.93953 -0.0076,0.007 0.102923,0.360759 0.245598,0.78611 0.536264,1.598738 0.66376,3.152338 0.3966,4.832762 -0.07906,0.497294 -0.118183,0.929738 -0.08693,0.960986 0.03125,0.03125 1.966087,1.025112 4.299641,2.208587 2.333555,1.183475 4.248289,2.155968 4.254966,2.161096 0.0067,0.0051 0.634329,-0.07369 1.394784,-0.175153 z M 29.061939,33.532793 c 0.745547,-1.484473 2.053015,-2.978456 3.322289,-3.796226 0.298861,-0.192552 0.543742,-0.379523 0.544179,-0.415494 4.54e-4,-0.03597 -0.656,-2.079851 -1.458748,-4.541959 -0.80275,-2.462106 -1.474819,-4.524714 -1.493488,-4.583571 -0.05427,-0.171095 -1.702537,-1.419882 -3.134483,-2.3748 -4.356702,-2.905343 -8.322114,-4.073271 -10.565219,-3.111765 -0.877025,0.375937 -1.53971,1.217443 -1.787855,2.270295 -0.172046,0.729976 -0.06571,2.390336 0.219868,3.433191 0.739042,2.69875 2.675625,6.19154 5.026021,9.064849 l 0.445844,0.545035 4.216997,2.145748 c 2.319348,1.18016 4.226806,2.151004 4.238795,2.15743 0.01199,0.0064 0.203599,-0.350304 0.4258,-0.792733 z m 24.833549,-2.943632 2.026317,-0.657652 0.728463,-0.929744 c 2.027421,-2.587613 3.676308,-5.514846 4.427596,-7.860208 1.226416,-3.828622 0.391396,-6.209324 -2.350336,-6.700971 -2.532744,-0.454172 -6.935338,1.325608 -11.200532,4.527895 -0.663837,0.498405 -1.299385,1.002464 -1.412331,1.120132 -0.112945,0.117669 -1.15717,2.097115 -2.320498,4.398769 l -2.115144,4.184825 0.836756,0.426747 c 1.483624,0.756651 2.825935,1.919965 3.712397,3.217349 l 0.432608,0.633143 2.604193,-0.851316 c 1.432306,-0.468225 3.516036,-1.147261 4.630511,-1.508969 z M 34.803393,28.522755 c 1.086802,-0.381789 1.853463,-0.495774 3.258222,-0.484422 0.822991,0.0066 1.587474,0.06284 1.93047,0.141886 l 0.567881,0.130872 2.190496,-4.321979 2.190495,-4.321981 -0.06149,-0.681519 C 44.709589,17.102911 44.032552,13.951191 43.408932,12.140042 42.985365,10.909895 42.130882,9.1476992 41.551702,8.3098859 40.954427,7.4458969 40.090005,6.6353563 39.409499,6.301211 38.938733,6.0700531 38.782242,6.0408053 38.016196,6.0408053 c -0.766046,0 -0.922538,0.029248 -1.393303,0.2604057 C 35.987215,6.6133441 35.056564,7.4614399 34.521001,8.2166485 32.962816,10.41388 31.75091,14.128096 31.205453,18.378056 l -0.172714,1.345712 1.447381,4.422576 c 0.79606,2.432418 1.468375,4.477916 1.494033,4.545551 0.02902,0.0765 0.10644,0.09872 0.204853,0.0588 0.08701,-0.0353 0.367986,-0.137869 0.624387,-0.227941 z"
   id="path10982" /><path
   style="fill:#000000;fill-opacity:1;stroke-width:0.0908392"
   d="M 37.43613,70.75744 C 34.321944,69.480042 31.947861,64.41689 31.103221,57.251391 31.036,56.681125 30.953463,56.32029 30.890241,56.32029 c -0.05677,0 -0.551199,0.350306 -1.098723,0.778457 -3.470835,2.714116 -7.03911,4.58964 -9.867223,5.186318 -1.114704,0.235182 -2.665222,0.219327 -3.48364,-0.03562 -1.576292,-0.491038 -2.529561,-1.627164 -2.836168,-3.380201 -0.489916,-2.801113 1.249479,-7.218298 4.646757,-11.800426 0.938479,-1.265787 0.970365,-1.371952 0.41306,-1.375319 -0.473614,-0.0029 -3.085387,-0.471676 -4.325729,-0.776472 C 11.900331,44.317865 9.5964492,43.3882 8.03496,42.373387 6.9916399,41.695331 5.9523401,40.600695 5.5287986,39.733786 5.1859075,39.031953 5.1778331,38.99233 5.1778331,38.011485 c 0,-0.980631 0.00807,-1.020278 0.3476849,-1.707435 0.6684344,-1.352486 2.0715479,-2.571217 4.1005771,-3.561723 2.3328739,-1.138833 4.9292849,-1.853684 8.7940819,-2.42121 l 0.797377,-0.117091 -0.69386,-0.908391 c -2.502012,-3.2756 -4.220969,-6.622053 -4.813478,-9.370841 -0.213658,-0.991211 -0.215148,-2.635916 -0.003,-3.34391 0.409969,-1.368363 1.229783,-2.260453 2.553025,-2.778103 0.480077,-0.187805 0.702016,-0.21376 1.862203,-0.21777 1.163185,-0.004 1.432964,0.02562 2.30769,0.25357 1.306337,0.340424 2.389063,0.75922 3.804306,1.471498 1.674162,0.842587 3.853119,2.242902 5.431725,3.490718 0.2551,0.201646 0.49516,0.347258 0.533467,0.323583 0.03831,-0.02367 0.09803,-0.320052 0.132716,-0.658614 0.110362,-1.077189 0.496587,-3.154334 0.818733,-4.403191 0.910468,-3.529601 2.162757,-6.0328486 3.778345,-7.5526777 1.564626,-1.4718885 3.17254,-1.7877727 4.872408,-0.9572139 0.758815,0.3707581 1.975579,1.5395231 2.592697,2.490421 1.5217,2.3447376 2.677794,5.9049956 3.213978,9.8976326 0.08722,0.649501 0.169846,1.195409 0.183606,1.21313 0.01376,0.01772 0.487424,-0.313279 1.052588,-0.735554 2.784069,-2.080182 5.200658,-3.431457 7.580089,-4.238529 4.149555,-1.407475 7.116363,-0.469832 7.888078,2.492979 0.180759,0.693981 0.179155,2.169893 -0.0034,3.142852 -0.478535,2.550211 -2.358549,6.256351 -4.779545,9.422089 -0.395922,0.517715 -0.707416,0.951371 -0.692208,0.963681 0.01521,0.01231 0.671548,0.112863 1.458532,0.223452 6.764808,0.950609 11.670167,3.54556 12.464062,6.593527 0.835693,3.208443 -2.456704,6.173237 -8.62627,7.767929 -1.543948,0.399075 -2.942244,0.67517 -4.269441,0.843003 -0.729843,0.09229 -0.906288,0.143212 -0.897687,0.259051 0.0059,0.0793 0.31557,0.547896 0.688183,1.041329 5.249191,6.951249 6.322427,13.135586 2.60751,15.025324 -2.947516,1.499368 -8.27775,-0.345943 -14.055108,-4.865837 -0.615866,-0.481821 -1.138254,-0.85754 -1.160862,-0.834932 -0.02261,0.02261 -0.08121,0.404399 -0.13022,0.848425 -0.270414,2.449793 -0.926419,5.438782 -1.616915,7.36723 -1.097825,3.066051 -2.648161,5.252405 -4.290798,6.051081 -0.882242,0.428959 -1.043974,0.45328 -1.572529,0.236473 z m 0.958468,-0.849857 c 0.481183,-0.20105 1.354834,-0.88091 1.767469,-1.375413 1.926107,-2.308251 3.297069,-6.367014 3.89459,-11.530029 0.07513,-0.649194 0.136603,-1.366352 0.136603,-1.593685 0,-0.345122 -2.082208,-8.013591 -2.210847,-8.142231 -0.02008,-0.02008 -0.338181,0.06408 -0.706901,0.187001 -0.36872,0.122926 -0.985478,0.287932 -1.370574,0.366681 -0.898005,0.183633 -2.820418,0.187807 -3.759337,0.0082 -0.388117,-0.07426 -0.712648,-0.125356 -0.721182,-0.113549 -0.0085,0.01181 -0.83976,1.656572 -1.847172,3.655034 l -1.831659,3.633567 0.144054,1.453427 c 0.668325,6.74306 2.841272,12.01609 5.497039,13.339515 0.560966,0.279542 0.596402,0.283462 1.007917,0.11152 z M 20.464954,61.280526 c 2.647922,-0.737314 5.639316,-2.387202 8.809428,-4.858796 l 0.750879,-0.585427 2.110555,-4.182741 c 1.160805,-2.300508 2.120934,-4.225273 2.133621,-4.277256 0.01269,-0.05198 -0.212141,-0.195628 -0.499616,-0.319211 -1.301251,-0.559398 -3.008894,-1.979747 -3.879958,-3.227192 -0.24421,-0.349731 -0.469882,-0.666775 -0.501495,-0.704543 -0.0821,-0.09809 -9.151902,2.879547 -9.368727,3.075772 -0.287384,0.260079 -1.653741,2.112784 -2.418744,3.279685 -1.494547,2.279713 -2.824986,5.326666 -3.114674,7.133181 -0.154303,0.962238 -0.0744,2.33457 0.173715,2.98371 0.346769,0.907236 0.981825,1.487665 1.994187,1.822652 0.764914,0.253107 2.647779,0.184018 3.810829,-0.139834 z m 39.269853,-0.02361 c 0.329177,-0.154308 0.753494,-0.43555 0.942927,-0.624983 1.659862,-1.659861 1.072369,-5.521255 -1.508545,-9.91517 -0.662739,-1.12829 -1.956688,-3.023891 -2.685771,-3.934585 l -0.618154,-0.772133 -4.223607,-2.152739 c -2.322984,-1.184006 -4.244045,-2.154664 -4.269026,-2.157015 -0.02498,-0.0024 -0.238995,0.373655 -0.475587,0.835571 -0.236592,0.461916 -0.632315,1.10764 -0.879385,1.434942 -0.591278,0.78329 -1.720516,1.854642 -2.483775,2.356456 -0.336806,0.221436 -0.612402,0.445039 -0.612436,0.496894 -1.82e-4,0.219138 2.298013,8.196562 2.413406,8.37746 0.281869,0.441882 2.90586,2.42295 4.717533,3.561657 1.13755,0.714995 3.374738,1.817937 4.451119,2.19442 1.399893,0.489636 2.222261,0.631721 3.497309,0.604249 1.052656,-0.02268 1.17915,-0.04493 1.733992,-0.305024 z M 39.605155,47.006861 c 3.378856,-0.589223 6.215977,-3.139594 7.175327,-6.450112 1.497835,-5.168714 -1.729095,-10.465654 -7.028678,-11.537432 -1.0551,-0.213381 -3.111683,-0.145708 -4.140132,0.136234 -3.822965,1.048038 -6.500354,4.366048 -6.741554,8.354615 -0.276341,4.56965 2.97105,8.674473 7.512432,9.495992 0.925793,0.167472 2.264606,0.167764 3.222605,7.26e-4 z M 24.208641,43.500163 c 2.473096,-0.806313 4.512521,-1.479922 4.532055,-1.49691 0.01953,-0.01699 -0.06922,-0.348738 -0.197232,-0.737223 -0.518478,-1.573457 -0.670068,-3.58289 -0.383335,-5.081337 0.07493,-0.391596 0.13625,-0.719417 0.136259,-0.728488 8e-6,-0.0091 -1.945208,-1.00452 -4.322704,-2.212107 l -4.322719,-2.195612 -0.923243,0.109287 c -6.30311,0.746121 -11.2152446,2.93015 -12.449771,5.535404 -0.2439393,0.514792 -0.2824035,0.696235 -0.2813815,1.327334 0.00104,0.645157 0.037133,0.804052 0.3072252,1.352686 1.0842825,2.20249 4.6867583,4.058526 9.7888883,5.043344 1.20244,0.232096 2.935863,0.500784 3.48316,0.539905 0.07494,0.0054 2.159701,-0.649971 4.632798,-1.456283 z m 33.792174,1.233884 c 4.917379,-0.673305 8.822771,-2.167857 10.776639,-4.124103 1.571155,-1.573067 1.658975,-3.381706 0.2425,-4.994214 -1.31314,-1.494874 -4.129196,-2.879334 -7.567251,-3.720297 -1.248784,-0.305458 -3.515837,-0.696422 -4.55681,-0.785844 l -0.666442,-0.05725 -4.49654,1.469502 c -2.473096,0.808227 -4.502755,1.475786 -4.510352,1.483466 -0.0076,0.0077 0.103398,0.363398 0.246654,0.790486 0.413577,1.232994 0.568304,2.319136 0.510524,3.583757 -0.02739,0.599539 -0.09928,1.326091 -0.159752,1.61456 -0.06047,0.288469 -0.08743,0.547009 -0.05991,0.574532 0.02752,0.02752 1.96483,1.023226 4.305127,2.212674 3.59225,1.82575 4.304611,2.157425 4.573022,2.1292 0.174865,-0.01839 0.78803,-0.0978 1.362588,-0.176471 z M 29.083663,33.493163 c 0.699482,-1.410389 1.956493,-2.852788 3.231299,-3.707861 0.312851,-0.209844 0.583205,-0.392997 0.600785,-0.407006 0.03789,-0.03019 0.108797,0.192689 -1.62401,-5.104484 l -1.375298,-4.204268 -0.832728,-0.643957 c -3.219832,-2.489926 -6.509403,-4.234162 -9.09265,-4.821214 -1.21389,-0.275862 -2.622919,-0.269697 -3.457612,0.01513 -0.830003,0.283224 -1.549511,0.969825 -1.862842,1.777642 -0.28785,0.742125 -0.346501,2.066677 -0.14081,3.179995 0.493517,2.671196 2.320013,6.204524 4.927855,9.532859 l 0.708645,0.90443 4.178602,2.113899 c 2.298232,1.162645 4.220589,2.114833 4.271907,2.115973 0.05132,0.0011 0.261404,-0.33687 0.466857,-0.751134 z m 24.80989,-2.904002 2.024383,-0.657652 0.570153,-0.726714 C 60.59406,23.971352 62.485217,18.818169 61.257994,16.207362 60.794448,15.221211 59.886755,14.615469 58.591,14.427564 c -1.436128,-0.208262 -3.705283,0.325262 -5.973378,1.404458 -1.833264,0.872299 -4.515975,2.593596 -6.049296,3.881387 l -0.600974,0.50474 -2.113375,4.162785 c -1.162356,2.289531 -2.113375,4.197188 -2.113375,4.239239 0,0.04205 0.365917,0.265443 0.81315,0.496429 1.467422,0.757894 2.797253,1.915915 3.674424,3.199701 l 0.432608,0.633143 2.604193,-0.851316 c 1.432306,-0.468225 3.515166,-1.147261 4.628576,-1.508969 z m -19.09016,-2.066406 c 1.086802,-0.381789 1.853463,-0.495774 3.258222,-0.484422 0.823368,0.0067 1.587469,0.06283 1.930854,0.141965 l 0.568267,0.130952 2.18868,-4.322284 2.188679,-4.322284 -0.06006,-0.681294 C 44.713732,17.121684 44.033359,13.952359 43.408514,12.140042 43.012553,10.991591 42.254996,9.3951754 41.691626,8.5220123 41.119284,7.6349431 40.098254,6.6393704 39.41861,6.3056685 38.937649,6.0695195 38.785612,6.0408053 38.016196,6.0408053 c -0.76298,0 -0.923491,0.029718 -1.385276,0.256478 -2.591741,1.2726796 -4.669503,5.9985897 -5.471988,12.4461377 l -0.122516,0.984361 1.445884,4.42057 c 0.795236,2.431313 1.466723,4.475908 1.492194,4.543543 0.02882,0.07653 0.106063,0.09874 0.204512,0.0588 0.08701,-0.0353 0.367986,-0.137869 0.624387,-0.227941 z"
   id="path11021" /><path
   style="fill:#000000;fill-opacity:1;stroke-width:0.0908392"
   d="m 37.462257,70.775502 c -0.970405,-0.384327 -2.189123,-1.455542 -2.958807,-2.6007 -1.590213,-2.365966 -2.820059,-6.219314 -3.348632,-10.491924 -0.08344,-0.674481 -0.186888,-1.263618 -0.229881,-1.309194 -0.04583,-0.04858 -0.439103,0.195695 -0.950599,0.590455 -3.619162,2.793176 -6.598984,4.421798 -9.490104,5.186816 -0.888125,0.235006 -1.221591,0.278068 -2.225559,0.287397 -1.744509,0.01621 -2.72718,-0.333423 -3.589769,-1.277233 -2.310798,-2.528382 -1.084028,-7.590215 3.33477,-13.759755 0.570937,-0.797144 1.022809,-1.495125 1.004162,-1.55107 C 18.98919,45.79435 18.4451,45.673036 17.79875,45.580708 13.749536,45.002294 10.311665,43.869995 7.9938476,42.351358 6.9918264,41.694833 5.9533679,40.594037 5.5322823,39.742028 5.1845833,39.038507 5.1778331,39.00564 5.1778331,38.016196 c 0,-0.988768 0.00699,-1.022888 0.3546269,-1.730656 0.4281402,-0.871671 1.5472716,-2.049784 2.580776,-2.71679 2.295424,-1.481428 5.873838,-2.629907 9.93965,-3.190098 0.796827,-0.109787 1.133433,-0.190024 1.081708,-0.257844 -3.4965,-4.584582 -5.192023,-7.982704 -5.559284,-11.141769 -0.2974,-2.558141 0.718756,-4.490678 2.730322,-5.192559 0.51165,-0.178526 0.76625,-0.205496 1.907623,-0.202073 1.132693,0.0034 1.447996,0.03836 2.251286,0.24965 2.733532,0.718999 6.040327,2.496479 9.144444,4.915354 0.613635,0.478173 0.632496,0.46895 0.724875,-0.354478 0.317261,-2.827923 1.266648,-6.390676 2.281898,-8.5632496 0.905837,-1.9384386 2.373385,-3.6790978 3.618732,-4.2921803 2.892064,-1.4237583 5.791002,0.6876152 7.727589,5.6282079 0.6803,1.73557 1.42074,4.815129 1.69401,7.045544 0.06121,0.499616 0.12199,0.922397 0.13506,0.939515 0.01307,0.01712 0.425347,-0.272206 0.916171,-0.642941 7.055517,-5.329257 13.258413,-6.51374 15.184719,-2.89962 0.408138,0.765746 0.559895,1.454128 0.559895,2.539733 0,2.969529 -1.776825,6.954714 -4.988917,11.189482 l -0.653331,0.86134 1.390407,0.203705 c 5.290955,0.775166 9.318861,2.380683 11.303119,4.505407 0.712057,0.762465 1.057413,1.342014 1.257518,2.110264 0.976498,3.74903 -3.666414,7.084305 -11.746727,8.438359 -0.766728,0.128483 -1.502525,0.234233 -1.635105,0.234998 -0.555273,0.0032 -0.533595,0.11185 0.229081,1.148085 2.426221,3.296466 3.776679,5.859712 4.539242,8.615736 0.276542,0.999469 0.388658,2.887896 0.219603,3.698924 -0.457932,2.196901 -2.419616,3.501066 -4.973786,3.306669 -3.154104,-0.240058 -7.217425,-2.219116 -11.45731,-5.580335 -0.465547,-0.369068 -0.86094,-0.656542 -0.87865,-0.638831 -0.01771,0.01771 -0.09988,0.563367 -0.182598,1.212572 -0.866997,6.804533 -3.066616,11.703634 -5.865821,13.06465 -0.87466,0.425272 -1.04465,0.453252 -1.546402,0.254535 z m 1.221099,-1.033724 c 2.247974,-1.192925 4.146433,-5.150915 5.054487,-10.537818 0.147793,-0.876757 0.317033,-2.139741 0.376092,-2.806632 L 44.221314,55.1848 43.836807,53.776793 c -0.504218,-1.846374 -1.831524,-6.487698 -1.864857,-6.52103 -0.01432,-0.01432 -0.327718,0.07454 -0.696438,0.197463 -0.36872,0.122926 -0.985478,0.287932 -1.370574,0.366681 -0.898005,0.183633 -2.820418,0.187807 -3.759337,0.0082 -0.388117,-0.07426 -0.713477,-0.125356 -0.723022,-0.113549 -0.0095,0.01181 -0.840271,1.661425 -1.846057,3.665817 l -1.828702,3.64435 0.09143,0.943028 c 0.606175,6.25195 2.243345,10.985443 4.521553,13.073006 0.553531,0.507211 1.357522,0.996284 1.637799,0.996284 0.07063,0 0.378767,-0.132852 0.68475,-0.295227 z M 19.662651,61.448064 c 2.591387,-0.491577 5.655213,-2.055777 9.105439,-4.648671 l 1.24382,-0.934748 2.14169,-4.266823 2.141689,-4.266824 -0.705753,-0.35688 c -1.472263,-0.744485 -2.923104,-1.991939 -3.782124,-3.251927 l -0.442035,-0.648363 -0.420938,0.125775 c -0.319528,0.09547 -6.201966,2.018542 -8.542906,2.792819 -0.215018,0.07112 -0.472492,0.307199 -0.841573,0.771647 -2.369373,2.981608 -4.114482,6.169794 -4.860363,8.879531 -0.212741,0.772873 -0.249312,1.081423 -0.252472,2.130117 -0.003,0.997115 0.0293,1.31528 0.172858,1.702235 0.373071,1.005623 1.126367,1.698466 2.139845,1.968122 0.663178,0.17645 1.984114,0.178267 2.902823,0.004 z m 40.064108,-0.190349 c 1.940467,-0.919395 2.399936,-3.084865 1.351363,-6.368944 -0.755847,-2.367272 -2.51935,-5.485469 -4.528879,-8.007891 l -0.710944,-0.892397 -4.244692,-2.149932 c -2.334581,-1.182463 -4.255004,-2.138236 -4.267605,-2.123941 -0.0126,0.01429 -0.175959,0.332574 -0.363014,0.707286 -0.745862,1.494115 -2.057957,2.990346 -3.425435,3.90615 -0.335658,0.22479 -0.611582,0.450135 -0.613165,0.500765 -0.0049,0.158024 2.253619,8.02861 2.377648,8.285591 0.127829,0.264852 1.60139,1.487889 2.895122,2.402916 2.846594,2.013328 5.725109,3.420791 8.032293,3.927423 0.428798,0.09416 1.005653,0.131995 1.771364,0.116183 1.054716,-0.02178 1.177492,-0.04335 1.725944,-0.303209 z M 40.378014,46.830387 c 5.994521,-1.649777 8.678933,-8.681407 5.275481,-13.818751 -1.236885,-1.867017 -3.013573,-3.180622 -5.159513,-3.814715 -0.986179,-0.291402 -2.775573,-0.39368 -3.931219,-0.224703 -4.561765,0.667019 -7.9785,4.906284 -7.691882,9.543593 0.261232,4.226588 3.342804,7.700753 7.540562,8.501233 1.028146,0.19606 2.895197,0.108201 3.966571,-0.186657 z M 24.344899,43.452188 c 2.398155,-0.780164 4.373487,-1.429506 4.389628,-1.442982 0.01614,-0.01348 -0.07289,-0.348151 -0.197854,-0.743722 -0.516202,-1.634072 -0.661342,-3.592463 -0.376544,-5.080791 0.07493,-0.391596 0.13625,-0.718813 0.136259,-0.727147 8e-6,-0.0083 -1.949745,-1.004546 -4.332786,-2.213805 L 19.6308,31.045087 18.445122,31.199694 c -6.252466,0.815289 -10.8891236,2.897804 -12.1393298,5.452274 -0.2768556,0.565683 -0.309925,0.712961 -0.3059518,1.362588 0.00514,0.840341 0.1852197,1.330037 0.7776633,2.114723 1.4592201,1.932724 5.5320223,3.691933 10.3541033,4.47236 1.804096,0.291983 2.290644,0.350117 2.580494,0.308323 0.149885,-0.02161 2.234644,-0.67761 4.632798,-1.457774 z m 35.077526,1.061985 c 4.329452,-0.768749 7.736871,-2.214569 9.41729,-3.995902 0.698429,-0.740371 1.023374,-1.324195 1.135701,-2.040494 0.173966,-1.109367 -0.2086,-2.089678 -1.210159,-3.100994 -0.759952,-0.767357 -1.474232,-1.24896 -2.816014,-1.898703 -2.242751,-1.086024 -5.165834,-1.882764 -8.402624,-2.29029 l -1.226329,-0.1544 -4.541959,1.479462 c -2.498077,0.813704 -4.548175,1.485528 -4.555772,1.492941 -0.0076,0.0074 0.102923,0.361495 0.245598,0.786846 0.142676,0.425353 0.322622,1.135847 0.39988,1.578875 0.20925,1.199928 0.186401,2.188773 -0.08858,3.83348 l -0.0622,0.372015 4.346935,2.183385 4.346933,2.183385 0.967415,-0.119232 c 0.532077,-0.06558 1.451824,-0.205247 2.043881,-0.310374 z M 29.083663,33.493163 c 0.699482,-1.410389 1.956493,-2.852788 3.231299,-3.707861 0.312851,-0.209844 0.582252,-0.392043 0.598667,-0.404888 0.03406,-0.02665 -0.173266,-0.677577 -1.812395,-5.690372 l -1.179492,-3.60713 -0.74454,-0.576351 c -1.911163,-1.479437 -3.564824,-2.542147 -5.343441,-3.43391 -1.974838,-0.990146 -3.379541,-1.45401 -4.973326,-1.642303 -2.053996,-0.242662 -3.62643,0.504136 -4.196874,1.993227 -0.276469,0.721696 -0.33534,2.073599 -0.136359,3.131366 0.511244,2.717743 2.320507,6.224037 4.93045,9.555054 l 0.708645,0.90443 4.178602,2.113899 c 2.298232,1.162645 4.220589,2.114833 4.271907,2.115973 0.05132,0.0011 0.261404,-0.33687 0.466857,-0.751134 z m 25.360225,-3.085743 1.484647,-0.475911 0.790543,-1.044651 c 1.611902,-2.130019 2.377676,-3.346266 3.32723,-5.284495 2.03557,-4.155008 2.098197,-7.324506 0.169964,-8.601715 -0.679684,-0.450203 -1.294285,-0.601361 -2.397136,-0.589564 -2.795338,0.0299 -6.423739,1.661098 -10.491925,4.716783 -0.549577,0.412797 -1.093307,0.850847 -1.208291,0.973442 -0.177302,0.189043 -4.186963,7.993439 -4.335734,8.439066 -0.03935,0.117872 0.09384,0.225886 0.578449,0.469093 1.670625,0.838428 3.001328,1.999377 3.984573,3.476271 l 0.309527,0.46493 3.151753,-1.03367 c 1.733464,-0.568518 3.819844,-1.247829 4.6364,-1.509579 z M 34.803393,28.522755 c 1.086802,-0.381789 1.853463,-0.495774 3.258222,-0.484422 0.823878,0.0067 1.587463,0.06283 1.931377,0.142072 l 0.568787,0.131061 2.179098,-4.31288 c 1.456012,-2.881748 2.178933,-4.406465 2.178604,-4.594909 -9.4e-4,-0.538774 -0.372013,-2.833832 -0.691836,-4.278954 C 43.231341,10.622916 41.427962,7.3323131 39.391604,6.3004638 38.934799,6.068994 38.785483,6.0408053 38.016196,6.0408053 c -0.753979,0 -0.926074,0.031009 -1.362588,0.2455212 -2.597515,1.2764718 -4.662478,5.9432685 -5.487973,12.4027715 l -0.130464,1.020877 1.446752,4.429474 c 0.795713,2.436209 1.467481,4.484811 1.492816,4.552446 0.02867,0.07655 0.105792,0.09875 0.204267,0.0588 0.08701,-0.0353 0.367986,-0.137869 0.624387,-0.227941 z"
   id="path11060" /><path
   style="fill:#000000;fill-opacity:1;stroke-width:0.0908392"
   d="m 37.462257,70.775502 c -3.042537,-1.204989 -5.429626,-6.158167 -6.309741,-13.092624 -0.0856,-0.674481 -0.185414,-1.259615 -0.2218,-1.300297 -0.03638,-0.04068 -0.665184,0.37733 -1.39733,0.928913 -3.497734,2.635125 -6.450632,4.204182 -9.18541,4.880775 -1.270559,0.314341 -2.946354,0.353986 -3.812511,0.0902 -1.413242,-0.430406 -2.30628,-1.287036 -2.759025,-2.646547 -0.881056,-2.645648 0.572783,-7.065816 3.854903,-11.72023 1.345417,-1.907952 1.43203,-2.039621 1.377527,-2.094123 -0.03015,-0.03015 -0.547623,-0.130289 -1.149938,-0.222528 -3.116452,-0.477261 -5.3038,-1.055273 -7.457846,-1.970755 -2.3780332,-1.01068 -4.149617,-2.423317 -4.867691,-3.881435 -0.3488262,-0.708325 -0.3555619,-0.74111 -0.3555619,-1.730655 0,-0.988219 0.00713,-1.02308 0.3519463,-1.720769 1.3974938,-2.827636 5.9783866,-5.000031 12.4790876,-5.917953 0.612029,-0.08642 1.11278,-0.18513 1.11278,-0.219356 0,-0.03423 -0.319636,-0.487551 -0.710303,-1.007391 -2.500368,-3.32711 -4.151801,-6.574006 -4.708261,-9.256947 -0.233367,-1.125169 -0.218284,-2.59391 0.03498,-3.406469 0.417461,-1.339346 1.276388,-2.244736 2.557923,-2.696296 0.665377,-0.234451 2.113844,-0.314547 3.094699,-0.171127 2.63191,0.384836 6.099236,2.064004 9.537308,4.618755 0.572202,0.425191 1.09979,0.77737 1.172415,0.782619 0.101026,0.0073 0.170483,-0.257213 0.295655,-1.125944 0.768374,-5.332765 2.340151,-9.2955208 4.508718,-11.3673566 2.043605,-1.9524494 4.256664,-1.9166547 6.302626,0.1019409 1.168338,1.1527099 2.083211,2.7047416 2.892328,4.9066737 0.653335,1.777987 1.366528,4.889343 1.598118,6.971906 0.03472,0.31226 0.10446,0.567745 0.154966,0.567745 0.05051,0 0.52554,-0.31983 1.055628,-0.710735 1.536516,-1.133077 1.804908,-1.314581 3.053096,-2.064694 5.769042,-3.466975 10.42524,-3.690168 11.983973,-0.574446 0.17126,0.342328 0.360302,0.857975 0.420094,1.145882 0.152539,0.734494 0.05908,2.599617 -0.177617,3.544691 -0.657513,2.625275 -2.517556,6.112413 -4.839691,9.073268 -0.240659,0.306854 -0.437561,0.59696 -0.437561,0.644681 0,0.04772 0.521189,0.159254 1.158199,0.24785 4.105912,0.571061 7.573078,1.70941 9.977598,3.275875 0.71657,0.46682 2.021152,1.792592 2.328121,2.365935 1.107724,2.068959 0.42159,4.22949 -1.900017,5.982863 -2.20614,1.666166 -6.020671,2.99006 -10.337137,3.587668 -0.794236,0.109961 -1.096522,0.186659 -1.115039,0.282918 -0.01397,0.07263 0.246528,0.499959 0.578889,0.949613 2.382991,3.223962 3.788291,5.89174 4.545862,8.629722 0.273959,0.990132 0.388582,2.888292 0.222517,3.68489 -0.365712,1.75428 -1.705917,2.989327 -3.551371,3.272713 -3.010456,0.462282 -7.7693,-1.541636 -12.617264,-5.31305 -0.61936,-0.481823 -1.135742,-0.865008 -1.147515,-0.851521 -0.01177,0.01349 -0.09109,0.555929 -0.176272,1.20543 -0.753249,5.743765 -2.292993,9.870367 -4.494703,12.046059 -0.50455,0.498588 -0.887368,0.782542 -1.373954,1.019128 -0.87466,0.425272 -1.04465,0.453252 -1.546402,0.254535 z m 1.034463,-0.930536 c 2.799635,-1.405785 4.982682,-6.661633 5.617553,-13.524676 0.103106,-1.114593 0.100485,-1.152207 -0.142437,-2.043882 -0.41102,-1.508691 -1.965628,-6.986387 -1.989584,-7.010343 -0.01229,-0.01229 -0.347612,0.08155 -0.745162,0.208536 -0.397549,0.126984 -1.022776,0.288841 -1.389392,0.359683 -0.840887,0.162484 -2.853909,0.161732 -3.693705,-0.0014 -0.349731,-0.06793 -0.668135,-0.103901 -0.707564,-0.07994 -0.03943,0.02396 -0.887178,1.674146 -1.883887,3.667076 l -1.812198,3.623512 0.137169,1.367791 c 0.468072,4.667465 1.632257,8.6503 3.270805,11.189875 0.542719,0.841156 1.579172,1.862099 2.219188,2.18598 0.592939,0.300056 0.632617,0.302105 1.119214,0.05777 z M 19.601478,61.453614 c 2.557575,-0.446004 5.856055,-2.135972 9.348646,-4.789753 l 1.062497,-0.807319 2.141907,-4.262484 2.141907,-4.262484 -0.706326,-0.357168 C 32.114632,46.2283 30.662704,44.98439 29.84067,43.762151 c -0.284176,-0.422526 -0.466971,-0.608665 -0.599695,-0.610665 -0.239333,-0.0036 -9.02973,2.886051 -9.198422,3.023787 -0.06806,0.05557 -0.531242,0.643791 -1.029294,1.307157 -2.291938,3.052683 -3.92504,6.273492 -4.437146,8.750957 -0.236572,1.144492 -0.212502,2.593714 0.05425,3.266274 0.395237,0.996511 1.144825,1.680761 2.129465,1.94385 0.654217,0.174803 1.872355,0.179133 2.84165,0.0101 z M 59.65183,61.297469 c 2.485359,-1.143859 2.622272,-4.318683 0.385048,-8.928683 -0.846386,-1.744052 -2.201142,-3.859387 -3.614927,-5.6444 l -0.585377,-0.739084 -4.24717,-2.145001 c -2.335944,-1.17975 -4.255978,-2.134808 -4.266743,-2.12235 -0.01076,0.01246 -0.172983,0.329233 -0.360486,0.703945 -0.738,1.474841 -1.813577,2.727633 -3.245821,3.780608 -0.437164,0.321399 -0.794651,0.613965 -0.794417,0.650147 2.73e-4,0.03618 0.530578,1.925716 1.178541,4.198967 l 1.178115,4.133182 0.433855,0.391772 c 0.636374,0.574648 2.659021,2.086158 3.704064,2.768022 2.465444,1.608638 5.152458,2.799737 7.123553,3.157724 0.228855,0.04156 0.906631,0.06586 1.506169,0.05399 0.956161,-0.01893 1.1534,-0.05072 1.605596,-0.258843 z M 40.150916,46.88122 c 4.436023,-1.098938 7.362166,-5.208271 6.938453,-9.744028 -0.205903,-2.204143 -1.161368,-4.171411 -2.773969,-5.711506 -0.893702,-0.853519 -1.360827,-1.176879 -2.435596,-1.686002 -1.429721,-0.677264 -2.011992,-0.795556 -3.909028,-0.794141 -1.513924,0.0011 -1.695696,0.01945 -2.452658,0.247253 -2.92431,0.880039 -5.152745,2.989375 -6.154639,5.825707 -0.362026,1.024883 -0.477594,1.803498 -0.465163,3.133951 0.0129,1.381198 0.235877,2.445289 0.749981,3.579121 1.25529,2.768484 3.986434,4.855953 6.959891,5.319589 0.827029,0.128954 2.698583,0.03918 3.542728,-0.169944 z M 24.29948,43.457082 c 2.373173,-0.774354 4.345974,-1.438965 4.384,-1.476912 0.03803,-0.03795 -0.01437,-0.311721 -0.116438,-0.608387 -0.525486,-1.527352 -0.69463,-3.683503 -0.406913,-5.18709 0.07493,-0.391596 0.13625,-0.718773 0.136259,-0.727056 8e-6,-0.0083 -1.950352,-1.004417 -4.334136,-2.213628 l -4.334151,-2.198565 -1.184329,0.154428 c -6.27258,0.817899 -10.8802139,2.900379 -12.1573886,5.49469 -0.25559,0.519177 -0.2906027,0.679757 -0.2877517,1.319723 0.00282,0.633337 0.042069,0.808878 0.3001067,1.34229 1.2292284,2.54104 5.9528276,4.63883 12.3232926,5.472877 0.499616,0.06541 1.010586,0.100169 1.13549,0.07724 0.124904,-0.02293 2.168785,-0.675255 4.541959,-1.449609 z m 34.334536,1.176532 c 2.742429,-0.416649 5.321947,-1.15922 7.224387,-2.0797 1.348527,-0.652472 2.050148,-1.12788 2.868684,-1.943775 0.914387,-0.911436 1.207409,-1.503325 1.251172,-2.527295 0.03005,-0.703035 0.01183,-0.793579 -0.285833,-1.420362 -1.2319,-2.594032 -6.182593,-4.788051 -12.428074,-5.507801 l -0.96356,-0.111044 -4.541153,1.478047 -4.541153,1.478047 0.257737,0.801465 c 0.524706,1.631639 0.664884,3.354407 0.394642,4.850105 -0.07222,0.399692 -0.132107,0.7723 -0.133091,0.828017 -9.81e-4,0.05572 1.95012,1.082455 4.335784,2.28164 3.924212,1.972555 4.372198,2.176506 4.700928,2.140151 0.199846,-0.0221 1.036635,-0.142475 1.85953,-0.267495 z M 29.130979,33.391201 c 0.777858,-1.457742 1.934846,-2.768044 3.183983,-3.605899 0.312851,-0.209844 0.583248,-0.393041 0.600884,-0.407105 0.01763,-0.01406 -0.459503,-1.530426 -1.060304,-3.369696 -0.600802,-1.839269 -1.280837,-3.92384 -1.511189,-4.632379 l -0.41882,-1.288252 -1.071401,-0.816567 c -4.44401,-3.386998 -8.865303,-5.243964 -11.503849,-4.831675 -1.305288,0.203958 -2.282166,0.926757 -2.688043,1.988902 -0.27014,0.706934 -0.328324,1.984531 -0.139743,3.068482 0.461879,2.654856 2.332863,6.297646 4.935649,9.609668 l 0.708151,0.901117 4.178602,2.117543 c 2.298232,1.16465 4.21948,2.105457 4.269442,2.090685 0.04996,-0.01477 0.282449,-0.385944 0.516638,-0.824824 z m 25.856447,-3.163157 0.938115,-0.291781 0.803347,-1.054056 c 1.912574,-2.509449 3.633022,-5.558013 4.30362,-7.62584 0.341405,-1.052742 0.601874,-2.410562 0.601874,-3.13756 0,-1.61182 -0.705546,-2.860392 -1.9199,-3.397558 -2.473411,-1.094107 -7.28032,0.58304 -12.179967,4.249635 -1.593853,1.19274 -1.393178,0.89615 -3.703452,5.473559 -1.149754,2.278038 -2.090461,4.164678 -2.090461,4.192534 0,0.02785 0.291909,0.198943 0.648686,0.380196 1.543658,0.784217 2.95183,1.991848 3.832374,3.286593 l 0.438716,0.645086 3.694467,-1.214513 c 2.031956,-0.667983 4.116617,-1.345815 4.632581,-1.506295 z M 34.927664,28.482411 c 0.32475,-0.112017 0.876598,-0.26101 1.226329,-0.331096 0.859622,-0.172268 3.087163,-0.155814 3.841616,0.02838 l 0.571405,0.139501 2.18974,-4.371675 2.189741,-4.371675 -0.15608,-1.226329 C 44.02418,12.3292 41.97171,7.7055795 39.468204,6.3601114 38.914617,6.0625952 38.827232,6.043461 38.016196,6.0421743 37.258227,6.0409716 37.091757,6.0710158 36.64806,6.2890908 34.068291,7.557037 31.995352,12.245866 31.166711,18.687485 l -0.131117,1.019266 1.448532,4.431085 c 0.796693,2.437097 1.468365,4.486424 1.492605,4.554059 0.02753,0.07682 0.103444,0.09881 0.202275,0.05858 0.08701,-0.03542 0.423908,-0.156045 0.748658,-0.268064 z"
   id="path11099" /><path
   style="fill:#000000;fill-opacity:1;stroke-width:0.0908392"
   d="m 37.378127,70.73672 c -0.697362,-0.289836 -1.214966,-0.666772 -1.916686,-1.395791 -2.076187,-2.156959 -3.618775,-6.31292 -4.310318,-11.612632 -0.08475,-0.6495 -0.18209,-1.234216 -0.216308,-1.299371 -0.04388,-0.08355 -0.507353,0.214811 -1.572888,1.012573 -6.496553,4.863936 -11.959303,6.321948 -14.54041,3.880844 -0.916438,-0.866729 -1.280542,-1.851457 -1.27852,-3.457787 0.0037,-2.931319 1.524273,-6.419955 4.744946,-10.886218 0.408576,-0.566592 0.742865,-1.065491 0.742865,-1.108664 0,-0.04317 -0.132853,-0.100681 -0.295228,-0.127794 -0.162375,-0.02711 -0.933047,-0.152379 -1.712606,-0.278365 -3.7745,-0.610012 -6.90839,-1.697086 -9.1199656,-3.163505 C 6.9810298,41.688678 5.9383395,40.563629 5.5322823,39.742028 5.1848852,39.039118 5.1778331,39.004875 5.1778331,38.020907 c 0,-0.968464 0.011757,-1.028562 0.3326842,-1.700607 1.3257231,-2.776161 5.8018497,-4.945316 12.1577027,-5.891689 0.724442,-0.107868 1.347759,-0.224943 1.385148,-0.260166 0.03739,-0.03522 -0.182472,-0.389087 -0.48858,-0.786363 -1.653874,-2.146451 -3.479901,-5.291511 -4.204732,-7.242029 -1.049665,-2.824644 -1.106026,-5.215487 -0.158097,-6.706548 1.946463,-3.061724 6.981338,-2.410108 13.140633,1.700666 0.699462,0.466827 1.610074,1.100494 2.023582,1.408147 0.413508,0.307653 0.774832,0.53637 0.802942,0.50826 0.02811,-0.02811 0.126578,-0.543912 0.218817,-1.146226 0.639822,-4.177961 1.61285,-7.257349 3.009593,-9.5246048 0.675494,-1.0964923 2.012545,-2.4431243 2.811135,-2.8312771 1.217783,-0.5919009 2.427764,-0.5886989 3.61779,0.00957 0.742594,0.3733312 1.995391,1.5813187 2.573262,2.4812232 1.525966,2.3763527 2.65563,5.8297167 3.209252,9.8106307 0.08338,0.599539 0.183214,1.124828 0.22186,1.16731 0.03865,0.04248 0.615968,-0.324479 1.282941,-0.81547 4.063523,-2.991355 7.922878,-4.666701 10.75029,-4.666701 0.967576,0 1.591197,0.122519 2.291373,0.450171 1.057193,0.49472 1.798114,1.41221 2.164078,2.679796 0.231571,0.802093 0.141815,2.780665 -0.178748,3.940255 -0.740529,2.678763 -2.261979,5.528836 -4.659998,8.729398 -0.31555,0.421154 -0.542234,0.793792 -0.503742,0.828082 0.03849,0.03429 0.540077,0.131394 1.114635,0.215783 7.043056,1.034463 11.700421,3.442229 12.64264,6.535994 1.171091,3.845264 -3.985198,7.460585 -12.324703,8.641441 -1.305654,0.184878 -1.408144,0.209805 -1.407268,0.342268 3.63e-4,0.0615 0.268841,0.473699 0.596522,0.915997 2.362585,3.18898 3.81486,5.939628 4.539364,8.597676 0.282959,1.038116 0.39992,2.922554 0.231529,3.73031 -0.521712,2.502596 -2.784796,3.741733 -5.878581,3.218779 -2.86301,-0.483945 -6.469831,-2.311257 -10.112096,-5.123058 -0.621405,-0.479721 -1.178518,-0.902137 -1.238029,-0.938702 -0.07844,-0.0482 -0.137356,0.176678 -0.214194,0.817553 -0.831393,6.934266 -3.078339,12.023414 -5.918179,13.404187 -0.909627,0.442273 -1.043037,0.459927 -1.630532,0.215753 z m 1.241062,-0.970141 c 2.410694,-1.204639 4.469725,-5.766256 5.290349,-11.720345 0.318133,-2.308243 0.329515,-2.685601 0.107039,-3.549104 -0.244442,-0.948759 -2.002716,-7.199458 -2.033935,-7.230676 -0.0125,-0.0125 -0.348002,0.08116 -0.745552,0.208147 -0.397549,0.126984 -1.022776,0.288841 -1.389392,0.359683 -0.823691,0.159161 -2.826093,0.162256 -3.717997,0.0057 l -0.660165,-0.115846 -0.306378,0.550937 c -0.168509,0.303015 -1.00591,1.951005 -1.860892,3.662198 l -1.554512,3.111262 0.13778,1.339858 c 0.291025,2.830104 0.911206,5.799396 1.626941,7.78944 0.809817,2.251636 2.078418,4.303735 3.17008,5.127948 0.496936,0.375189 1.112861,0.720851 1.296422,0.727559 0.05447,0.002 0.342567,-0.118072 0.640212,-0.266806 z M 19.591662,61.455325 c 2.501086,-0.436153 5.738199,-2.085152 9.216972,-4.695167 l 1.193523,-0.895464 2.148141,-4.266056 2.148141,-4.266056 -0.707329,-0.357672 c -1.450652,-0.733548 -2.734426,-1.818721 -3.693717,-3.122297 -0.284939,-0.387202 -0.576746,-0.704004 -0.64846,-0.704004 -0.228472,0 -8.632198,2.751148 -9.054156,2.964082 -0.445162,0.224641 -2.5421,3.180638 -3.601823,5.077392 -2.385949,4.270506 -2.852399,7.827746 -1.238105,9.44204 0.378469,0.37847 1.090665,0.757864 1.61891,0.862413 0.61403,0.121527 1.797842,0.103796 2.617903,-0.03921 z m 39.512617,0.01005 c 1.361146,-0.320377 2.220496,-1.308999 2.45631,-2.825811 0.42562,-2.737695 -1.645881,-7.520279 -5.187859,-11.977484 l -0.540633,-0.68033 -4.178833,-2.097864 c -2.29836,-1.153826 -4.221664,-2.097864 -4.274012,-2.097864 -0.05235,0 -0.243944,0.296362 -0.425771,0.658584 -0.728228,1.450716 -2.054236,2.972135 -3.367915,3.864237 -0.309072,0.209887 -0.587119,0.422338 -0.617882,0.472114 -0.048,0.07766 2.046098,7.606875 2.303181,8.280964 0.201721,0.528927 3.830918,3.189303 5.962431,4.37075 1.939036,1.074761 4.097674,1.902974 5.450351,2.091158 0.619605,0.0862 1.941707,0.05427 2.420632,-0.05845 z M 40.199189,46.864816 c 2.38797,-0.593432 4.573492,-2.260078 5.770468,-4.40047 0.44017,-0.7871 0.902951,-2.105773 1.041524,-2.967777 0.164131,-1.020996 0.07127,-3.016876 -0.18088,-3.887612 -0.748372,-2.584331 -2.47749,-4.654061 -4.862601,-5.820466 -1.419811,-0.694339 -2.070486,-0.83466 -3.906085,-0.842369 -1.698171,-0.0071 -2.231227,0.08205 -3.480628,0.582336 -2.643181,1.058381 -4.694444,3.405387 -5.433393,6.216758 -0.327668,1.246632 -0.349052,3.135721 -0.04923,4.348883 0.634181,2.566054 2.294816,4.706728 4.648388,5.992094 0.722671,0.394675 2.022303,0.83735 2.816015,0.959179 0.886404,0.136056 2.730906,0.04447 3.63642,-0.180556 z M 21.665144,44.311835 c 3.147139,-1.009139 6.949005,-2.275821 7.018336,-2.338327 0.03803,-0.03428 -0.01437,-0.305059 -0.116438,-0.601725 -0.524598,-1.524773 -0.694648,-3.683315 -0.40814,-5.180763 0.07426,-0.388116 0.121582,-0.719102 0.105161,-0.735523 -0.01642,-0.01642 -1.961282,-1.013115 -4.321914,-2.214877 l -4.292058,-2.185022 -0.831967,0.09972 c -7.218035,0.865151 -12.4537618,3.512875 -12.8251972,6.485744 -0.073273,0.586462 0.1216442,1.430391 0.4661384,2.018226 0.7706066,1.314941 2.7332,2.62319 5.4407378,3.626752 1.700241,0.630202 5.141148,1.389077 7.312683,1.612776 0.447251,0.04607 0.570014,0.01669 2.452658,-0.586981 z m 37.443954,0.246568 c 5.483473,-0.949583 9.452085,-2.904467 10.586717,-5.214873 0.220048,-0.448076 0.250299,-0.61424 0.249915,-1.372754 -4.55e-4,-0.975032 -0.143614,-1.349237 -0.858979,-2.245895 -1.650005,-2.068162 -6.383579,-3.917087 -11.585552,-4.525296 l -1.271748,-0.148691 -4.435938,1.453867 c -2.439766,0.799627 -4.45952,1.477448 -4.488341,1.50627 -0.02882,0.02882 0.05867,0.414498 0.194429,0.857058 0.516092,1.682421 0.632498,3.199063 0.369842,4.818624 -0.07608,0.46913 -0.126187,0.865108 -0.111344,0.879952 0.01484,0.01484 1.943399,0.995743 4.28568,2.179778 l 4.258692,2.152792 0.753836,-0.05794 c 0.41461,-0.03187 1.338365,-0.159168 2.052791,-0.282887 z M 29.137189,33.377475 c 0.797919,-1.470398 1.856575,-2.671269 3.200111,-3.629996 0.331297,-0.236408 0.585365,-0.475663 0.564596,-0.531677 -0.05078,-0.136959 -2.236953,-6.832702 -2.648502,-8.111748 L 29.926713,20.088768 28.86175,19.279749 c -3.279868,-2.491618 -6.483133,-4.152264 -9.077172,-4.705813 -0.939726,-0.200531 -2.376231,-0.207221 -3.02475,-0.01409 -1.013419,0.301804 -1.805659,1.033273 -2.136788,1.97288 -0.206105,0.584844 -0.269611,1.836144 -0.138738,2.733687 0.389912,2.674073 2.451059,6.697914 5.156582,10.066855 l 0.540882,0.673512 4.170868,2.118097 c 2.293977,1.164953 4.209922,2.105842 4.257655,2.090863 0.04773,-0.01498 0.284838,-0.392199 0.5269,-0.838269 z m 26.395645,-3.331992 c 0.357773,-0.100195 0.473924,-0.217449 1.28083,-1.292989 2.409712,-3.211955 3.844164,-5.928381 4.510095,-8.540777 0.314231,-1.2327 0.360009,-2.691844 0.109781,-3.499091 -0.706723,-2.279913 -3.156086,-2.90632 -6.724576,-1.719762 -0.950492,0.316048 -2.293224,0.922803 -3.448361,1.558247 -2.021667,1.112125 -4.915898,3.195621 -5.315501,3.826518 -0.491728,0.776344 -4.232482,8.272804 -4.143032,8.302621 0.227082,0.07569 1.738952,0.982226 2.20034,1.319346 0.722849,0.528159 1.706759,1.549475 2.21919,2.303558 l 0.438653,0.645515 4.239564,-1.396499 c 2.33176,-0.768075 4.416617,-1.446084 4.633017,-1.506687 z M 36.153993,28.152849 c 0.817853,-0.162296 2.904598,-0.162868 3.716114,-0.001 0.590642,0.117798 0.63522,0.115043 0.757331,-0.04681 0.07136,-0.09459 1.070313,-2.049826 2.219892,-4.344978 l 2.090143,-4.173003 -0.06155,-0.596054 C 44.842063,18.663158 44.715026,17.802208 44.593615,17.077765 43.660793,11.511762 41.798388,7.6212443 39.461632,6.3571801 38.912389,6.0600675 38.829948,6.0421903 38.016196,6.0437359 c -0.772776,0.00147 -0.919913,0.029884 -1.407761,0.2718718 -0.646569,0.3207188 -1.663172,1.2908999 -2.22017,2.1187895 -0.520429,0.7735352 -1.372631,2.5667408 -1.77504,3.7350458 -0.623121,1.809092 -1.117045,4.020185 -1.407659,6.301513 l -0.160657,1.261156 1.445519,4.418404 c 0.795034,2.430123 1.46225,4.467592 1.4827,4.527708 0.02663,0.07829 0.251116,0.03716 0.791087,-0.144944 0.414647,-0.139836 1.040047,-0.31103 1.389778,-0.380431 z"
   id="path11138" /><path
   style="fill:#000000;fill-opacity:1;stroke-width:0.0908392"
   d="m 37.378127,70.73672 c -1.192499,-0.495623 -2.393931,-1.680008 -3.349158,-3.301633 -1.380799,-2.34409 -2.402403,-5.914056 -2.983571,-10.426007 -0.03808,-0.295647 -0.11456,-0.552613 -0.169953,-0.571037 -0.05539,-0.01842 -0.750312,0.447483 -1.544266,1.035348 -3.506679,2.596443 -6.717832,4.252953 -9.30114,4.798098 -3.26829,0.689693 -5.580917,-0.340436 -6.324687,-2.817248 -0.219157,-0.729811 -0.219529,-2.360913 -7.72e-4,-3.383538 0.323153,-1.510646 1.066048,-3.406735 2.002088,-5.109925 0.499315,-0.908538 1.870275,-3.012267 2.885164,-4.427267 0.259348,-0.361592 0.453545,-0.675436 0.431551,-0.697431 -0.022,-0.02199 -0.797936,-0.165583 -1.724313,-0.319086 -6.324796,-1.048034 -10.4318569,-3.072975 -11.7839131,-5.80993 -0.33088,-0.669797 -0.3372861,-0.702881 -0.335351,-1.731889 0.00194,-1.033426 0.00707,-1.058926 0.3441221,-1.712266 0.4363337,-0.845783 1.4864055,-1.955195 2.4701942,-2.609785 2.1897358,-1.457 5.2385188,-2.497001 9.2723438,-3.162985 0.953131,-0.157362 1.745655,-0.320958 1.761163,-0.363547 0.01551,-0.04259 -0.279685,-0.492242 -0.655986,-0.999231 -2.401066,-3.234947 -4.091661,-6.552695 -4.663181,-9.151374 -0.188442,-0.856838 -0.214512,-2.597166 -0.04886,-3.261578 0.401796,-1.611544 1.629489,-2.775715 3.261929,-3.093152 0.847561,-0.164813 2.501189,-0.0641 3.587593,0.218502 2.478896,0.644823 5.341553,2.135588 8.436187,4.393251 0.649164,0.473592 1.198827,0.842545 1.221475,0.819897 0.02265,-0.02265 0.14134,-0.680899 0.263761,-1.462779 0.794882,-5.076773 2.183843,-8.655885 4.179179,-10.7690199 1.675158,-1.7740548 3.519161,-2.190485 5.352711,-1.2087995 0.618373,0.3310781 1.931417,1.6395891 2.443628,2.4351922 1.519442,2.3601032 2.626669,5.7459112 3.205583,9.8023972 0.08556,0.599539 0.1815,1.12064 0.213196,1.158002 0.03169,0.03736 0.730154,-0.412827 1.55213,-1.000422 1.795507,-1.283529 3.300253,-2.195287 4.818477,-2.919618 5.326672,-2.54131 9.104951,-1.952723 10.124055,1.577144 0.232786,0.806302 0.141863,2.779572 -0.18226,3.955489 -0.704116,2.554539 -2.263289,5.505845 -4.484873,8.489264 -0.407519,0.547267 -0.710441,1.022826 -0.673158,1.056797 0.03728,0.03397 0.558319,0.130859 1.157857,0.215304 5.18962,0.730958 9.380406,2.397042 11.373213,4.521521 1.031192,1.099326 1.448793,2.1297 1.364077,3.365677 -0.229128,3.342899 -4.95797,6.124237 -12.391214,7.288078 -0.779388,0.122029 -1.434891,0.239697 -1.456676,0.261482 -0.06614,0.06614 0.124349,0.364944 1.092646,1.714009 2.009336,2.799475 3.405527,5.527262 4.025079,7.863941 0.279567,1.0544 0.393192,2.941431 0.22554,3.745642 -0.429026,2.057992 -2.146383,3.347441 -4.466465,3.353569 -1.516108,0.004 -3.701558,-0.611585 -5.787057,-1.630075 -2.030491,-0.991626 -3.629146,-2.004827 -5.868168,-3.719145 -0.593539,-0.454447 -1.109682,-0.826267 -1.146983,-0.826267 -0.0373,0 -0.116968,0.398557 -0.177038,0.885682 -0.853546,6.921724 -3.085143,11.939254 -5.923838,13.319181 -0.900532,0.43776 -1.035479,0.455361 -1.622062,0.211567 z m 1.148342,-0.917937 c 0.601447,-0.280049 1.61765,-1.242313 2.192716,-2.07633 1.629297,-2.362963 2.797614,-6.168379 3.339431,-10.877128 0.08336,-0.724443 0.128981,-1.480679 0.101383,-1.680525 -0.0276,-0.199846 -0.253007,-1.099154 -0.500909,-1.998462 -0.540365,-1.96027 -1.658265,-5.896825 -1.682174,-5.923583 -0.0094,-0.01047 -0.342276,0.08486 -0.739826,0.211846 -0.397549,0.126984 -1.022776,0.288841 -1.389392,0.359683 -0.823765,0.159175 -2.826117,0.162251 -3.718202,0.0057 l -0.660371,-0.11588 -0.397324,0.73265 c -0.218528,0.402957 -1.05353,2.046336 -1.855559,3.651953 l -1.458236,2.919303 0.127127,1.259299 c 0.595786,5.901807 2.177593,10.487324 4.351358,12.614197 0.492156,0.481539 1.4823,1.127928 1.734285,1.132181 0.04996,8.17e-4 0.300024,-0.09587 0.555693,-0.214915 z M 20.367045,61.276959 c 2.680505,-0.72914 5.686144,-2.375937 8.947577,-4.902401 l 0.692167,-0.536185 2.146968,-4.252321 2.146967,-4.25232 -0.708471,-0.358248 c -1.462887,-0.739728 -2.696734,-1.780842 -3.700982,-3.122871 -0.289745,-0.387202 -0.578531,-0.704004 -0.641747,-0.704004 -0.336942,0 -9.001513,2.891482 -9.20842,3.072972 -0.558238,0.489661 -2.499637,3.284672 -3.41636,4.918497 -1.177108,2.097891 -1.980688,4.28432 -2.158091,5.87185 -0.274464,2.456115 0.54666,3.962045 2.429434,4.455548 0.705072,0.184809 2.441559,0.08949 3.470958,-0.190517 z m 39.191397,0.04675 c 1.402372,-0.53309 2.184582,-2.025425 2.036025,-3.884413 -0.232364,-2.907693 -2.180027,-6.92854 -5.212031,-10.759964 l -0.548644,-0.693299 -4.178238,-2.100006 c -2.298031,-1.155002 -4.221717,-2.100004 -4.274858,-2.100004 -0.05314,0 -0.245388,0.296362 -0.427215,0.658584 -0.729344,1.45294 -2.012944,2.923635 -3.396096,3.891107 -0.491434,0.343742 -0.58641,0.451721 -0.566338,0.64387 0.03171,0.303609 2.163206,7.794809 2.308796,8.114344 0.180476,0.396103 2.890621,2.484664 4.622137,3.56203 2.262285,1.407616 4.69973,2.466251 6.443729,2.798654 0.976512,0.18612 2.525866,0.122597 3.192733,-0.130903 z M 39.081587,47.047792 c 2.638186,-0.294176 5.000897,-1.753676 6.55341,-4.048191 0.471367,-0.696649 0.847471,-1.520026 1.164962,-2.550362 0.228823,-0.742585 0.24582,-0.911364 0.24501,-2.433043 -9.9e-4,-1.865647 -0.118317,-2.462689 -0.748,-3.806399 -0.496903,-1.060363 -1.017516,-1.798459 -1.869425,-2.650369 -2.038389,-2.03839 -4.556993,-2.902878 -7.55043,-2.591619 -2.015957,0.20962 -3.870789,1.115893 -5.35822,2.618033 -1.930836,1.949931 -2.884927,4.673163 -2.586722,7.383201 0.455912,4.143252 3.664815,7.476561 7.774554,8.075966 0.774629,0.112979 1.380247,0.113688 2.374861,0.0028 z M 21.912089,44.233107 c 3.448851,-1.113793 6.703867,-2.198796 6.762159,-2.254046 0.03295,-0.03123 -0.0182,-0.302046 -0.113673,-0.601816 -0.528006,-1.657907 -0.686127,-3.699513 -0.401673,-5.186225 0.07426,-0.388116 0.12398,-0.716703 0.110491,-0.730192 -0.01349,-0.01349 -1.960566,-1.010333 -4.326837,-2.215207 l -4.302312,-2.190681 -1.144981,0.146964 c -5.078962,0.651912 -9.2568352,2.206674 -11.2292649,4.178881 -0.9858833,0.985772 -1.4161666,2.040884 -1.2400435,3.040751 0.1209359,0.686564 0.2758382,1.033083 0.7387167,1.652523 1.6161911,2.162841 6.3400697,4.058074 11.8119407,4.738983 1.12046,0.139427 1.093427,0.144127 3.335477,-0.579935 z m 37.178796,0.32348 c 3.50853,-0.609333 6.551038,-1.67227 8.456567,-2.954401 0.842836,-0.567101 1.821047,-1.58972 2.132875,-2.229703 0.229555,-0.471129 0.262705,-0.641501 0.264168,-1.357648 0.0015,-0.745512 -0.02536,-0.873866 -0.299874,-1.431989 -1.235378,-2.511659 -5.980703,-4.610671 -12.193543,-5.393603 l -1.140191,-0.143685 -4.479691,1.459571 c -2.463831,0.802764 -4.503407,1.483286 -4.532391,1.51227 -0.02898,0.02899 0.05611,0.388723 0.189101,0.799419 0.511605,1.57992 0.645045,3.245965 0.387213,4.834457 -0.104016,0.640829 -0.108849,0.840306 -0.02237,0.922925 0.06068,0.05797 1.986408,1.05484 4.279389,2.215266 l 4.169058,2.109866 0.736258,-0.057 c 0.404942,-0.03135 1.328983,-0.159935 2.053426,-0.28575 z M 29.030707,33.542366 c 0.836837,-1.535516 1.884884,-2.759511 3.149672,-3.678441 0.416716,-0.302764 0.740676,-0.595365 0.719912,-0.650225 -0.02077,-0.05486 -0.697897,-2.123186 -1.504739,-4.596283 -1.351819,-4.143535 -1.490047,-4.516032 -1.760741,-4.744847 -0.57548,-0.486444 -2.620213,-1.939796 -3.583811,-2.547295 -2.004417,-1.263682 -4.593311,-2.398954 -6.266422,-2.747928 -0.92571,-0.193082 -2.391683,-0.198809 -3.034786,-0.01185 -2.814986,0.818339 -3.105561,4.25669 -0.763706,9.03687 0.974107,1.988343 2.110202,3.770842 3.599716,5.647852 l 0.612731,0.772133 4.175468,2.112011 c 2.296506,1.161606 4.197418,2.112011 4.224249,2.112011 0.02683,0 0.221437,-0.316802 0.432457,-0.704004 z m 22.371474,-2.159761 4.554752,-1.501178 0.50376,-0.656253 c 2.639186,-3.438094 4.3282,-6.635038 4.953971,-9.376814 0.218141,-0.955771 0.226326,-2.453098 0.01714,-3.135649 -0.84877,-2.769465 -4.288304,-3.050545 -9.024595,-0.737493 -2.023849,0.988382 -5.148994,3.038344 -6.128617,4.020111 -0.313139,0.313825 -1.71675,2.944076 -3.625116,6.793171 l -0.918782,1.853144 0.661537,0.358424 c 1.638381,0.887679 2.979756,2.041987 3.797231,3.267673 0.223869,0.335658 0.462593,0.611582 0.530499,0.613164 0.06791,0.0016 2.173103,-0.672653 4.678218,-1.4983 z M 35.072783,28.434437 c 1.220419,-0.390935 2.646508,-0.524239 3.965884,-0.370711 0.561776,0.06537 1.144043,0.124028 1.293928,0.130347 0.270442,0.0114 0.28896,-0.02101 2.432208,-4.25795 l 2.159691,-4.269441 -0.05422,-0.635874 c -0.08818,-1.0342 -0.488519,-3.269084 -0.826806,-4.615614 C 42.998441,10.255516 41.359495,7.3790218 39.449965,6.3531817 38.916247,6.0664572 38.823109,6.0465376 38.016196,6.0465376 c -0.810805,0 -0.898635,0.019046 -1.452924,0.315071 -2.56374,1.3691968 -4.58825,6.0185884 -5.392343,12.3837964 l -0.124602,0.986347 1.450675,4.418585 c 0.79787,2.430221 1.469195,4.449242 1.491833,4.486714 0.06506,0.1077 0.185472,0.08519 1.083948,-0.202614 z"
   id="path11177" /><path
   style="fill:#000000;fill-opacity:1;stroke-width:0.0908392"
   d="M 37.378127,70.735741 C 36.058655,70.18992 34.788555,68.858242 33.75271,66.934556 32.552359,64.705362 31.568904,61.19038 31.110489,57.49095 c -0.05951,-0.480272 -0.140331,-0.925202 -0.179596,-0.988734 -0.07602,-0.123009 -0.280475,0.0099 -2.58907,1.683302 -3.92237,2.843132 -7.933919,4.460604 -10.62125,4.282531 -1.341261,-0.08888 -2.31078,-0.503788 -3.067452,-1.312732 -1.202559,-1.285633 -1.457484,-3.276041 -0.753049,-5.879678 0.639733,-2.364493 1.83306,-4.657076 4.163715,-7.999195 0.542312,-0.777666 0.970922,-1.429037 0.952468,-1.447491 C 18.9978,45.810498 18.431458,45.707469 17.757716,45.599999 14.298677,45.048241 11.47841,44.235453 9.3963255,43.190284 7.6221489,42.299681 6.1397941,40.971245 5.5193595,39.71588 5.1841401,39.03761 5.1778331,39.005471 5.1778331,37.975487 c 0,-1.037205 0.00399,-1.057045 0.3441221,-1.712578 0.4214188,-0.81219 1.4395949,-1.904835 2.3822577,-2.556498 0.9482386,-0.655517 2.8656171,-1.559136 4.3278971,-2.039645 1.395615,-0.458602 3.496486,-0.942784 5.39069,-1.242379 0.699462,-0.11063 1.308056,-0.2336 1.352432,-0.273269 0.04492,-0.04015 -0.0592,-0.26587 -0.234906,-0.509223 C 18.566751,29.40149 18.156987,28.8343 17.829739,28.381471 15.825107,25.607566 14.18025,22.261295 13.7246,20.030039 c -0.480474,-2.352813 -0.122136,-4.156159 1.056374,-5.316225 0.831388,-0.818379 1.870832,-1.178777 3.399773,-1.178777 2.780543,0 6.29524,1.510673 10.525408,4.523988 0.715248,0.509499 1.341623,0.926363 1.391944,0.926363 0.10585,0 0.128851,-0.101484 0.375784,-1.658053 0.620693,-3.912589 1.674202,-7.058324 3.078872,-9.1933914 0.558785,-0.8493425 1.56569,-1.9035993 2.231329,-2.3362621 2.559864,-1.6639035 5.390273,-0.3085638 7.363372,3.5259457 1.097443,2.1327678 1.935412,4.9839688 2.43692,8.2916618 0.109214,0.720311 0.242938,1.32442 0.297167,1.342464 0.05423,0.01804 0.626516,-0.344674 1.271749,-0.80604 4.2749,-3.056715 7.90025,-4.616676 10.729157,-4.616676 1.803607,0 3.124717,0.637533 3.920369,1.891867 0.852861,1.344524 0.88073,3.684641 0.07213,6.056561 -0.81536,2.39174 -2.075407,4.691713 -4.056461,7.404287 -0.413224,0.565809 -0.755853,1.090743 -0.761398,1.166519 -0.008,0.109486 0.344286,0.196737 1.715862,0.424952 3.107816,0.517105 5.345213,1.163379 7.369798,2.12877 1.400071,0.667602 2.205139,1.189576 3.019233,1.957551 1.272218,1.200146 1.80499,2.352416 1.712384,3.703512 -0.188147,2.745003 -3.413757,5.142077 -8.831205,6.562803 -1.070155,0.280648 -2.601687,0.582396 -4.38299,0.863552 -0.362221,0.05717 -0.658584,0.136717 -0.658584,0.176767 0,0.04005 0.417384,0.65974 0.927521,1.37709 1.325921,1.864497 2.188731,3.28556 2.942898,4.847 1.132689,2.345137 1.579931,4.002422 1.579931,5.854539 0,1.490148 -0.365401,2.484246 -1.21888,3.316039 -2.560605,2.495543 -8.075118,1.070615 -14.481664,-3.742006 -0.83228,-0.625211 -1.557116,-1.153587 -1.610746,-1.174166 -0.06098,-0.0234 -0.140292,0.295663 -0.211723,0.851781 -0.897674,6.988663 -3.031121,11.824281 -5.868593,13.301608 -0.86884,0.45236 -1.078816,0.481278 -1.682201,0.231678 z m 1.364782,-1.03884 c 2.353088,-1.363331 4.313112,-5.750994 5.12334,-11.468988 0.385674,-2.721808 0.386937,-2.810276 0.0578,-4.049471 -0.473605,-1.78312 -1.815304,-6.518273 -1.907948,-6.733569 l -0.08618,-0.200277 -0.652404,0.221896 c -0.358822,0.122044 -0.978221,0.283704 -1.376443,0.359246 -0.892769,0.169355 -2.968577,0.17586 -3.815378,0.01196 L 35.472365,47.718984 34.8465,48.908397 c -0.344226,0.654177 -1.180508,2.299769 -1.858405,3.656869 l -1.232537,2.467456 0.133886,1.30237 c 0.52175,5.075273 1.846312,9.360372 3.619865,11.710645 0.634298,0.840557 1.159426,1.318843 1.900526,1.730992 0.531808,0.295756 0.702466,0.285537 1.333072,-0.07982 z M 20.189827,61.31932 c 2.396457,-0.58198 5.396511,-2.159764 8.445258,-4.441521 l 1.345436,-1.006957 2.159613,-4.265483 2.159614,-4.265485 -0.81713,-0.42203 c -1.437016,-0.74219 -2.694443,-1.82203 -3.647495,-3.132358 -0.254774,-0.350282 -0.514449,-0.636877 -0.577056,-0.636877 -0.140662,0 -7.027834,2.228996 -8.308996,2.689162 l -0.932491,0.334932 -0.939932,1.257527 c -2.239714,2.996494 -3.7016,5.777537 -4.384504,8.340928 -0.190084,0.713514 -0.231423,1.076204 -0.233423,2.047978 -0.0029,1.427129 0.173437,1.998094 0.836039,2.70647 0.771616,0.82492 1.575855,1.085312 3.145593,1.018463 0.549577,-0.0234 1.33684,-0.124541 1.749474,-0.224749 z m 39.264414,0.04526 c 0.937438,-0.331841 1.662474,-1.115093 1.978566,-2.137432 0.234334,-0.757912 0.19111,-2.261442 -0.09663,-3.36105 C 60.5938,53.029021 58.74033,49.613312 56.299631,46.584376 L 55.810856,45.977799 51.645402,43.88191 c -2.290998,-1.152739 -4.204974,-2.095888 -4.253279,-2.095888 -0.0483,0 -0.242544,0.296362 -0.431642,0.658584 -0.784213,1.502173 -1.823172,2.709888 -3.234715,3.760123 -0.655398,0.487637 -0.777723,0.61765 -0.738871,0.785305 0.224723,0.969731 2.211251,7.890285 2.330321,8.118238 0.11091,0.212333 0.966155,0.94956 2.124514,1.831342 2.868056,2.183265 6.60994,4.074741 8.938889,4.518498 0.838051,0.159682 2.501277,0.109066 3.073622,-0.09354 z M 38.970007,47.051767 c 1.16127,-0.13107 2.043789,-0.389703 3.088532,-0.905132 2.356719,-1.162698 4.015342,-3.196023 4.78827,-5.869995 0.179819,-0.622088 0.206728,-0.919062 0.204816,-2.260444 -0.0019,-1.319992 -0.03243,-1.656404 -0.210353,-2.316399 -0.993051,-3.683667 -4.142931,-6.386175 -7.846363,-6.731961 -3.028579,-0.282775 -5.535086,0.626997 -7.567013,2.746552 -1.472679,1.536188 -2.280932,3.282868 -2.495585,5.393093 -0.531245,5.222609 3.532149,9.844645 8.811367,10.022769 0.224827,0.0076 0.776675,-0.02773 1.226329,-0.07848 z M 24.089498,43.516285 c 4.905135,-1.596816 4.667459,-1.511477 4.621056,-1.659226 -0.337091,-1.073292 -0.427251,-1.41275 -0.546296,-2.056825 -0.17154,-0.928086 -0.175614,-2.715804 -0.0083,-3.646241 0.06738,-0.374712 0.116324,-0.687024 0.10877,-0.694026 -0.0076,-0.007 -1.95441,-1.002942 -4.326347,-2.213198 l -4.312614,-2.200465 -1.637352,0.236811 c -3.510562,0.507736 -6.020883,1.240397 -8.3178597,2.427647 -1.8098004,0.935441 -3.1275936,2.177038 -3.5091038,3.306203 -0.8340519,2.468563 1.5898583,4.906335 6.4497345,6.486619 1.456929,0.473749 2.68561,0.766984 4.60285,1.098509 2.435137,0.421079 2.06894,0.47891 6.875474,-1.085808 z m 34.982956,1.037276 c 3.394083,-0.574972 6.386429,-1.610754 8.380974,-2.901019 0.873209,-0.564875 1.879265,-1.598503 2.216746,-2.277495 0.236962,-0.476751 0.269457,-0.63898 0.272518,-1.360455 0.0032,-0.743179 -0.02373,-0.874448 -0.289857,-1.415303 -1.229374,-2.498499 -6.011957,-4.62387 -12.153478,-5.400983 l -1.182751,-0.149659 -1.451585,0.47064 c -3.255703,1.05558 -7.540371,2.475892 -7.578363,2.51213 -0.0223,0.02128 0.06826,0.374705 0.201248,0.785401 0.511605,1.57992 0.645045,3.245965 0.387213,4.834457 -0.103998,0.640724 -0.108835,0.840085 -0.02237,0.921837 0.06068,0.05737 1.986245,1.054063 4.279029,2.214869 l 4.168697,2.110558 0.724402,-0.06041 c 0.398422,-0.03323 1.319829,-0.161281 2.047572,-0.284565 z M 29.058522,33.487841 c 0.812379,-1.490329 1.853867,-2.699831 3.115849,-3.618502 0.409208,-0.297886 0.72895,-0.58971 0.710538,-0.648497 -0.719895,-2.298434 -2.977946,-9.051566 -3.062525,-9.159061 -0.17291,-0.219758 -1.96039,-1.540739 -3.136435,-2.317883 -2.055954,-1.358598 -4.508768,-2.535453 -6.349852,-3.046645 -0.588127,-0.163299 -0.964411,-0.199359 -2.122842,-0.203443 -1.353479,-0.0048 -1.427356,0.0046 -1.907623,0.241749 -0.722325,0.356684 -1.110358,0.713064 -1.430606,1.31391 -0.719915,1.3507 -0.578685,3.506639 0.389895,5.951866 0.825713,2.084557 2.549661,4.991869 4.236147,7.143954 l 0.665229,0.848884 4.193109,2.126099 c 2.306209,1.169353 4.213928,2.126098 4.239375,2.126098 0.02545,0 0.23233,-0.341338 0.459741,-0.758529 z m 20.561775,-1.518315 c 1.53665,-0.502842 3.591022,-1.177563 4.565272,-1.499382 l 1.771364,-0.585124 0.987575,-1.322021 c 3.197808,-4.280758 4.956765,-8.511184 4.615143,-11.099773 -0.123527,-0.936011 -0.341696,-1.43666 -0.874081,-2.005823 -0.63508,-0.678953 -1.31388,-0.950826 -2.491259,-0.997802 -0.518096,-0.02067 -1.253893,0.01243 -1.635105,0.07355 -1.910108,0.306276 -4.726027,1.563109 -7.285767,3.251869 -1.503375,0.991834 -2.920627,2.071153 -3.172557,2.416084 -0.283119,0.387634 -0.618082,1.020772 -2.474667,4.677553 l -1.908255,3.75855 0.624485,0.332349 c 1.753647,0.933286 2.982293,2.003172 4.006373,3.488686 0.161346,0.234045 0.334804,0.425537 0.385463,0.425537 0.05066,0 1.349367,-0.411415 2.886016,-0.914256 z m -14.56577,-3.528302 c 1.464363,-0.467416 3.321374,-0.574636 4.86903,-0.281129 0.402529,0.07634 0.51109,0.0678 0.641813,-0.05051 0.08653,-0.07831 1.105428,-2.022854 2.264209,-4.321204 l 2.106875,-4.178818 -0.05986,-0.561896 C 44.768594,18.033822 44.373384,15.7896 44.10647,14.674478 43.322321,11.398416 42.184821,8.940865 40.754849,7.4333494 39.710732,6.3326137 39.149666,6.0531925 37.983551,6.0531925 c -0.775363,0 -0.874683,0.021812 -1.418039,0.3114169 -2.435335,1.2980206 -4.360555,5.4848306 -5.263624,11.4469026 -0.102749,0.67835 -0.193219,1.414147 -0.201044,1.635106 -0.01059,0.299165 0.339693,1.480097 1.371889,4.625094 1.616407,4.925024 1.51268,4.633468 1.648444,4.633468 0.05852,0 0.478529,-0.11878 0.93335,-0.263956 z"
   id="path11216" /><path
   style="fill:#000000;fill-opacity:1;stroke-width:0.0908392"
   d="m 37.378127,70.734622 c -1.395733,-0.574256 -2.748296,-2.034537 -3.777585,-4.07843 -1.049325,-2.083682 -1.884965,-5.01064 -2.354386,-8.246601 -0.31754,-2.188964 -0.268684,-2.027933 -0.567274,-1.869772 -0.136267,0.07218 -0.910128,0.614462 -1.71969,1.205071 -1.939333,1.414822 -3.036637,2.097267 -4.800422,2.985527 -4.227208,2.128865 -7.499189,2.33029 -9.354246,0.575855 -1.101734,-1.041975 -1.517111,-2.691478 -1.188114,-4.718122 0.45252,-2.787553 1.863716,-5.690321 4.717737,-9.704182 0.333202,-0.468611 0.605821,-0.904352 0.605821,-0.968314 0,-0.0739 -0.240086,-0.155567 -0.658584,-0.224024 C 13.535506,44.915304 10.652477,44.016271 8.3332642,42.589446 7.2444183,41.919567 6.0134055,40.685503 5.5383049,39.78756 L 5.1778331,39.106266 v -1.09007 c 0,-1.062578 0.00795,-1.10591 0.3150192,-1.718107 0.3897512,-0.777027 1.4664314,-1.938449 2.3869069,-2.574773 2.2083388,-1.526623 5.6581608,-2.685734 9.9333688,-3.337527 0.554334,-0.08451 1.060566,-0.186222 1.12496,-0.226019 0.08537,-0.05276 -0.15492,-0.450248 -0.887115,-1.467479 -1.272477,-1.76784 -2.049315,-3.043475 -2.879744,-4.728794 -1.052728,-2.136464 -1.680894,-4.319986 -1.680389,-5.841081 6.17e-4,-1.860644 0.886683,-3.453691 2.291866,-4.120518 0.828927,-0.393366 1.525704,-0.501901 2.822439,-0.439643 2.747693,0.13192 5.993254,1.57461 10.090314,4.485265 0.726083,0.515827 1.359297,0.937868 1.407142,0.937868 0.101108,0 0.125599,-0.109366 0.371282,-1.658053 0.777993,-4.904141 2.161374,-8.4190003 4.135103,-10.5063722 2.174886,-2.3001109 4.582041,-2.3129951 6.780015,-0.03629 1.936281,2.0056398 3.396367,5.7298952 4.164892,10.6234382 0.222765,1.418441 0.257971,1.577277 0.3496,1.577277 0.03942,0 0.682462,-0.433008 1.428987,-0.962239 4.0991,-2.905962 7.365488,-4.339477 10.168719,-4.462731 1.299377,-0.05713 1.890529,0.04635 2.765525,0.484088 1.020889,0.51073 1.74257,1.424068 2.056238,2.602312 0.16926,0.6358 0.163645,2.317401 -0.01081,3.237045 -0.212827,1.121937 -0.797156,2.723584 -1.544667,4.233939 -0.776131,1.56818 -1.513666,2.770185 -2.84855,4.642451 -0.64584,0.905835 -0.910424,1.346494 -0.836064,1.392451 0.05983,0.03698 0.812037,0.179721 1.671564,0.317205 4.708684,0.753169 8.402177,2.208805 10.422956,4.107771 1.255648,1.179958 1.78951,2.341255 1.696971,3.691376 -0.217277,3.170007 -4.555181,5.897668 -11.285353,7.096195 -0.698642,0.124416 -1.566621,0.272988 -1.928842,0.33016 -0.362221,0.05717 -0.658584,0.135514 -0.658584,0.174093 0,0.03858 0.473499,0.740026 1.052221,1.558769 1.333936,1.887179 2.069958,3.109194 2.853435,4.737543 1.097867,2.281763 1.544694,3.941486 1.544694,5.737707 0,1.534902 -0.34841,2.501723 -1.212807,3.365485 -1.807545,1.806215 -5.122024,1.601998 -9.460796,-0.582912 -1.914574,-0.964138 -2.961479,-1.621673 -5.02003,-3.152954 -0.886176,-0.659196 -1.637852,-1.1711 -1.67039,-1.137565 -0.03254,0.03354 -0.127407,0.571942 -0.21082,1.196461 -0.341726,2.558518 -0.820532,4.686159 -1.502522,6.67668 -1.095323,3.196911 -2.656206,5.412293 -4.437791,6.298616 -0.417967,0.207934 -0.826744,0.377093 -0.908392,0.375907 -0.08165,-0.0012 -0.374263,-0.09506 -0.650259,-0.208619 z m 1.441776,-1.092261 c 0.593206,-0.350045 1.532989,-1.327403 2.055558,-2.137742 1.425366,-2.210291 2.470921,-5.515354 3.049627,-9.640063 0.347288,-2.475282 0.335853,-2.58428 -0.628949,-5.995386 -1.257403,-4.445611 -1.28847,-4.541959 -1.464527,-4.541959 -0.08437,0 -0.390274,0.0815 -0.679779,0.181098 -1.078255,0.370975 -1.985275,0.478589 -3.544414,0.42053 -0.799384,-0.02977 -1.617866,-0.07853 -1.818849,-0.108349 l -0.365421,-0.05423 -1.83487,3.622995 -1.83487,3.622995 0.134962,1.312602 c 0.724045,7.041883 2.928498,12.28079 5.693658,13.531047 0.446069,0.201689 0.570615,0.180204 1.237874,-0.213541 z M 20.353631,61.271868 c 2.36472,-0.59986 5.341932,-2.196601 8.487808,-4.552188 l 1.135489,-0.850239 2.161383,-4.264797 2.161383,-4.264797 -0.817103,-0.422017 c -1.43,-0.738566 -2.724763,-1.848971 -3.68553,-3.160759 -0.397114,-0.5422 -0.480353,-0.611132 -0.681294,-0.564184 -0.394994,0.09229 -6.434353,2.046249 -7.795253,2.522062 l -1.298443,0.453974 -0.893702,1.192309 c -2.794805,3.728615 -4.431689,7.193244 -4.68547,9.91727 -0.07854,0.842998 0.08359,1.969805 0.367182,2.551951 0.408876,0.839328 1.304071,1.489657 2.301352,1.671854 0.676231,0.123544 2.302381,0.008 3.242198,-0.230439 z m 39.13957,0.06519 c 0.956189,-0.375595 1.637386,-1.117333 1.936064,-2.108131 0.194627,-0.645632 0.186836,-2.071566 -0.01653,-3.026533 C 60.852919,53.573681 58.94013,49.936885 56.47114,46.806913 L 55.833237,45.998237 51.659788,43.89213 c -2.295396,-1.15836 -4.209252,-2.105835 -4.253012,-2.105501 -0.04376,3.64e-4 -0.239265,0.296697 -0.434456,0.658584 -0.834357,1.546919 -2.056017,2.941083 -3.401843,3.8822 -0.574211,0.401538 -0.577087,0.40574 -0.526859,0.769899 0.02778,0.201387 0.538864,2.07698 1.135746,4.167985 1.248572,4.374012 1.00825,3.916541 2.784491,5.300498 3.178688,2.476672 7.246705,4.566366 9.583533,4.92295 0.830898,0.126789 2.44898,0.04347 2.945813,-0.151687 z M 38.924587,47.051941 c 2.625131,-0.275123 4.979631,-1.638729 6.494077,-3.761035 0.542507,-0.760255 1.18393,-2.127213 1.415667,-3.016977 0.235201,-0.903066 0.317511,-2.469881 0.185825,-3.537348 -0.449821,-3.64635 -3.412512,-6.862205 -7.037864,-7.639256 -1.019666,-0.218554 -3.167753,-0.191201 -4.191656,0.05337 -3.140399,0.750133 -5.812648,3.416744 -6.633039,6.619041 -0.214225,0.836201 -0.305816,2.150621 -0.216319,3.10437 0.344176,3.667779 2.848435,6.724659 6.435895,7.856121 1.193566,0.376443 2.175496,0.465492 3.547414,0.321709 z m -18.382385,-2.40938 c 2.208859,-0.636567 8.04107,-2.606561 8.089364,-2.73241 0.02901,-0.0756 -0.05419,-0.492134 -0.184882,-0.925634 -0.130694,-0.4335 -0.27898,-1.053886 -0.329526,-1.378636 -0.128148,-0.823351 -0.10959,-2.638497 0.03529,-3.451888 0.06674,-0.374712 0.116219,-0.686702 0.109944,-0.693311 -0.0063,-0.0066 -1.951448,-1.000589 -4.322605,-2.208845 L 19.628593,31.055009 18.852795,31.1551 c -6.565299,0.847038 -11.2177016,2.898076 -12.5114154,5.515728 -0.3118173,0.630919 -0.3218324,0.682446 -0.2825974,1.45393 0.050358,0.990207 0.3038265,1.536893 1.0941926,2.359978 1.7844794,1.85835 5.3900012,3.336973 10.0156292,4.107409 2.067041,0.344282 2.339755,0.348357 3.373598,0.05042 z m 38.53913,-0.09269 c 2.703508,-0.463387 4.961411,-1.14668 6.877888,-2.081408 1.934245,-0.943394 3.178353,-2.013351 3.751001,-3.225933 0.196539,-0.416174 0.235864,-0.628572 0.235458,-1.271749 -4.55e-4,-0.665969 -0.03644,-0.845486 -0.261957,-1.305634 -1.035425,-2.112678 -4.550792,-3.987568 -9.366508,-4.995543 -1.488406,-0.311537 -3.829099,-0.629571 -4.120943,-0.55992 -0.295221,0.07046 -8.857229,2.871495 -8.899521,2.911454 -0.01675,0.01583 0.07332,0.369346 0.200166,0.785593 0.504671,1.656099 0.629268,3.236929 0.381837,4.844575 -0.119958,0.779415 -0.117691,0.823908 0.04861,0.953811 0.09594,0.07494 2.019694,1.071575 4.275003,2.214741 l 4.100561,2.078481 0.72584,-0.06053 c 0.399212,-0.03329 1.322865,-0.162864 2.052561,-0.287936 z M 29.062953,33.479713 c 0.82052,-1.505266 1.988379,-2.840244 3.262956,-3.729882 0.479359,-0.334587 0.517194,-0.386228 0.477841,-0.652211 -0.0793,-0.535959 -2.874148,-8.920253 -3.023195,-9.069299 -0.265871,-0.265871 -1.87626,-1.458515 -2.848479,-2.109566 -2.588523,-1.733413 -5.254929,-2.96594 -7.236716,-3.345118 -0.907776,-0.173686 -2.317949,-0.167845 -2.941754,0.01219 -0.997896,0.287993 -1.699565,0.940822 -2.104521,1.958031 -0.164948,0.414331 -0.193728,0.667773 -0.189568,1.669401 0.0041,0.979856 0.04558,1.331631 0.243815,2.066185 0.713378,2.643389 2.45669,5.862616 4.80077,8.865177 l 0.662195,0.848214 4.202714,2.126769 c 2.311493,1.169724 4.219212,2.12677 4.239375,2.12677 0.02016,0 0.224719,-0.344996 0.454567,-0.766657 z m 22.308358,-2.088156 c 2.511694,-0.820724 4.591409,-1.527846 4.621588,-1.571382 0.03018,-0.04354 0.364636,-0.485952 0.743234,-0.983143 3.868327,-5.080052 5.637842,-9.95832 4.540676,-12.517907 -0.268613,-0.626648 -0.90937,-1.262695 -1.574185,-1.562613 -0.747019,-0.337004 -2.183268,-0.415152 -3.346326,-0.18208 -2.3828,0.477505 -5.251761,1.877039 -8.331022,4.064034 -1.356967,0.963763 -1.870595,1.448774 -2.278059,2.151135 -0.605414,1.043575 -3.915776,7.606366 -3.915776,7.763023 0,0.08947 0.19149,0.245352 0.476906,0.388227 1.450691,0.726193 2.941767,1.989448 3.876661,3.284347 0.261518,0.362221 0.507909,0.658584 0.547536,0.658584 0.03963,0 2.127073,-0.671501 4.638767,-1.492225 z M 35.054527,28.441224 c 1.465859,-0.467893 3.321291,-0.574651 4.872965,-0.280382 0.423952,0.0804 0.509119,0.07148 0.645305,-0.06758 0.08629,-0.08812 1.105145,-2.034586 2.26412,-4.32549 l 2.107228,-4.165279 -0.157467,-1.191591 C 44.095491,13.180513 42.526929,9.0849689 40.472753,7.1471637 40.136991,6.8304227 39.643271,6.4621356 39.375596,6.3287479 38.949373,6.1163518 38.780091,6.0862249 38.012869,6.0862249 c -0.800483,0 -0.925327,0.024625 -1.447365,0.2854908 -1.868317,0.9336091 -3.600627,4.0010493 -4.635652,8.2084543 -0.333914,1.35737 -0.707009,3.518152 -0.781534,4.526256 l -0.05485,0.741934 1.427112,4.360281 c 0.78491,2.398154 1.445628,4.390938 1.468261,4.42841 0.06484,0.107342 0.185153,0.08523 1.065684,-0.195827 z"
   id="path11255" /><path
   style="fill:#ffff00;fill-opacity:1;stroke-width:0.0908392"
   d="m 36.412119,46.9203 c -3.47623,-0.630796 -6.331364,-3.32329 -7.205035,-6.794603 -1.197668,-4.758634 1.851025,-9.744139 6.687705,-10.936357 0.452666,-0.11158 1.031589,-0.154502 2.121407,-0.157281 1.291129,-0.0033 1.605852,0.0253 2.270979,0.206305 3.01986,0.821822 5.496221,3.228464 6.414939,6.234335 0.233135,0.762775 0.250171,0.93015 0.254252,2.498077 0.0051,1.958793 -0.06979,2.328526 -0.770186,3.802694 -0.541918,1.140609 -1.061189,1.884774 -1.877126,2.690108 -2.036152,2.009691 -5.102852,2.963736 -7.896935,2.456722 z"
   id="path18699" /><path
   style="fill:#ffff00;fill-opacity:1;stroke-width:0.105495"
   d="m 36.71221,46.982033 c -1.198369,-0.191132 -2.803861,-0.83227 -3.816098,-1.523922 -0.744581,-0.508765 -1.681083,-1.427178 -2.2117,-2.168981 -1.819228,-2.54328 -2.213663,-5.822748 -1.047555,-8.709741 0.986023,-2.441146 3.400067,-4.605785 5.914909,-5.303814 0.980081,-0.272035 3.195062,-0.330456 4.281129,-0.112916 3.139852,0.628913 5.712535,2.942711 6.810723,6.12537 0.27395,0.793937 0.291416,0.953383 0.294686,2.690119 0.0033,1.754712 -0.01114,1.887964 -0.291618,2.690119 -1.082032,3.094584 -3.37819,5.288153 -6.360505,6.076327 -0.817163,0.215962 -2.858381,0.351572 -3.573971,0.237439 z"
   id="path18738" /><path
   style="fill:#338000;fill-opacity:1;stroke-width:0.105495"
   d="M 2.0571497,37.978148 V 2.0044022 H 37.978148 73.899146 V 37.978148 73.951893 H 37.978148 2.0571497 Z M 38.964619,70.67276 c 1.361104,-0.680152 2.519136,-2.035867 3.551917,-4.158254 1.161715,-2.387345 1.842498,-4.826917 2.367993,-8.485656 0.120309,-0.837647 0.232621,-1.536872 0.249582,-1.553832 0.01696,-0.01696 0.478869,0.309384 1.026464,0.725213 4.89047,3.71369 8.90057,5.484544 12.072585,5.331234 2.793706,-0.135027 4.316578,-1.782952 4.313338,-4.667537 -0.0033,-2.946695 -1.447447,-6.255471 -4.82962,-11.065533 -0.321965,-0.457892 -0.563262,-0.868338 -0.536213,-0.912104 0.02705,-0.04377 0.464816,-0.136749 0.972817,-0.206631 1.373449,-0.188933 3.753288,-0.694434 4.967453,-1.055136 3.778455,-1.122493 6.453442,-2.857419 7.414816,-4.809054 0.463898,-0.941737 0.550751,-2.179283 0.219158,-3.122727 -1.023022,-2.91068 -5.309576,-5.186372 -11.783285,-6.255637 -0.928355,-0.153337 -1.723554,-0.313831 -1.76711,-0.356652 -0.04356,-0.04282 0.377282,-0.716335 0.935193,-1.496694 4.497823,-6.291167 5.666875,-11.561555 3.097608,-13.964805 -2.507931,-2.345875 -7.403268,-1.220065 -13.665395,3.142715 -0.903105,0.629186 -1.659266,1.126719 -1.680358,1.105626 -0.02109,-0.02109 -0.137709,-0.655069 -0.259148,-1.40884 -0.932411,-5.787438 -2.657188,-9.7414032 -5.016895,-11.50098 -2.360391,-1.7600877 -5.078596,-0.9830526 -7.07322,2.0219741 -1.395063,2.1017519 -2.538495,5.4915299 -3.116543,9.2391939 -0.127817,0.828682 -0.269835,1.548715 -0.315595,1.600075 -0.04576,0.05136 -0.715289,-0.359472 -1.487843,-0.912961 -4.094089,-2.933169 -7.593157,-4.425745 -10.424456,-4.446694 -2.948989,-0.02182 -4.582804,1.472343 -4.720283,4.316819 -0.139489,2.886042 1.357896,6.561732 4.405036,10.813223 0.874799,1.220552 1.072289,1.580428 0.869095,1.583695 -0.04352,7.38e-4 -0.791211,0.119499 -1.661543,0.264 -6.643369,1.102986 -10.9829678,3.44273 -11.8833502,6.407043 -1.1876086,3.909943 3.6223686,7.410354 11.9991692,8.732271 0.806632,0.127292 1.511494,0.273577 1.566359,0.325077 0.06134,0.05758 -0.0387,0.286777 -0.259806,0.595201 -3.4555,4.820188 -5.064745,8.446276 -5.060693,11.403189 0.004,2.951672 1.72934,4.658867 4.708264,4.658867 0.926799,0 2.555267,-0.310106 3.649229,-0.694917 2.103714,-0.739998 4.978362,-2.399501 8.035916,-4.639047 0.516816,-0.378549 0.973499,-0.650635 1.014851,-0.604636 0.04135,0.046 0.178951,0.825935 0.305776,1.73319 0.712037,5.09367 2.31956,9.204188 4.396644,11.242441 0.666184,0.65373 0.987459,0.871963 1.782653,1.210905 0.603126,0.257076 0.883947,0.233904 1.61944,-0.133625 z"
   id="path22986" /><path
   style="fill:#d38d5f;fill-opacity:1;stroke-width:0.105495"
   d="M 0.05274743,37.978148 V 0 H 37.978148 75.903548 V 37.978148 75.956296 H 37.978148 0.05274743 Z m 73.95189357,0 V 1.8989074 H 37.978148 1.9516548 V 37.978148 74.057388 H 37.978148 74.004641 Z"
   id="path27703" /></svg>
