<?xml version="1.0" encoding="UTF-8" standalone="no"?>
<svg
   version="1.1"
   id="レイヤー_1"
   x="0px"
   y="0px"
   width="76px"
   height="76px"
   viewBox="0 0 76 76"
   enable-background="new 0 0 76 76"
   xml:space="preserve"
   sodipodi:docname="no_flag.svg"
   inkscape:version="1.1.1 (3bf5ae0d25, 2021-09-20)"
   xmlns:inkscape="http://www.inkscape.org/namespaces/inkscape"
   xmlns:sodipodi="http://sodipodi.sourceforge.net/DTD/sodipodi-0.dtd"
   xmlns="http://www.w3.org/2000/svg"
   xmlns:svg="http://www.w3.org/2000/svg"
   xmlns:rdf="http://www.w3.org/1999/02/22-rdf-syntax-ns#"
   xmlns:cc="http://creativecommons.org/ns#"
   xmlns:dc="http://purl.org/dc/elements/1.1/"><metadata
   id="metadata1177"><rdf:RDF><cc:Work
       rdf:about=""><dc:format>image/svg+xml</dc:format><dc:type
         rdf:resource="http://purl.org/dc/dcmitype/StillImage" /><dc:title /></cc:Work></rdf:RDF></metadata><defs
   id="defs1175" /><sodipodi:namedview
   pagecolor="#ffffff"
   bordercolor="#666666"
   borderopacity="1"
   objecttolerance="10"
   gridtolerance="10"
   guidetolerance="10"
   inkscape:pageopacity="0"
   inkscape:pageshadow="2"
   inkscape:window-width="1920"
   inkscape:window-height="1001"
   id="namedview1173"
   showgrid="false"
   inkscape:pagecheckerboard="true"
   inkscape:zoom="4.1899433"
   inkscape:cx="40.454008"
   inkscape:cy="38.306008"
   inkscape:window-x="-9"
   inkscape:window-y="-9"
   inkscape:window-maximized="1"
   inkscape:current-layer="g1170" />
<g
   id="g1170">
	<g
   id="g1158">
		<path
   id="rect1313_65_"
   fill="#FDFCFD"
   d="M0.009,0h75.982C75.996,0,76,0.004,76,0.009V75.99c0,0.006-0.004,0.01-0.009,0.01H0.009    C0.004,76,0,75.996,0,75.99V0.009C0,0.004,0.004,0,0.009,0z"
   style="fill:#deaa87" />
		<path
   id="path1341_65_"
   fill="#757575"
   d="M75.99,0C75.995,0,76,0.005,76,0.01v75.981C76,75.996,75.995,76,75.99,76H0.009    C0.004,76,0,75.996,0,75.991L75.99,0z"
   style="fill:#502d16" />
		<polygon
   id="rect1311_65_"
   fill="#B9B9B9"
   points="8.508,8.5 67.492,8.5 67.5,8.508 67.5,67.491 67.492,67.5 8.508,67.5     8.5,67.491 8.5,8.508   "
   style="fill:#a05a2c" />
	</g>
	
</g>
</svg>
