<?xml version="1.0" encoding="UTF-8" standalone="no"?>
<svg
   version="1.1"
   id="レイヤー_1"
   x="0px"
   y="0px"
   width="76px"
   height="76px"
   viewBox="0 0 76 76"
   enable-background="new 0 0 76 76"
   xml:space="preserve"
   sodipodi:docname="question_flag.svg"
   inkscape:version="1.1.2 (0a00cf5339, 2022-02-04)"
   xmlns:inkscape="http://www.inkscape.org/namespaces/inkscape"
   xmlns:sodipodi="http://sodipodi.sourceforge.net/DTD/sodipodi-0.dtd"
   xmlns="http://www.w3.org/2000/svg"
   xmlns:svg="http://www.w3.org/2000/svg"
   xmlns:rdf="http://www.w3.org/1999/02/22-rdf-syntax-ns#"
   xmlns:cc="http://creativecommons.org/ns#"
   xmlns:dc="http://purl.org/dc/elements/1.1/"><metadata
   id="metadata1177"><rdf:RDF><cc:Work
       rdf:about=""><dc:format>image/svg+xml</dc:format><dc:type
         rdf:resource="http://purl.org/dc/dcmitype/StillImage" /></cc:Work></rdf:RDF></metadata><defs
   id="defs1175"><inkscape:path-effect
     effect="fillet_chamfer"
     id="path-effect5635"
     satellites_param="F,0,0,1,0,0,0,1 @ F,0,0,1,0,0,0,1 @ F,0,0,1,0,0,0,1 @ F,0,0,1,0,3.8863777,0,1 @ F,0,0,1,0,0,0,1 @ F,0,0,1,0,0,0,1"
     is_visible="true"
     lpeversion="1"
     unit="px"
     method="auto"
     mode="F"
     radius="20"
     chamfer_steps="1"
     flexible="false"
     use_knot_distance="true"
     apply_no_radius="true"
     apply_with_radius="true"
     only_selected="true"
     hide_knots="false" /><inkscape:path-effect
     effect="spiro"
     id="path-effect29116"
     is_visible="true"
     lpeversion="1" /></defs><sodipodi:namedview
   pagecolor="#7a7a7a"
   bordercolor="#666666"
   borderopacity="1"
   objecttolerance="10"
   gridtolerance="10"
   guidetolerance="10"
   inkscape:pageopacity="0.44313725"
   inkscape:pageshadow="2"
   inkscape:window-width="3440"
   inkscape:window-height="1350"
   id="namedview1173"
   showgrid="false"
   inkscape:pagecheckerboard="true"
   inkscape:zoom="7.9927608"
   inkscape:cx="33.968238"
   inkscape:cy="34.468691"
   inkscape:window-x="0"
   inkscape:window-y="28"
   inkscape:window-maximized="1"
   inkscape:current-layer="g1170"
   inkscape:snap-bbox="true"
   inkscape:snap-bbox-edge-midpoints="true"
   inkscape:snap-bbox-midpoints="true"
   inkscape:object-paths="true"
   inkscape:snap-center="true"
   inkscape:object-nodes="true" />
<g
   id="g1170">
	<g
   id="g1158">
		<path
   id="rect1313_65_"
   fill="#FDFCFD"
   d="M0.009,0h75.982C75.996,0,76,0.004,76,0.009V75.99c0,0.006-0.004,0.01-0.009,0.01H0.009    C0.004,76,0,75.996,0,75.99V0.009C0,0.004,0.004,0,0.009,0z"
   style="fill:#deaa87" />
		<path
   id="path1341_65_"
   fill="#757575"
   d="M75.99,0C75.995,0,76,0.005,76,0.01v75.981C76,75.996,75.995,76,75.99,76H0.009    C0.004,76,0,75.996,0,75.991L75.99,0z"
   style="fill:#502d16" />
		<polygon
   id="rect1311_65_"
   fill="#B9B9B9"
   points="8.508,8.5 67.492,8.5 67.5,8.508 67.5,67.491 67.492,67.5 8.508,67.5     8.5,67.491 8.5,8.508   "
   style="fill:#a05a2c" />
	</g>
	
<g
   id="g6525"><rect
     style="fill:#ff0000;fill-opacity:1;fill-rule:evenodd;stroke:none;stroke-width:6.04027;stroke-linecap:square;paint-order:stroke fill markers"
     id="rect5106"
     width="4.4722157"
     height="21.348503"
     x="35.763893"
     y="12.938713" /><rect
     style="fill:#b3b3b3;fill-opacity:1;fill-rule:evenodd;stroke:none;stroke-width:2.21427;stroke-linecap:square;paint-order:stroke fill markers"
     id="rect5106-9"
     width="1.7278661"
     height="7.4255676"
     x="37.136066"
     y="34.287216" /><path
     id="path5272"
     style="fill:#cccccc;fill-opacity:1;fill-rule:evenodd;stroke:none;stroke-width:3.76293;stroke-linecap:square;paint-order:stroke fill markers"
     inkscape:transform-center-y="-1.8424168"
     d="M 38 41.712891 L 36.830078 41.712891 L 28.660156 43.525391 L 32.914062 52.767578 L 36.271484 60.068359 A 1.9943351 2.5023556 0 0 0 38 61.322266 L 38 41.712891 z " /><path
     id="path6500"
     style="fill:#b3b3b3;fill-opacity:1;fill-rule:evenodd;stroke:none;stroke-width:3.76293;stroke-linecap:square;paint-order:stroke fill markers"
     inkscape:transform-center-y="-1.8424168"
     d="M 38 41.712891 L 38 61.322266 A 1.9943351 2.5023556 0 0 0 39.728516 60.068359 L 43.085938 52.767578 L 47.339844 43.525391 L 39.169922 41.712891 L 38 41.712891 z " /></g><ellipse
   style="fill:#2b1100;fill-opacity:1;fill-rule:evenodd;stroke:none;stroke-width:3.77953;stroke-linecap:square;paint-order:stroke fill markers"
   id="path6666"
   cx="28.026491"
   cy="59.416382"
   rx="6.2323689"
   ry="5.2197905" /><ellipse
   style="fill:#2b1100;fill-opacity:1;fill-rule:evenodd;stroke:none;stroke-width:3.77953;stroke-linecap:square;paint-order:stroke fill markers"
   id="path6822"
   cx="36.832493"
   cy="60.248337"
   rx="4.6831694"
   ry="3.4596386" /><ellipse
   style="fill:#2b1100;fill-opacity:1;fill-rule:evenodd;stroke:none;stroke-width:3.77953;stroke-linecap:square;paint-order:stroke fill markers"
   id="path6824"
   cx="42.711182"
   cy="61.640633"
   rx="4.7111807"
   ry="1.8142006" /><ellipse
   style="fill:#2b1100;fill-opacity:1;fill-rule:evenodd;stroke:none;stroke-width:3.77953;stroke-linecap:square;paint-order:stroke fill markers"
   id="path6826"
   cx="43.586067"
   cy="60.021503"
   rx="4.4269657"
   ry="2.8108966" /><ellipse
   style="fill:#2b1100;fill-opacity:1;fill-rule:evenodd;stroke:none;stroke-width:3.77953;stroke-linecap:square;paint-order:stroke fill markers"
   id="path6828"
   cx="45.367241"
   cy="57.375164"
   rx="3.9958918"
   ry="2.0209479" /><ellipse
   style="fill:#2b1100;fill-opacity:1;fill-rule:evenodd;stroke:none;stroke-width:3.77953;stroke-linecap:square;paint-order:stroke fill markers"
   id="path6830"
   cx="37.005268"
   cy="58.312553"
   rx="6.1216655"
   ry="2.610837" /><ellipse
   style="fill:#2b1100;fill-opacity:1;fill-rule:evenodd;stroke:none;stroke-width:3.77953;stroke-linecap:square;paint-order:stroke fill markers"
   id="path6832"
   cx="47.221436"
   cy="60.763153"
   rx="3.2386563"
   ry="2.6243484" /><ellipse
   style="fill:#2b1100;fill-opacity:1;fill-rule:evenodd;stroke:none;stroke-width:3.77953;stroke-linecap:square;paint-order:stroke fill markers"
   id="path6836"
   cx="32.510517"
   cy="55.945896"
   rx="3.0351779"
   ry="2.54422" /><ellipse
   style="fill:#2b1100;fill-opacity:1;fill-rule:evenodd;stroke:none;stroke-width:3.77953;stroke-linecap:square;paint-order:stroke fill markers"
   id="path6838"
   cx="42.882118"
   cy="55.721264"
   rx="2.5838902"
   ry="2.2002521" /><ellipse
   style="fill:#2b1100;fill-opacity:1;fill-rule:evenodd;stroke:none;stroke-width:3.77953;stroke-linecap:square;paint-order:stroke fill markers"
   id="path6840"
   cx="50.815479"
   cy="61.534603"
   rx="1.8701994"
   ry="1.4502562" /><path
   style="fill:#deaa87;fill-opacity:1;stroke-width:0.125113"
   d="M 0.06255661,37.939882 V 0 H 38.002438 75.942322 L 71.752429,4.1912927 67.562536,8.3825854 H 38.00384 8.445142 V 37.941283 67.49998 l -4.1912927,4.189892 -4.19129269,4.189893 z"
   id="path3925" /><path
   style="fill:#502d16;fill-opacity:1;stroke-width:0.125113"
   d="M 4.3164059,71.752429 8.506298,67.561136 H 38.002438 67.49858 V 38.064995 8.5688546 L 71.689872,4.3789625 75.881165,0.18907042 V 38.066396 75.943722 H 38.00384 0.12651382 Z"
   id="path16368" /><path
   style="fill:#2b1100;fill-opacity:1;stroke-width:0.125113"
   d="m 26.29055,64.359932 c -2.115776,-0.512118 -3.801238,-2.059715 -4.280471,-3.930341 -0.399901,-1.560968 0.04186,-2.996211 1.312094,-4.262891 0.884866,-0.88239 1.731806,-1.364145 2.94661,-1.676085 0.842864,-0.216433 2.666863,-0.253825 3.314947,-0.06796 0.358159,0.102719 0.473917,0.08402 0.687297,-0.110994 0.859793,-0.785807 2.325733,-1.03922 3.468392,-0.599572 0.69022,0.265569 1.539843,1.131292 1.663705,1.695234 l 0.08635,0.393168 1.397584,7.26e-4 c 1.293329,6.75e-4 2.264437,0.09868 3.117889,0.314667 0.320786,0.08118 0.344061,0.06049 0.344061,-0.305847 0,-1.331231 1.459713,-2.414493 2.952015,-2.190709 0.77237,0.115824 1.59446,0.673966 1.879451,1.276015 0.228981,0.483731 0.257001,0.499775 0.994556,0.569481 0.869897,0.08221 2.004968,0.473796 2.498353,0.861892 0.679638,0.534604 0.761856,1.28078 0.208498,1.892234 -0.194021,0.214391 -0.192327,0.238003 0.02584,0.360097 0.467473,0.26161 1.205243,1.014271 1.277877,1.303667 0.06438,0.256522 0.149787,0.29674 0.630137,0.29674 0.649318,0 1.167156,0.237285 1.533091,0.702496 0.577405,0.734051 0.08963,1.660289 -1.026625,1.949456 -0.515895,0.133644 -0.684362,0.125331 -1.20459,-0.05944 -0.602892,-0.214129 -0.606658,-0.21378 -1.185581,0.109786 -0.705029,0.394048 -1.794157,0.518374 -2.679823,0.305906 -0.50221,-0.120479 -0.782005,-0.118705 -1.359785,0.0086 -0.98277,0.216575 -3.670801,0.186071 -4.532146,-0.05143 -0.652545,-0.179929 -0.706461,-0.175235 -1.501358,0.130704 -0.66976,0.257776 -1.047584,0.318118 -2.013083,0.321504 -1.336378,0.0047 -2.211538,-0.241875 -3.149774,-0.887398 l -0.542952,-0.373561 -0.575962,0.521453 c -1.600915,1.449401 -4.068826,2.039184 -6.286604,1.502376 z"
   id="path23734" /><path
   style="fill:#a05a2c;fill-opacity:1;stroke-width:0.125113"
   d="M 8.5702552,37.971861 V 8.5076986 H 38.034417 67.49858 V 37.971861 67.436023 H 38.034417 8.5702552 Z M 29.707771,64.489712 c 1.076189,-0.25366 2.213427,-0.828233 2.916013,-1.473277 l 0.574694,-0.527628 0.291045,0.239799 c 1.279321,1.05406 3.882633,1.332937 5.627527,0.602844 0.490776,-0.20535 0.61098,-0.21089 1.231962,-0.05678 0.889111,0.220655 3.60735,0.247051 4.543417,0.04412 0.575456,-0.124753 0.859595,-0.12601 1.359785,-0.006 0.847109,0.203219 1.997966,0.08403 2.712108,-0.280891 0.538089,-0.274955 0.617083,-0.284144 1.080964,-0.125742 0.96563,0.329737 2.172403,-0.04287 2.52352,-0.779166 0.469872,-0.985333 -0.237109,-1.93995 -1.515205,-2.04594 -0.603788,-0.05007 -0.68009,-0.0915 -0.858815,-0.466286 -0.157316,-0.329897 -0.567072,-0.721878 -1.198632,-1.146635 -0.02652,-0.01784 0.04948,-0.181555 0.168903,-0.363815 0.267552,-0.408335 0.280419,-1.071962 0.02778,-1.432656 -0.445501,-0.63604 -1.652228,-1.169788 -2.991702,-1.323258 -0.54579,-0.06253 -0.734007,-0.13779 -0.790603,-0.31611 -0.21351,-0.67271 -1.154086,-1.365319 -2.082908,-1.533785 l -0.462001,-0.0838 0.354076,-0.777634 c 0.194743,-0.427698 1.204932,-2.626862 2.244865,-4.887028 1.039934,-2.260167 1.890789,-4.149478 1.890789,-4.19847 0,-0.04899 -1.886082,-0.506549 -4.191293,-1.016796 L 38.972767,41.607057 V 38.01314 34.419223 l 0.656845,-0.03782 0.656844,-0.03782 0.03198,-10.728459 0.03198,-10.728458 H 38.035123 35.71983 v 10.759737 10.759736 h 0.688123 0.688122 l -2.5e-4,3.597005 -2.5e-4,3.597005 -4.222306,0.928024 c -2.322268,0.510413 -4.238597,0.939577 -4.258507,0.953698 -0.01991,0.01412 0.979431,2.234039 2.220759,4.933151 1.241329,2.699112 2.256906,4.916092 2.256839,4.926623 -6.8e-5,0.01054 -0.295648,0.02297 -0.656845,0.02765 -0.840629,0.01089 -1.51121,0.238293 -2.020014,0.685029 -0.364715,0.320225 -0.450834,0.34328 -0.89634,0.239967 -0.678569,-0.157361 -2.283294,-0.148521 -3.082799,0.01698 -3.047301,0.630813 -5.137073,3.329555 -4.603779,5.945347 0.633671,3.108143 4.296008,5.076724 7.875225,4.233097 z"
   id="path34411" /><path
   style="fill:#ffffff"
   d="m 29.466734,17.906944 c 2.019261,-1.979058 4.851861,-3.102059 7.678651,-3.044246 2.82679,0.05781 5.611106,1.29569 7.547762,3.355653 1.936656,2.059964 3.000532,4.915295 2.883971,7.740273 -0.116561,2.824978 -1.412047,5.58296 -3.511823,7.476377 -0.625826,0.564322 -1.315979,1.052194 -1.968346,1.585612 -1.662975,1.359758 -3.071126,3.008641 -4.319424,4.756834 -2.987675,4.184122 -5.128437,9.129614 -5.194245,14.270504 -4.67e-4,0.03645 -8.3e-4,0.07291 0,0.109353 0.0086,0.376477 0.149864,0.750057 0.399303,1.032172 0.249438,0.282115 0.606218,0.469004 0.981098,0.50469 0.37488,0.03569 0.763689,-0.08238 1.049853,-0.327162 0.286163,-0.244784 0.463819,-0.614439 0.467588,-0.990995 0.0017,-0.165249 -0.02848,-0.32892 -0.05468,-0.492087 -0.510355,-3.17868 0.472135,-6.449833 2.077698,-9.240287 1.638652,-2.847963 3.901536,-5.286572 6.287769,-7.545324 1.921191,-1.818554 3.974538,-3.586833 5.248921,-5.905036 1.2601,-2.292221 1.663314,-5.027372 1.204279,-7.602526 -0.459036,-2.575153 -1.763379,-4.979443 -3.610034,-6.832007 -1.930449,-1.936626 -4.462745,-3.279216 -7.160985,-3.722676 -2.69824,-0.44346 -5.549063,0.02627 -7.929663,1.371597 -0.819268,0.462984 -1.580497,1.024038 -2.405755,1.476259 -0.368159,0.201742 -0.750671,0.382874 -1.084779,0.637065 -0.334107,0.254191 -0.62234,0.594819 -0.719538,1.003223 -0.04533,0.190463 -0.04742,0.391629 -0.0015,0.581942 0.04596,0.190312 0.140338,0.369324 0.27485,0.511583 0.145334,0.153705 0.336935,0.263086 0.543182,0.310094 0.206246,0.04701 0.426322,0.03145 0.623907,-0.04409 0.197585,-0.07555 0.371897,-0.210789 0.49417,-0.383406 0.122272,-0.172617 0.19202,-0.381927 0.197734,-0.593385 z"
   id="path29114"
   inkscape:path-effect="#path-effect29116"
   inkscape:original-d="m 29.466734,17.906944 c 0.618664,-0.237931 9.733374,10.353038 14.598561,15.528057 4.865187,5.17502 -1.31123,1.058075 -1.968346,1.585612 -0.657115,0.527537 -2.878616,3.172223 -4.319424,4.756834 -1.440808,1.584612 -3.46183,9.51467 -5.194245,14.270504 -1.732415,4.755835 10e-4,0.0739 0,0.109353 -0.001,0.03545 1.932895,0.146803 2.897842,0.218705 0.964947,0.0719 -0.03545,-0.327058 -0.05468,-0.492087 -0.01923,-0.165028 1.386132,-6.159192 2.077698,-9.240287 0.691566,-3.081096 4.192846,-5.029216 6.287769,-7.545324 2.094924,-2.516108 3.500281,-3.935691 5.248921,-5.905036 1.748641,-1.969346 -1.602837,-9.622022 -2.405755,-14.434533 -0.802919,-4.81251 -10.059432,-1.566386 -15.090648,-2.351079 -5.031215,-0.784693 -1.602836,0.985173 -2.405755,1.476259 -0.802918,0.491087 -1.201878,1.094525 -1.804317,1.640288 -0.602438,0.545763 0.183255,0.730017 0.273382,1.093525 0.09013,0.363509 1.240328,-0.472861 1.858993,-0.710791 z" /><ellipse
   style="fill:#ffffff"
   id="path29140"
   cx="34.25877"
   cy="61.219635"
   rx="1.4691542"
   ry="1.5851401" /></g>
</svg>
