<?xml version="1.0" encoding="UTF-8" standalone="no"?>
<!-- Generator: Adobe Illustrator 13.0.3, SVG Export Plug-In . SVG Version: 6.00 Build 14948)  -->

<svg
   version="1.1"
   id="レイヤー_1"
   x="0px"
   y="0px"
   width="76px"
   height="76px"
   viewBox="0 0 76 76"
   enable-background="new 0 0 76 76"
   xml:space="preserve"
   sodipodi:docname="wrong_flag.svg"
   inkscape:version="1.1.1 (3bf5ae0d25, 2021-09-20, custom)"
   xmlns:inkscape="http://www.inkscape.org/namespaces/inkscape"
   xmlns:sodipodi="http://sodipodi.sourceforge.net/DTD/sodipodi-0.dtd"
   xmlns="http://www.w3.org/2000/svg"
   xmlns:svg="http://www.w3.org/2000/svg"><defs
   id="defs10"><rect
     x="1"
     y="1"
     width="74.001"
     height="74.001"
     id="rect5341" /><rect
     x="1"
     y="1"
     width="117.61676"
     height="101.51824"
     id="rect5341-2" /></defs><sodipodi:namedview
   id="namedview8"
   pagecolor="#3d3d3d"
   bordercolor="#666666"
   borderopacity="1.0"
   inkscape:pageshadow="2"
   inkscape:pageopacity="0"
   inkscape:pagecheckerboard="0"
   showgrid="false"
   inkscape:snap-bbox="true"
   inkscape:snap-bbox-midpoints="true"
   inkscape:zoom="8.2516492"
   inkscape:cx="1.6360366"
   inkscape:cy="30.357568"
   inkscape:window-width="1920"
   inkscape:window-height="987"
   inkscape:window-x="0"
   inkscape:window-y="56"
   inkscape:window-maximized="1"
   inkscape:current-layer="レイヤー_1"
   inkscape:snap-center="true"
   inkscape:snap-bbox-edge-midpoints="true"
   inkscape:object-paths="false"
   inkscape:snap-midpoints="true"
   inkscape:snap-global="true" />
<g
   id="rect1313_66_"
   style="stroke:none">
	<polygon
   fill="#B9B9B9"
   points="75.001,75.001 1,75.001 1,1 75.001,1 75.001,75.001  "
   id="polygon2"
   style="fill:#808000;fill-opacity:1;stroke:none" />
	<path
   fill="#757575"
   d="M75.991,0C75.996,0,76,0.004,76,0.009V75.99c0,0.006-0.004,0.01-0.009,0.01H0.009   C0.004,76,0,75.996,0,75.99V0.009C0,0.004,0.004,0,0.009,0H75.991 M74,2H2v72h72V2L74,2z"
   id="path4"
   style="fill:#d38d5f;fill-opacity:1;stroke:none" />
</g>
<g
   id="g37774"
   transform="translate(-0.45147916,-2.3045854)"><ellipse
     style="fill:#806600;fill-opacity:1;fill-rule:evenodd;stroke:none;stroke-width:1.88976;stroke-linecap:square;stroke-miterlimit:4;stroke-dasharray:none;stroke-opacity:1;paint-order:stroke fill markers"
     id="path37443"
     cx="19.126717"
     cy="56.784508"
     rx="9.7288141"
     ry="7.9418888" /><ellipse
     style="fill:#806600;fill-opacity:1;fill-rule:evenodd;stroke:none;stroke-width:1.88976;stroke-linecap:square;stroke-miterlimit:4;stroke-dasharray:none;stroke-opacity:1;paint-order:stroke fill markers"
     id="path37445"
     cx="31.701374"
     cy="59.762714"
     rx="7.6109767"
     ry="6.0225992" /><ellipse
     style="fill:#806600;fill-opacity:1;fill-rule:evenodd;stroke:none;stroke-width:1.88976;stroke-linecap:square;stroke-miterlimit:4;stroke-dasharray:none;stroke-opacity:1;paint-order:stroke fill markers"
     id="path37447"
     cx="39.246166"
     cy="60.953999"
     rx="6.9491529"
     ry="4.1694918" /><ellipse
     style="fill:#806600;fill-opacity:1;fill-rule:evenodd;stroke:none;stroke-width:1.88976;stroke-linecap:square;stroke-miterlimit:4;stroke-dasharray:none;stroke-opacity:1;paint-order:stroke fill markers"
     id="path37449"
     cx="48.114609"
     cy="62.740921"
     rx="5.2284102"
     ry="3.8385797" /><ellipse
     style="fill:#806600;fill-opacity:1;fill-rule:evenodd;stroke:none;stroke-width:1.88976;stroke-linecap:square;stroke-miterlimit:4;stroke-dasharray:none;stroke-opacity:1;paint-order:stroke fill markers"
     id="path37451"
     cx="54.137211"
     cy="58.372883"
     rx="7.2800651"
     ry="4.1033092" /><ellipse
     style="fill:#806600;fill-opacity:1;fill-rule:evenodd;stroke:none;stroke-width:1.88976;stroke-linecap:square;stroke-miterlimit:4;stroke-dasharray:none;stroke-opacity:1;paint-order:stroke fill markers"
     id="path37453"
     cx="56.652142"
     cy="53.673931"
     rx="7.0153351"
     ry="2.1840196" /><ellipse
     style="fill:#806600;fill-opacity:1;fill-rule:evenodd;stroke:none;stroke-width:1.88976;stroke-linecap:square;stroke-miterlimit:4;stroke-dasharray:none;stroke-opacity:1;paint-order:stroke fill markers"
     id="path37455"
     cx="58.174335"
     cy="51.026638"
     rx="7.8757067"
     ry="3.3753028" /><ellipse
     style="fill:#806600;fill-opacity:1;fill-rule:evenodd;stroke:none;stroke-width:1.88976;stroke-linecap:square;stroke-miterlimit:4;stroke-dasharray:none;stroke-opacity:1;paint-order:stroke fill markers"
     id="path37457"
     cx="57.247784"
     cy="47.717518"
     rx="8.0080709"
     ry="3.242938" /><ellipse
     style="fill:#806600;fill-opacity:1;fill-rule:evenodd;stroke:none;stroke-width:1.88976;stroke-linecap:square;stroke-miterlimit:4;stroke-dasharray:none;stroke-opacity:1;paint-order:stroke fill markers"
     id="path37459"
     cx="17.472157"
     cy="49.636806"
     rx="5.5593224"
     ry="4.2356739" /><rect
     style="fill:#806600;fill-opacity:1;fill-rule:evenodd;stroke:none;stroke-width:1.88976;stroke-linecap:square;stroke-miterlimit:4;stroke-dasharray:none;stroke-opacity:1;paint-order:stroke fill markers"
     id="rect37483"
     width="30.841002"
     height="5.8240519"
     x="18.663439"
     y="60.22599" /><rect
     style="fill:#806600;fill-opacity:1;fill-rule:evenodd;stroke:none;stroke-width:1.88976;stroke-linecap:square;stroke-miterlimit:4;stroke-dasharray:none;stroke-opacity:1;paint-order:stroke fill markers"
     id="rect37485"
     width="8.074254"
     height="8.8684425"
     x="54.9314"
     y="50.033901" /><rect
     style="fill:#806600;fill-opacity:1;fill-rule:evenodd;stroke:none;stroke-width:1.88976;stroke-linecap:square;stroke-miterlimit:4;stroke-dasharray:none;stroke-opacity:1;paint-order:stroke fill markers"
     id="rect37487"
     width="33.788177"
     height="14.788177"
     x="18.906404"
     y="45.862068" /><ellipse
     style="fill:#806600;fill-opacity:1;fill-rule:evenodd;stroke:none;stroke-width:1.88976;stroke-linecap:square;stroke-miterlimit:4;stroke-dasharray:none;stroke-opacity:1;paint-order:stroke fill markers"
     id="path37511"
     cx="43.680389"
     cy="39.047619"
     rx="23.825666"
     ry="16.942696" /><ellipse
     style="fill:#806600;fill-opacity:1;fill-rule:evenodd;stroke:none;stroke-width:1.88976;stroke-linecap:square;stroke-miterlimit:4;stroke-dasharray:none;stroke-opacity:1;paint-order:stroke fill markers"
     id="path37513"
     cx="27.995159"
     cy="39.113804"
     rx="16.611784"
     ry="18.067797" /><ellipse
     style="fill:#806600;fill-opacity:1;fill-rule:evenodd;stroke:none;stroke-width:1.88976;stroke-linecap:square;stroke-miterlimit:4;stroke-dasharray:none;stroke-opacity:1;paint-order:stroke fill markers"
     id="path37515"
     cx="38.121067"
     cy="22.700565"
     rx="19.192898"
     ry="8.6698952" /><circle
     style="fill:#806600;fill-opacity:1;fill-rule:evenodd;stroke:none;stroke-width:1.88976;stroke-linecap:square;stroke-miterlimit:4;stroke-dasharray:none;stroke-opacity:1;paint-order:stroke fill markers"
     id="path37517"
     cx="60.159809"
     cy="58.439068"
     r="2.8458436" /><ellipse
     style="fill:#806600;fill-opacity:1;fill-rule:evenodd;stroke:none;stroke-width:1.88976;stroke-linecap:square;stroke-miterlimit:4;stroke-dasharray:none;stroke-opacity:1;paint-order:stroke fill markers"
     id="path37519"
     cx="19.060534"
     cy="64.263115"
     rx="5.5593224"
     ry="1.7869251" /><ellipse
     style="fill:#806600;fill-opacity:1;fill-rule:evenodd;stroke:none;stroke-width:1.88976;stroke-linecap:square;stroke-miterlimit:4;stroke-dasharray:none;stroke-opacity:1;paint-order:stroke fill markers"
     id="path37521"
     cx="22.832932"
     cy="26.009686"
     rx="7.4786119"
     ry="5.0960455" /><ellipse
     style="fill:#806600;fill-opacity:1;fill-rule:evenodd;stroke:none;stroke-width:1.88976;stroke-linecap:square;stroke-miterlimit:4;stroke-dasharray:none;stroke-opacity:1;paint-order:stroke fill markers"
     id="path37523"
     cx="54.004845"
     cy="28.326071"
     rx="6.2211466"
     ry="5.4269576" /><rect
     style="fill:#000000;fill-opacity:1;fill-rule:evenodd;stroke:none;stroke-width:1.88976;stroke-linecap:square;stroke-miterlimit:4;stroke-dasharray:none;stroke-opacity:1;paint-order:stroke fill markers"
     id="rect37569"
     width="6.6182408"
     height="34.547218"
     x="-5.1810403"
     y="38.135254"
     transform="rotate(-45)" /><rect
     style="fill:#000000;fill-opacity:1;fill-rule:evenodd;stroke:none;stroke-width:1.88976;stroke-linecap:square;stroke-miterlimit:4;stroke-dasharray:none;stroke-opacity:1;paint-order:stroke fill markers"
     id="rect37569-7"
     width="6.6182408"
     height="34.547218"
     x="52.099743"
     y="-15.40169"
     transform="rotate(45)" /></g><path
   style="fill:#000000;fill-opacity:1;stroke-width:0.180368"
   d="m 42.295678,47.706723 -4.957036,-4.959497 -4.915511,4.913073 -4.915511,4.913075 -2.256091,-2.250675 -2.256092,-2.250673 4.914552,-4.916991 4.914552,-4.91699 -4.91364,-4.916078 -4.91364,-4.916078 2.298486,-2.298486 2.298485,-2.298485 4.916078,4.91364 4.916078,4.91364 4.916991,-4.914552 4.91699,-4.914552 2.251081,2.256499 2.251083,2.2565 -4.913084,4.913084 -4.913084,4.913083 4.960445,4.962819 4.960445,4.96282 -2.30227,2.29716 -2.302269,2.29716 z"
   id="path21535" /><path
   style="fill:#000000;fill-opacity:1;stroke-width:0.180368"
   d="m 42.295678,47.706723 -4.957036,-4.959497 -4.915511,4.913073 -4.915511,4.913075 -2.256091,-2.250675 -2.256092,-2.250673 4.914552,-4.916991 4.914552,-4.91699 -4.91364,-4.916078 -4.91364,-4.916078 2.298486,-2.298486 2.298485,-2.298485 4.916078,4.91364 4.916078,4.91364 4.916991,-4.914552 4.91699,-4.914552 2.250663,2.25608 2.250662,2.256079 -4.822867,4.82535 c -2.652577,2.653942 -4.822867,4.905418 -4.822867,5.00328 0,0.09786 2.191786,2.370804 4.870637,5.050983 l 4.870638,4.873055 -2.30226,2.297149 -2.302259,2.297149 z"
   id="path23834" /><path
   style="fill:#806600;fill-opacity:1;stroke-width:0.180368"
   d="M 45.723322,63.942908 C 45.034817,63.716012 42.790726,63.674537 30.933135,63.669559 19.414926,63.664725 16.736946,63.617573 15.717956,63.401678 13.700955,62.974335 12.708642,62.211179 13.308339,61.548521 13.601408,61.224685 13.582304,61.191277 12.87753,60.795172 11.79016,60.184036 10.30219,58.612722 9.7584782,57.501414 8.4658761,54.85943 8.9438484,51.869004 11.002065,49.72093 c 0.810477,-0.84586 0.818922,-0.867274 0.625425,-1.585867 -0.239158,-0.888166 -0.10241,-1.620336 0.497277,-2.662481 l 0.455655,-0.791843 -0.471867,-1.372575 c -0.761837,-2.216042 -1.043624,-3.898778 -1.060459,-6.332696 -0.02871,-4.150377 0.967927,-7.554941 3.1743,-10.843603 0.726995,-1.083606 0.800155,-1.291901 0.791888,-2.254602 -0.01476,-1.719058 1.04708,-3.255345 2.905208,-4.203292 0.498242,-0.254184 0.82739,-0.603794 1.101446,-1.169917 1.283242,-2.650824 6.132608,-5.182937 11.731829,-6.125814 2.53135,-0.426264 6.5037,-0.6838 8.657671,-0.561294 10.210959,0.580742 17.315341,4.107398 17.315341,8.595436 0,0.963476 0.03883,1.062244 0.51433,1.308133 0.586738,0.303414 1.518404,1.310241 1.905994,2.059758 0.14446,0.279353 0.991866,1.090208 1.883126,1.801901 5.929602,4.734932 7.577808,11.648883 4.185825,17.558852 -0.603021,1.050662 -0.679865,1.31176 -0.598509,2.033561 0.0717,0.636127 0.01837,0.910972 -0.230039,1.18546 -0.314386,0.347391 -0.303875,0.374197 0.377772,0.963435 0.601656,0.520089 0.701157,0.710843 0.701157,1.344181 0,0.830187 -0.545916,1.54278 -1.628614,2.125851 -0.339784,0.182985 -0.61779,0.425046 -0.61779,0.537914 0,0.112865 -0.155562,0.402975 -0.345691,0.644686 -0.29231,0.371612 -0.354979,0.805149 -0.405829,2.807531 -0.05215,2.053713 -0.109501,2.434075 -0.432017,2.865422 -0.649091,0.868117 -1.247293,1.196136 -2.273786,1.246811 -0.528933,0.02611 -1.326941,0.20534 -1.773352,0.398283 -1.181695,0.510742 -1.709593,0.623024 -3.512755,0.747161 l -1.618888,0.111451 -0.136213,0.801226 c -0.179836,1.05783 -0.93694,1.964384 -2.170912,2.599442 -1.240857,0.638601 -3.513716,0.822014 -4.826266,0.389467 z m -13.213174,-16.008846 4.91624,-4.913801 4.916062,4.913623 4.91606,4.913623 2.387139,-2.38714 2.38714,-2.38714 -4.908881,-4.920804 -4.908881,-4.920805 4.953766,-4.956224 4.953765,-4.956222 -2.340267,-2.345473 c -1.287147,-1.290011 -2.423167,-2.345473 -2.52449,-2.345473 -0.101322,0 -2.374579,2.191483 -5.051679,4.869962 l -4.867458,4.869962 -4.916451,-4.914014 -4.916451,-4.914014 -2.388648,2.388648 -2.388648,2.388648 4.914013,4.916452 4.914015,4.916451 -4.869964,4.867458 c -2.678478,2.677099 -4.869961,4.948057 -4.869961,5.046568 0,0.178242 4.511162,4.783517 4.68576,4.783517 0.05037,0 2.303888,-2.211211 5.007819,-4.913802 z"
   id="path32299" /><path
   style="fill:#808000;fill-opacity:1;stroke-width:0.180368"
   d="M 2.0742336,38.057677 V 2.1644176 H 37.967493 73.860751 V 38.057677 73.950936 H 37.967493 2.0742336 Z M 50.160961,63.827862 c 1.462686,-0.54726 2.777087,-2.05793 2.777087,-3.191765 0,-0.297665 0.194868,-0.3549 1.567594,-0.460415 0.963357,-0.07405 2.162642,-0.320522 3.11135,-0.639431 0.849067,-0.285414 1.938566,-0.558903 2.42111,-0.607754 1.087737,-0.110116 1.709378,-0.548413 2.233997,-1.575115 0.350008,-0.68498 0.405828,-1.074363 0.405828,-2.830892 0,-2.414742 0.243515,-3.039618 1.493461,-3.832309 1.028827,-0.652464 1.392429,-1.181222 1.392429,-2.024905 0,-0.5323 -0.134735,-0.810064 -0.63618,-1.311509 -0.61999,-0.61999 -0.628595,-0.647756 -0.338136,-1.091052 0.215425,-0.32878 0.26603,-0.655072 0.182556,-1.177084 -0.09916,-0.620115 -0.01497,-0.90657 0.595577,-2.02631 2.937074,-5.386631 2.019732,-11.257582 -2.481966,-15.884472 -0.659872,-0.678222 -1.667532,-1.596898 -2.239249,-2.041503 -0.571715,-0.444604 -1.31947,-1.246067 -1.661681,-1.781026 -0.342209,-0.534959 -0.949887,-1.189508 -1.350395,-1.454552 -0.692449,-0.458239 -0.728283,-0.527207 -0.729958,-1.404862 -0.0033,-1.736512 -1.133477,-3.489548 -3.118881,-4.837811 -2.312848,-1.570624 -5.383084,-2.700774 -9.324759,-3.432432 -1.778132,-0.330059 -2.74368,-0.385022 -6.763805,-0.385022 -4.020124,0 -4.985673,0.05496 -6.763805,0.385022 -3.058107,0.567649 -5.078642,1.200419 -7.324777,2.293897 -2.302841,1.121085 -3.780453,2.347162 -4.618704,3.832461 -0.375143,0.664716 -0.760665,1.07504 -1.239652,1.319401 -1.789779,0.913078 -2.864671,2.528519 -2.867869,4.310086 -0.0016,0.873905 -0.101324,1.13322 -0.909475,2.364184 -1.896024,2.887997 -2.844983,5.935304 -3.002218,9.640751 -0.114688,2.702768 0.183769,4.860705 1.000237,7.232028 l 0.502776,1.460248 -0.52052,0.884538 c -0.471892,0.8019 -0.512955,1.002493 -0.439538,2.147115 l 0.08098,1.262577 -0.804588,0.862508 c -0.442524,0.47438 -1.0221173,1.32662 -1.2879855,1.893865 -0.4179851,0.891798 -0.4833967,1.263223 -0.4833967,2.744855 0,1.481632 0.065412,1.853057 0.4833967,2.744855 0.5591165,1.19291 1.8432885,2.638888 3.0928895,3.482596 0.498784,0.336769 0.787726,0.639245 0.67638,0.708061 -0.106911,0.06607 -0.194383,0.312731 -0.194383,0.548128 0,0.55674 0.706999,1.053983 2.079616,1.462625 0.977447,0.290995 2.433478,0.331767 15.776829,0.44179 9.23848,0.07618 15.001559,0.191921 15.51166,0.31153 1.028154,0.241087 2.524304,0.103033 3.716166,-0.3429 z"
   id="path36628" /><path
   style="fill:#d38d5f;fill-opacity:1;stroke-width:0.180368"
   d="M 0.09018407,37.967493 V 0 H 37.967493 75.844801 V 37.967493 75.934985 H 37.967493 0.09018407 Z M 74.04112,38.057677 V 1.9840495 H 37.967493 1.8938654 V 38.057677 74.131304 H 37.967493 74.04112 Z"
   id="path40411" /></svg>
