<?xml version="1.0" encoding="UTF-8" standalone="no"?>
<svg
   xmlns:dc="http://purl.org/dc/elements/1.1/"
   xmlns:cc="http://creativecommons.org/ns#"
   xmlns:rdf="http://www.w3.org/1999/02/22-rdf-syntax-ns#"
   xmlns:svg="http://www.w3.org/2000/svg"
   xmlns="http://www.w3.org/2000/svg"
   xmlns:sodipodi="http://sodipodi.sourceforge.net/DTD/sodipodi-0.dtd"
   xmlns:inkscape="http://www.inkscape.org/namespaces/inkscape"
   version="1.1"
   id="レイヤー_1"
   x="0px"
   y="0px"
   width="76px"
   height="76px"
   viewBox="0 0 76 76"
   enable-background="new 0 0 76 76"
   xml:space="preserve"
   sodipodi:docname="Minesweeper_4.svg"
   inkscape:version="1.0.1 (3bc2e813f5, 2020-09-07, custom)"><metadata
   id="metadata3236"><rdf:RDF><cc:Work
       rdf:about=""><dc:format>image/svg+xml</dc:format><dc:type
         rdf:resource="http://purl.org/dc/dcmitype/StillImage" /></cc:Work></rdf:RDF></metadata><defs
   id="defs3234" /><sodipodi:namedview
   pagecolor="#ffffff"
   bordercolor="#666666"
   borderopacity="1"
   objecttolerance="10"
   gridtolerance="10"
   guidetolerance="10"
   inkscape:pageopacity="0"
   inkscape:pageshadow="2"
   inkscape:window-width="1920"
   inkscape:window-height="1024"
   id="namedview3232"
   showgrid="false"
   inkscape:zoom="8.5175462"
   inkscape:cx="34.894418"
   inkscape:cy="43.458872"
   inkscape:window-x="0"
   inkscape:window-y="28"
   inkscape:window-maximized="1"
   inkscape:current-layer="レイヤー_1"
   inkscape:document-rotation="0" />
<g
   id="rect1313_66_">
	<polygon
   fill="#B9B9B9"
   points="75.001,75.001 1,75.001 1,1 75.001,1  "
   id="polygon3224" />
	<path
   fill="#757575"
   d="M75.991,0C75.996,0,76,0.004,76,0.009V75.99c0,0.006-0.004,0.01-0.009,0.01H0.009   C0.004,76,0,75.996,0,75.99V0.009C0,0.004,0.004,0,0.009,0H75.991 M74,2H2v72h72V2L74,2z"
   id="path3226" />
</g>
<polygon
   fill="#000084"
   points="25.8,9 6.922,42.765 47.584,42.765 47.584,66 63.559,65.637 63.559,42.765 69.078,42.765   69.078,31.873 63.559,31.873 63.559,9 47.584,9 47.584,32.236 29.192,32.236 41.774,9 "
   id="polygon3229" />
<path
   style="fill:#1a1a1a;stroke-width:0;stroke-linecap:round;stroke-linejoin:round;paint-order:markers fill stroke"
   d="M 2.0834327,38 V 2.0381406 H 38 73.916567 V 38 73.961859 H 38 2.0834327 Z M 55.713411,65.852568 c 3.265618,-0.07362 6.373783,-0.133855 6.907033,-0.133855 h 0.969544 V 54.259833 42.800954 h 2.762813 2.762813 V 37.32062 31.840286 H 66.352801 63.589988 V 20.381406 8.9225268 H 55.573302 47.556615 V 20.562574 32.202622 H 38.40381 29.251004 L 29.472885,31.81764 C 29.739324,31.355343 41.401355,9.8088105 41.667581,9.2869647 l 0.185922,-0.3644379 -8.041174,0.00201 -8.041173,0.00201 -9.420739,16.8545772 c -5.181406,9.270018 -9.4343264,16.891757 -9.4509335,16.9372 -0.018133,0.04962 8.0963265,0.08262 20.3134685,0.08262 H 47.556615 V 54.42247 66.043986 l 1.109654,-0.02878 c 0.61031,-0.01583 3.781524,-0.08902 7.047142,-0.162636 z"
   id="path8391" /><path
   style="fill:#666666;stroke-width:0;stroke-linecap:round;stroke-linejoin:round;paint-order:markers fill stroke"
   d="M 0,38.030556 V 0.07584808 H 38 76 V 38.030556 75.985264 H 38 0 Z m 74.007151,0 V 1.9781127 H 38 1.9928486 V 38.030556 74.082999 H 38 74.007151 Z"
   id="path8393" /><path
   style="fill:#0044ff;stroke-width:0;stroke-linecap:round;stroke-linejoin:round;paint-order:markers fill stroke;fill-opacity:1"
   d="m 47.618641,54.354424 v -11.61662 h -20.18668 c -11.102674,0 -20.2137119,-0.04374 -20.2467505,-0.0972 -0.033039,-0.05346 4.1507885,-7.633711 9.2973935,-16.845007 l 9.357465,-16.747809 7.895466,-0.00257 c 4.342507,-0.00141 7.895467,0.015659 7.895467,0.037939 0,0.02228 -2.800103,5.210006 -6.22245,11.528281 -3.422347,6.318275 -6.222449,11.530425 -6.222449,11.582557 0,0.05213 4.147321,0.09478 9.216269,0.09478 h 9.216269 V 20.665719 9.0426533 h 7.924818 7.924818 V 20.489612 31.936571 h 2.75901 2.759011 v 5.400616 5.400617 h -2.759011 -2.75901 v 11.446958 11.446959 h -1.369095 c -1.464712,0 -10.190364,0.192709 -12.866226,0.284156 l -1.614315,0.05517 z"
   id="path8395" /></svg>
