<?xml version="1.0" encoding="UTF-8" standalone="no"?>
<svg
   xmlns:dc="http://purl.org/dc/elements/1.1/"
   xmlns:cc="http://creativecommons.org/ns#"
   xmlns:rdf="http://www.w3.org/1999/02/22-rdf-syntax-ns#"
   xmlns:svg="http://www.w3.org/2000/svg"
   xmlns="http://www.w3.org/2000/svg"
   xmlns:sodipodi="http://sodipodi.sourceforge.net/DTD/sodipodi-0.dtd"
   xmlns:inkscape="http://www.inkscape.org/namespaces/inkscape"
   version="1.1"
   id="レイヤー_1"
   x="0px"
   y="0px"
   width="76px"
   height="76px"
   viewBox="0 0 76 76"
   enable-background="new 0 0 76 76"
   xml:space="preserve"
   sodipodi:docname="Minesweeper_7.svg"
   inkscape:version="1.0.1 (3bc2e813f5, 2020-09-07, custom)"><metadata
   id="metadata3250"><rdf:RDF><cc:Work
       rdf:about=""><dc:format>image/svg+xml</dc:format><dc:type
         rdf:resource="http://purl.org/dc/dcmitype/StillImage" /></cc:Work></rdf:RDF></metadata><defs
   id="defs3248" /><sodipodi:namedview
   pagecolor="#ffffff"
   bordercolor="#666666"
   borderopacity="1"
   objecttolerance="10"
   gridtolerance="10"
   guidetolerance="10"
   inkscape:pageopacity="0"
   inkscape:pageshadow="2"
   inkscape:window-width="1920"
   inkscape:window-height="1024"
   id="namedview3246"
   showgrid="false"
   inkscape:zoom="11.039474"
   inkscape:cx="38"
   inkscape:cy="37.637664"
   inkscape:window-x="0"
   inkscape:window-y="28"
   inkscape:window-maximized="1"
   inkscape:current-layer="レイヤー_1" />
<g
   id="rect1313_66_">
	<polygon
   fill="#B9B9B9"
   points="75.001,75.001 1,75.001 1,1 75.001,1  "
   id="polygon3238" />
	<path
   fill="#757575"
   d="M75.991,0C75.996,0,76,0.004,76,0.009V75.99c0,0.006-0.004,0.01-0.009,0.01H0.009   C0.004,76,0,75.996,0,75.99V0.009C0,0.004,0.004,0,0.009,0H75.991 M74,2H2v72h72V2L74,2z"
   id="path3240" />
</g>
<polygon
   fill="#840084"
   points="10.363,9.001 10.363,21.783 44.834,21.78 10.018,65.999 30.464,65.999 65.291,21.78 65.982,9.001   "
   id="polygon3243" />
<path
   style="fill:#1a1a1a;stroke-width:0;stroke-linecap:round;stroke-linejoin:round;paint-order:markers fill stroke"
   d="M 2.0834327,38 V 2.0381406 H 38 73.916567 V 38 73.961859 H 38 2.0834327 Z M 47.783075,44.109074 C 57.298927,32.027175 65.14092,22.06121 65.209725,21.962485 c 0.09455,-0.13567 0.210013,-1.733052 0.472847,-6.541792 0.19126,-3.49926 0.348969,-6.3928622 0.350465,-6.4302282 0.0015,-0.037366 -12.531845,-0.067938 -27.851869,-0.067938 H 10.326579 v 6.4312322 6.431233 l 17.20061,0.02288 17.20061,0.02288 L 27.346021,43.90632 C 17.786044,56.047882 9.9642431,66.004199 9.9642431,66.031469 c 0,0.02727 4.6163889,0.04848 10.2586409,0.04714 l 10.258642,-0.0024 17.301549,-21.967088 z"
   id="path8387" /><path
   style="fill:#666666;stroke-width:0;stroke-linecap:round;stroke-linejoin:round;paint-order:markers fill stroke"
   d="M 0,38 V 0.04529201 H 38 76 V 38 75.954708 H 38 0 Z m 74.007151,0 V 1.9475566 H 38 1.9928486 V 38 74.052443 H 38 74.007151 Z"
   id="path8389" /></svg>
