<?xml version="1.0" encoding="UTF-8" standalone="no"?>
<svg
   xmlns:dc="http://purl.org/dc/elements/1.1/"
   xmlns:cc="http://creativecommons.org/ns#"
   xmlns:rdf="http://www.w3.org/1999/02/22-rdf-syntax-ns#"
   xmlns:svg="http://www.w3.org/2000/svg"
   xmlns="http://www.w3.org/2000/svg"
   xmlns:sodipodi="http://sodipodi.sourceforge.net/DTD/sodipodi-0.dtd"
   xmlns:inkscape="http://www.inkscape.org/namespaces/inkscape"
   version="1.1"
   id="レイヤー_1"
   x="0px"
   y="0px"
   width="76px"
   height="76px"
   viewBox="0 0 76 76"
   enable-background="new 0 0 76 76"
   xml:space="preserve"
   sodipodi:docname="Minesweeper_8.svg"
   inkscape:version="1.0.1 (3bc2e813f5, 2020-09-07, custom)"><metadata
   id="metadata3306"><rdf:RDF><cc:Work
       rdf:about=""><dc:format>image/svg+xml</dc:format><dc:type
         rdf:resource="http://purl.org/dc/dcmitype/StillImage" /></cc:Work></rdf:RDF></metadata><defs
   id="defs3304" /><sodipodi:namedview
   pagecolor="#ffffff"
   bordercolor="#666666"
   borderopacity="1"
   objecttolerance="10"
   gridtolerance="10"
   guidetolerance="10"
   inkscape:pageopacity="0"
   inkscape:pageshadow="2"
   inkscape:window-width="1920"
   inkscape:window-height="1024"
   id="namedview3302"
   showgrid="false"
   inkscape:zoom="8.7388214"
   inkscape:cx="27.052711"
   inkscape:cy="36.271844"
   inkscape:window-x="0"
   inkscape:window-y="28"
   inkscape:window-maximized="1"
   inkscape:current-layer="レイヤー_1" />
<g
   id="rect1313_66_">
	<polygon
   fill="#B9B9B9"
   points="75.001,75.001 1,75.001 1,1 75.001,1  "
   id="polygon3294" />
	<path
   fill="#757575"
   d="M75.991,0C75.996,0,76,0.004,76,0.009V75.99c0,0.006-0.004,0.01-0.009,0.01H0.009   C0.004,76,0,75.996,0,75.99V0.009C0,0.004,0.004,0,0.009,0H75.991 M74,2H2v72h72V2L74,2z"
   id="path3296" />
</g>
<path
   fill="#757575"
   d="M66.856,31.087c0,2.377-0.729,4.581-1.977,6.413c1.247,1.826,1.977,4.036,1.977,6.412V54.6  c0,6.29-5.104,11.4-11.4,11.4H20.544c-6.29,0-11.4-5.11-11.4-11.4V43.912c0-2.376,0.729-4.586,1.982-6.412  c-1.252-1.832-1.982-4.036-1.982-6.413V20.4c0-6.295,5.11-11.4,11.4-11.4h34.912c6.296,0,11.4,5.104,11.4,11.4V31.087z   M51.182,22.538c0-1.575-1.275-2.85-2.851-2.85H27.669c-1.57,0-2.851,1.275-2.851,2.85v6.413c0,1.569,1.28,2.85,2.851,2.85h20.662  c1.575,0,2.851-1.28,2.851-2.85V22.538z M51.182,46.05c0-1.575-1.275-2.85-2.851-2.85H27.669c-1.57,0-2.851,1.274-2.851,2.85v6.413  c0,1.569,1.28,2.85,2.851,2.85h20.662c1.575,0,2.851-1.28,2.851-2.85V46.05z"
   id="path3299" />
<path
   style="fill:#1a1a1a;stroke-width:0;stroke-linecap:round;stroke-linejoin:round;paint-order:markers fill stroke"
   d="M 2.0493392,37.994252 V 2.0054171 H 37.980958 73.912577 V 37.994252 73.983087 H 37.980958 2.0493392 Z M 58.284453,65.715931 c 4.377707,-1.203805 7.552584,-4.576333 8.430036,-8.954846 0.233743,-1.16638 0.233743,-13.824201 0,-14.99058 -0.235033,-1.172828 -0.628668,-2.256561 -1.210468,-3.332591 L 64.989725,37.486729 65.38096,36.81919 c 0.521179,-0.889258 1.018884,-2.167254 1.2804,-3.287783 0.196143,-0.840422 0.213655,-1.482895 0.213655,-7.838585 0,-6.79213 -0.0048,-6.94213 -0.255987,-7.927193 -0.884171,-3.467997 -3.106644,-6.212368 -6.22467,-7.686392 C 59.804841,9.8005476 58.884807,9.45338 58.349837,9.307754 L 57.377166,9.0429794 H 38.038174 c -18.648446,0 -19.369638,0.00779 -20.197232,0.2182261 -2.058445,0.523405 -3.787851,1.4852785 -5.265585,2.9286515 -1.462977,1.428959 -2.463094,3.090459 -3.0996325,5.149436 -0.2634175,0.852061 -0.2656016,0.909294 -0.3034273,7.951079 -0.040227,7.488848 -0.02021,7.862245 0.5054894,9.42949 0.2097211,0.625232 0.8528074,1.998352 1.1466404,2.448311 0.201414,0.308434 0.201087,0.329587 -0.01062,0.686591 -0.515005,0.868458 -0.9933525,1.939525 -1.29212,2.893182 l -0.3203536,1.022559 v 7.49529 7.49529 l 0.31986,1.020856 c 0.3508285,1.119695 0.8950536,2.271703 1.5400706,3.260002 0.595443,0.912341 2.232072,2.520783 3.20167,3.146528 1.382742,0.892374 3.219688,1.573173 4.779543,1.771368 0.44348,0.05635 9.12669,0.09435 19.453425,0.08515 l 18.6524,-0.01663 z"
   id="path8361" /><path
   style="fill:#1a1a1a;stroke-width:0;stroke-linecap:round;stroke-linejoin:round;paint-order:markers fill stroke"
   d="m 26.594983,55.002571 c -0.674917,-0.307664 -1.141636,-0.746295 -1.446069,-1.359042 -0.268045,-0.539507 -0.270409,-0.577777 -0.270409,-4.377734 0,-3.777564 0.0039,-3.841323 0.265245,-4.371992 0.296237,-0.601445 0.884111,-1.169574 1.500127,-1.449743 0.368198,-0.167459 1.489355,-0.18594 11.279865,-0.18594 8.915056,0 10.950932,0.02822 11.315108,0.15685 0.565573,0.199764 1.275085,0.839015 1.595377,1.43739 0.242147,0.452387 0.249184,0.577027 0.249184,4.413435 0,3.843813 -0.0066,3.960254 -0.25073,4.416463 -0.291925,0.545548 -0.945163,1.152209 -1.482358,1.376663 -0.310739,0.129835 -2.292204,0.156893 -11.337081,0.15482 -10.36002,-0.0024 -10.985609,-0.01395 -11.418259,-0.21117 z"
   id="path8363" /><path
   style="fill:#1a1a1a;stroke-width:0;stroke-linecap:round;stroke-linejoin:round;paint-order:markers fill stroke"
   d="m 26.994754,31.651948 c -0.868527,-0.267687 -1.683404,-1.014614 -1.959399,-1.796012 -0.120519,-0.341216 -0.15685,-1.305513 -0.15685,-4.163114 0,-3.540276 0.01157,-3.743789 0.240659,-4.233981 0.312246,-0.668118 0.765932,-1.11255 1.475819,-1.445715 l 0.57216,-0.268528 10.764822,-0.0011 c 12.118774,-0.0013 11.451822,-0.0475 12.356039,0.856715 0.830624,0.830624 0.86967,1.081874 0.829935,5.340234 -0.03411,3.655916 -0.03785,3.706792 -0.311444,4.242165 -0.329565,0.644894 -0.57992,0.891679 -1.267914,1.249835 l -0.514944,0.268068 -10.871031,0.01993 c -5.979067,0.01096 -11.000101,-0.01985 -11.157852,-0.06847 z"
   id="path8365" /><path
   style="fill:#666666;stroke-width:0;stroke-linecap:round;stroke-linejoin:round;paint-order:markers fill stroke"
   d="M 0.1039968,37.988323 V -0.00307011 H 38.038174 75.972351 V 37.988323 75.979716 H 38.038174 0.1039968 Z m 73.9230122,0 V 1.9422723 H 37.980958 1.9349073 V 37.988323 74.034374 H 37.980958 74.027009 Z"
   id="path8367" /></svg>
