<?xml version="1.0" encoding="UTF-8" standalone="no"?>
<svg
   xmlns:dc="http://purl.org/dc/elements/1.1/"
   xmlns:cc="http://creativecommons.org/ns#"
   xmlns:rdf="http://www.w3.org/1999/02/22-rdf-syntax-ns#"
   xmlns:svg="http://www.w3.org/2000/svg"
   xmlns="http://www.w3.org/2000/svg"
   xmlns:sodipodi="http://sodipodi.sourceforge.net/DTD/sodipodi-0.dtd"
   xmlns:inkscape="http://www.inkscape.org/namespaces/inkscape"
   version="1.1"
   id="レイヤー_1"
   x="0px"
   y="0px"
   width="76px"
   height="76px"
   viewBox="0 0 76 76"
   enable-background="new 0 0 76 76"
   xml:space="preserve"
   sodipodi:docname="Minesweeper_6.svg"
   inkscape:version="1.0.1 (3bc2e813f5, 2020-09-07, custom)"><metadata
   id="metadata3198"><rdf:RDF><cc:Work
       rdf:about=""><dc:format>image/svg+xml</dc:format><dc:type
         rdf:resource="http://purl.org/dc/dcmitype/StillImage" /></cc:Work></rdf:RDF></metadata><defs
   id="defs3196" /><sodipodi:namedview
   pagecolor="#ffffff"
   bordercolor="#666666"
   borderopacity="1"
   objecttolerance="10"
   gridtolerance="10"
   guidetolerance="10"
   inkscape:pageopacity="0"
   inkscape:pageshadow="2"
   inkscape:window-width="1920"
   inkscape:window-height="1024"
   id="namedview3194"
   showgrid="false"
   inkscape:zoom="11.039474"
   inkscape:cx="38"
   inkscape:cy="37.275328"
   inkscape:window-x="0"
   inkscape:window-y="28"
   inkscape:window-maximized="1"
   inkscape:current-layer="レイヤー_1"
   inkscape:document-rotation="0" />
<g
   id="rect1313_66_">
	<polygon
   fill="#B9B9B9"
   points="75.001,75.001 1,75.001 1,1 75.001,1  "
   id="polygon3186" />
	<path
   fill="#757575"
   d="M75.991,0C75.996,0,76,0.004,76,0.009V75.99c0,0.006-0.004,0.01-0.009,0.01H0.009   C0.004,76,0,75.996,0,75.99V0.009C0,0.004,0.004,0,0.009,0H75.991 M74,2H2v72h72V2L74,2z"
   id="path3188" />
</g>
<path
   fill="#008284"
   d="M66.856,23.967v-3.565c0-6.296-5.109-11.4-11.399-11.4H20.544c-6.29,0-11.4,5.104-11.4,11.4v34.197  c0,6.29,5.11,11.4,11.4,11.4h34.913c6.29,0,11.399-5.11,11.399-11.4V43.911c0-4.984-4.921-12.11-11.405-12.11H27.669  c-1.569,0-2.85-1.28-2.85-2.85v-6.412c0-1.575,1.28-2.851,2.85-2.851h20.663c1.569,0,2.85,1.275,2.85,2.851v1.005L66.856,23.967z   M25.531,47.474c0-1.569,1.28-2.85,2.851-2.85h20.662c1.57,0,2.851,1.28,2.851,2.85v6.412c0,1.57-1.28,2.851-2.851,2.851H28.382  c-1.57,0-2.851-1.28-2.851-2.851V47.474z"
   id="path3191" />
<path
   style="fill:#1a1a1a;stroke-width:0;stroke-linecap:round;stroke-linejoin:round;paint-order:markers fill stroke"
   d="M 2.0834327,38 V 2.0381406 H 38 73.916567 V 38 73.961859 H 38 2.0834327 Z M 57.724118,65.826309 c 4.746634,-1.084563 8.121642,-4.553121 9.010375,-9.260125 0.145588,-0.771075 0.161812,-1.488266 0.161812,-7.152596 0,-6.840495 -0.0028,-6.88584 -0.518831,-8.514899 -0.675133,-2.131179 -1.864077,-4.066993 -3.507895,-5.711487 -1.735076,-1.735788 -3.140712,-2.583165 -5.27257,-3.178528 L 56.841478,31.797677 41.895113,31.751044 26.948749,31.70441 26.54112,31.502957 c -0.670754,-0.33149 -1.05869,-0.715222 -1.377317,-1.362391 l -0.298487,-0.606261 v -3.715901 c 0,-3.360203 0.01579,-3.761166 0.164906,-4.188771 0.218985,-0.627941 0.844364,-1.310346 1.492545,-1.628647 l 0.516566,-0.253668 H 38 48.960667 l 0.516566,0.253668 c 0.632499,0.3106 1.271187,0.997425 1.470363,1.581184 0.08065,0.236362 0.172027,0.786424 0.203069,1.222359 l 0.05644,0.79261 0.733753,0.0072 c 0.403565,0.004 3.913254,0.09799 7.799309,0.208919 3.886055,0.110934 7.101964,0.183197 7.146465,0.160583 0.136666,-0.06945 -0.0023,-4.660689 -0.169046,-5.584908 -0.41821,-2.318046 -1.54231,-4.44851 -3.236129,-6.133308 C 61.873778,10.656529 59.884939,9.6238927 57.464153,9.1313663 56.704567,8.9768231 55.632951,8.9678188 38,8.9678188 c -17.665623,0 -18.703767,0.00876 -19.475566,0.1643907 -4.845093,0.9769785 -8.351905,4.5013105 -9.2589272,9.3051825 -0.1519807,0.804937 -0.1618119,1.963234 -0.1618119,19.064396 0,17.101162 0.00983,18.259459 0.1618119,19.064396 0.9732432,5.154598 5.1442242,8.986843 10.2553512,9.422488 0.448391,0.03822 9.028963,0.0627 19.067938,0.0544 l 18.252682,-0.01509 z"
   id="path9011" /><path
   style="fill:#1a1a1a;stroke-width:0;stroke-linecap:round;stroke-linejoin:round;paint-order:markers fill stroke"
   d="M 2.0834327,38 V 2.0381406 H 38 73.916567 V 38 73.961859 H 38 2.0834327 Z M 57.795408,65.85388 c 2.35893,-0.597958 4.040753,-1.490883 5.582507,-2.963904 1.680174,-1.605267 2.685372,-3.393344 3.349345,-5.957914 0.133266,-0.514737 0.157199,-1.339349 0.190271,-6.556017 0.04017,-6.336512 -0.01774,-7.87033 -0.339596,-8.993857 -0.686099,-2.395043 -1.862871,-4.379082 -3.689528,-6.220547 -1.638799,-1.652084 -2.953875,-2.475618 -4.918325,-3.079982 l -1.03802,-0.319347 -14.989392,-0.0604 -14.989392,-0.0604 -0.429512,-0.21765 c -0.579421,-0.293615 -1.014787,-0.748231 -1.347232,-1.406801 l -0.27669,-0.548118 0.02803,-3.773805 c 0.02711,-3.65048 0.03445,-3.787707 0.224599,-4.19922 0.250362,-0.541829 0.880882,-1.173642 1.468295,-1.471307 L 27.078602,19.79261 H 38 48.921398 l 0.457836,0.232003 c 0.576285,0.292026 1.221307,0.931264 1.438916,1.426015 0.09196,0.209068 0.20952,0.762508 0.261254,1.229868 0.05174,0.46736 0.119256,0.874988 0.150046,0.90584 0.06403,0.06416 -0.194269,0.05579 7.24254,0.234639 3.088916,0.07429 6.264228,0.159657 7.056249,0.189711 l 1.44004,0.05464 -0.05381,-2.611926 C 66.846022,18.130686 66.658335,17.149501 65.739213,15.30942 64.346323,12.520858 61.901541,10.417776 58.970203,9.4864956 57.223652,8.93162 58.687176,8.9678188 38,8.9678188 c -18.263944,0 -19.051549,0.00676 -19.747318,0.1694125 -2.913747,0.6811704 -5.248911,2.1696747 -6.928414,4.4163807 -0.963991,1.289551 -1.7899206,3.192077 -2.1019464,4.841827 -0.095348,0.504129 -0.1186267,4.262315 -0.1186267,19.151641 0,20.602875 -0.047188,18.971933 0.6021876,20.813075 0.9027455,2.559508 2.7092685,4.779629 4.9748755,6.113856 1.399755,0.824323 3.014559,1.369543 4.477764,1.511865 0.39857,0.03877 9.05328,0.07604 19.23269,0.08283 l 18.508019,0.01234 z"
   id="path9013" /><path
   style="fill:#666666;stroke-width:0;stroke-linecap:round;stroke-linejoin:round;paint-order:markers fill stroke"
   d="M 0,38 V 0.04529201 H 38 76 V 38 75.954708 H 38 0 Z m 74.007151,0 V 1.9475566 H 38 1.9928486 V 38 74.052443 H 38 74.007151 Z"
   id="path9015" /><path
   style="fill:#1a1a1a;stroke-width:0;stroke-linecap:round;stroke-linejoin:round;paint-order:markers fill stroke"
   d="m 27.220501,56.403401 c -0.615709,-0.29262 -1.141377,-0.824077 -1.433037,-1.448819 -0.193179,-0.413793 -0.197476,-0.506767 -0.197476,-4.272818 0,-3.741281 0.0055,-3.861626 0.193608,-4.268537 0.287148,-0.621016 0.820796,-1.160393 1.436905,-1.452331 l 0.543504,-0.257535 10.968845,-7.2e-5 10.968845,-7.1e-5 0.552313,0.275994 c 0.638851,0.319238 1.044791,0.743528 1.350731,1.411787 l 0.216621,0.473162 -0.02629,3.924296 -0.02629,3.924296 -0.266897,0.481803 c -0.298,0.537951 -0.682825,0.911468 -1.252904,1.216091 l -0.382464,0.20437 -11.051251,0.02334 -11.051251,0.02334 z"
   id="path9618" /></svg>
