<?xml version="1.0" encoding="UTF-8" standalone="no"?>
<svg
   xmlns:dc="http://purl.org/dc/elements/1.1/"
   xmlns:cc="http://creativecommons.org/ns#"
   xmlns:rdf="http://www.w3.org/1999/02/22-rdf-syntax-ns#"
   xmlns:svg="http://www.w3.org/2000/svg"
   xmlns="http://www.w3.org/2000/svg"
   xmlns:sodipodi="http://sodipodi.sourceforge.net/DTD/sodipodi-0.dtd"
   xmlns:inkscape="http://www.inkscape.org/namespaces/inkscape"
   version="1.1"
   id="レイヤー_1"
   x="0px"
   y="0px"
   width="76px"
   height="76px"
   viewBox="0 0 76 76"
   enable-background="new 0 0 76 76"
   xml:space="preserve"
   sodipodi:docname="Minesweeper_5.svg"
   inkscape:version="1.0.1 (3bc2e813f5, 2020-09-07, custom)"><metadata
   id="metadata3264"><rdf:RDF><cc:Work
       rdf:about=""><dc:format>image/svg+xml</dc:format><dc:type
         rdf:resource="http://purl.org/dc/dcmitype/StillImage" /></cc:Work></rdf:RDF></metadata><defs
   id="defs3262" /><sodipodi:namedview
   pagecolor="#ffffff"
   bordercolor="#666666"
   borderopacity="1"
   objecttolerance="10"
   gridtolerance="10"
   guidetolerance="10"
   inkscape:pageopacity="0"
   inkscape:pageshadow="2"
   inkscape:window-width="1920"
   inkscape:window-height="1024"
   id="namedview3260"
   showgrid="false"
   inkscape:zoom="10.529723"
   inkscape:cx="40.383082"
   inkscape:cy="38.740743"
   inkscape:window-x="0"
   inkscape:window-y="28"
   inkscape:window-maximized="1"
   inkscape:current-layer="レイヤー_1" />
<g
   id="rect1313_66_">
	<polygon
   fill="#B9B9B9"
   points="75.001,75.001 1,75.001 1,1 75.001,1  "
   id="polygon3252" />
	<path
   fill="#757575"
   d="M75.991,0C75.996,0,76,0.004,76,0.009V75.99c0,0.006-0.004,0.01-0.009,0.01H0.009   C0.004,76,0,75.996,0,75.99V0.009C0,0.004,0.004,0,0.009,0H75.991 M74,2H2v72h72V2L74,2z"
   id="path3254" />
</g>
<path
   fill="#840000"
   d="M60.78,32.065c1.765,0.757,3.006,1.726,3.869,2.922c1.324,1.837,1.736,4.211,1.736,7.139  c0,0.012,0,10.689,0,10.689c0,6.291-2.494,12.48-11.401,13.182H9.497V54.953h39.074c1.576,0,2.851-1.279,2.851-2.85v-6.412  c0-1.57-1.274-2.852-2.851-2.852L9.497,42.852V9.001l57.006,0v11.396H26.031v11.668"
   id="path3257" />
<path
   style="fill:#1a1a1a;stroke-width:0;stroke-linecap:round;stroke-linejoin:round;paint-order:markers fill stroke"
   d="M 2.0629859,38.028474 V 2.082609 H 38.008851 73.954715 V 38.028474 73.974339 H 38.008851 2.0629859 Z M 56.582348,65.843809 c 2.658487,-0.454694 4.603079,-1.371142 6.264776,-2.952462 1.766294,-1.680859 2.785061,-3.763691 3.335208,-6.818714 0.22051,-1.224504 0.222327,-1.294401 0.222327,-8.547233 0,-7.63708 -0.02015,-8.094694 -0.426445,-9.68328 -0.643341,-2.51544 -2.043052,-4.244294 -4.420709,-5.46024 L 60.806722,31.997926 H 43.448466 26.090209 V 26.204801 20.411676 H 46.318661 66.547113 V 14.666036 8.9203957 H 38.008851 9.4705881 V 25.919017 42.917638 l 19.9672869,0.02462 19.967287,0.02462 0.401097,0.214324 c 0.511474,0.273304 1.010661,0.77249 1.283964,1.283964 0.210886,0.394663 0.214768,0.462954 0.242026,4.256949 0.0267,3.71708 0.02055,3.87498 -0.171147,4.387323 -0.145088,0.387782 -0.337819,0.658483 -0.712858,1.001248 -0.929762,0.84975 1.119354,0.774834 -21.193483,0.774834 H 9.4705881 v 5.555702 5.555702 H 32.578867 c 20.822065,0 23.196847,-0.01515 24.003481,-0.153112 z"
   id="path8377" /><path
   style="fill:#666666;stroke-width:0;stroke-linecap:round;stroke-linejoin:round;paint-order:markers fill stroke"
   d="m 2.0150069,38.028474 c -3e-7,-19.796342 0.010905,-27.909008 0.024235,-18.028146 0.013329,9.880862 0.01333,26.077869 6e-7,35.99335 -0.013329,9.91548 -0.024235,1.831138 -0.024236,-17.965204 z"
   id="path8379" /><path
   style="fill:#666666;stroke-width:0;stroke-linecap:round;stroke-linejoin:round;paint-order:markers fill stroke"
   d="M 0.06863145,38.028474 V 0.08825458 H 38.008851 75.94907 V 38.028474 75.968693 H 38.008851 0.06863145 Z m 73.98105355,0 V 1.9876398 H 38.008851 1.9680166 V 38.028474 74.069308 H 38.008851 74.049685 Z"
   id="path8381" /><path
   style="fill:#666666;stroke-width:0;stroke-linecap:round;stroke-linejoin:round;paint-order:markers fill stroke"
   d="M 0.06863145,38.028474 V 0.08825458 H 38.008851 75.94907 V 38.028474 75.968693 H 38.008851 0.06863145 Z m 73.98105355,0 V 1.9876398 H 38.008851 1.9680166 V 38.028474 74.069308 H 38.008851 74.049685 Z"
   id="path8383" /><path
   style="fill:#666666;stroke-width:0;stroke-linecap:round;stroke-linejoin:round;paint-order:markers fill stroke"
   d="M 0.06863145,38.028474 V 0.08825458 H 38.008851 75.94907 V 38.028474 75.968693 H 38.008851 0.06863145 Z m 73.98105355,0 V 1.9876398 H 38.008851 1.9680166 V 38.028474 74.069308 H 38.008851 74.049685 Z"
   id="path8385" /></svg>
