<?xml version="1.0" encoding="UTF-8" standalone="no"?>
<svg
   xmlns:dc="http://purl.org/dc/elements/1.1/"
   xmlns:cc="http://creativecommons.org/ns#"
   xmlns:rdf="http://www.w3.org/1999/02/22-rdf-syntax-ns#"
   xmlns:svg="http://www.w3.org/2000/svg"
   xmlns="http://www.w3.org/2000/svg"
   xmlns:sodipodi="http://sodipodi.sourceforge.net/DTD/sodipodi-0.dtd"
   xmlns:inkscape="http://www.inkscape.org/namespaces/inkscape"
   version="1.1"
   id="レイヤー_1"
   x="0px"
   y="0px"
   width="76px"
   height="76px"
   viewBox="0 0 76 76"
   enable-background="new 0 0 76 76"
   xml:space="preserve"
   sodipodi:docname="Minesweeper_mine.svg"
   inkscape:version="1.0.1 (3bc2e813f5, 2020-09-07, custom)"><metadata
   id="metadata1315"><rdf:RDF><cc:Work
       rdf:about=""><dc:format>image/svg+xml</dc:format><dc:type
         rdf:resource="http://purl.org/dc/dcmitype/StillImage" /><dc:title /></cc:Work></rdf:RDF></metadata><defs
   id="defs1313" /><sodipodi:namedview
   pagecolor="#ffffff"
   bordercolor="#666666"
   borderopacity="1"
   objecttolerance="10"
   gridtolerance="10"
   guidetolerance="10"
   inkscape:pageopacity="0"
   inkscape:pageshadow="2"
   inkscape:window-width="1920"
   inkscape:window-height="1024"
   id="namedview1311"
   showgrid="false"
   inkscape:snap-global="true"
   inkscape:zoom="9.9322328"
   inkscape:cx="43.797087"
   inkscape:cy="40.068642"
   inkscape:window-x="0"
   inkscape:window-y="28"
   inkscape:window-maximized="1"
   inkscape:current-layer="レイヤー_1"
   inkscape:document-rotation="0" />
<g
   id="rect1313_66_">
	<polygon
   fill="#B9B9B9"
   points="75.001,75.001 1,75.001 1,1 75.001,1 75.001,75.001  "
   id="polygon1305" />
	<path
   fill="#757575"
   d="M75.991,0C75.996,0,76,0.004,76,0.009V75.99c0,0.006-0.004,0.01-0.009,0.01H0.009   C0.004,76,0,75.996,0,75.99V0.009C0,0.004,0.004,0,0.009,0H75.991 M74,2H2v72h72V2L74,2z"
   id="path1307" />
</g>
<path
   id="path1390"
   style="fill:#000000;stroke-width:0.381281"
   d="m 36.458984,6.71875 v 3.748047 3.746094 L 33.884766,14.6875 c -3.293356,0.60591 -7.158651,2.231316 -9.642578,4.054688 l -1.951172,1.43164 -2.742188,-2.722656 -2.74414,-2.72461 -1.039063,1.039063 -1.039063,1.039063 2.699219,2.71875 2.701172,2.71875 -1.917969,2.722656 c -2.073664,2.94529 -2.881017,5.444004 -3.535156,8.99414 l -0.460937,2.5 H 10.466797 6.71875 v 1.525391 1.525391 h 3.748047 3.746094 l 0.466797,2.535156 c 0.612486,3.32409 1.931039,6.503792 3.878906,9.357422 l 1.578125,2.314453 -2.705078,2.722656 -2.705079,2.724609 1.039063,1.039063 1.039063,1.039063 2.724609,-2.705079 2.724609,-2.705078 2.3125,1.578125 c 2.884379,1.968858 6.061594,3.276345 9.353516,3.84961 l 2.539062,0.443359 V 65.476562 69.25 h 1.525391 1.525391 v -3.773438 -3.773437 l 2.539062,-0.443359 c 3.291917,-0.573265 6.469139,-1.880752 9.353516,-3.84961 l 2.314453,-1.578125 2.722656,2.705078 2.724609,2.705079 1.039063,-1.039063 1.039063,-1.039063 -2.705079,-2.724609 -2.705078,-2.722656 1.578125,-2.314453 c 1.947866,-2.85363 3.266415,-6.033332 3.878906,-9.357422 l 0.466797,-2.535156 H 65.501953 69.25 v -1.525391 -1.525391 h -3.748047 -3.746094 l -0.466797,-2.535156 c -0.612492,-3.324089 -1.93104,-6.503796 -3.878906,-9.357422 l -1.578125,-2.3125 2.705078,-2.724609 2.705079,-2.724609 -1.039063,-1.039063 -1.039063,-1.039063 -2.742187,2.72461 -2.742187,2.722656 -1.953126,-1.43164 C 49.242635,16.918816 45.37734,15.29341 42.083984,14.6875 L 39.509766,14.212891 V 10.466797 6.71875 H 37.984375 Z M 12.601562,63.0625 c 5.25e-4,0.02301 0.0028,0.03963 0,0.07422 -0.006,0.03927 0.0016,-0.03774 0.0039,-0.07227 -9.15e-4,-10e-4 -0.003,-6.55e-4 -0.0039,-0.002 z" /><path
   style="fill:#ffffff;stroke-width:0;stroke-linecap:round;stroke-linejoin:round;paint-order:markers fill stroke"
   d="M 36.497621,65.407681 V 61.649538 L 35.16358,61.420901 c -2.788592,-0.477928 -4.412601,-0.935115 -6.501432,-1.830267 -1.509305,-0.646801 -2.63633,-1.289629 -4.6854,-2.672433 l -1.697525,-1.145567 -2.279426,2.207792 c -1.253683,1.214286 -2.481948,2.416019 -2.729476,2.670516 l -0.450053,0.462724 -0.984401,-0.980708 -0.984402,-0.980707 2.679317,-2.686066 c 1.473624,-1.477335 2.662812,-2.724249 2.642641,-2.770919 -0.02017,-0.04667 -0.610794,-0.945689 -1.312494,-1.997819 -2.394372,-3.590123 -3.483436,-6.218031 -4.213815,-10.167923 -0.163932,-0.886548 -0.321922,-1.713847 -0.351088,-1.838441 l -0.05303,-0.226535 H 10.51967 6.7963433 v -1.459893 -1.459894 h 3.7233267 3.723327 l 0.04655,-0.226535 c 0.0256,-0.124594 0.252266,-1.276349 0.503692,-2.559455 0.506012,-2.582336 1.018664,-4.282161 1.753915,-5.815539 0.622121,-1.297442 1.08087,-2.041195 2.50975,-4.068979 l 1.159713,-1.645797 -2.706723,-2.708116 -2.706723,-2.708117 1.004245,-1.008027 1.004244,-1.008027 2.735154,2.733796 2.735152,2.733797 1.283585,-0.939781 c 3.637572,-2.663261 6.922956,-4.005561 11.950412,-4.882546 l 0.981653,-0.171239 V 10.506499 6.7428018 h 1.459893 1.459893 v 3.7542932 3.754293 l 1.753267,0.323161 c 4.505593,0.830468 7.862739,2.257543 11.346465,4.823223 0.519996,0.382964 1.006227,0.733071 1.080514,0.778013 0.0956,0.05784 0.92703,-0.70826 2.845195,-2.621606 l 2.710131,-2.703321 0.972149,0.972149 0.972149,0.97215 -2.609158,2.682662 c -1.435036,1.475466 -2.622886,2.720863 -2.639666,2.767549 -0.01678,0.04669 0.526903,0.916301 1.208187,1.932475 2.493132,3.718651 3.659854,6.63298 4.416904,11.032878 l 0.229536,1.33404 h 3.758143 3.758144 v 1.459894 1.459893 l -3.750416,6.5e-5 -3.750415,6.5e-5 -0.421701,2.139434 c -0.832059,4.221316 -1.86065,6.672172 -4.336558,10.332847 -0.575989,0.851609 -1.072801,1.614959 -1.104026,1.696333 -0.03784,0.09859 0.838373,1.043558 2.626481,2.832586 l 2.683255,2.684637 -1.008021,1.004239 -1.008021,1.004238 -2.701396,-2.700005 -2.701395,-2.700006 -2.004906,1.327984 c -3.790433,2.510659 -6.34622,3.537212 -10.688711,4.293206 l -1.636044,0.284823 -4.4e-5,3.750416 -4.2e-5,3.750415 h -1.459893 -1.459893 z"
   id="path9620" /><path
   style="fill:#1a1a1a;stroke-width:0;stroke-linecap:round;stroke-linejoin:round;paint-order:markers fill stroke"
   d="M 2.0642754,38.004655 V 2.0107339 H 38.007855 73.951435 V 38.004655 73.998575 H 38.007855 2.0642754 Z M 39.518089,65.508861 v -3.757646 l 1.636088,-0.278697 c 4.247065,-0.723462 7.002067,-1.825486 10.616353,-4.246632 1.025841,-0.687193 1.893868,-1.249442 1.928948,-1.249442 0.03508,0 1.275808,1.211401 2.75717,2.692002 l 2.693388,2.692001 1.057714,-1.054115 c 0.581744,-0.579763 1.057715,-1.099923 1.057715,-1.155909 0,-0.05599 -1.20027,-1.302741 -2.667266,-2.770563 l -2.667266,-2.668767 1.218001,-1.812282 c 1.460611,-2.173263 2.685332,-4.590032 3.365439,-6.641092 0.284905,-0.859212 0.628413,-2.238827 0.883672,-3.549051 l 0.417587,-2.143438 h 3.752208 3.752209 V 38.004655 36.444079 H 65.561604 61.803159 L 61.527731,34.908674 C 60.755359,30.603013 59.673994,27.89129 57.322029,24.362102 56.639345,23.337715 56.043552,22.44134 55.998043,22.370158 c -0.05747,-0.08989 0.740772,-0.959603 2.613605,-2.847595 l 2.696347,-2.718174 -1.078372,-1.07837 -1.078372,-1.078372 -2.708575,2.707182 c -1.708085,1.707205 -2.75872,2.685742 -2.844332,2.649141 -0.07467,-0.03192 -0.711336,-0.480223 -1.414821,-0.996225 -3.060391,-2.244774 -6.328676,-3.625553 -10.52341,-4.445909 l -2.141894,-0.418885 -6.4e-5,-3.750416 -6.6e-5,-3.7504155 h -1.560575 -1.560576 v 3.7649135 3.764913 l -1.233358,0.220309 c -3.250064,0.580543 -5.517062,1.30411 -8.029413,2.562777 -1.352642,0.677663 -2.158629,1.174618 -3.533228,2.178519 -0.608655,0.444515 -1.16137,0.829142 -1.228254,0.854729 -0.06688,0.02558 -1.321925,-1.154552 -2.788977,-2.622528 -1.467053,-1.467977 -2.713806,-2.669049 -2.770563,-2.669049 -0.05676,0 -0.577545,0.475972 -1.157308,1.057715 l -1.054116,1.057715 2.692001,2.693387 c 1.480602,1.481363 2.692002,2.724054 2.692002,2.761535 0,0.03748 -0.488867,0.762085 -1.086371,1.61023 -1.404477,1.993629 -1.926459,2.840746 -2.47166,4.011218 -0.850646,1.826222 -1.316095,3.427251 -1.872591,6.441248 -0.168701,0.913692 -0.330592,1.763199 -0.359759,1.887793 l -0.05303,0.226535 H 10.418988 6.695661 v 1.560576 1.560575 h 3.71846 c 3.454113,0 3.722221,0.01253 3.771372,0.176194 0.0291,0.09691 0.165253,0.79127 0.302563,1.543031 0.357826,1.959081 0.51434,2.586101 1.040198,4.167195 0.665138,1.999869 1.793014,4.20682 3.283965,6.425843 l 1.249503,1.85967 -2.705608,2.704216 -2.705608,2.704216 1.078207,1.081561 1.078208,1.081562 2.694665,-2.677769 c 1.533387,-1.523773 2.749867,-2.656076 2.822759,-2.627433 0.07045,0.02769 0.916327,0.579362 1.879721,1.22595 3.643806,2.445562 6.434319,3.530659 11.160879,4.339934 l 1.031993,0.176698 v 3.760205 3.760204 h 1.560576 1.560575 z"
   id="path9622" /><path
   style="fill:#666666;stroke-width:0;stroke-linecap:round;stroke-linejoin:round;paint-order:markers fill stroke"
   d="M 0.05062951,37.954313 V -0.002912 H 38.007855 75.96508 V 37.954313 75.911539 H 38.007855 0.05062951 Z m 74.00148749,0 V 1.9100516 H 38.007855 1.9635931 V 37.954313 73.998575 H 38.007855 74.052117 Z"
   id="path9624" /></svg>
