<?xml version="1.0" encoding="UTF-8" standalone="no"?>
<svg
   xmlns:dc="http://purl.org/dc/elements/1.1/"
   xmlns:cc="http://creativecommons.org/ns#"
   xmlns:rdf="http://www.w3.org/1999/02/22-rdf-syntax-ns#"
   xmlns:svg="http://www.w3.org/2000/svg"
   xmlns="http://www.w3.org/2000/svg"
   xmlns:sodipodi="http://sodipodi.sourceforge.net/DTD/sodipodi-0.dtd"
   xmlns:inkscape="http://www.inkscape.org/namespaces/inkscape"
   version="1.1"
   id="レイヤー_1"
   x="0px"
   y="0px"
   width="76px"
   height="76px"
   viewBox="0 0 76 76"
   enable-background="new 0 0 76 76"
   xml:space="preserve"
   sodipodi:docname="Minesweeper_1.svg"
   inkscape:version="1.0.1 (3bc2e813f5, 2020-09-07, custom)"><metadata
   id="metadata3184"><rdf:RDF><cc:Work
       rdf:about=""><dc:format>image/svg+xml</dc:format><dc:type
         rdf:resource="http://purl.org/dc/dcmitype/StillImage" /></cc:Work></rdf:RDF></metadata><defs
   id="defs3182" /><sodipodi:namedview
   pagecolor="#ffffff"
   bordercolor="#666666"
   borderopacity="1"
   objecttolerance="10"
   gridtolerance="10"
   guidetolerance="10"
   inkscape:pageopacity="0"
   inkscape:pageshadow="2"
   inkscape:window-width="1920"
   inkscape:window-height="1024"
   id="namedview3180"
   showgrid="false"
   inkscape:zoom="9.781776"
   inkscape:cx="40.071327"
   inkscape:cy="36.249883"
   inkscape:window-x="0"
   inkscape:window-y="28"
   inkscape:window-maximized="1"
   inkscape:current-layer="レイヤー_1"
   inkscape:document-rotation="0" />
<g
   id="rect1313_66_">
	<polygon
   fill="#B9B9B9"
   points="75.001,75.001 1,75.001 1,1 75.001,1  "
   id="polygon3170" />
	<path
   fill="#757575"
   d="M75.991,0C75.996,0,76,0.004,76,0.009V75.99c0,0.006-0.004,0.01-0.009,0.01H0.009   C0.004,76,0,75.996,0,75.99V0.009C0,0.004,0.004,0,0.009,0H75.991 M74,2H2v72h72V2L74,2z"
   id="path3172" />
</g>
<g
   id="g3177">
	<polygon
   fill="#0000FF"
   points="40.857,8.928 18,26.071 18,31.785 32.286,31.785 32.286,54.644 18,54.644 18,66.071 58,66.071    58,54.644 46.571,54.644 46.571,8.928  "
   id="polygon3175" />
</g>
<path
   style="fill:#1a1a1a;stroke-width:0;stroke-linecap:round;stroke-linejoin:round;paint-order:markers fill stroke"
   d="M 2.0834327,38 V 2.0381406 H 38 73.916567 V 38 73.961859 H 38 2.0834327 Z M 58.064362,60.328963 V 54.576877 H 52.357569 46.650775 V 31.749702 8.9225268 H 43.706419 40.762062 L 29.34885,17.482999 17.935638,26.043472 v 2.898407 2.898407 h 7.156138 7.156138 v 11.368296 11.368295 h -7.156138 -7.156138 v 5.752086 5.752086 H 38 58.064362 Z"
   id="path8357" /><path
   style="fill:#666666;stroke-width:0;stroke-linecap:round;stroke-linejoin:round;paint-order:markers fill stroke"
   d="M 0.04395858,38.023321 V 0.06540346 H 38.001876 75.959794 V 38.023321 75.981239 H 38.001876 0.04395858 Z M 74.018212,37.974782 V 1.9099059 H 38.001876 1.98554 V 37.974782 74.039657 h 36.016336 36.016336 z"
   id="path8359" /><path
   style="fill:#0068ff;stroke-width:0;stroke-linecap:round;stroke-linejoin:round;paint-order:markers fill stroke;fill-opacity:1"
   d="m 18.040563,60.325266 v -5.673817 h 7.156165 7.156164 V 43.201586 31.751722 H 25.196728 18.040563 V 28.940729 26.129736 L 29.48995,17.541981 40.939337,8.9542263 h 2.811827 2.811827 V 31.802838 54.651449 h 5.673816 5.673816 v 5.673817 5.673816 h -19.93503 -19.93503 z"
   id="path9009" /></svg>
