<?xml version="1.0" encoding="UTF-8" standalone="no"?>
<!-- Generator: Adobe Illustrator 13.0.3, SVG Export Plug-In . SVG Version: 6.00 Build 14948)  -->

<svg
   version="1.1"
   id="レイヤー_1"
   x="0px"
   y="0px"
   width="76px"
   height="76px"
   viewBox="0 0 76 76"
   enable-background="new 0 0 76 76"
   xml:space="preserve"
   sodipodi:docname="mine.svg"
   inkscape:version="1.1.1 (3bf5ae0d25, 2021-09-20)"
   xmlns:inkscape="http://www.inkscape.org/namespaces/inkscape"
   xmlns:sodipodi="http://sodipodi.sourceforge.net/DTD/sodipodi-0.dtd"
   xmlns="http://www.w3.org/2000/svg"
   xmlns:svg="http://www.w3.org/2000/svg"><defs
   id="defs10"><rect
     x="1"
     y="1"
     width="74.001"
     height="74.001"
     id="rect5341" /><rect
     x="1"
     y="1"
     width="117.61676"
     height="101.51824"
     id="rect5341-2" /></defs><sodipodi:namedview
   id="namedview8"
   pagecolor="#ffffff"
   bordercolor="#666666"
   borderopacity="1.0"
   inkscape:pageshadow="2"
   inkscape:pageopacity="0.0"
   inkscape:pagecheckerboard="0"
   showgrid="false"
   inkscape:snap-bbox="true"
   inkscape:snap-bbox-midpoints="false"
   inkscape:zoom="3.7774389"
   inkscape:cx="14.56013"
   inkscape:cy="50.960454"
   inkscape:window-width="1920"
   inkscape:window-height="1001"
   inkscape:window-x="-9"
   inkscape:window-y="-9"
   inkscape:window-maximized="1"
   inkscape:current-layer="レイヤー_1"
   inkscape:snap-center="true"
   inkscape:snap-bbox-edge-midpoints="true"
   inkscape:object-paths="false"
   inkscape:snap-midpoints="true" />
<g
   id="rect1313_66_"
   style="stroke:none">
	<polygon
   fill="#B9B9B9"
   points="75.001,75.001 1,75.001 1,1 75.001,1 75.001,75.001  "
   id="polygon2"
   style="fill:#338000;fill-opacity:1;stroke:none" />
	<path
   fill="#757575"
   d="M75.991,0C75.996,0,76,0.004,76,0.009V75.99c0,0.006-0.004,0.01-0.009,0.01H0.009   C0.004,76,0,75.996,0,75.99V0.009C0,0.004,0.004,0,0.009,0H75.991 M74,2H2v72h72V2L74,2z"
   id="path4"
   style="fill:#d38d5f;fill-opacity:1;stroke:none" />
</g><path
   id="path35273-0"
   style="fill:#ffffff;fill-opacity:1;fill-rule:evenodd;stroke:#000000;stroke-width:1.88976378;stroke-linecap:square;paint-order:stroke fill markers;stroke-opacity:1;stroke-miterlimit:4;stroke-dasharray:none"
   inkscape:transform-center-x="-9.8994954"
   inkscape:transform-center-y="-9.8994941"
   d="M 38 5.9980469 A 7.1208916 18.001616 0 0 0 30.986328 21.066406 A 18.001616 7.1208916 45 0 0 15.371094 15.371094 A 18.001616 7.1208916 45 0 0 21.066406 30.986328 A 18.001616 7.1208916 0 0 0 5.9980469 38 A 18.001616 7.1208916 0 0 0 21.066406 45.013672 A 7.1208916 18.001616 45 0 0 15.371094 60.628906 A 7.1208916 18.001616 45 0 0 31.763672 54.236328 A -7.1208916 -18.001616 0 0 0 38 70.001953 A -7.1208916 -18.001616 0 0 0 44.236328 54.236328 A 18.001616 7.1208916 45 0 0 60.628906 60.628906 A 18.001616 7.1208916 45 0 0 54.947266 45.013672 A 18.001616 7.1208916 0 0 0 70.001953 38 A 18.001616 7.1208916 0 0 0 54.957031 30.976562 A 7.1208916 18.001616 45 0 0 60.628906 15.371094 A 7.1208916 18.001616 45 0 0 45.025391 21.056641 A 7.1208916 18.001616 0 0 0 38 5.9980469 z " />
<circle
   style="fill:#ffff00;fill-opacity:1;fill-rule:evenodd;stroke:#000000;stroke-width:1.88976378;stroke-linecap:square;paint-order:stroke fill markers;stroke-opacity:1;stroke-miterlimit:4;stroke-dasharray:none"
   id="path35151"
   cx="38.0005"
   cy="38.0005"
   r="9.1136904" /><rect
   style="fill:#000000;fill-opacity:1;fill-rule:evenodd;stroke:none;stroke-width:4.80814;stroke-linecap:square;stroke-miterlimit:4;stroke-dasharray:none;stroke-opacity:1;paint-order:stroke fill markers"
   id="rect36281"
   width="1.4808432"
   height="10.531264"
   x="25.803572"
   y="41.797699"
   transform="matrix(0.65456381,-0.75600676,0.31147263,0.95025512,0,0)"
   inkscape:transform-center-x="5.9668231"
   inkscape:transform-center-y="-13.345767" /><rect
   style="fill:#000000;fill-opacity:1;fill-rule:evenodd;stroke:none;stroke-width:4.80814;stroke-linecap:square;stroke-miterlimit:4;stroke-dasharray:none;stroke-opacity:1;paint-order:stroke fill markers"
   id="rect36281-3"
   width="1.4808432"
   height="10.531264"
   x="57.050365"
   y="26.667326"
   transform="matrix(0.99742401,-0.071731,-0.45168743,0.89217625,0,0)"
   inkscape:transform-center-x="-5.2177027"
   inkscape:transform-center-y="-13.656064" /><rect
   style="fill:#000000;fill-opacity:1;fill-rule:evenodd;stroke:none;stroke-width:4.80814;stroke-linecap:square;stroke-miterlimit:4;stroke-dasharray:none;stroke-opacity:1;paint-order:stroke fill markers"
   id="rect36281-3-7"
   width="1.4808432"
   height="10.531264"
   x="53.410381"
   y="-16.218372"
   transform="matrix(0.75600676,0.65456381,-0.95025512,0.31147263,0,0)"
   inkscape:transform-center-x="-13.345769"
   inkscape:transform-center-y="-5.9668212" /><rect
   style="fill:#000000;fill-opacity:1;fill-rule:evenodd;stroke:none;stroke-width:4.80814;stroke-linecap:square;stroke-miterlimit:4;stroke-dasharray:none;stroke-opacity:1;paint-order:stroke fill markers"
   id="rect36281-3-7-5"
   width="1.4808432"
   height="10.531264"
   x="17.015873"
   y="-61.737534"
   transform="matrix(0.071731,0.99742401,-0.89217625,-0.45168743,0,0)"
   inkscape:transform-center-x="-13.656065"
   inkscape:transform-center-y="5.2177043" /><rect
   style="fill:#000000;fill-opacity:1;fill-rule:evenodd;stroke:none;stroke-width:4.48655;stroke-linecap:square;stroke-miterlimit:4;stroke-dasharray:none;stroke-opacity:1;paint-order:stroke fill markers"
   id="rect36281-3-7-5-4"
   width="1.3510011"
   height="10.050893"
   x="-35.954197"
   y="-87.556732"
   transform="matrix(-0.59895429,0.80078322,-0.27244829,-0.96217043,0,0)"
   inkscape:transform-center-x="-4.9811684"
   inkscape:transform-center-y="12.896727" /><rect
   style="fill:#000000;fill-opacity:1;fill-rule:evenodd;stroke:none;stroke-width:4.80814;stroke-linecap:square;stroke-miterlimit:4;stroke-dasharray:none;stroke-opacity:1;paint-order:stroke fill markers"
   id="rect36281-3-7-5-4-8"
   width="1.4808432"
   height="10.531264"
   x="-62.059753"
   y="-68.09465"
   transform="matrix(-0.99742401,0.071731,0.45168743,-0.89217625,0,0)"
   inkscape:transform-center-x="5.2177037"
   inkscape:transform-center-y="13.656062" /><rect
   style="fill:#000000;fill-opacity:1;fill-rule:evenodd;stroke:none;stroke-width:4.80814;stroke-linecap:square;stroke-miterlimit:4;stroke-dasharray:none;stroke-opacity:1;paint-order:stroke fill markers"
   id="rect36281-3-7-5-4-8-5"
   width="1.4808432"
   height="10.531264"
   x="-58.419815"
   y="-25.209518"
   transform="matrix(-0.75600676,-0.65456381,0.95025512,-0.31147263,0,0)"
   inkscape:transform-center-x="13.345769"
   inkscape:transform-center-y="5.9668194" /><rect
   style="fill:#000000;fill-opacity:1;fill-rule:evenodd;stroke:none;stroke-width:4.80814;stroke-linecap:square;stroke-miterlimit:4;stroke-dasharray:none;stroke-opacity:1;paint-order:stroke fill markers"
   id="rect36281-3-7-5-4-8-5-0"
   width="1.4808432"
   height="10.531264"
   x="-22.025787"
   y="20.309042"
   transform="matrix(-0.071731,-0.99742401,0.89217625,0.45168743,0,0)"
   inkscape:transform-center-x="13.656063"
   inkscape:transform-center-y="-5.2177051" /></svg>
