<?xml version="1.0" encoding="UTF-8" standalone="no"?>
<!-- Generator: Adobe Illustrator 13.0.3, SVG Export Plug-In . SVG Version: 6.00 Build 14948)  -->

<svg
   version="1.1"
   id="レイヤー_1"
   x="0px"
   y="0px"
   width="76px"
   height="76px"
   viewBox="0 0 76 76"
   enable-background="new 0 0 76 76"
   xml:space="preserve"
   sodipodi:docname="8.svg"
   inkscape:version="1.1.1 (3bf5ae0d25, 2021-09-20, custom)"
   xmlns:inkscape="http://www.inkscape.org/namespaces/inkscape"
   xmlns:sodipodi="http://sodipodi.sourceforge.net/DTD/sodipodi-0.dtd"
   xmlns="http://www.w3.org/2000/svg"
   xmlns:svg="http://www.w3.org/2000/svg"><defs
   id="defs12" /><sodipodi:namedview
   id="namedview10"
   pagecolor="#ffffff"
   bordercolor="#666666"
   borderopacity="1.0"
   inkscape:pageshadow="2"
   inkscape:pageopacity="0.0"
   inkscape:pagecheckerboard="0"
   showgrid="false"
   inkscape:zoom="8.3552632"
   inkscape:cx="38.059843"
   inkscape:cy="38"
   inkscape:window-width="1920"
   inkscape:window-height="995"
   inkscape:window-x="0"
   inkscape:window-y="55"
   inkscape:window-maximized="1"
   inkscape:current-layer="レイヤー_1" />
<g
   id="rect1313_66_">
	<polygon
   fill="#B9B9B9"
   points="75.001,75.001 1,75.001 1,1 75.001,1  "
   id="polygon2" />
	<path
   fill="#757575"
   d="M75.991,0C75.996,0,76,0.004,76,0.009V75.99c0,0.006-0.004,0.01-0.009,0.01H0.009   C0.004,76,0,75.996,0,75.99V0.009C0,0.004,0.004,0,0.009,0H75.991 M74,2H2v72h72V2L74,2z"
   id="path4" />
</g>

<path
   style="fill:#757575;fill-opacity:1;stroke:#fffffe;stroke-width:0.121201"
   d="M 11.613032,25.639267 C 9.0114938,24.87132 6.9593345,23.434748 5.2738845,21.201672 3.7157405,19.137266 3.0548183,17.137202 3.0606384,14.504008 3.0680584,11.162922 4.1074535,8.6786823 6.4707255,6.3538933 7.9246938,4.9236003 9.4066228,4.0180212 11.281386,3.4141859 c 1.133303,-0.3650209 4.53159,-0.4782416 5.761836,-0.1919666 3.460946,0.8053523 6.61462,3.483225 8.081255,6.8620187 0.722346,1.664124 0.827805,2.252629 0.813807,4.541403 -0.01167,1.907068 -0.03706,2.130825 -0.343536,3.027546 -1.298776,3.800012 -3.990457,6.577418 -7.554018,7.794592 -1.055158,0.360402 -2.135463,0.496248 -3.908752,0.491516 -1.245609,-0.0033 -1.695255,-0.05689 -2.518946,-0.300028 z"
   id="path3257" /><path
   style="fill:#757575;fill-opacity:1;stroke:#fffffe;stroke-width:0.121201"
   d="M 11.613031,49.139267 C 9.0114938,48.37132 6.9593345,46.934748 5.2738845,44.701672 3.7157405,42.637266 3.0548183,40.637202 3.0606384,38.004008 c 0.00742,-3.341086 1.0468151,-5.825326 3.4100871,-8.150115 1.4539683,-1.430293 2.9358973,-2.335872 4.8106595,-2.939708 1.133303,-0.36502 4.53159,-0.478241 5.761836,-0.191966 3.460946,0.805352 6.61462,3.483225 8.081255,6.862019 0.722346,1.664124 0.827805,2.252629 0.813807,4.541403 -0.01167,1.907068 -0.03706,2.130825 -0.343536,3.027546 -1.298776,3.800012 -3.990457,6.577418 -7.554018,7.794592 -1.055158,0.360402 -2.135463,0.496248 -3.908752,0.491516 -1.245609,-0.0033 -1.695255,-0.05689 -2.518946,-0.300028 z"
   id="path3257-3" /><path
   style="fill:#757575;fill-opacity:1;stroke:#fffffe;stroke-width:0.121201"
   d="M 11.613032,72.639267 C 9.0114938,71.87132 6.9593345,70.434748 5.2738845,68.201672 3.7157405,66.137266 3.0548183,64.137202 3.0606384,61.504008 c 0.00742,-3.341086 1.0468151,-5.825326 3.4100871,-8.150115 1.4539683,-1.430293 2.9358973,-2.335872 4.8106605,-2.939708 1.133303,-0.36502 4.53159,-0.478241 5.761836,-0.191966 3.460946,0.805352 6.61462,3.483225 8.081255,6.862019 0.722346,1.664124 0.827805,2.252629 0.813807,4.541403 -0.01167,1.907068 -0.03706,2.130825 -0.343536,3.027546 -1.298776,3.800012 -3.990457,6.577418 -7.554018,7.794592 -1.055158,0.360402 -2.135463,0.496248 -3.908752,0.491516 -1.245609,-0.0033 -1.695255,-0.05689 -2.518946,-0.300028 z"
   id="path3257-6" /><path
   style="fill:#757575;fill-opacity:1;stroke:#fffffe;stroke-width:0.121201"
   d="m 35.113031,37.389267 c -2.601538,-0.767947 -4.653697,-2.204519 -6.339147,-4.437595 -1.558144,-2.064406 -2.219066,-4.06447 -2.213246,-6.697664 0.0074,-3.341086 1.046815,-5.825326 3.410087,-8.150115 1.453968,-1.430293 2.935897,-2.335872 4.81066,-2.939707 1.133303,-0.365021 4.53159,-0.478242 5.761836,-0.191967 3.460946,0.805353 6.61462,3.483225 8.081255,6.862019 0.722346,1.664124 0.827805,2.252629 0.813807,4.541403 -0.01167,1.907068 -0.03706,2.130825 -0.343536,3.027546 -1.298776,3.800012 -3.990457,6.577418 -7.554018,7.794592 -1.055158,0.360402 -2.135463,0.496248 -3.908752,0.491516 -1.245609,-0.0033 -1.695255,-0.05689 -2.518946,-0.300028 z"
   id="path3257-7" /><path
   style="fill:#757575;fill-opacity:1;stroke:#fffffe;stroke-width:0.121201"
   d="m 35.113031,60.889267 c -2.601538,-0.767947 -4.653697,-2.204519 -6.339147,-4.437595 -1.558144,-2.064406 -2.219067,-4.06447 -2.213246,-6.697664 0.0074,-3.341086 1.046815,-5.825326 3.410087,-8.150115 1.453968,-1.430293 2.935897,-2.335872 4.81066,-2.939707 1.133303,-0.365021 4.53159,-0.478242 5.761836,-0.191967 3.460946,0.805352 6.61462,3.483225 8.081255,6.862019 0.722346,1.664124 0.827805,2.252629 0.813807,4.541403 -0.01167,1.907068 -0.03706,2.130825 -0.343536,3.027546 -1.298776,3.800012 -3.990457,6.577418 -7.554018,7.794592 -1.055158,0.360402 -2.135463,0.496248 -3.908752,0.491516 -1.245609,-0.0033 -1.695255,-0.05689 -2.518946,-0.300028 z"
   id="path3257-5" /><path
   style="fill:#757575;fill-opacity:1;stroke:#fffffe;stroke-width:0.121201"
   d="m 58.613031,25.639267 c -2.601538,-0.767947 -4.653697,-2.204519 -6.339147,-4.437595 -1.558144,-2.064406 -2.219067,-4.06447 -2.213246,-6.697664 0.0074,-3.341086 1.046815,-5.8253257 3.410087,-8.1501147 1.453968,-1.430293 2.935897,-2.3358721 4.81066,-2.9397074 1.133303,-0.3650209 4.53159,-0.4782416 5.761836,-0.1919666 3.460946,0.8053523 6.61462,3.483225 8.081255,6.8620187 0.722346,1.664124 0.827805,2.252629 0.813807,4.541403 -0.01167,1.907068 -0.03706,2.130825 -0.343536,3.027546 -1.298776,3.800012 -3.990457,6.577418 -7.554018,7.794592 -1.055158,0.360402 -2.135463,0.496248 -3.908752,0.491516 -1.245609,-0.0033 -1.695255,-0.05689 -2.518946,-0.300028 z"
   id="path3257-35" /><path
   style="fill:#757575;fill-opacity:1;stroke:#fffffe;stroke-width:0.121201"
   d="m 58.613031,49.139267 c -2.601538,-0.767947 -4.653697,-2.204519 -6.339147,-4.437595 -1.558144,-2.064406 -2.219066,-4.06447 -2.213246,-6.697664 0.0074,-3.341086 1.046815,-5.825326 3.410087,-8.150115 1.453968,-1.430293 2.935897,-2.335872 4.81066,-2.939708 1.133303,-0.36502 4.53159,-0.478241 5.761836,-0.191966 3.460946,0.805352 6.61462,3.483225 8.081255,6.862019 0.722346,1.664124 0.827805,2.252629 0.813807,4.541403 -0.01167,1.907068 -0.03706,2.130825 -0.343536,3.027546 -1.298776,3.800012 -3.990457,6.577418 -7.554018,7.794592 -1.055158,0.360402 -2.135463,0.496248 -3.908752,0.491516 -1.245609,-0.0033 -1.695255,-0.05689 -2.518946,-0.300028 z"
   id="path3257-62" /><path
   style="fill:#757575;fill-opacity:1;stroke:#fffffe;stroke-width:0.121201"
   d="m 58.613031,72.639267 c -2.601538,-0.767947 -4.653697,-2.204519 -6.339147,-4.437595 -1.558144,-2.064406 -2.219066,-4.06447 -2.213246,-6.697664 0.0074,-3.341086 1.046815,-5.825326 3.410087,-8.150115 1.453968,-1.430293 2.935897,-2.335872 4.81066,-2.939708 1.133303,-0.36502 4.53159,-0.478241 5.761836,-0.191966 3.460946,0.805352 6.61462,3.483225 8.081255,6.862019 0.722346,1.664124 0.827805,2.252629 0.813807,4.541403 -0.01167,1.907068 -0.03706,2.130825 -0.343536,3.027546 -1.298776,3.800012 -3.990457,6.577418 -7.554018,7.794592 -1.055158,0.360402 -2.135463,0.496248 -3.908752,0.491516 -1.245609,-0.0033 -1.695255,-0.05689 -2.518946,-0.300028 z"
   id="path3257-9" /></svg>
