<?xml version="1.0" encoding="UTF-8" standalone="no"?>
<svg
   xmlns:dc="http://purl.org/dc/elements/1.1/"
   xmlns:cc="http://creativecommons.org/ns#"
   xmlns:rdf="http://www.w3.org/1999/02/22-rdf-syntax-ns#"
   xmlns:svg="http://www.w3.org/2000/svg"
   xmlns="http://www.w3.org/2000/svg"
   xmlns:sodipodi="http://sodipodi.sourceforge.net/DTD/sodipodi-0.dtd"
   xmlns:inkscape="http://www.inkscape.org/namespaces/inkscape"
   id="emoji"
   viewBox="0 0 72 72"
   version="1.1"
   sodipodi:docname="grimacing_face.svg"
   inkscape:version="1.0.2 (e86c870879, 2021-01-15)">
  <metadata
     id="metadata24">
    <rdf:RDF>
      <cc:Work
         rdf:about="">
        <dc:format>image/svg+xml</dc:format>
        <dc:type
           rdf:resource="http://purl.org/dc/dcmitype/StillImage" />
      </cc:Work>
    </rdf:RDF>
  </metadata>
  <defs
     id="defs22" />
  <sodipodi:namedview
     pagecolor="#ffffff"
     bordercolor="#666666"
     borderopacity="1"
     objecttolerance="10"
     gridtolerance="10"
     guidetolerance="10"
     inkscape:pageopacity="0"
     inkscape:pageshadow="2"
     inkscape:window-width="1920"
     inkscape:window-height="1024"
     id="namedview20"
     showgrid="false"
     inkscape:zoom="11.652778"
     inkscape:cx="36"
     inkscape:cy="36"
     inkscape:window-x="0"
     inkscape:window-y="28"
     inkscape:window-maximized="1"
     inkscape:current-layer="line" />
  <g
     id="line">
    <line
       x1="28"
       x2="28"
       y1="41.7708"
       y2="48.7708"
       fill="none"
       stroke="#ffffff"
       stroke-linecap="round"
       stroke-linejoin="round"
       stroke-width="2"
       id="line2"
       style="stroke:#ffffff;stroke-opacity:1" />
    <line
       x1="33"
       x2="33"
       y1="41.7708"
       y2="48.7708"
       fill="none"
       stroke="#ffffff"
       stroke-linecap="round"
       stroke-linejoin="round"
       stroke-width="2"
       id="line4"
       style="stroke:#ffffff;stroke-opacity:1" />
    <line
       x1="38"
       x2="38"
       y1="41.7708"
       y2="48.7708"
       fill="none"
       stroke="#ffffff"
       stroke-linecap="round"
       stroke-linejoin="round"
       stroke-width="2"
       id="line6"
       style="stroke:#ffffff;stroke-opacity:1" />
    <line
       x1="43"
       x2="43"
       y1="41.7708"
       y2="48.7708"
       fill="none"
       stroke="#ffffff"
       stroke-linecap="round"
       stroke-linejoin="round"
       stroke-width="2"
       id="line8"
       style="stroke:#ffffff;stroke-opacity:1" />
    <circle
       cx="36"
       cy="36"
       r="23"
       fill="none"
       stroke="#ffffff"
       stroke-miterlimit="10"
       stroke-width="2"
       id="circle10"
       style="stroke:#ffffff;stroke-opacity:1" />
    <path
       fill="none"
       stroke="#ffffff"
       stroke-miterlimit="2"
       stroke-width="2"
       d="M44.5,49.2708h-17c-2.2064-0.0065-3.9935-1.7936-4-4 l0,0c0.0065-2.2064,1.7936-3.9935,4-4h17c2.2064,0.0065,3.9935,1.7936,4,4l0,0C48.4935,47.4772,46.7064,49.2643,44.5,49.2708z"
       id="path12"
       style="stroke:#ffffff;stroke-opacity:1" />
    <path
       d="M30,31c0,1.6568-1.3448,3-3,3c-1.6553,0-3-1.3433-3-3c0-1.6552,1.3447-3,3-3C28.6552,28,30,29.3448,30,31"
       id="path14"
       style="fill:#ffffff;fill-opacity:1" />
    <path
       d="M48,31c0,1.6568-1.3447,3-3,3s-3-1.3433-3-3c0-1.6552,1.3447-3,3-3S48,29.3448,48,31"
       id="path16"
       style="fill:#ffffff;fill-opacity:1" />
  </g>
</svg>
