<?xml version="1.0" encoding="UTF-8" standalone="no"?>
<svg
   id="emoji"
   viewBox="0 0 72 72"
   version="1.1"
   sodipodi:docname="sleeping_face.svg"
   inkscape:version="1.1.1 (3bf5ae0d25, 2021-09-20, custom)"
   xmlns:inkscape="http://www.inkscape.org/namespaces/inkscape"
   xmlns:sodipodi="http://sodipodi.sourceforge.net/DTD/sodipodi-0.dtd"
   xmlns="http://www.w3.org/2000/svg"
   xmlns:svg="http://www.w3.org/2000/svg">
  <defs
     id="defs20" />
  <sodipodi:namedview
     id="namedview18"
     pagecolor="#747575"
     bordercolor="#666666"
     borderopacity="1.0"
     inkscape:pageshadow="2"
     inkscape:pageopacity="0"
     inkscape:pagecheckerboard="true"
     showgrid="false"
     inkscape:zoom="8.8194444"
     inkscape:cx="17.404724"
     inkscape:cy="37.020472"
     inkscape:window-width="1920"
     inkscape:window-height="995"
     inkscape:window-x="0"
     inkscape:window-y="55"
     inkscape:window-maximized="1"
     inkscape:current-layer="line" />
  <g
     id="line">
    <path
       fill="none"
       stroke="#000000"
       stroke-linecap="round"
       stroke-linejoin="round"
       stroke-miterlimit="10"
       stroke-width="2"
       d="M44.7693,14.7308c-0.3678-0.1518-0.7405-0.2944-1.1176-0.4274C41.258,13.4592,38.6826,13,36,13c-12.7031,0-23,10.2969-23,23 c0,12.7022,10.2969,23,23,23c12.7022,0,23-10.2978,23-23c0-2.8236-0.5088-5.5284-1.4397-8.0276"
       id="path2" />
    <circle
       cx="36"
       cy="48.1435"
       r="3.4042"
       fill="none"
       stroke="#000000"
       stroke-linecap="round"
       stroke-linejoin="round"
       stroke-miterlimit="10"
       stroke-width="2"
       id="circle4" />
    <path
       fill="none"
       stroke="#000000"
       stroke-linecap="round"
       stroke-linejoin="round"
       stroke-miterlimit="10"
       stroke-width="2"
       d="M50.1652,32.8593c-3.1758,2.3436-7.4563,2.061-10,0"
       id="path6" />
    <path
       fill="none"
       stroke="#000000"
       stroke-linecap="round"
       stroke-linejoin="round"
       stroke-miterlimit="10"
       stroke-width="2"
       d="M31.8348,32.8593c-3.1758,2.3436-7.4563,2.061-10,0"
       id="path8" />
    <path
       d="M44.8748,24.0258h-2.6162c-0.3564,0-0.6855-0.1899-0.8652-0.498c-0.1787-0.3086-0.1797-0.6885-0.0029-0.998l1.7607-3.082 h-0.8926c-0.5527,0-1-0.4478-1-1s0.4473-1,1-1h2.6162c0.3564,0,0.6855,0.1899,0.8652,0.498 c0.1787,0.3086,0.1797,0.6885,0.0029,0.998l-1.7607,3.082h0.8926c0.5527,0,1,0.4478,1,1S45.4275,24.0258,44.8748,24.0258z"
       id="path10" />
    <path
       d="M51.0184,20.0258h-3.7598c-0.3564,0-0.6855-0.1899-0.8652-0.498c-0.1787-0.3086-0.1797-0.6885-0.0029-0.998l2.9043-5.082 h-2.0361c-0.5527,0-1-0.4478-1-1s0.4473-1,1-1h3.7598c0.3564,0,0.6855,0.1899,0.8652,0.498 c0.1787,0.3086,0.1797,0.6885,0.0029,0.998l-2.9044,5.082h2.0361c0.5527,0,1,0.4478,1,1S51.5711,20.0258,51.0184,20.0258z"
       id="path12" />
    <path
       d="M59.1609,25.0258h-4.9023c-0.3564,0-0.6855-0.1899-0.8652-0.498c-0.1787-0.3086-0.1797-0.6885-0.0029-0.998l4.0469-7.082 h-3.1787c-0.5527,0-1-0.4478-1-1s0.4473-1,1-1h4.9023c0.3564,0,0.6855,0.1899,0.8652,0.498 c0.1787,0.3086,0.1797,0.6885,0.0029,0.998l-4.0469,7.082h3.1787c0.5527,0,1,0.4478,1,1S59.7137,25.0258,59.1609,25.0258z"
       id="path14" />
    <path
       style="fill:#ffffff;fill-opacity:1;stroke:#fffffe;stroke-width:0.113386;stroke-opacity:1"
       d="m 24.944882,35.268289 c -1.671791,-0.357742 -3.569813,-1.328197 -3.91923,-2.003895 -0.23499,-0.454422 -0.20374,-0.642333 0.168776,-1.014848 0.433334,-0.433334 0.734784,-0.418055 1.486561,0.07535 1.319922,0.866284 2.486213,1.203078 4.131857,1.193171 1.615775,-0.0097 2.900062,-0.391071 4.264797,-1.266346 0.643151,-0.412487 1.005111,-0.421505 1.391935,-0.03468 0.435291,0.435291 0.399432,0.883444 -0.109062,1.363016 -0.482247,0.454817 -2.201297,1.308437 -3.163666,1.570965 -0.936421,0.25545 -3.301417,0.320677 -4.251968,0.117271 z"
       id="path1493" />
    <path
       style="fill:#ffffff;fill-opacity:1;stroke:#fffffe;stroke-width:0.113386;stroke-opacity:1"
       d="m 41.679883,23.725984 c -0.53856,-0.481217 -0.495697,-0.678145 0.549115,-2.522834 l 0.963308,-1.700788 -0.594229,-0.06738 c -0.326827,-0.03706 -0.702406,-0.125273 -0.834621,-0.196032 -0.314141,-0.168123 -0.513577,-0.73965 -0.380367,-1.09002 0.209222,-0.550294 0.492928,-0.630822 2.222434,-0.630822 1.543655,0 1.613291,0.01018 1.90233,0.278051 0.183267,0.169847 0.300021,0.398505 0.300021,0.587583 0,0.17776 -0.386161,0.991864 -0.907087,1.912319 -0.498897,0.881533 -0.907086,1.637592 -0.907086,1.680133 0,0.04254 0.259043,0.07735 0.575651,0.07735 0.485065,0 0.627807,0.05216 0.907087,0.331436 0.430071,0.430071 0.430071,0.834616 0,1.264688 l -0.331436,0.331435 h -1.589801 c -1.488493,0 -1.607995,-0.01626 -1.875319,-0.255118 z"
       id="path1532" />
    <path
       style="fill:#ffffff;fill-opacity:1;stroke:#fffffe;stroke-width:0.113386;stroke-opacity:1"
       d="m 46.860644,19.848844 c -0.363785,-0.161792 -0.567264,-0.566868 -0.501675,-0.998711 0.0166,-0.109277 0.690257,-1.352122 1.497021,-2.761877 0.806765,-1.409755 1.466845,-2.583181 1.466845,-2.607613 0,-0.02443 -0.460852,-0.04442 -1.024115,-0.04442 -1.224825,0 -1.729936,-0.172599 -1.895567,-0.647728 -0.140084,-0.401845 0.06096,-0.971515 0.408512,-1.157517 0.140615,-0.07525 1.062247,-0.122314 2.395484,-0.122314 2.149519,0 2.169176,0.0022 2.445249,0.278311 0.169153,0.169154 0.278311,0.408934 0.278311,0.611351 0,0.219297 -0.503425,1.212735 -1.474016,2.908764 -0.810709,1.416647 -1.474016,2.621224 -1.474016,2.676837 0,0.05561 0.538068,0.101115 1.195705,0.101115 1.118333,0 1.213714,0.01801 1.474016,0.278311 0.381795,0.381795 0.37575,0.951156 -0.01399,1.317673 -0.28466,0.267697 -0.346159,0.275602 -2.352756,0.302419 -1.588737,0.02123 -2.143915,-0.0096 -2.425008,-0.134598 z"
       id="path1571" />
    <path
       style="fill:#ffffff;fill-opacity:1;stroke:#fffffe;stroke-width:0.113386;stroke-opacity:1"
       d="m 53.971654,24.924051 c -0.315927,-0.121581 -0.553708,-0.397858 -0.626102,-0.727466 -0.06161,-0.280486 0.232758,-0.860951 2.034518,-4.011949 1.158599,-2.026209 2.106544,-3.7102 2.106544,-3.742201 0,-0.032 -0.794791,-0.05818 -1.766202,-0.05818 H 53.95421 l -0.331436,-0.331436 c -0.357824,-0.357824 -0.392782,-0.51292 -0.218771,-0.970604 0.215388,-0.566514 0.651334,-0.640858 3.536056,-0.603024 l 2.607522,0.0342 0.273454,0.318134 c 0.150399,0.174973 0.273453,0.443651 0.273453,0.597062 0,0.154087 -0.935765,1.914786 -2.090728,3.933835 l -2.090729,3.654906 1.817418,0.05669 1.817418,0.05669 0.27331,0.318134 c 0.346848,0.40373 0.3468,0.774278 -1.47e-4,1.177905 l -0.273468,0.318134 -2.702915,0.02231 c -1.486603,0.01227 -2.77945,-0.0071 -2.872993,-0.04314 z"
       id="path1610" />
    <path
       style="fill:#ffffff;fill-opacity:1;stroke:#fffffe;stroke-width:0.113386;stroke-opacity:1"
       d="m 43.2,35.25686 c -2.022271,-0.434037 -3.968504,-1.611654 -3.968504,-2.401243 0,-0.43106 0.485189,-0.938429 0.894202,-0.935081 0.162992,0.0013 0.644668,0.228082 1.07039,0.503883 1.364305,0.883855 2.839235,1.218574 4.668479,1.059461 1.204314,-0.104755 2.197922,-0.427586 3.231496,-1.049937 0.467717,-0.281629 0.969122,-0.512903 1.114234,-0.513943 0.314704,-0.0023 0.928377,0.575127 0.922692,0.868128 -0.01167,0.601674 -1.021482,1.387038 -2.539672,1.975188 C 46.898458,35.419907 44.838126,35.608448 43.2,35.25686 Z"
       id="path1664" />
    <path
       style="fill:#ffffff;fill-opacity:1;stroke:#fffffe;stroke-width:0.113386;stroke-opacity:1"
       d="m 34.423149,52.16558 c -0.816685,-0.342293 -1.349951,-0.759079 -1.909332,-1.492285 -0.592207,-0.776231 -0.8207,-1.502554 -0.82002,-2.606642 5.1e-4,-0.829782 0.04069,-0.997217 0.426783,-1.77842 0.485133,-0.981602 1.114328,-1.60683 2.108203,-2.094916 0.566875,-0.278388 0.762748,-0.313002 1.771217,-0.313002 1.008469,0 1.204342,0.03461 1.771217,0.313002 1.414296,0.694552 2.401406,2.06553 2.55159,3.543858 0.180074,1.772535 -0.870317,3.561949 -2.551719,4.347033 -0.939382,0.438618 -2.410277,0.474368 -3.347939,0.08137 z m 2.797993,-1.902832 c 0.258266,-0.142779 0.624912,-0.480844 0.814768,-0.751255 0.306789,-0.436959 0.345192,-0.582025 0.345192,-1.303937 0,-0.988291 -0.245613,-1.551696 -0.875307,-2.007844 -1.160515,-0.840673 -2.809865,-0.561748 -3.582719,0.605881 -0.263361,0.397886 -0.304178,0.575838 -0.304178,1.326127 0,0.755281 0.04002,0.927108 0.311597,1.337902 0.727695,1.100722 2.125038,1.437516 3.290647,0.793126 z"
       id="path1703" />
    <path
       style="fill:#ffffff;fill-opacity:1;stroke:#fffffe;stroke-width:0.113386;stroke-opacity:1"
       d="M 33.788976,59.856074 C 30.242507,59.438193 27.446847,58.574448 24.548031,57.001 22.402087,55.836203 20.673709,54.508472 18.814087,52.596214 15.26533,48.947013 13.077054,44.499256 12.29449,39.344882 c -0.255129,-1.680413 -0.255374,-5.006601 -4.93e-4,-6.689764 0.675892,-4.463397 2.526695,-8.634104 5.283218,-11.905512 3.777716,-4.483347 8.621699,-7.295877 14.397588,-8.359574 1.762825,-0.324645 6.033638,-0.353182 7.766929,-0.0519 2.35384,0.409149 5.291099,1.337727 5.733482,1.812569 0.1206,0.12945 0.219274,0.371932 0.219274,0.53885 0,0.347667 -0.357997,0.855391 -0.673817,0.955628 -0.120547,0.03826 -0.879129,-0.157473 -1.733361,-0.447251 -2.880921,-0.977284 -4.723974,-1.246389 -7.990741,-1.166734 -2.609936,0.06364 -3.894088,0.279405 -6.213104,1.043935 -12.68157,4.180842 -18.753785,18.618087 -12.878309,30.619356 2.867603,5.857378 8.079107,10.082818 14.409017,11.682701 1.78762,0.451821 3.246421,0.619661 5.385827,0.619661 2.139406,0 3.598207,-0.16784 5.385827,-0.619661 12.371203,-3.126818 19.509565,-16.042144 15.581807,-28.191915 -0.426205,-1.318384 -0.41366,-1.613002 0.08351,-1.961234 0.513775,-0.359861 1.045155,-0.188279 1.369156,0.442102 0.288687,0.561677 0.872124,2.640003 1.108175,3.947561 1.230639,6.816881 -0.38642,13.467014 -4.637037,19.069762 -0.698256,0.920372 -2.599946,2.87162 -3.641043,3.735929 -3.220662,2.67376 -6.994135,4.416938 -11.20042,5.174099 -0.98746,0.177749 -1.911133,0.248188 -3.596431,0.27426 -1.247244,0.01929 -2.446299,0.01404 -2.664567,-0.01168 z"
       id="path1742" />
  </g>
</svg>
